G04*
G04 #@! TF.GenerationSoftware,Altium Limited,Altium Designer,23.10.1 (27)*
G04*
G04 Layer_Color=65280*
%FSLAX25Y25*%
%MOIN*%
G70*
G04*
G04 #@! TF.SameCoordinates,DA4A125E-CBA8-4458-A183-B31C0A0B716D*
G04*
G04*
G04 #@! TF.FilePolarity,Positive*
G04*
G01*
G75*
%ADD12C,0.00394*%
%ADD134C,0.00197*%
D12*
X184728Y237953D02*
X244571D01*
Y164724D02*
Y237953D01*
X184728Y164724D02*
X244571D01*
X184728D02*
Y237953D01*
D134*
X108012Y141171D02*
Y156329D01*
X121988D01*
Y141171D02*
Y156329D01*
X108012Y141171D02*
X121988D01*
X124778Y78085D02*
Y82415D01*
X115722D02*
X124778D01*
X115722Y78085D02*
Y82415D01*
Y78085D02*
X124778D01*
X46163Y64089D02*
X60337D01*
Y81411D01*
X46163D02*
X60337D01*
X46163Y64089D02*
Y81411D01*
X267335Y165222D02*
Y174278D01*
X271665D01*
Y165222D02*
Y174278D01*
X267335Y165222D02*
X271665D01*
X87230Y45244D02*
Y75756D01*
X72270Y45244D02*
X87230D01*
X72270D02*
Y75756D01*
X87230D01*
X251222Y167415D02*
X260278D01*
Y163085D02*
Y167415D01*
X251222Y163085D02*
X260278D01*
X251222D02*
Y167415D01*
X18262Y166018D02*
X32238D01*
X18262Y149482D02*
Y166018D01*
Y149482D02*
X32238D01*
Y166018D01*
X134034Y62513D02*
Y76883D01*
X144466D01*
Y62513D02*
Y76883D01*
X134034Y62513D02*
X144466D01*
X134585Y46722D02*
Y55778D01*
X138915D01*
Y46722D02*
Y55778D01*
X134585Y46722D02*
X138915D01*
X103533Y62315D02*
Y76685D01*
X113967D01*
Y62315D02*
Y76685D01*
X103533Y62315D02*
X113967D01*
X88222Y72165D02*
X97278D01*
Y67835D02*
Y72165D01*
X88222Y67835D02*
X97278D01*
X88222D02*
Y72165D01*
X167030Y155971D02*
Y178530D01*
X154471D02*
X167030D01*
X154471Y155971D02*
Y178530D01*
Y155971D02*
X167030D01*
X270739Y81660D02*
X287274D01*
Y67487D02*
Y81660D01*
X270739Y67487D02*
X287274D01*
X270739D02*
Y81660D01*
X194595Y118925D02*
Y142075D01*
Y118925D02*
X231405D01*
Y142075D01*
X194595D02*
X231405D01*
M02*
