G04*
G04 #@! TF.GenerationSoftware,Altium Limited,Altium Designer,23.10.1 (27)*
G04*
G04 Layer_Color=16711935*
%FSLAX25Y25*%
%MOIN*%
G70*
G04*
G04 #@! TF.SameCoordinates,0AE130B3-391A-4A1A-B228-0B81C7984BB1*
G04*
G04*
G04 #@! TF.FilePolarity,Positive*
G04*
G01*
G75*
%ADD10C,0.00787*%
%ADD12C,0.00394*%
%ADD13C,0.00500*%
%ADD14C,0.00000*%
%ADD125C,0.00512*%
%ADD126C,0.00039*%
%ADD127C,0.00400*%
%ADD128C,0.00100*%
%ADD129C,0.00800*%
G36*
X60447Y108110D02*
X58481D01*
Y111854D01*
X60447D01*
Y108110D01*
D02*
G37*
G36*
X17169Y98899D02*
X15198D01*
Y102640D01*
X17169D01*
Y98899D01*
D02*
G37*
G36*
X21769Y98896D02*
X19803D01*
Y102640D01*
X21769D01*
Y98896D01*
D02*
G37*
G36*
X55169Y56149D02*
X53198D01*
Y59890D01*
X55169D01*
Y56149D01*
D02*
G37*
G36*
X59769Y56146D02*
X57803D01*
Y59890D01*
X59769D01*
Y56146D01*
D02*
G37*
G36*
X53604Y27803D02*
X49860D01*
Y29769D01*
X53604D01*
Y27803D01*
D02*
G37*
G36*
X53601Y23198D02*
X49860D01*
Y25169D01*
X53601D01*
Y23198D01*
D02*
G37*
G36*
X65052Y108110D02*
X63081D01*
Y111851D01*
X65052D01*
Y108110D01*
D02*
G37*
G36*
X112549Y103565D02*
X99951D01*
Y107108D01*
X104281D01*
X104285Y107006D01*
X104293Y106904D01*
X104305Y106801D01*
X104325Y106699D01*
X104348Y106600D01*
X104376Y106498D01*
X104411Y106404D01*
X104451Y106309D01*
X104494Y106215D01*
X104545Y106124D01*
X104600Y106037D01*
X104656Y105951D01*
X104718Y105868D01*
X104785Y105789D01*
X104856Y105715D01*
X104931Y105644D01*
X105010Y105577D01*
X105093Y105514D01*
X105179Y105459D01*
X105266Y105403D01*
X105356Y105352D01*
X105451Y105309D01*
X105545Y105270D01*
X105640Y105234D01*
X105742Y105207D01*
X105841Y105183D01*
X105943Y105163D01*
X106045Y105152D01*
X106148Y105144D01*
X106250Y105140D01*
X106352Y105144D01*
X106455Y105152D01*
X106557Y105163D01*
X106659Y105183D01*
X106758Y105207D01*
X106860Y105234D01*
X106955Y105270D01*
X107049Y105309D01*
X107144Y105352D01*
X107234Y105403D01*
X107321Y105459D01*
X107407Y105514D01*
X107490Y105577D01*
X107569Y105644D01*
X107644Y105715D01*
X107715Y105789D01*
X107782Y105868D01*
X107844Y105951D01*
X107900Y106037D01*
X107955Y106124D01*
X108006Y106215D01*
X108049Y106309D01*
X108089Y106404D01*
X108124Y106498D01*
X108152Y106600D01*
X108175Y106699D01*
X108195Y106801D01*
X108207Y106904D01*
X108215Y107006D01*
X108219Y107108D01*
X112549D01*
Y103565D01*
D02*
G37*
G36*
Y88998D02*
X108219D01*
X108215Y89100D01*
X108207Y89203D01*
X108195Y89305D01*
X108175Y89407D01*
X108152Y89506D01*
X108124Y89608D01*
X108089Y89703D01*
X108049Y89797D01*
X108006Y89892D01*
X107955Y89982D01*
X107900Y90069D01*
X107844Y90156D01*
X107782Y90238D01*
X107715Y90317D01*
X107644Y90392D01*
X107569Y90463D01*
X107490Y90530D01*
X107407Y90592D01*
X107321Y90648D01*
X107234Y90703D01*
X107144Y90754D01*
X107049Y90797D01*
X106955Y90837D01*
X106860Y90872D01*
X106758Y90900D01*
X106659Y90923D01*
X106557Y90943D01*
X106455Y90955D01*
X106352Y90963D01*
X106250Y90966D01*
X106148Y90963D01*
X106045Y90955D01*
X105943Y90943D01*
X105841Y90923D01*
X105742Y90900D01*
X105640Y90872D01*
X105545Y90837D01*
X105451Y90797D01*
X105356Y90754D01*
X105266Y90703D01*
X105179Y90648D01*
X105093Y90592D01*
X105010Y90530D01*
X104931Y90463D01*
X104856Y90392D01*
X104785Y90317D01*
X104718Y90238D01*
X104656Y90156D01*
X104600Y90069D01*
X104545Y89982D01*
X104494Y89892D01*
X104451Y89797D01*
X104411Y89703D01*
X104376Y89608D01*
X104348Y89506D01*
X104325Y89407D01*
X104305Y89305D01*
X104293Y89203D01*
X104285Y89100D01*
X104281Y88998D01*
X99951D01*
Y92935D01*
X112549D01*
Y88998D01*
D02*
G37*
G36*
X138697Y57308D02*
X136731D01*
Y61052D01*
X138697D01*
Y57308D01*
D02*
G37*
G36*
X112802Y56110D02*
X110831D01*
Y59851D01*
X112802D01*
Y56110D01*
D02*
G37*
G36*
X108197D02*
X106231D01*
Y59854D01*
X108197D01*
Y56110D01*
D02*
G37*
G36*
X74919Y35149D02*
X72948D01*
Y38890D01*
X74919D01*
Y35149D01*
D02*
G37*
G36*
X79519Y35146D02*
X77553D01*
Y38890D01*
X79519D01*
Y35146D01*
D02*
G37*
G36*
X48351Y135169D02*
Y133198D01*
X44610D01*
Y135169D01*
X48351D01*
D02*
G37*
G36*
X48354Y139769D02*
Y137803D01*
X44610D01*
Y139769D01*
X48354D01*
D02*
G37*
G36*
X39396Y156481D02*
Y158447D01*
X43140D01*
Y156481D01*
X39396D01*
D02*
G37*
G36*
X39399Y161081D02*
Y163052D01*
X43140D01*
Y161081D01*
X39399D01*
D02*
G37*
G36*
X77351Y129669D02*
Y127698D01*
X73610D01*
Y129669D01*
X77351D01*
D02*
G37*
G36*
X77354Y134269D02*
Y132303D01*
X73610D01*
Y134269D01*
X77354D01*
D02*
G37*
G36*
X99200Y146669D02*
Y144698D01*
X95459D01*
Y146669D01*
X99200D01*
D02*
G37*
G36*
X99203Y151269D02*
Y149303D01*
X95459D01*
Y151269D01*
X99203D01*
D02*
G37*
G36*
X134419Y192649D02*
X132448D01*
Y196390D01*
X134419D01*
Y192649D01*
D02*
G37*
G36*
X139019Y192646D02*
X137053D01*
Y196390D01*
X139019D01*
Y192646D01*
D02*
G37*
G36*
X134390Y149331D02*
X130649D01*
Y151302D01*
X134390D01*
Y149331D01*
D02*
G37*
G36*
X127890D02*
X124149D01*
Y151302D01*
X127890D01*
Y149331D01*
D02*
G37*
G36*
X105703Y149303D02*
X101959D01*
Y151269D01*
X105703D01*
Y149303D01*
D02*
G37*
G36*
X134390Y144731D02*
X130646D01*
Y146697D01*
X134390D01*
Y144731D01*
D02*
G37*
G36*
X127890D02*
X124146D01*
Y146697D01*
X127890D01*
Y144731D01*
D02*
G37*
G36*
X105700Y144698D02*
X101959D01*
Y146669D01*
X105700D01*
Y144698D01*
D02*
G37*
G36*
X181854Y180553D02*
X178110D01*
Y182519D01*
X181854D01*
Y180553D01*
D02*
G37*
G36*
X181851Y175948D02*
X178110D01*
Y177919D01*
X181851D01*
Y175948D01*
D02*
G37*
G36*
X160900Y123054D02*
X159099D01*
Y125350D01*
X160900D01*
Y123054D01*
D02*
G37*
G36*
X164600Y115145D02*
X162803D01*
Y117450D01*
X164600D01*
Y115145D01*
D02*
G37*
G36*
X157200Y115142D02*
X155393D01*
Y117450D01*
X157200D01*
Y115142D01*
D02*
G37*
G36*
X183538Y90381D02*
X181572D01*
Y94125D01*
X183538D01*
Y90381D01*
D02*
G37*
G36*
Y83381D02*
X181572D01*
Y87125D01*
X183538D01*
Y83381D01*
D02*
G37*
G36*
X143302Y57308D02*
X141331D01*
Y61049D01*
X143302D01*
Y57308D01*
D02*
G37*
G36*
X178302Y227610D02*
X176331D01*
Y231351D01*
X178302D01*
Y227610D01*
D02*
G37*
G36*
X173697D02*
X171731D01*
Y231354D01*
X173697D01*
Y227610D01*
D02*
G37*
G36*
X181896Y194635D02*
X178152D01*
Y196601D01*
X181896D01*
Y194635D01*
D02*
G37*
G36*
X175646D02*
X171902D01*
Y196601D01*
X175646D01*
Y194635D01*
D02*
G37*
G36*
X169396D02*
X165652D01*
Y196601D01*
X169396D01*
Y194635D01*
D02*
G37*
G36*
X181893Y190030D02*
X178152D01*
Y192001D01*
X181893D01*
Y190030D01*
D02*
G37*
G36*
X175643D02*
X171902D01*
Y192001D01*
X175643D01*
Y190030D01*
D02*
G37*
G36*
X169393D02*
X165652D01*
Y192001D01*
X169393D01*
Y190030D01*
D02*
G37*
G36*
X186172Y87123D02*
X188142D01*
Y83381D01*
X186172D01*
Y87123D01*
D02*
G37*
G36*
Y94123D02*
X188142D01*
Y90381D01*
X186172D01*
Y94123D01*
D02*
G37*
G36*
X262186Y73732D02*
Y71762D01*
X258445D01*
Y73732D01*
X262186D01*
D02*
G37*
G36*
X262189Y78332D02*
Y76366D01*
X258445D01*
Y78332D01*
X262189D01*
D02*
G37*
G36*
X267731Y59604D02*
X269697D01*
Y55860D01*
X267731D01*
Y59604D01*
D02*
G37*
G36*
X272331Y59601D02*
X274302D01*
Y55860D01*
X272331D01*
Y59601D01*
D02*
G37*
G36*
X268936Y73732D02*
Y71762D01*
X265195D01*
Y73732D01*
X268936D01*
D02*
G37*
G36*
X268939Y78332D02*
Y76366D01*
X265195D01*
Y78332D01*
X268939D01*
D02*
G37*
G36*
X282552Y164110D02*
X280581D01*
Y167851D01*
X282552D01*
Y164110D01*
D02*
G37*
G36*
X277947D02*
X275981D01*
Y167854D01*
X277947D01*
Y164110D01*
D02*
G37*
G36*
X282552Y157610D02*
X280581D01*
Y161351D01*
X282552D01*
Y157610D01*
D02*
G37*
G36*
X277947D02*
X275981D01*
Y161354D01*
X277947D01*
Y157610D01*
D02*
G37*
G36*
X282552Y151110D02*
X280581D01*
Y154851D01*
X282552D01*
Y151110D01*
D02*
G37*
G36*
X277947D02*
X275981D01*
Y154854D01*
X277947D01*
Y151110D01*
D02*
G37*
G36*
X242052Y136610D02*
X240081D01*
Y140351D01*
X242052D01*
Y136610D01*
D02*
G37*
G36*
X237447D02*
X235481D01*
Y140354D01*
X237447D01*
Y136610D01*
D02*
G37*
D10*
X80144Y12000D02*
G03*
X80144Y12000I-394J0D01*
G01*
X34106Y65092D02*
G03*
X34106Y65092I-394J0D01*
G01*
X358134Y145585D02*
G03*
X358134Y145585I-29134J0D01*
G01*
X113394Y172677D02*
G03*
X113394Y172677I-394J0D01*
G01*
X72644D02*
G03*
X72644Y172677I-394J0D01*
G01*
X261531Y163228D02*
G03*
X261531Y163228I-394J0D01*
G01*
X344327Y44691D02*
G03*
X344327Y44691I-394J0D01*
G01*
X59689Y178500D02*
G03*
X59689Y178500I-394J0D01*
G01*
X302102Y112880D02*
Y119502D01*
X316020D01*
X341874D02*
X355898D01*
Y112880D02*
Y119502D01*
X302102Y112880D02*
X355898D01*
X27789Y86404D02*
X32711D01*
X27789D02*
Y93097D01*
X32711D01*
Y86404D02*
Y93097D01*
X50539Y52096D02*
X55461D01*
Y45404D02*
Y52096D01*
X50539Y45404D02*
X55461D01*
X50539D02*
Y52096D01*
D12*
X252500Y109750D02*
X294000D01*
Y120750D01*
X252500D02*
X294000D01*
X252500Y109750D02*
Y120750D01*
D13*
X104281Y107108D02*
G03*
X108219Y107108I1969J0D01*
G01*
Y88998D02*
G03*
X104281Y88998I-1969J0D01*
G01*
X32707Y126728D02*
Y130272D01*
X39793Y126728D02*
Y130272D01*
X32707D02*
X39793D01*
X32707Y126728D02*
X39793D01*
X32707Y120978D02*
Y124522D01*
X39793Y120978D02*
Y124522D01*
X32707D02*
X39793D01*
X32707Y120978D02*
X39793D01*
X61876Y12461D02*
Y32539D01*
X77624Y12461D02*
Y32539D01*
X61876D02*
X77624D01*
X61876Y12461D02*
X77624D01*
X8614Y45604D02*
X31252D01*
X8614D02*
Y74738D01*
X31252D01*
Y45604D02*
Y74738D01*
X105402Y49728D02*
X112488D01*
X105402Y53272D02*
X112488D01*
Y49728D02*
Y53272D01*
X105402Y49728D02*
Y53272D01*
X126386Y175827D02*
Y224646D01*
X103748Y175827D02*
X126386D01*
X103748D02*
Y224646D01*
X126386D01*
X51157Y121323D02*
X70842D01*
Y136677D01*
X51157D02*
X70842D01*
X51157Y121323D02*
Y136677D01*
X287207Y101228D02*
X294293D01*
X287207Y104772D02*
X294293D01*
Y101228D02*
Y104772D01*
X287207Y101228D02*
Y104772D01*
X273207D02*
X280293D01*
X273207Y101228D02*
X280293D01*
X273207D02*
Y104772D01*
X280293Y101228D02*
Y104772D01*
X85636Y175827D02*
Y224646D01*
X62998Y175827D02*
X85636D01*
X62998D02*
Y224646D01*
X85636D01*
X112549Y102581D02*
Y107108D01*
Y88998D02*
Y93919D01*
X108219Y88998D02*
X112549D01*
X99951D02*
X104281D01*
X99951D02*
Y93919D01*
Y102581D02*
Y107108D01*
X104281D01*
X108219D02*
X112549D01*
X131943Y96957D02*
Y104043D01*
X118557Y96957D02*
Y104043D01*
Y96957D02*
X131943D01*
X118557Y104043D02*
X131943D01*
Y86707D02*
Y93793D01*
X118557Y86707D02*
Y93793D01*
Y86707D02*
X131943D01*
X118557Y93793D02*
X131943D01*
X105914Y78420D02*
X113001D01*
X105914Y81963D02*
X113001D01*
Y78420D02*
Y81963D01*
X105914Y78420D02*
Y81963D01*
X116957Y63228D02*
X124043D01*
X116957Y66772D02*
X124043D01*
Y63228D02*
Y66772D01*
X116957Y63228D02*
Y66772D01*
X176112Y85024D02*
Y92110D01*
X172569Y85024D02*
Y92110D01*
X176112D01*
X172569Y85024D02*
X176112D01*
X171457Y221478D02*
X178543D01*
X171457Y225022D02*
X178543D01*
Y221478D02*
Y225022D01*
X171457Y221478D02*
Y225022D01*
X131457Y176478D02*
Y180022D01*
X138543Y176478D02*
Y180022D01*
X131457D02*
X138543D01*
X131457Y176478D02*
X138543D01*
X70728Y168543D02*
X74272D01*
X70728Y161457D02*
X74272D01*
Y168543D01*
X70728Y161457D02*
Y168543D01*
X148728Y115707D02*
X152272D01*
X148728Y122793D02*
X152272D01*
X148728Y115707D02*
Y122793D01*
X152272Y115707D02*
Y122793D01*
X132978Y31043D02*
X136522D01*
X132978Y23957D02*
X136522D01*
Y31043D01*
X132978Y23957D02*
Y31043D01*
X111228Y30793D02*
X114772D01*
X111228Y23707D02*
X114772D01*
Y30793D01*
X111228Y23707D02*
Y30793D01*
X94043Y9728D02*
Y13272D01*
X86957Y9728D02*
Y13272D01*
Y9728D02*
X94043D01*
X86957Y13272D02*
X94043D01*
X244728Y78957D02*
X248272D01*
X244728Y86043D02*
X248272D01*
X244728Y78957D02*
Y86043D01*
X248272Y78957D02*
Y86043D01*
X237478D02*
X241022D01*
X237478Y78957D02*
X241022D01*
Y86043D01*
X237478Y78957D02*
Y86043D01*
X228728Y54793D02*
X232272D01*
X228728Y47707D02*
X232272D01*
Y54793D01*
X228728Y47707D02*
Y54793D01*
X274503Y62210D02*
Y65753D01*
X267416Y62210D02*
Y65753D01*
Y62210D02*
X274503D01*
X267416Y65753D02*
X274503D01*
X261293Y49728D02*
Y53272D01*
X254207Y49728D02*
Y53272D01*
Y49728D02*
X261293D01*
X254207Y53272D02*
X261293D01*
X274339Y49728D02*
Y53272D01*
X267252Y49728D02*
Y53272D01*
Y49728D02*
X274339D01*
X267252Y53272D02*
X274339D01*
X289478Y135707D02*
X293022D01*
X289478Y142793D02*
X293022D01*
X289478Y135707D02*
Y142793D01*
X293022Y135707D02*
Y142793D01*
X258293Y157728D02*
Y161272D01*
X251207Y157728D02*
Y161272D01*
Y157728D02*
X258293D01*
X251207Y161272D02*
X258293D01*
X264185Y164028D02*
X270091D01*
X264185Y151429D02*
Y164028D01*
Y151429D02*
X270091D01*
Y164028D01*
X225478Y108707D02*
X229022D01*
X225478Y115793D02*
X229022D01*
X225478Y108707D02*
Y115793D01*
X229022Y108707D02*
Y115793D01*
X241793Y124978D02*
Y128522D01*
X234707Y124978D02*
Y128522D01*
Y124978D02*
X241793D01*
X234707Y128522D02*
X241793D01*
X189978Y122707D02*
X193522D01*
X189978Y129793D02*
X193522D01*
X189978Y122707D02*
Y129793D01*
X193522Y122707D02*
Y129793D01*
X234707Y130728D02*
Y134272D01*
X241793Y130728D02*
Y134272D01*
X234707D02*
X241793D01*
X234707Y130728D02*
X241793D01*
X191793Y136478D02*
Y140022D01*
X184707Y136478D02*
Y140022D01*
Y136478D02*
X191793D01*
X184707Y140022D02*
X191793D01*
X334681Y96659D02*
X357319D01*
X334681Y47841D02*
Y96659D01*
Y47841D02*
X357319D01*
Y96659D01*
X167728Y123293D02*
X171272D01*
X167728Y116207D02*
X171272D01*
Y123293D01*
X167728Y116207D02*
Y123293D01*
X29543Y77228D02*
Y80772D01*
X22457Y77228D02*
Y80772D01*
Y77228D02*
X29543D01*
X22457Y80772D02*
X29543D01*
X45543Y59228D02*
Y62772D01*
X38457Y59228D02*
Y62772D01*
Y59228D02*
X45543D01*
X38457Y62772D02*
X45543D01*
X61728Y67457D02*
X65272D01*
X61728Y74543D02*
X65272D01*
X61728Y67457D02*
Y74543D01*
X65272Y67457D02*
Y74543D01*
X173784Y123345D02*
X177327D01*
X173784Y116258D02*
X177327D01*
Y123345D01*
X173784Y116258D02*
Y123345D01*
X57406Y156494D02*
Y162006D01*
X45500D02*
X57406D01*
X45500Y156494D02*
X57406D01*
X45500D02*
Y162006D01*
X7327Y169248D02*
Y191886D01*
Y169248D02*
X56146D01*
Y191886D01*
X7327D02*
X56146D01*
X180742Y97228D02*
Y100772D01*
X187829Y97228D02*
Y100772D01*
X180742D02*
X187829D01*
X180742Y97228D02*
X187829D01*
X237502Y157728D02*
Y161272D01*
X244589Y157728D02*
Y161272D01*
X237502D02*
X244589D01*
X237502Y157728D02*
X244589D01*
X171978Y183043D02*
X175522D01*
X171978Y175957D02*
X175522D01*
Y183043D01*
X171978Y175957D02*
Y183043D01*
X366000Y0D02*
X366142D01*
D14*
X241250Y56500D02*
G03*
X241250Y56500I-500J0D01*
G01*
X248250Y69500D02*
G03*
X248250Y69500I-500J0D01*
G01*
X21000Y85000D02*
G03*
X21000Y85000I-500J0D01*
G01*
X44250Y45750D02*
G03*
X44250Y45750I-500J0D01*
G01*
D125*
X29632Y133919D02*
X32388Y132344D01*
X29632Y130770D02*
X32388Y132344D01*
X29632Y130770D02*
Y133919D01*
X9258Y142974D02*
X26778D01*
X9258Y111478D02*
Y142974D01*
Y111478D02*
X26778D01*
Y142974D01*
D126*
X100406Y27500D02*
G03*
X100406Y27500I-5906J0D01*
G01*
X277559Y27559D02*
G03*
X277559Y27559I-5906J0D01*
G01*
Y212598D02*
G03*
X277559Y212598I-5906J0D01*
G01*
X100394D02*
G03*
X100394Y212598I-5906J0D01*
G01*
D127*
X134201Y146598D02*
Y149402D01*
X130850Y146598D02*
Y149402D01*
X127701Y146598D02*
Y149402D01*
X124350Y146598D02*
Y149402D01*
X95648Y146598D02*
Y149402D01*
X98998Y146598D02*
Y149402D01*
X102148Y146598D02*
Y149402D01*
X105498Y146598D02*
Y149402D01*
X173598Y231150D02*
X176402D01*
X173598Y227799D02*
X176402D01*
X178299Y177848D02*
Y180652D01*
X181650Y177848D02*
Y180652D01*
X55098Y59701D02*
X57902D01*
X55098Y56350D02*
X57902D01*
X111425Y10122D02*
Y12976D01*
X114575Y10122D02*
Y12878D01*
X44799Y135098D02*
Y137902D01*
X48150Y135098D02*
Y137902D01*
X60348Y108299D02*
X63152D01*
X60348Y111650D02*
X63152D01*
X138598Y57497D02*
X141402D01*
X138598Y60848D02*
X141402D01*
X108098Y56299D02*
X110902D01*
X108098Y59650D02*
X110902D01*
X265385Y73662D02*
Y76465D01*
X268735Y73662D02*
Y76465D01*
X258634Y73662D02*
Y76465D01*
X261985Y73662D02*
Y76465D01*
X183439Y90571D02*
X186242D01*
X183439Y93921D02*
X186242D01*
X183439Y83571D02*
X186242D01*
X183439Y86921D02*
X186242D01*
X134348Y196201D02*
X137152D01*
X134348Y192850D02*
X137152D01*
X172092Y191930D02*
Y194734D01*
X175442Y191930D02*
Y194734D01*
X136325Y10122D02*
Y12878D01*
X133175Y10122D02*
Y12976D01*
X74848Y35350D02*
X77652D01*
X74848Y38701D02*
X77652D01*
X53400Y25098D02*
Y27902D01*
X50049Y25098D02*
Y27902D01*
X269598Y59400D02*
X272402D01*
X269598Y56049D02*
X272402D01*
X277848Y154650D02*
X280652D01*
X277848Y151299D02*
X280652D01*
X277848Y167650D02*
X280652D01*
X277848Y164299D02*
X280652D01*
X277848Y161150D02*
X280652D01*
X277848Y157799D02*
X280652D01*
X237348Y140150D02*
X240152D01*
X237348Y136799D02*
X240152D01*
X17098Y99100D02*
X19902D01*
X17098Y102451D02*
X19902D01*
X39600Y158348D02*
Y161152D01*
X42951Y158348D02*
Y161152D01*
X77150Y129598D02*
Y132402D01*
X73799Y129598D02*
Y132402D01*
X181692Y191930D02*
Y194734D01*
X178342Y191930D02*
Y194734D01*
X169192Y191930D02*
Y194734D01*
X165842Y191930D02*
Y194734D01*
D128*
X239750Y57500D02*
X245250D01*
Y45500D02*
Y57500D01*
X239750Y45500D02*
X245250D01*
X239750D02*
Y57500D01*
X245250Y52500D02*
X247700D01*
Y50500D02*
Y52500D01*
X245250Y50500D02*
X247700D01*
X245250D02*
Y52500D01*
X237300Y46760D02*
X239750D01*
X237300D02*
Y48760D01*
X239750D01*
Y46760D02*
Y48760D01*
X237300Y54240D02*
X239750D01*
X237300D02*
Y56240D01*
X239750D01*
Y54240D02*
Y56240D01*
X135450Y211900D02*
X140550D01*
Y222100D01*
X135450D02*
X140550D01*
X135450Y211900D02*
Y222100D01*
X130900Y205200D02*
X145100D01*
X130900D02*
Y228800D01*
X145100D01*
Y205200D02*
Y228800D01*
X141550Y205200D02*
X145100Y208750D01*
X130900D02*
X134450Y205200D01*
X136800Y228800D02*
Y232750D01*
X139200D01*
Y228800D02*
Y232750D01*
X136800Y228800D02*
X139200D01*
Y201250D02*
Y205200D01*
X136800Y201250D02*
X139200D01*
X136800D02*
Y205200D01*
X139200D01*
X153950Y221950D02*
X159050D01*
X153950Y211750D02*
Y221950D01*
Y211750D02*
X159050D01*
Y221950D01*
X149400Y228650D02*
X163600D01*
Y205050D02*
Y228650D01*
X149400Y205050D02*
X163600D01*
X149400D02*
Y228650D01*
Y225100D02*
X152950Y228650D01*
X160050D02*
X163600Y225100D01*
X157700Y201100D02*
Y205050D01*
X155300Y201100D02*
X157700D01*
X155300D02*
Y205050D01*
X157700D01*
X155300Y228650D02*
Y232600D01*
X157700D01*
Y228650D02*
Y232600D01*
X155300Y228650D02*
X157700D01*
X173291Y59572D02*
Y61972D01*
X169341D02*
X173291D01*
X169341Y59572D02*
Y61972D01*
Y59572D02*
X173291D01*
X196891D02*
Y61972D01*
Y59572D02*
X200841D01*
Y61972D01*
X196891D02*
X200841D01*
X173291Y64322D02*
X176841Y67872D01*
X173291Y57222D02*
X176841Y53672D01*
X173291D02*
X196891D01*
Y67872D01*
X173291D02*
X196891D01*
X173291Y53672D02*
Y67872D01*
X179991Y63322D02*
X190191D01*
Y58222D02*
Y63322D01*
X179991Y58222D02*
X190191D01*
X179991D02*
Y63322D01*
X245490Y70500D02*
X247490D01*
Y72950D01*
X245490D02*
X247490D01*
X245490Y70500D02*
Y72950D01*
X238010Y70500D02*
X240010D01*
Y72950D01*
X238010D02*
X240010D01*
X238010Y70500D02*
Y72950D01*
X241750Y65000D02*
X243750D01*
X241750Y62550D02*
Y65000D01*
Y62550D02*
X243750D01*
Y65000D01*
X236750Y70500D02*
X248750D01*
X236750Y65000D02*
Y70500D01*
Y65000D02*
X248750D01*
Y70500D01*
X21500Y85260D02*
Y87260D01*
Y85260D02*
X23950D01*
Y87260D01*
X21500D02*
X23950D01*
X21500Y92740D02*
Y94740D01*
Y92740D02*
X23950D01*
Y94740D01*
X21500D02*
X23950D01*
X16000Y89000D02*
Y91000D01*
X13550D02*
X16000D01*
X13550Y89000D02*
Y91000D01*
Y89000D02*
X16000D01*
X21500Y84000D02*
Y96000D01*
X16000D02*
X21500D01*
X16000Y84000D02*
Y96000D01*
Y84000D02*
X21500D01*
X44750Y46010D02*
Y48010D01*
Y46010D02*
X47200D01*
Y48010D01*
X44750D02*
X47200D01*
X44750Y53490D02*
Y55490D01*
Y53490D02*
X47200D01*
Y55490D01*
X44750D02*
X47200D01*
X39250Y49750D02*
Y51750D01*
X36800D02*
X39250D01*
X36800Y49750D02*
Y51750D01*
Y49750D02*
X39250D01*
X44750Y44750D02*
Y56750D01*
X39250D02*
X44750D01*
X39250Y44750D02*
Y56750D01*
Y44750D02*
X44750D01*
D129*
X165600Y117650D02*
Y122850D01*
X154400Y117650D02*
X165600D01*
X154400D02*
Y122850D01*
X165600D01*
M02*
