M48
;Layer_Color=9474304
;FILE_FORMAT=2:4
INCH,TZ
;TYPE=PLATED
T01F00S00C0.0118
T02F00S00C0.0138
T04F00S00C0.0394
T05F00S00C0.0453
T06F00S00C0.0512
;TYPE=NON_PLATED
T07F00S00C0.0413
T08F00S00C0.0512
%
T01
X6750Y1950
Y2225
Y2525
X7150
Y2225
Y1950
X8200Y1500
X9400Y1150
X12441Y1811
X11850Y2992
X13100Y3075
X14213Y2992
X15394
X16575
X17756
X18937
X20118
X20709Y4173
X19528
X18346
X17165
X15984
X14803
X13663Y4625
X13675Y4908
X15394Y5354
X16575
X17756
X18937
X20118
X20709Y1811
X19528
X18346
X17165
X15984
X14803
X6250Y3250
X6000
X5750
Y3525
X6250
X5945Y5354
X21299
X22480
X23071Y4173
X24252
X25433
X26614
X27795
X28976
X30157
X31339
X31929Y5354
X33110
X35472
X30748
X29567
X28386
Y2992
X29567
X30748
X31339Y1811
X30157
X28976
X27795
X26614
X25433
X24252
X23071
X21890
X22480Y2992
X23661
X24843
X26024
X21299
X21890Y4173
Y6535
X23071
X22480Y7717
X21299
X21890Y8898
X23071
X23661Y10079
X24843
X26024
X26614Y8898
X25433
Y6535
X27795
X28976
X30157
X31339
X33110Y7717
X35472
X34882Y8898
X35472Y10079
X34291
X33110
X31929
X30748
X31339Y11260
X30157
X30748Y12441
X29567
X28386
X27205
X26024
X24843
X25433Y13622
X26024Y14803
X24843
X23661
X23350Y16725
X21798Y16695
X21450Y16650
X21299Y14803
Y12441
X21890Y11260
X22480Y10079
X21299
X24252Y11260
X25175Y15925
X24843Y17165
X26024
X26614Y18346
X27795
X28976
X30157
X31339
X31929Y17165
X30748
X29567
X28386
X28976Y15984
X30157
X31339
X31929Y14803
X33110
X34291
X35472
X34882Y15984
X33701
X34291Y17165
X35472
X34882Y18346
X33701
X30748Y19528
X29567
X28386
X27205
X26024
X24843
X25433Y20709
X27795
X28976
X30157
X30748Y14803
X29567
X31339Y13622
X32520
X33701
X34882
X35472Y12441
X34291
X33110
X33701Y11260
X34882
Y6535
X27575Y15925
X25433Y18346
X24252
X18004Y18999
X17379
X16754
X15394Y17165
X14803Y15984
X13375Y15925
X13377Y15645
X13085Y15644
X13083Y15924
X12800Y15925
X12525
X12527Y15645
X12802
X12300Y14400
X11825Y13900
X11827Y13620
X11535Y13619
X11533Y13899
X11250Y13900
X10975
X10977Y13620
X11252
X10452Y13670
X10450Y13950
X10158Y13949
X10160Y13669
X9877Y13670
X9602
X9600Y13950
X9875
X8898Y13622
X7540Y13435
X7717Y11260
X8898
X9488Y12441
X10669
X11850
X13031
X13622Y13622
X14803
X15050Y12625
X16975Y12350
X16825Y13825
X18500Y13830
X17756Y14803
X18346Y15984
X17165
X20118Y14803
X20709Y11260
Y8898
X19528
X20118Y7717
X20709Y6535
X19528
X18346
X17165
X15984
X14803
X14675Y5925
X14350
X13925Y6850
Y7697
X13031Y7717
X13125Y8953
Y9247
Y9550
Y9850
Y10200
X14213Y10079
X15394
X16575
X17425Y9825
X18346Y11260
X15984Y8898
X16575Y7717
X15394
X13622Y8898
Y11260
X12441
X11260
X10669Y10079
X9488
X8307
X8898Y8898
X8425Y8300
Y7975
Y7650
X8025Y7625
Y7975
Y8300
X7600
Y7975
Y7650
X9488Y7717
X10875Y6200
X11300Y6125
X11305Y5796
X5750Y8325
X5748Y8605
X5945Y10079
X6500Y10300
X5945Y17165
X6535Y18346
X5945Y19528
X6535Y20709
X10079
X10725Y20800
Y20525
X11850Y19528
Y17165
X13031
X10669
X9488
X10079Y15984
X11260
X14213Y14803
X9488Y19528
X4764
X5354Y20709
X4173Y18346
X2992
X2525Y14925
X3583Y14803
X4173Y13708
X3075Y13450
X2992Y11260
X4173
X4764Y12441
X5350Y15375
X5600
Y15675
X5350
X5354Y8898
X5473Y8605
X5475Y8325
X5192Y8326
X5190Y8606
X4898Y8605
X4900Y8325
X4173Y8898
X2992
X3583Y7717
X4173Y6535
X1811Y11260
X5945Y21890
X8307
X10669
X11850
X13031
X14213
X16575
X24843
X26024
X28386
X29567
X30748
T02
X4551Y4701
X6000Y2500
X5825Y2000
X6000Y1500
X7950Y3025
X10900Y3050
X11625Y5150
X22525Y8575
X22720Y12297
X22625Y13300
X21400
X21300Y14350
X22675Y15325
X22700Y15775
X23025Y17575
X23375Y17800
X24200Y17125
X25350Y16825
X26475Y15598
X26750Y14925
X23125Y19075
Y19375
X22240Y19069
X22250Y18700
X22243Y18293
X21850Y18675
X21475
X21465Y18293
Y19071
X21475Y20650
X22400
X24175Y21000
X20525Y20650
X19800Y20625
Y20348
X19500
Y20625
X17692Y20046
X15300Y20250
X14750Y19625
X13910Y19450
X14500Y18425
X15650Y18275
X16575
X16900Y18025
X17375Y17600
X19575
X20075Y18450
X20687Y18293
X20675Y18700
X20687Y19071
X21075Y18700
X19950Y13825
X18825Y14250
X18850Y11775
X16950Y11650
X15983Y12458
X15850Y14200
X16550Y14900
X18075Y10475
X14212Y6512
X7125Y11850
X6875Y14675
X6175Y14650
X5843Y14669
X10625Y18725
X10550Y19075
X12850Y20025
X4550Y6100
X2925Y7350
X17847Y22925
T04
X2200Y5525
X34393Y5749
Y6733
Y7717
Y8701
X11300Y18547
Y19532
Y20516
X7225
Y19532
Y18547
X4650Y17850
X3666
X2682
X1697
X2200Y6509
X7225Y21500
X11300
T05
X25750Y11525
X26750
X27750
X28750
T06
X16075Y16225
Y17225
T07
X32900Y16025
T08
X32900Y13092
M30
