G04*
G04 #@! TF.GenerationSoftware,Altium Limited,Altium Designer,23.10.1 (27)*
G04*
G04 Layer_Color=16711935*
%FSLAX25Y25*%
%MOIN*%
G70*
G04*
G04 #@! TF.SameCoordinates,DA4A125E-CBA8-4458-A183-B31C0A0B716D*
G04*
G04*
G04 #@! TF.FilePolarity,Positive*
G04*
G01*
G75*
%ADD12C,0.00394*%
%ADD13C,0.00500*%
D12*
X45203Y20626D02*
G03*
X26502Y41295I-19685J984D01*
G01*
X320874Y219419D02*
G03*
X339576Y198750I19685J-984D01*
G01*
X341570Y41348D02*
G03*
X320901Y22647I-984J-19685D01*
G01*
X24606Y198818D02*
G03*
X45276Y217519I984J19685D01*
G01*
D13*
X45276Y3937D02*
Y22000D01*
X3937Y41339D02*
X26502D01*
X337750Y198819D02*
X362205D01*
X320866Y217000D02*
Y236221D01*
Y3937D02*
Y22647D01*
X338500Y41339D02*
X362205D01*
X45276Y217519D02*
Y236221D01*
X3937Y198818D02*
X27500D01*
X45276Y236221D02*
X186779D01*
X362205Y41339D02*
Y198819D01*
X240750Y236250D02*
X320866D01*
X188500Y232250D02*
Y236221D01*
X186779D02*
X188500D01*
X45276Y3937D02*
X320866D01*
X3937Y41339D02*
Y198819D01*
X188500Y213000D02*
Y232283D01*
X240750Y213000D02*
Y236250D01*
X188500Y213000D02*
X240750D01*
M02*
