G04*
G04 #@! TF.GenerationSoftware,Altium Limited,Altium Designer,23.10.1 (27)*
G04*
G04 Layer_Color=32896*
%FSLAX25Y25*%
%MOIN*%
G70*
G04*
G04 #@! TF.SameCoordinates,DA4A125E-CBA8-4458-A183-B31C0A0B716D*
G04*
G04*
G04 #@! TF.FilePolarity,Positive*
G04*
G01*
G75*
%ADD18C,0.01000*%
D18*
X155950Y214901D02*
X155426Y214376D01*
Y213327D01*
X155950Y212802D01*
X156475D01*
X157000Y213327D01*
Y214376D01*
X157525Y214901D01*
X158049D01*
X158574Y214376D01*
Y213327D01*
X158049Y212802D01*
X155426Y215950D02*
X158574D01*
X157525Y217000D01*
X158574Y218050D01*
X155426D01*
X158574Y221198D02*
Y219099D01*
X156475Y221198D01*
X155950D01*
X155426Y220673D01*
Y219624D01*
X155950Y219099D01*
X136951Y215176D02*
X136426Y214651D01*
Y213601D01*
X136951Y213077D01*
X137475D01*
X138000Y213601D01*
Y214651D01*
X138525Y215176D01*
X139049D01*
X139574Y214651D01*
Y213601D01*
X139049Y213077D01*
X136426Y216225D02*
X139574D01*
X138525Y217275D01*
X139574Y218324D01*
X136426D01*
X139574Y219374D02*
Y220423D01*
Y219899D01*
X136426D01*
X136951Y219374D01*
M02*
