G04*
G04 #@! TF.GenerationSoftware,Altium Limited,Altium Designer,23.10.1 (27)*
G04*
G04 Layer_Color=65535*
%FSLAX25Y25*%
%MOIN*%
G70*
G04*
G04 #@! TF.SameCoordinates,0AE130B3-391A-4A1A-B228-0B81C7984BB1*
G04*
G04*
G04 #@! TF.FilePolarity,Positive*
G04*
G01*
G75*
%ADD10C,0.00787*%
%ADD11C,0.00600*%
%ADD12C,0.00394*%
%ADD13C,0.00500*%
%ADD14C,0.00000*%
%ADD15C,0.00984*%
%ADD16C,0.00700*%
%ADD17C,0.00591*%
%ADD18C,0.01000*%
%ADD19C,0.01181*%
G36*
X199575Y22878D02*
X198994D01*
Y23415D01*
X199575D01*
Y22878D01*
D02*
G37*
G36*
X209700Y20391D02*
X209163D01*
Y20710D01*
X209158Y20702D01*
X209141Y20680D01*
X209110Y20645D01*
X209071Y20606D01*
X209027Y20562D01*
X208970Y20514D01*
X208909Y20470D01*
X208844Y20431D01*
X208835Y20426D01*
X208813Y20418D01*
X208774Y20405D01*
X208730Y20387D01*
X208673Y20370D01*
X208608Y20357D01*
X208542Y20348D01*
X208472Y20343D01*
X208437D01*
X208411Y20348D01*
X208376Y20352D01*
X208341Y20361D01*
X208297Y20370D01*
X208249Y20383D01*
X208201Y20396D01*
X208149Y20418D01*
X208096Y20439D01*
X208039Y20470D01*
X207987Y20505D01*
X207930Y20544D01*
X207878Y20593D01*
X207825Y20645D01*
X207821Y20649D01*
X207812Y20658D01*
X207799Y20675D01*
X207786Y20702D01*
X207764Y20732D01*
X207742Y20772D01*
X207716Y20815D01*
X207694Y20868D01*
X207668Y20925D01*
X207642Y20986D01*
X207620Y21056D01*
X207603Y21130D01*
X207585Y21213D01*
X207572Y21300D01*
X207563Y21392D01*
X207559Y21493D01*
Y21497D01*
Y21519D01*
Y21545D01*
X207563Y21585D01*
X207568Y21633D01*
X207572Y21685D01*
X207581Y21746D01*
X207589Y21807D01*
X207620Y21947D01*
X207642Y22017D01*
X207668Y22087D01*
X207699Y22157D01*
X207734Y22222D01*
X207773Y22284D01*
X207817Y22341D01*
X207821Y22345D01*
X207830Y22354D01*
X207843Y22367D01*
X207865Y22389D01*
X207891Y22410D01*
X207922Y22432D01*
X207957Y22458D01*
X208000Y22489D01*
X208044Y22515D01*
X208096Y22542D01*
X208206Y22590D01*
X208271Y22607D01*
X208337Y22620D01*
X208407Y22629D01*
X208481Y22633D01*
X208516D01*
X208542Y22629D01*
X208573Y22625D01*
X208612Y22616D01*
X208651Y22607D01*
X208699Y22594D01*
X208748Y22581D01*
X208800Y22559D01*
X208852Y22533D01*
X208905Y22507D01*
X208962Y22467D01*
X209014Y22428D01*
X209067Y22380D01*
X209119Y22327D01*
Y23415D01*
X209700D01*
Y20391D01*
D02*
G37*
G36*
X204076Y22629D02*
X204124Y22625D01*
X204176Y22616D01*
X204233Y22603D01*
X204294Y22585D01*
X204356Y22563D01*
X204364Y22559D01*
X204382Y22550D01*
X204412Y22537D01*
X204447Y22515D01*
X204487Y22489D01*
X204526Y22458D01*
X204565Y22423D01*
X204600Y22384D01*
X204605Y22380D01*
X204613Y22367D01*
X204627Y22345D01*
X204644Y22314D01*
X204666Y22279D01*
X204683Y22236D01*
X204701Y22192D01*
X204714Y22140D01*
Y22135D01*
X204718Y22113D01*
X204727Y22083D01*
X204731Y22039D01*
X204740Y21986D01*
X204745Y21917D01*
X204749Y21842D01*
Y21751D01*
Y20391D01*
X204168D01*
Y21506D01*
Y21510D01*
Y21523D01*
Y21541D01*
Y21563D01*
Y21593D01*
Y21624D01*
X204163Y21698D01*
X204159Y21772D01*
X204150Y21851D01*
X204141Y21917D01*
X204137Y21943D01*
X204128Y21965D01*
Y21969D01*
X204120Y21982D01*
X204111Y22000D01*
X204098Y22026D01*
X204059Y22078D01*
X204037Y22105D01*
X204006Y22126D01*
X204002Y22131D01*
X203993Y22135D01*
X203975Y22144D01*
X203949Y22157D01*
X203919Y22170D01*
X203888Y22179D01*
X203849Y22183D01*
X203805Y22187D01*
X203779D01*
X203753Y22183D01*
X203718Y22179D01*
X203674Y22166D01*
X203630Y22153D01*
X203582Y22131D01*
X203534Y22105D01*
X203530Y22100D01*
X203517Y22091D01*
X203495Y22070D01*
X203468Y22048D01*
X203442Y22013D01*
X203416Y21978D01*
X203390Y21930D01*
X203372Y21882D01*
Y21877D01*
X203364Y21855D01*
X203359Y21821D01*
X203350Y21768D01*
X203346Y21737D01*
X203342Y21698D01*
X203337Y21659D01*
Y21611D01*
X203333Y21563D01*
X203329Y21506D01*
Y21445D01*
Y21379D01*
Y20391D01*
X202748D01*
Y22585D01*
X203285D01*
Y22262D01*
X203289Y22266D01*
X203298Y22279D01*
X203316Y22297D01*
X203337Y22319D01*
X203364Y22349D01*
X203399Y22380D01*
X203438Y22415D01*
X203482Y22450D01*
X203530Y22480D01*
X203587Y22515D01*
X203643Y22546D01*
X203709Y22577D01*
X203779Y22598D01*
X203849Y22616D01*
X203927Y22629D01*
X204006Y22633D01*
X204037D01*
X204076Y22629D01*
D02*
G37*
G36*
X197552D02*
X197595Y22625D01*
X197643Y22620D01*
X197696Y22616D01*
X197805Y22598D01*
X197914Y22572D01*
X198019Y22533D01*
X198067Y22511D01*
X198111Y22485D01*
X198115D01*
X198120Y22476D01*
X198146Y22458D01*
X198185Y22423D01*
X198229Y22376D01*
X198281Y22319D01*
X198329Y22244D01*
X198378Y22157D01*
X198412Y22057D01*
X197866Y21956D01*
Y21960D01*
X197857Y21978D01*
X197849Y22000D01*
X197836Y22026D01*
X197818Y22061D01*
X197792Y22091D01*
X197766Y22122D01*
X197731Y22148D01*
X197726Y22153D01*
X197713Y22161D01*
X197691Y22170D01*
X197661Y22183D01*
X197622Y22196D01*
X197573Y22209D01*
X197517Y22214D01*
X197451Y22218D01*
X197412D01*
X197372Y22214D01*
X197324Y22209D01*
X197267Y22201D01*
X197215Y22192D01*
X197167Y22174D01*
X197123Y22153D01*
X197119D01*
X197115Y22144D01*
X197093Y22122D01*
X197066Y22083D01*
X197062Y22061D01*
X197058Y22035D01*
Y22030D01*
Y22026D01*
X197066Y22000D01*
X197084Y21965D01*
X197097Y21947D01*
X197115Y21930D01*
X197119Y21925D01*
X197136Y21921D01*
X197145Y21912D01*
X197163Y21908D01*
X197185Y21899D01*
X197211Y21886D01*
X197246Y21877D01*
X197281Y21864D01*
X197324Y21851D01*
X197377Y21838D01*
X197433Y21821D01*
X197499Y21803D01*
X197573Y21786D01*
X197656Y21764D01*
X197661D01*
X197678Y21759D01*
X197700Y21755D01*
X197731Y21746D01*
X197770Y21733D01*
X197814Y21724D01*
X197910Y21694D01*
X198019Y21654D01*
X198124Y21611D01*
X198176Y21585D01*
X198224Y21563D01*
X198264Y21532D01*
X198303Y21506D01*
X198312Y21497D01*
X198334Y21480D01*
X198360Y21445D01*
X198395Y21397D01*
X198430Y21335D01*
X198456Y21261D01*
X198478Y21174D01*
X198487Y21078D01*
Y21073D01*
Y21065D01*
Y21047D01*
X198482Y21025D01*
X198478Y21003D01*
X198474Y20973D01*
X198456Y20898D01*
X198425Y20820D01*
X198404Y20776D01*
X198382Y20732D01*
X198351Y20689D01*
X198316Y20645D01*
X198277Y20601D01*
X198233Y20558D01*
X198229Y20553D01*
X198220Y20549D01*
X198207Y20540D01*
X198185Y20523D01*
X198159Y20509D01*
X198128Y20492D01*
X198089Y20470D01*
X198045Y20453D01*
X197997Y20431D01*
X197941Y20413D01*
X197879Y20391D01*
X197814Y20378D01*
X197740Y20365D01*
X197661Y20352D01*
X197578Y20348D01*
X197490Y20343D01*
X197447D01*
X197416Y20348D01*
X197377D01*
X197333Y20352D01*
X197285Y20357D01*
X197232Y20365D01*
X197119Y20387D01*
X197001Y20418D01*
X196883Y20461D01*
X196830Y20492D01*
X196778Y20523D01*
X196774Y20527D01*
X196765Y20531D01*
X196752Y20540D01*
X196739Y20558D01*
X196691Y20597D01*
X196638Y20654D01*
X196581Y20724D01*
X196529Y20807D01*
X196481Y20907D01*
X196442Y21016D01*
X197023Y21104D01*
Y21095D01*
X197031Y21078D01*
X197040Y21047D01*
X197053Y21008D01*
X197075Y20964D01*
X197101Y20925D01*
X197132Y20881D01*
X197171Y20846D01*
X197176Y20842D01*
X197193Y20833D01*
X197219Y20820D01*
X197254Y20807D01*
X197298Y20789D01*
X197355Y20776D01*
X197416Y20767D01*
X197490Y20763D01*
X197525D01*
X197569Y20767D01*
X197617Y20772D01*
X197669Y20780D01*
X197726Y20798D01*
X197779Y20815D01*
X197827Y20842D01*
X197831Y20846D01*
X197840Y20855D01*
X197853Y20868D01*
X197866Y20885D01*
X197879Y20907D01*
X197892Y20933D01*
X197901Y20964D01*
X197906Y20999D01*
Y21003D01*
Y21012D01*
X197901Y21038D01*
X197888Y21073D01*
X197862Y21108D01*
X197853Y21117D01*
X197840Y21121D01*
X197822Y21134D01*
X197796Y21143D01*
X197761Y21156D01*
X197722Y21169D01*
X197669Y21182D01*
X197661D01*
X197639Y21191D01*
X197604Y21200D01*
X197556Y21209D01*
X197499Y21222D01*
X197438Y21239D01*
X197368Y21257D01*
X197294Y21279D01*
X197141Y21322D01*
X197066Y21344D01*
X196997Y21370D01*
X196931Y21392D01*
X196870Y21418D01*
X196817Y21445D01*
X196778Y21466D01*
X196774Y21471D01*
X196765Y21475D01*
X196756Y21484D01*
X196739Y21501D01*
X196695Y21541D01*
X196651Y21598D01*
X196603Y21667D01*
X196560Y21751D01*
X196542Y21799D01*
X196533Y21851D01*
X196525Y21903D01*
X196520Y21960D01*
Y21965D01*
Y21973D01*
Y21986D01*
X196525Y22008D01*
X196529Y22030D01*
X196533Y22061D01*
X196546Y22126D01*
X196573Y22201D01*
X196616Y22279D01*
X196638Y22323D01*
X196669Y22362D01*
X196704Y22402D01*
X196743Y22437D01*
X196748Y22441D01*
X196752Y22445D01*
X196765Y22454D01*
X196787Y22467D01*
X196809Y22480D01*
X196839Y22498D01*
X196874Y22515D01*
X196914Y22537D01*
X196962Y22555D01*
X197014Y22572D01*
X197071Y22590D01*
X197132Y22603D01*
X197202Y22616D01*
X197276Y22625D01*
X197355Y22633D01*
X197517D01*
X197552Y22629D01*
D02*
G37*
G36*
X215233Y20470D02*
X215093Y20094D01*
X215088Y20086D01*
X215080Y20064D01*
X215062Y20029D01*
X215045Y19985D01*
X215023Y19937D01*
X214997Y19889D01*
X214970Y19845D01*
X214944Y19802D01*
X214940Y19797D01*
X214931Y19784D01*
X214918Y19767D01*
X214900Y19740D01*
X214852Y19688D01*
X214787Y19636D01*
X214783Y19631D01*
X214769Y19627D01*
X214752Y19614D01*
X214726Y19601D01*
X214695Y19587D01*
X214660Y19570D01*
X214616Y19552D01*
X214568Y19539D01*
X214564D01*
X214546Y19535D01*
X214520Y19526D01*
X214481Y19522D01*
X214437Y19513D01*
X214389Y19504D01*
X214332Y19500D01*
X214245D01*
X214210Y19504D01*
X214171D01*
X214118Y19509D01*
X214066Y19518D01*
X213948Y19539D01*
X213895Y19994D01*
X213900D01*
X213917Y19989D01*
X213943Y19985D01*
X213978Y19981D01*
X214013Y19972D01*
X214057Y19968D01*
X214140Y19963D01*
X214175D01*
X214210Y19972D01*
X214254Y19981D01*
X214302Y19994D01*
X214350Y20016D01*
X214398Y20046D01*
X214437Y20086D01*
X214442Y20090D01*
X214455Y20107D01*
X214472Y20134D01*
X214494Y20169D01*
X214516Y20212D01*
X214542Y20265D01*
X214564Y20322D01*
X214586Y20387D01*
X213755Y22585D01*
X214372D01*
X214892Y21025D01*
X215407Y22585D01*
X216006D01*
X215233Y20470D01*
D02*
G37*
G36*
X199575Y20391D02*
X198994D01*
Y22585D01*
X199575D01*
Y20391D01*
D02*
G37*
G36*
X192491Y23411D02*
X192574Y23407D01*
X192666Y23402D01*
X192762Y23389D01*
X192854Y23376D01*
X192937Y23354D01*
X192941D01*
X192950Y23350D01*
X192963Y23346D01*
X192981Y23341D01*
X193033Y23319D01*
X193094Y23289D01*
X193164Y23249D01*
X193243Y23201D01*
X193317Y23145D01*
X193391Y23075D01*
X193396D01*
X193400Y23066D01*
X193422Y23040D01*
X193457Y22996D01*
X193496Y22939D01*
X193544Y22869D01*
X193592Y22786D01*
X193640Y22690D01*
X193680Y22585D01*
Y22581D01*
X193684Y22572D01*
X193688Y22555D01*
X193697Y22533D01*
X193702Y22507D01*
X193710Y22472D01*
X193719Y22432D01*
X193732Y22389D01*
X193741Y22341D01*
X193750Y22284D01*
X193758Y22227D01*
X193763Y22161D01*
X193776Y22026D01*
X193780Y21873D01*
Y21869D01*
Y21855D01*
Y21838D01*
Y21812D01*
X193776Y21777D01*
Y21742D01*
X193772Y21698D01*
X193767Y21650D01*
X193758Y21550D01*
X193741Y21445D01*
X193715Y21335D01*
X193684Y21230D01*
Y21226D01*
X193680Y21217D01*
X193671Y21200D01*
X193662Y21174D01*
X193654Y21147D01*
X193636Y21117D01*
X193601Y21038D01*
X193557Y20955D01*
X193500Y20863D01*
X193435Y20776D01*
X193361Y20693D01*
X193352Y20684D01*
X193330Y20667D01*
X193295Y20641D01*
X193247Y20606D01*
X193186Y20566D01*
X193116Y20527D01*
X193029Y20488D01*
X192932Y20453D01*
X192928D01*
X192924Y20448D01*
X192911D01*
X192897Y20444D01*
X192849Y20435D01*
X192788Y20422D01*
X192714Y20409D01*
X192622Y20400D01*
X192513Y20396D01*
X192395Y20391D01*
X191250D01*
Y23415D01*
X192456D01*
X192491Y23411D01*
D02*
G37*
G36*
X212003Y22327D02*
X212007Y22332D01*
X212016Y22341D01*
X212029Y22354D01*
X212051Y22376D01*
X212077Y22397D01*
X212108Y22423D01*
X212143Y22454D01*
X212182Y22480D01*
X212274Y22537D01*
X212383Y22585D01*
X212440Y22607D01*
X212506Y22620D01*
X212571Y22629D01*
X212637Y22633D01*
X212676D01*
X212702Y22629D01*
X212737Y22625D01*
X212777Y22616D01*
X212820Y22607D01*
X212873Y22598D01*
X212978Y22563D01*
X213030Y22537D01*
X213087Y22511D01*
X213144Y22476D01*
X213196Y22437D01*
X213249Y22393D01*
X213301Y22341D01*
X213305Y22336D01*
X213314Y22327D01*
X213327Y22310D01*
X213345Y22288D01*
X213362Y22257D01*
X213384Y22222D01*
X213410Y22179D01*
X213437Y22131D01*
X213458Y22074D01*
X213485Y22013D01*
X213506Y21943D01*
X213528Y21869D01*
X213541Y21790D01*
X213555Y21702D01*
X213563Y21611D01*
X213568Y21510D01*
Y21506D01*
Y21484D01*
Y21458D01*
X213563Y21418D01*
X213559Y21370D01*
X213555Y21318D01*
X213546Y21257D01*
X213533Y21191D01*
X213502Y21051D01*
X213480Y20981D01*
X213454Y20907D01*
X213423Y20837D01*
X213384Y20767D01*
X213345Y20706D01*
X213297Y20645D01*
X213292Y20641D01*
X213283Y20632D01*
X213270Y20619D01*
X213249Y20597D01*
X213222Y20575D01*
X213192Y20549D01*
X213157Y20523D01*
X213118Y20496D01*
X213069Y20466D01*
X213021Y20439D01*
X212908Y20391D01*
X212846Y20370D01*
X212785Y20357D01*
X212715Y20348D01*
X212646Y20343D01*
X212615D01*
X212576Y20348D01*
X212527Y20357D01*
X212471Y20365D01*
X212409Y20383D01*
X212344Y20405D01*
X212274Y20435D01*
X212265Y20439D01*
X212244Y20453D01*
X212209Y20474D01*
X212165Y20505D01*
X212117Y20544D01*
X212064Y20588D01*
X212012Y20645D01*
X211959Y20710D01*
Y20391D01*
X211422D01*
Y23415D01*
X212003D01*
Y22327D01*
D02*
G37*
G36*
X206252Y22629D02*
X206292Y22625D01*
X206340Y22616D01*
X206392Y22607D01*
X206449Y22594D01*
X206510Y22577D01*
X206571Y22555D01*
X206637Y22528D01*
X206702Y22493D01*
X206764Y22458D01*
X206825Y22415D01*
X206886Y22362D01*
X206938Y22306D01*
X206943Y22301D01*
X206951Y22292D01*
X206964Y22271D01*
X206982Y22244D01*
X207004Y22209D01*
X207026Y22170D01*
X207052Y22118D01*
X207078Y22061D01*
X207104Y21995D01*
X207131Y21921D01*
X207152Y21842D01*
X207174Y21751D01*
X207192Y21654D01*
X207205Y21550D01*
X207214Y21440D01*
Y21318D01*
X205763D01*
Y21314D01*
Y21305D01*
Y21292D01*
X205767Y21274D01*
X205771Y21230D01*
X205780Y21169D01*
X205798Y21108D01*
X205824Y21038D01*
X205855Y20973D01*
X205898Y20916D01*
X205903Y20911D01*
X205925Y20894D01*
X205951Y20872D01*
X205990Y20846D01*
X206038Y20820D01*
X206099Y20798D01*
X206165Y20780D01*
X206235Y20776D01*
X206257D01*
X206283Y20780D01*
X206313Y20785D01*
X206348Y20794D01*
X206388Y20807D01*
X206427Y20824D01*
X206462Y20850D01*
X206466Y20855D01*
X206479Y20863D01*
X206497Y20881D01*
X206514Y20907D01*
X206541Y20942D01*
X206562Y20981D01*
X206584Y21034D01*
X206606Y21091D01*
X207183Y20994D01*
Y20990D01*
X207179Y20981D01*
X207170Y20964D01*
X207161Y20942D01*
X207148Y20916D01*
X207135Y20885D01*
X207096Y20815D01*
X207048Y20737D01*
X206986Y20654D01*
X206912Y20579D01*
X206829Y20509D01*
X206825D01*
X206820Y20501D01*
X206803Y20496D01*
X206785Y20483D01*
X206764Y20470D01*
X206733Y20457D01*
X206702Y20444D01*
X206663Y20426D01*
X206576Y20396D01*
X206475Y20370D01*
X206357Y20352D01*
X206230Y20343D01*
X206204D01*
X206178Y20348D01*
X206139D01*
X206090Y20357D01*
X206034Y20365D01*
X205973Y20374D01*
X205911Y20391D01*
X205841Y20409D01*
X205771Y20435D01*
X205702Y20466D01*
X205632Y20501D01*
X205562Y20544D01*
X205496Y20593D01*
X205439Y20649D01*
X205383Y20715D01*
X205378Y20719D01*
X205374Y20728D01*
X205365Y20745D01*
X205348Y20767D01*
X205334Y20798D01*
X205317Y20833D01*
X205295Y20872D01*
X205278Y20920D01*
X205256Y20973D01*
X205238Y21030D01*
X205217Y21091D01*
X205203Y21161D01*
X205190Y21230D01*
X205177Y21305D01*
X205173Y21388D01*
X205168Y21471D01*
Y21475D01*
Y21493D01*
Y21523D01*
X205173Y21563D01*
X205177Y21606D01*
X205182Y21659D01*
X205190Y21716D01*
X205203Y21781D01*
X205238Y21917D01*
X205260Y21986D01*
X205286Y22061D01*
X205321Y22131D01*
X205361Y22196D01*
X205404Y22262D01*
X205452Y22323D01*
X205457Y22327D01*
X205466Y22336D01*
X205483Y22354D01*
X205505Y22371D01*
X205531Y22393D01*
X205566Y22419D01*
X205606Y22450D01*
X205649Y22480D01*
X205697Y22507D01*
X205754Y22537D01*
X205811Y22563D01*
X205876Y22585D01*
X205942Y22603D01*
X206016Y22620D01*
X206090Y22629D01*
X206169Y22633D01*
X206217D01*
X206252Y22629D01*
D02*
G37*
G36*
X195209D02*
X195249Y22625D01*
X195297Y22616D01*
X195349Y22607D01*
X195406Y22594D01*
X195467Y22577D01*
X195528Y22555D01*
X195594Y22528D01*
X195659Y22493D01*
X195721Y22458D01*
X195782Y22415D01*
X195843Y22362D01*
X195895Y22306D01*
X195900Y22301D01*
X195908Y22292D01*
X195922Y22271D01*
X195939Y22244D01*
X195961Y22209D01*
X195983Y22170D01*
X196009Y22118D01*
X196035Y22061D01*
X196061Y21995D01*
X196088Y21921D01*
X196109Y21842D01*
X196131Y21751D01*
X196149Y21654D01*
X196162Y21550D01*
X196171Y21440D01*
Y21318D01*
X194720D01*
Y21314D01*
Y21305D01*
Y21292D01*
X194724Y21274D01*
X194729Y21230D01*
X194737Y21169D01*
X194755Y21108D01*
X194781Y21038D01*
X194812Y20973D01*
X194855Y20916D01*
X194860Y20911D01*
X194881Y20894D01*
X194908Y20872D01*
X194947Y20846D01*
X194995Y20820D01*
X195056Y20798D01*
X195122Y20780D01*
X195192Y20776D01*
X195214D01*
X195240Y20780D01*
X195270Y20785D01*
X195305Y20794D01*
X195345Y20807D01*
X195384Y20824D01*
X195419Y20850D01*
X195423Y20855D01*
X195437Y20863D01*
X195454Y20881D01*
X195471Y20907D01*
X195498Y20942D01*
X195519Y20981D01*
X195541Y21034D01*
X195563Y21091D01*
X196140Y20994D01*
Y20990D01*
X196136Y20981D01*
X196127Y20964D01*
X196118Y20942D01*
X196105Y20916D01*
X196092Y20885D01*
X196053Y20815D01*
X196005Y20737D01*
X195943Y20654D01*
X195869Y20579D01*
X195786Y20509D01*
X195782D01*
X195777Y20501D01*
X195760Y20496D01*
X195742Y20483D01*
X195721Y20470D01*
X195690Y20457D01*
X195659Y20444D01*
X195620Y20426D01*
X195533Y20396D01*
X195432Y20370D01*
X195314Y20352D01*
X195187Y20343D01*
X195161D01*
X195135Y20348D01*
X195096D01*
X195047Y20357D01*
X194991Y20365D01*
X194930Y20374D01*
X194868Y20391D01*
X194798Y20409D01*
X194729Y20435D01*
X194659Y20466D01*
X194589Y20501D01*
X194519Y20544D01*
X194453Y20593D01*
X194396Y20649D01*
X194340Y20715D01*
X194335Y20719D01*
X194331Y20728D01*
X194322Y20745D01*
X194305Y20767D01*
X194291Y20798D01*
X194274Y20833D01*
X194252Y20872D01*
X194235Y20920D01*
X194213Y20973D01*
X194195Y21030D01*
X194174Y21091D01*
X194160Y21161D01*
X194147Y21230D01*
X194134Y21305D01*
X194130Y21388D01*
X194125Y21471D01*
Y21475D01*
Y21493D01*
Y21523D01*
X194130Y21563D01*
X194134Y21606D01*
X194139Y21659D01*
X194147Y21716D01*
X194160Y21781D01*
X194195Y21917D01*
X194217Y21986D01*
X194244Y22061D01*
X194278Y22131D01*
X194318Y22196D01*
X194361Y22262D01*
X194410Y22323D01*
X194414Y22327D01*
X194423Y22336D01*
X194440Y22354D01*
X194462Y22371D01*
X194488Y22393D01*
X194523Y22419D01*
X194562Y22450D01*
X194606Y22480D01*
X194654Y22507D01*
X194711Y22537D01*
X194768Y22563D01*
X194833Y22585D01*
X194899Y22603D01*
X194973Y22620D01*
X195047Y22629D01*
X195126Y22633D01*
X195174D01*
X195209Y22629D01*
D02*
G37*
G36*
X201004D02*
X201034D01*
X201065Y22620D01*
X201109Y22616D01*
X201152Y22603D01*
X201201Y22590D01*
X201253Y22568D01*
X201305Y22546D01*
X201362Y22515D01*
X201419Y22480D01*
X201476Y22441D01*
X201533Y22389D01*
X201585Y22336D01*
X201638Y22271D01*
Y22585D01*
X202179D01*
Y20614D01*
Y20610D01*
Y20597D01*
Y20579D01*
Y20553D01*
Y20518D01*
X202175Y20483D01*
X202171Y20400D01*
X202162Y20304D01*
X202153Y20208D01*
X202136Y20116D01*
X202127Y20077D01*
X202114Y20038D01*
X202109Y20029D01*
X202101Y20007D01*
X202088Y19972D01*
X202066Y19928D01*
X202040Y19880D01*
X202009Y19828D01*
X201974Y19780D01*
X201930Y19736D01*
X201926Y19732D01*
X201908Y19718D01*
X201882Y19697D01*
X201852Y19675D01*
X201808Y19649D01*
X201755Y19618D01*
X201694Y19592D01*
X201624Y19566D01*
X201616Y19561D01*
X201589Y19557D01*
X201550Y19544D01*
X201493Y19535D01*
X201419Y19522D01*
X201336Y19509D01*
X201240Y19504D01*
X201135Y19500D01*
X201082D01*
X201043Y19504D01*
X200999D01*
X200947Y19509D01*
X200890Y19518D01*
X200829Y19526D01*
X200698Y19548D01*
X200567Y19583D01*
X200506Y19605D01*
X200445Y19631D01*
X200392Y19657D01*
X200344Y19692D01*
X200340Y19697D01*
X200335Y19701D01*
X200309Y19727D01*
X200270Y19767D01*
X200230Y19823D01*
X200187Y19893D01*
X200147Y19976D01*
X200121Y20073D01*
X200117Y20125D01*
X200112Y20177D01*
Y20182D01*
Y20199D01*
Y20221D01*
X200117Y20247D01*
X200781Y20169D01*
Y20164D01*
X200785Y20151D01*
X200790Y20129D01*
X200794Y20107D01*
X200816Y20055D01*
X200833Y20029D01*
X200855Y20011D01*
X200860Y20007D01*
X200873Y20003D01*
X200890Y19989D01*
X200921Y19981D01*
X200956Y19968D01*
X200999Y19954D01*
X201052Y19950D01*
X201113Y19946D01*
X201152D01*
X201192Y19950D01*
X201240Y19954D01*
X201297Y19963D01*
X201353Y19976D01*
X201406Y19994D01*
X201454Y20016D01*
X201458Y20020D01*
X201467Y20024D01*
X201480Y20033D01*
X201498Y20051D01*
X201515Y20073D01*
X201533Y20099D01*
X201550Y20129D01*
X201568Y20164D01*
Y20169D01*
X201572Y20177D01*
X201576Y20195D01*
X201585Y20225D01*
X201589Y20260D01*
X201594Y20304D01*
X201598Y20361D01*
Y20426D01*
Y20745D01*
X201594Y20741D01*
X201585Y20732D01*
X201572Y20715D01*
X201550Y20689D01*
X201528Y20662D01*
X201498Y20632D01*
X201458Y20601D01*
X201419Y20571D01*
X201375Y20536D01*
X201323Y20505D01*
X201214Y20448D01*
X201152Y20426D01*
X201087Y20409D01*
X201017Y20396D01*
X200943Y20391D01*
X200925D01*
X200899Y20396D01*
X200868D01*
X200833Y20405D01*
X200790Y20413D01*
X200742Y20422D01*
X200689Y20439D01*
X200637Y20457D01*
X200580Y20483D01*
X200519Y20514D01*
X200462Y20549D01*
X200405Y20593D01*
X200348Y20641D01*
X200296Y20697D01*
X200243Y20763D01*
Y20767D01*
X200235Y20776D01*
X200226Y20794D01*
X200213Y20815D01*
X200195Y20846D01*
X200178Y20881D01*
X200160Y20920D01*
X200143Y20968D01*
X200126Y21016D01*
X200108Y21073D01*
X200091Y21134D01*
X200073Y21200D01*
X200051Y21340D01*
X200047Y21418D01*
X200042Y21497D01*
Y21501D01*
Y21523D01*
Y21550D01*
X200047Y21589D01*
X200051Y21633D01*
X200056Y21685D01*
X200064Y21746D01*
X200077Y21807D01*
X200108Y21947D01*
X200130Y22017D01*
X200152Y22087D01*
X200182Y22153D01*
X200217Y22222D01*
X200257Y22284D01*
X200305Y22341D01*
X200309Y22345D01*
X200318Y22354D01*
X200331Y22367D01*
X200353Y22389D01*
X200379Y22410D01*
X200410Y22432D01*
X200445Y22458D01*
X200488Y22489D01*
X200532Y22515D01*
X200584Y22542D01*
X200694Y22590D01*
X200759Y22607D01*
X200825Y22620D01*
X200895Y22629D01*
X200964Y22633D01*
X200982D01*
X201004Y22629D01*
D02*
G37*
G36*
X225172Y33282D02*
X225272Y33273D01*
X225391Y33264D01*
X225518Y33255D01*
X225655Y33227D01*
X225947Y33173D01*
X226247Y33081D01*
X226402Y33027D01*
X226548Y32963D01*
X226684Y32890D01*
X226812Y32799D01*
X226821Y32790D01*
X226839Y32781D01*
X226876Y32744D01*
X226921Y32708D01*
X226976Y32662D01*
X227031Y32599D01*
X227094Y32526D01*
X227167Y32444D01*
X227240Y32353D01*
X227313Y32252D01*
X227386Y32143D01*
X227450Y32016D01*
X227523Y31888D01*
X227577Y31751D01*
X227632Y31596D01*
X227668Y31442D01*
X226402Y31205D01*
Y31214D01*
X226393Y31223D01*
X226375Y31278D01*
X226338Y31360D01*
X226284Y31469D01*
X226220Y31587D01*
X226129Y31706D01*
X226020Y31824D01*
X225892Y31934D01*
X225874Y31943D01*
X225828Y31979D01*
X225746Y32025D01*
X225646Y32070D01*
X225509Y32125D01*
X225354Y32161D01*
X225181Y32198D01*
X224981Y32207D01*
X224899D01*
X224844Y32198D01*
X224771Y32189D01*
X224689Y32180D01*
X224598Y32161D01*
X224498Y32143D01*
X224289Y32079D01*
X224179Y32034D01*
X224070Y31979D01*
X223961Y31915D01*
X223851Y31852D01*
X223751Y31760D01*
X223651Y31669D01*
X223642Y31660D01*
X223633Y31642D01*
X223605Y31615D01*
X223578Y31569D01*
X223541Y31514D01*
X223496Y31451D01*
X223450Y31369D01*
X223414Y31278D01*
X223368Y31168D01*
X223323Y31050D01*
X223277Y30922D01*
X223241Y30786D01*
X223214Y30631D01*
X223186Y30458D01*
X223177Y30285D01*
X223168Y30093D01*
Y30084D01*
Y30048D01*
Y29984D01*
X223177Y29911D01*
X223186Y29811D01*
X223195Y29711D01*
X223214Y29583D01*
X223232Y29456D01*
X223287Y29182D01*
X223378Y28900D01*
X223432Y28763D01*
X223496Y28636D01*
X223578Y28508D01*
X223660Y28399D01*
X223669Y28390D01*
X223687Y28372D01*
X223715Y28344D01*
X223751Y28308D01*
X223806Y28271D01*
X223860Y28217D01*
X223933Y28171D01*
X224015Y28117D01*
X224106Y28062D01*
X224198Y28016D01*
X224425Y27925D01*
X224553Y27889D01*
X224680Y27861D01*
X224826Y27843D01*
X224972Y27834D01*
X225045D01*
X225118Y27843D01*
X225227Y27852D01*
X225345Y27871D01*
X225482Y27898D01*
X225628Y27934D01*
X225774Y27989D01*
X225783D01*
X225792Y27998D01*
X225837Y28016D01*
X225919Y28053D01*
X226010Y28098D01*
X226120Y28153D01*
X226238Y28217D01*
X226357Y28290D01*
X226466Y28372D01*
Y29182D01*
X225008D01*
Y30248D01*
X227750D01*
Y27716D01*
X227732Y27697D01*
X227705Y27679D01*
X227677Y27652D01*
X227632Y27615D01*
X227586Y27579D01*
X227459Y27488D01*
X227286Y27388D01*
X227085Y27269D01*
X226858Y27151D01*
X226584Y27042D01*
X226575D01*
X226548Y27032D01*
X226511Y27014D01*
X226457Y26996D01*
X226384Y26978D01*
X226302Y26950D01*
X226211Y26923D01*
X226111Y26896D01*
X225883Y26841D01*
X225619Y26796D01*
X225345Y26759D01*
X225054Y26750D01*
X224954D01*
X224890Y26759D01*
X224799D01*
X224698Y26768D01*
X224589Y26786D01*
X224462Y26805D01*
X224198Y26850D01*
X223906Y26923D01*
X223605Y27023D01*
X223469Y27087D01*
X223323Y27160D01*
X223314Y27169D01*
X223296Y27178D01*
X223250Y27206D01*
X223204Y27242D01*
X223141Y27278D01*
X223077Y27333D01*
X222995Y27397D01*
X222913Y27470D01*
X222731Y27634D01*
X222549Y27843D01*
X222375Y28080D01*
X222221Y28353D01*
Y28363D01*
X222202Y28390D01*
X222184Y28435D01*
X222166Y28490D01*
X222139Y28563D01*
X222102Y28645D01*
X222075Y28745D01*
X222038Y28854D01*
X222002Y28973D01*
X221975Y29109D01*
X221911Y29392D01*
X221874Y29702D01*
X221856Y30039D01*
Y30048D01*
Y30084D01*
Y30139D01*
X221865Y30203D01*
Y30294D01*
X221874Y30394D01*
X221893Y30503D01*
X221911Y30631D01*
X221956Y30895D01*
X222029Y31196D01*
X222130Y31496D01*
X222193Y31642D01*
X222266Y31788D01*
X222275Y31797D01*
X222284Y31824D01*
X222312Y31861D01*
X222339Y31915D01*
X222385Y31979D01*
X222439Y32052D01*
X222503Y32134D01*
X222567Y32225D01*
X222649Y32316D01*
X222740Y32416D01*
X222840Y32517D01*
X222949Y32617D01*
X223068Y32708D01*
X223186Y32808D01*
X223469Y32972D01*
X223478D01*
X223496Y32990D01*
X223532Y33000D01*
X223578Y33027D01*
X223642Y33045D01*
X223706Y33072D01*
X223797Y33100D01*
X223888Y33136D01*
X223988Y33163D01*
X224106Y33191D01*
X224234Y33218D01*
X224361Y33245D01*
X224653Y33282D01*
X224981Y33291D01*
X225090D01*
X225172Y33282D01*
D02*
G37*
G36*
X218321D02*
X218422Y33273D01*
X218540Y33264D01*
X218668Y33255D01*
X218804Y33227D01*
X219096Y33173D01*
X219396Y33081D01*
X219551Y33027D01*
X219697Y32963D01*
X219834Y32890D01*
X219961Y32799D01*
X219970Y32790D01*
X219989Y32781D01*
X220025Y32744D01*
X220071Y32708D01*
X220125Y32662D01*
X220180Y32599D01*
X220244Y32526D01*
X220317Y32444D01*
X220390Y32353D01*
X220462Y32252D01*
X220535Y32143D01*
X220599Y32016D01*
X220672Y31888D01*
X220726Y31751D01*
X220781Y31596D01*
X220818Y31442D01*
X219551Y31205D01*
Y31214D01*
X219542Y31223D01*
X219524Y31278D01*
X219488Y31360D01*
X219433Y31469D01*
X219369Y31587D01*
X219278Y31706D01*
X219169Y31824D01*
X219041Y31934D01*
X219023Y31943D01*
X218977Y31979D01*
X218895Y32025D01*
X218795Y32070D01*
X218659Y32125D01*
X218504Y32161D01*
X218331Y32198D01*
X218130Y32207D01*
X218048D01*
X217994Y32198D01*
X217921Y32189D01*
X217839Y32180D01*
X217748Y32161D01*
X217647Y32143D01*
X217438Y32079D01*
X217329Y32034D01*
X217219Y31979D01*
X217110Y31915D01*
X217001Y31852D01*
X216900Y31760D01*
X216800Y31669D01*
X216791Y31660D01*
X216782Y31642D01*
X216755Y31615D01*
X216727Y31569D01*
X216691Y31514D01*
X216645Y31451D01*
X216600Y31369D01*
X216563Y31278D01*
X216518Y31168D01*
X216472Y31050D01*
X216427Y30922D01*
X216390Y30786D01*
X216363Y30631D01*
X216336Y30458D01*
X216326Y30285D01*
X216317Y30093D01*
Y30084D01*
Y30048D01*
Y29984D01*
X216326Y29911D01*
X216336Y29811D01*
X216345Y29711D01*
X216363Y29583D01*
X216381Y29456D01*
X216436Y29182D01*
X216527Y28900D01*
X216582Y28763D01*
X216645Y28636D01*
X216727Y28508D01*
X216809Y28399D01*
X216818Y28390D01*
X216837Y28372D01*
X216864Y28344D01*
X216900Y28308D01*
X216955Y28271D01*
X217010Y28217D01*
X217083Y28171D01*
X217164Y28117D01*
X217256Y28062D01*
X217347Y28016D01*
X217575Y27925D01*
X217702Y27889D01*
X217830Y27861D01*
X217975Y27843D01*
X218121Y27834D01*
X218194D01*
X218267Y27843D01*
X218376Y27852D01*
X218495Y27871D01*
X218631Y27898D01*
X218777Y27934D01*
X218923Y27989D01*
X218932D01*
X218941Y27998D01*
X218987Y28016D01*
X219069Y28053D01*
X219160Y28098D01*
X219269Y28153D01*
X219387Y28217D01*
X219506Y28290D01*
X219615Y28372D01*
Y29182D01*
X218158D01*
Y30248D01*
X220900D01*
Y27716D01*
X220881Y27697D01*
X220854Y27679D01*
X220827Y27652D01*
X220781Y27615D01*
X220736Y27579D01*
X220608Y27488D01*
X220435Y27388D01*
X220235Y27269D01*
X220007Y27151D01*
X219734Y27042D01*
X219724D01*
X219697Y27032D01*
X219661Y27014D01*
X219606Y26996D01*
X219533Y26978D01*
X219451Y26950D01*
X219360Y26923D01*
X219260Y26896D01*
X219032Y26841D01*
X218768Y26796D01*
X218495Y26759D01*
X218203Y26750D01*
X218103D01*
X218039Y26759D01*
X217948D01*
X217848Y26768D01*
X217739Y26786D01*
X217611Y26805D01*
X217347Y26850D01*
X217055Y26923D01*
X216755Y27023D01*
X216618Y27087D01*
X216472Y27160D01*
X216463Y27169D01*
X216445Y27178D01*
X216399Y27206D01*
X216354Y27242D01*
X216290Y27278D01*
X216226Y27333D01*
X216144Y27397D01*
X216062Y27470D01*
X215880Y27634D01*
X215698Y27843D01*
X215525Y28080D01*
X215370Y28353D01*
Y28363D01*
X215352Y28390D01*
X215333Y28435D01*
X215315Y28490D01*
X215288Y28563D01*
X215251Y28645D01*
X215224Y28745D01*
X215188Y28854D01*
X215151Y28973D01*
X215124Y29109D01*
X215060Y29392D01*
X215024Y29702D01*
X215005Y30039D01*
Y30048D01*
Y30084D01*
Y30139D01*
X215015Y30203D01*
Y30294D01*
X215024Y30394D01*
X215042Y30503D01*
X215060Y30631D01*
X215106Y30895D01*
X215179Y31196D01*
X215279Y31496D01*
X215342Y31642D01*
X215415Y31788D01*
X215424Y31797D01*
X215434Y31824D01*
X215461Y31861D01*
X215488Y31915D01*
X215534Y31979D01*
X215588Y32052D01*
X215652Y32134D01*
X215716Y32225D01*
X215798Y32316D01*
X215889Y32416D01*
X215989Y32517D01*
X216099Y32617D01*
X216217Y32708D01*
X216336Y32808D01*
X216618Y32972D01*
X216627D01*
X216645Y32990D01*
X216682Y33000D01*
X216727Y33027D01*
X216791Y33045D01*
X216855Y33072D01*
X216946Y33100D01*
X217037Y33136D01*
X217137Y33163D01*
X217256Y33191D01*
X217383Y33218D01*
X217511Y33245D01*
X217802Y33282D01*
X218130Y33291D01*
X218239D01*
X218321Y33282D01*
D02*
G37*
G36*
X246608Y26868D02*
X245233D01*
X242973Y33173D01*
X244349D01*
X245952Y28508D01*
X247492Y33173D01*
X248849D01*
X246608Y26868D01*
D02*
G37*
G36*
X161029Y29847D02*
Y29838D01*
Y29802D01*
Y29738D01*
Y29665D01*
Y29574D01*
X161020Y29465D01*
Y29346D01*
Y29228D01*
X161001Y28964D01*
X160983Y28690D01*
X160974Y28572D01*
X160956Y28454D01*
X160938Y28344D01*
X160919Y28244D01*
Y28235D01*
X160910Y28226D01*
Y28199D01*
X160901Y28171D01*
X160874Y28080D01*
X160837Y27971D01*
X160783Y27843D01*
X160719Y27716D01*
X160637Y27579D01*
X160537Y27452D01*
X160528Y27433D01*
X160491Y27397D01*
X160427Y27342D01*
X160345Y27269D01*
X160236Y27187D01*
X160109Y27105D01*
X159963Y27014D01*
X159799Y26941D01*
X159790D01*
X159781Y26932D01*
X159753Y26923D01*
X159717Y26914D01*
X159671Y26896D01*
X159617Y26877D01*
X159544Y26859D01*
X159471Y26850D01*
X159298Y26814D01*
X159088Y26777D01*
X158851Y26759D01*
X158587Y26750D01*
X158441D01*
X158360Y26759D01*
X158277D01*
X158177Y26768D01*
X158077Y26777D01*
X157858Y26796D01*
X157631Y26832D01*
X157403Y26887D01*
X157303Y26914D01*
X157212Y26950D01*
X157202D01*
X157193Y26959D01*
X157139Y26987D01*
X157048Y27032D01*
X156947Y27096D01*
X156829Y27178D01*
X156702Y27269D01*
X156583Y27379D01*
X156474Y27497D01*
X156465Y27515D01*
X156428Y27552D01*
X156383Y27625D01*
X156328Y27716D01*
X156273Y27816D01*
X156210Y27934D01*
X156164Y28062D01*
X156118Y28199D01*
Y28208D01*
X156109Y28226D01*
Y28253D01*
X156100Y28299D01*
X156091Y28353D01*
X156082Y28426D01*
X156073Y28508D01*
X156064Y28599D01*
X156046Y28709D01*
X156036Y28827D01*
X156027Y28955D01*
X156018Y29100D01*
X156009Y29255D01*
Y29428D01*
X156000Y29610D01*
Y29802D01*
Y33173D01*
X157275D01*
Y29747D01*
Y29738D01*
Y29711D01*
Y29674D01*
Y29620D01*
Y29547D01*
Y29474D01*
X157284Y29310D01*
Y29128D01*
X157294Y28955D01*
X157303Y28873D01*
Y28800D01*
X157312Y28745D01*
X157321Y28690D01*
Y28672D01*
X157339Y28627D01*
X157367Y28554D01*
X157403Y28463D01*
X157448Y28363D01*
X157521Y28262D01*
X157603Y28153D01*
X157704Y28062D01*
X157722Y28053D01*
X157758Y28025D01*
X157831Y27989D01*
X157922Y27953D01*
X158050Y27907D01*
X158195Y27871D01*
X158360Y27843D01*
X158551Y27834D01*
X158642D01*
X158733Y27843D01*
X158851Y27861D01*
X158988Y27889D01*
X159116Y27925D01*
X159252Y27980D01*
X159362Y28053D01*
X159371Y28062D01*
X159407Y28089D01*
X159453Y28135D01*
X159507Y28199D01*
X159562Y28280D01*
X159617Y28372D01*
X159662Y28472D01*
X159690Y28590D01*
Y28608D01*
X159699Y28654D01*
X159708Y28736D01*
X159726Y28845D01*
Y28918D01*
X159735Y29000D01*
Y29091D01*
X159744Y29182D01*
Y29292D01*
X159753Y29410D01*
Y29538D01*
Y29674D01*
Y33173D01*
X161029D01*
Y29847D01*
D02*
G37*
G36*
X252311Y26868D02*
X251099D01*
Y31433D01*
X251090Y31423D01*
X251072Y31405D01*
X251035Y31378D01*
X250981Y31332D01*
X250917Y31278D01*
X250844Y31223D01*
X250753Y31159D01*
X250653Y31086D01*
X250544Y31014D01*
X250425Y30941D01*
X250298Y30859D01*
X250161Y30786D01*
X249869Y30649D01*
X249541Y30522D01*
Y31615D01*
X249551D01*
X249560Y31624D01*
X249587Y31633D01*
X249623Y31642D01*
X249715Y31688D01*
X249842Y31742D01*
X249997Y31815D01*
X250170Y31915D01*
X250361Y32043D01*
X250562Y32189D01*
X250571Y32198D01*
X250589Y32207D01*
X250617Y32234D01*
X250653Y32271D01*
X250753Y32362D01*
X250862Y32480D01*
X250990Y32626D01*
X251117Y32808D01*
X251236Y33000D01*
X251327Y33209D01*
X252311D01*
Y26868D01*
D02*
G37*
G36*
X237735Y33163D02*
X237835D01*
X237935Y33154D01*
X238054D01*
X238291Y33127D01*
X238537Y33100D01*
X238764Y33054D01*
X238865Y33027D01*
X238956Y33000D01*
X238965D01*
X238974Y32990D01*
X239029Y32963D01*
X239110Y32917D01*
X239220Y32863D01*
X239338Y32772D01*
X239457Y32671D01*
X239575Y32544D01*
X239685Y32389D01*
Y32380D01*
X239694Y32371D01*
X239712Y32344D01*
X239730Y32316D01*
X239776Y32225D01*
X239830Y32107D01*
X239876Y31961D01*
X239921Y31797D01*
X239958Y31606D01*
X239967Y31405D01*
Y31396D01*
Y31378D01*
Y31332D01*
X239958Y31287D01*
Y31223D01*
X239949Y31159D01*
X239912Y30995D01*
X239867Y30804D01*
X239794Y30613D01*
X239685Y30412D01*
X239621Y30321D01*
X239548Y30230D01*
X239539Y30221D01*
X239530Y30212D01*
X239502Y30185D01*
X239466Y30157D01*
X239429Y30121D01*
X239375Y30075D01*
X239311Y30030D01*
X239238Y29984D01*
X239156Y29929D01*
X239056Y29884D01*
X238956Y29838D01*
X238846Y29793D01*
X238719Y29747D01*
X238591Y29711D01*
X238455Y29674D01*
X238300Y29647D01*
X238309D01*
X238318Y29638D01*
X238373Y29601D01*
X238445Y29556D01*
X238537Y29492D01*
X238646Y29410D01*
X238755Y29328D01*
X238874Y29228D01*
X238974Y29119D01*
X238983Y29109D01*
X239029Y29064D01*
X239083Y28991D01*
X239165Y28882D01*
X239275Y28745D01*
X239329Y28654D01*
X239393Y28563D01*
X239466Y28463D01*
X239539Y28353D01*
X239621Y28226D01*
X239703Y28098D01*
X240477Y26868D01*
X238947D01*
X238036Y28235D01*
X238026Y28244D01*
X238017Y28271D01*
X237990Y28308D01*
X237954Y28353D01*
X237917Y28408D01*
X237872Y28481D01*
X237771Y28627D01*
X237653Y28791D01*
X237544Y28936D01*
X237443Y29073D01*
X237398Y29119D01*
X237361Y29164D01*
X237352Y29173D01*
X237334Y29191D01*
X237298Y29228D01*
X237252Y29274D01*
X237188Y29310D01*
X237124Y29355D01*
X237052Y29392D01*
X236979Y29428D01*
X236970D01*
X236942Y29438D01*
X236897Y29456D01*
X236824Y29465D01*
X236733Y29483D01*
X236624Y29492D01*
X236496Y29501D01*
X236086D01*
Y26868D01*
X234811D01*
Y33173D01*
X237653D01*
X237735Y33163D01*
D02*
G37*
G36*
X233608Y32107D02*
X230210D01*
Y30713D01*
X233371D01*
Y29647D01*
X230210D01*
Y27934D01*
X233727D01*
Y26868D01*
X228935D01*
Y33173D01*
X233608D01*
Y32107D01*
D02*
G37*
G36*
X204301Y27934D02*
X207471D01*
Y26868D01*
X203026D01*
Y33127D01*
X204301D01*
Y27934D01*
D02*
G37*
G36*
X199865Y26868D02*
X198489D01*
X197942Y28299D01*
X195410D01*
X194891Y26868D01*
X193542D01*
X195984Y33173D01*
X197332D01*
X199865Y26868D01*
D02*
G37*
G36*
X193360Y32107D02*
X191502D01*
Y26868D01*
X190226D01*
Y32107D01*
X188359D01*
Y33173D01*
X193360D01*
Y32107D01*
D02*
G37*
G36*
X188122Y26868D02*
X186746D01*
X186200Y28299D01*
X183667D01*
X183148Y26868D01*
X181799D01*
X184241Y33173D01*
X185589D01*
X188122Y26868D01*
D02*
G37*
G36*
X178675Y33163D02*
X178848Y33154D01*
X179039Y33145D01*
X179240Y33118D01*
X179431Y33091D01*
X179604Y33045D01*
X179613D01*
X179631Y33036D01*
X179659Y33027D01*
X179695Y33018D01*
X179804Y32972D01*
X179932Y32908D01*
X180078Y32826D01*
X180242Y32726D01*
X180397Y32608D01*
X180551Y32462D01*
X180561D01*
X180570Y32444D01*
X180615Y32389D01*
X180688Y32298D01*
X180770Y32180D01*
X180870Y32034D01*
X180971Y31861D01*
X181071Y31660D01*
X181153Y31442D01*
Y31433D01*
X181162Y31414D01*
X181171Y31378D01*
X181189Y31332D01*
X181198Y31278D01*
X181217Y31205D01*
X181235Y31123D01*
X181262Y31032D01*
X181280Y30931D01*
X181298Y30813D01*
X181317Y30695D01*
X181326Y30558D01*
X181353Y30276D01*
X181362Y29957D01*
Y29948D01*
Y29920D01*
Y29884D01*
Y29829D01*
X181353Y29756D01*
Y29683D01*
X181344Y29592D01*
X181335Y29492D01*
X181317Y29283D01*
X181280Y29064D01*
X181226Y28836D01*
X181162Y28618D01*
Y28608D01*
X181153Y28590D01*
X181134Y28554D01*
X181116Y28499D01*
X181098Y28444D01*
X181062Y28381D01*
X180989Y28217D01*
X180898Y28044D01*
X180779Y27852D01*
X180643Y27670D01*
X180488Y27497D01*
X180470Y27479D01*
X180424Y27442D01*
X180351Y27388D01*
X180251Y27315D01*
X180123Y27233D01*
X179978Y27151D01*
X179795Y27069D01*
X179595Y26996D01*
X179586D01*
X179577Y26987D01*
X179549D01*
X179522Y26978D01*
X179422Y26959D01*
X179294Y26932D01*
X179139Y26905D01*
X178948Y26887D01*
X178720Y26877D01*
X178474Y26868D01*
X176088D01*
Y33173D01*
X178602D01*
X178675Y33163D01*
D02*
G37*
G36*
X170184D02*
X170421D01*
X170676Y33145D01*
X170931Y33127D01*
X171041Y33118D01*
X171150Y33109D01*
X171241Y33091D01*
X171314Y33072D01*
X171323D01*
X171341Y33063D01*
X171369Y33054D01*
X171405Y33045D01*
X171505Y33000D01*
X171633Y32945D01*
X171769Y32863D01*
X171924Y32754D01*
X172070Y32617D01*
X172216Y32453D01*
Y32444D01*
X172234Y32435D01*
X172252Y32407D01*
X172271Y32371D01*
X172307Y32316D01*
X172334Y32261D01*
X172371Y32198D01*
X172407Y32125D01*
X172471Y31943D01*
X172535Y31742D01*
X172571Y31496D01*
X172589Y31232D01*
Y31223D01*
Y31205D01*
Y31177D01*
Y31132D01*
X172580Y31086D01*
Y31023D01*
X172562Y30895D01*
X172535Y30740D01*
X172498Y30567D01*
X172444Y30403D01*
X172371Y30248D01*
X172362Y30230D01*
X172334Y30185D01*
X172289Y30112D01*
X172225Y30020D01*
X172152Y29929D01*
X172052Y29820D01*
X171952Y29720D01*
X171833Y29629D01*
X171815Y29620D01*
X171779Y29592D01*
X171715Y29556D01*
X171633Y29510D01*
X171532Y29456D01*
X171423Y29410D01*
X171305Y29365D01*
X171177Y29328D01*
X171159D01*
X171132Y29319D01*
X171095D01*
X171050Y29310D01*
X170986Y29301D01*
X170922Y29292D01*
X170840D01*
X170758Y29283D01*
X170658Y29274D01*
X170549Y29264D01*
X170430Y29255D01*
X170303D01*
X170166Y29246D01*
X169036D01*
Y26868D01*
X167761D01*
Y33173D01*
X170084D01*
X170184Y33163D01*
D02*
G37*
G36*
X163680Y27934D02*
X166850D01*
Y26868D01*
X162404D01*
Y33127D01*
X163680D01*
Y27934D01*
D02*
G37*
G36*
X211298Y33282D02*
X211389D01*
X211507Y33264D01*
X211644Y33245D01*
X211799Y33218D01*
X211963Y33182D01*
X212136Y33136D01*
X212318Y33081D01*
X212500Y33009D01*
X212691Y32927D01*
X212874Y32826D01*
X213056Y32708D01*
X213229Y32571D01*
X213393Y32416D01*
X213402Y32407D01*
X213429Y32380D01*
X213475Y32325D01*
X213521Y32261D01*
X213584Y32170D01*
X213657Y32061D01*
X213730Y31934D01*
X213812Y31788D01*
X213894Y31633D01*
X213967Y31451D01*
X214040Y31250D01*
X214104Y31041D01*
X214158Y30804D01*
X214195Y30558D01*
X214222Y30294D01*
X214231Y30011D01*
Y29993D01*
Y29948D01*
X214222Y29866D01*
Y29756D01*
X214204Y29629D01*
X214186Y29483D01*
X214158Y29310D01*
X214131Y29137D01*
X214085Y28945D01*
X214031Y28745D01*
X213958Y28545D01*
X213876Y28344D01*
X213785Y28153D01*
X213666Y27962D01*
X213539Y27779D01*
X213393Y27606D01*
X213384Y27597D01*
X213357Y27570D01*
X213311Y27524D01*
X213238Y27470D01*
X213156Y27406D01*
X213056Y27333D01*
X212937Y27260D01*
X212810Y27178D01*
X212655Y27096D01*
X212491Y27023D01*
X212309Y26950D01*
X212108Y26887D01*
X211899Y26832D01*
X211671Y26786D01*
X211434Y26759D01*
X211179Y26750D01*
X211116D01*
X211043Y26759D01*
X210951Y26768D01*
X210833Y26777D01*
X210696Y26796D01*
X210542Y26823D01*
X210378Y26859D01*
X210195Y26905D01*
X210022Y26959D01*
X209831Y27032D01*
X209649Y27114D01*
X209457Y27206D01*
X209284Y27324D01*
X209111Y27452D01*
X208947Y27606D01*
X208938Y27615D01*
X208911Y27643D01*
X208874Y27697D01*
X208820Y27761D01*
X208756Y27852D01*
X208683Y27962D01*
X208610Y28080D01*
X208537Y28226D01*
X208455Y28381D01*
X208383Y28563D01*
X208310Y28754D01*
X208246Y28964D01*
X208191Y29191D01*
X208155Y29438D01*
X208127Y29702D01*
X208118Y29975D01*
Y29984D01*
Y30020D01*
Y30066D01*
X208127Y30139D01*
Y30221D01*
X208137Y30312D01*
X208146Y30421D01*
X208155Y30540D01*
X208191Y30795D01*
X208237Y31068D01*
X208310Y31341D01*
X208401Y31596D01*
Y31606D01*
X208410Y31615D01*
X208428Y31642D01*
X208437Y31679D01*
X208492Y31770D01*
X208556Y31888D01*
X208638Y32025D01*
X208738Y32161D01*
X208856Y32316D01*
X208984Y32462D01*
X208993Y32471D01*
X209002Y32480D01*
X209048Y32526D01*
X209130Y32599D01*
X209230Y32681D01*
X209348Y32772D01*
X209485Y32872D01*
X209640Y32963D01*
X209804Y33036D01*
X209813D01*
X209831Y33045D01*
X209867Y33063D01*
X209913Y33072D01*
X209968Y33100D01*
X210031Y33118D01*
X210113Y33136D01*
X210195Y33163D01*
X210396Y33209D01*
X210624Y33255D01*
X210888Y33282D01*
X211161Y33291D01*
X211225D01*
X211298Y33282D01*
D02*
G37*
G36*
X203265Y14321D02*
X202393D01*
Y15128D01*
X203265D01*
Y14321D01*
D02*
G37*
G36*
X195518D02*
X194645D01*
Y15128D01*
X195518D01*
Y14321D01*
D02*
G37*
G36*
X198037Y13947D02*
X198109Y13934D01*
X198201Y13914D01*
X198299Y13881D01*
X198398Y13842D01*
X198503Y13783D01*
X198227Y13029D01*
X198221Y13035D01*
X198188Y13048D01*
X198148Y13074D01*
X198096Y13101D01*
X198030Y13127D01*
X197965Y13153D01*
X197892Y13166D01*
X197820Y13173D01*
X197794D01*
X197755Y13166D01*
X197715Y13160D01*
X197669Y13147D01*
X197617Y13127D01*
X197564Y13101D01*
X197512Y13068D01*
X197505Y13061D01*
X197492Y13048D01*
X197466Y13022D01*
X197440Y12983D01*
X197407Y12937D01*
X197374Y12871D01*
X197341Y12792D01*
X197315Y12701D01*
Y12687D01*
X197309Y12668D01*
X197302Y12648D01*
Y12615D01*
X197295Y12576D01*
X197289Y12523D01*
X197282Y12464D01*
X197276Y12399D01*
X197269Y12314D01*
X197263Y12228D01*
Y12123D01*
X197256Y12012D01*
X197250Y11887D01*
Y11749D01*
Y11598D01*
Y10588D01*
X196377D01*
Y13881D01*
X197184D01*
Y13416D01*
X197191Y13422D01*
X197217Y13462D01*
X197256Y13521D01*
X197309Y13593D01*
X197361Y13665D01*
X197427Y13737D01*
X197486Y13803D01*
X197551Y13849D01*
X197558Y13855D01*
X197578Y13868D01*
X197617Y13881D01*
X197663Y13901D01*
X197715Y13921D01*
X197781Y13940D01*
X197847Y13947D01*
X197925Y13953D01*
X197978D01*
X198037Y13947D01*
D02*
G37*
G36*
X171869Y10588D02*
X171023D01*
X171016Y14157D01*
X170124Y10588D01*
X169238D01*
X168346Y14157D01*
Y10588D01*
X167500D01*
Y15128D01*
X168871D01*
X169685Y12025D01*
X170491Y15128D01*
X171869D01*
Y10588D01*
D02*
G37*
G36*
X240828Y14439D02*
X240821Y14432D01*
X240808Y14419D01*
X240788Y14400D01*
X240762Y14373D01*
X240729Y14334D01*
X240690Y14288D01*
X240644Y14236D01*
X240592Y14170D01*
X240539Y14098D01*
X240480Y14019D01*
X240414Y13934D01*
X240349Y13842D01*
X240283Y13737D01*
X240218Y13632D01*
X240145Y13514D01*
X240073Y13389D01*
X240067Y13383D01*
X240054Y13357D01*
X240034Y13324D01*
X240008Y13271D01*
X239981Y13212D01*
X239942Y13134D01*
X239903Y13048D01*
X239857Y12956D01*
X239811Y12851D01*
X239765Y12740D01*
X239713Y12622D01*
X239667Y12497D01*
X239575Y12228D01*
X239489Y11946D01*
Y11940D01*
X239483Y11913D01*
X239470Y11874D01*
X239457Y11815D01*
X239443Y11749D01*
X239430Y11677D01*
X239411Y11585D01*
X239391Y11494D01*
X239371Y11389D01*
X239358Y11284D01*
X239325Y11054D01*
X239306Y10818D01*
X239299Y10588D01*
X238459D01*
Y10601D01*
Y10628D01*
X238466Y10680D01*
Y10752D01*
X238473Y10837D01*
X238486Y10936D01*
X238499Y11054D01*
X238519Y11179D01*
X238538Y11316D01*
X238564Y11467D01*
X238597Y11625D01*
X238630Y11795D01*
X238676Y11966D01*
X238722Y12143D01*
X238781Y12320D01*
X238847Y12504D01*
X238853Y12517D01*
X238866Y12550D01*
X238886Y12602D01*
X238912Y12668D01*
X238951Y12753D01*
X238997Y12858D01*
X239050Y12969D01*
X239109Y13094D01*
X239175Y13225D01*
X239247Y13363D01*
X239325Y13514D01*
X239417Y13658D01*
X239608Y13967D01*
X239824Y14262D01*
X237849D01*
Y15069D01*
X240828D01*
Y14439D01*
D02*
G37*
G36*
X236544Y10588D02*
X235671D01*
Y13875D01*
X235665Y13868D01*
X235652Y13855D01*
X235626Y13835D01*
X235586Y13803D01*
X235540Y13763D01*
X235488Y13724D01*
X235422Y13678D01*
X235350Y13625D01*
X235271Y13573D01*
X235186Y13521D01*
X235094Y13462D01*
X234996Y13409D01*
X234786Y13311D01*
X234550Y13219D01*
Y14006D01*
X234556D01*
X234563Y14013D01*
X234583Y14019D01*
X234609Y14026D01*
X234674Y14059D01*
X234766Y14098D01*
X234878Y14150D01*
X235002Y14222D01*
X235140Y14314D01*
X235284Y14419D01*
X235291Y14426D01*
X235304Y14432D01*
X235324Y14452D01*
X235350Y14478D01*
X235422Y14544D01*
X235501Y14629D01*
X235593Y14734D01*
X235685Y14865D01*
X235770Y15003D01*
X235836Y15154D01*
X236544D01*
Y10588D01*
D02*
G37*
G36*
X233651Y14360D02*
X231204D01*
Y13357D01*
X233481D01*
Y12589D01*
X231204D01*
Y11356D01*
X233736D01*
Y10588D01*
X230286D01*
Y15128D01*
X233651D01*
Y14360D01*
D02*
G37*
G36*
X229794Y10588D02*
X228803D01*
X228410Y11618D01*
X226586D01*
X226212Y10588D01*
X225241D01*
X226999Y15128D01*
X227970D01*
X229794Y10588D01*
D02*
G37*
G36*
X224533Y12261D02*
X225097D01*
Y11500D01*
X224533D01*
Y10588D01*
X223693D01*
Y11500D01*
X221830D01*
Y12254D01*
X223798Y15147D01*
X224533D01*
Y12261D01*
D02*
G37*
G36*
X220059Y15147D02*
X220118Y15141D01*
X220183Y15134D01*
X220255Y15121D01*
X220334Y15108D01*
X220505Y15062D01*
X220675Y14997D01*
X220767Y14957D01*
X220846Y14911D01*
X220931Y14852D01*
X221003Y14787D01*
X221010Y14780D01*
X221023Y14773D01*
X221036Y14747D01*
X221062Y14721D01*
X221095Y14688D01*
X221128Y14642D01*
X221161Y14596D01*
X221200Y14537D01*
X221266Y14406D01*
X221331Y14255D01*
X221358Y14170D01*
X221371Y14078D01*
X221384Y13980D01*
X221390Y13881D01*
Y13868D01*
Y13829D01*
X221384Y13770D01*
X221377Y13698D01*
X221364Y13606D01*
X221344Y13507D01*
X221318Y13402D01*
X221279Y13297D01*
X221272Y13284D01*
X221259Y13252D01*
X221233Y13193D01*
X221194Y13120D01*
X221148Y13035D01*
X221089Y12937D01*
X221017Y12832D01*
X220931Y12720D01*
X220925Y12714D01*
X220898Y12681D01*
X220859Y12635D01*
X220800Y12569D01*
X220721Y12491D01*
X220623Y12386D01*
X220505Y12274D01*
X220360Y12136D01*
X220354Y12130D01*
X220341Y12123D01*
X220321Y12104D01*
X220295Y12077D01*
X220223Y12012D01*
X220137Y11933D01*
X220052Y11848D01*
X219967Y11762D01*
X219888Y11690D01*
X219862Y11658D01*
X219836Y11631D01*
X219829Y11625D01*
X219816Y11612D01*
X219796Y11585D01*
X219770Y11553D01*
X219711Y11480D01*
X219659Y11395D01*
X221390D01*
Y10588D01*
X218340D01*
Y10595D01*
Y10608D01*
X218347Y10634D01*
X218353Y10667D01*
X218360Y10706D01*
X218366Y10752D01*
X218392Y10870D01*
X218432Y11001D01*
X218484Y11146D01*
X218550Y11303D01*
X218635Y11454D01*
Y11461D01*
X218648Y11474D01*
X218661Y11500D01*
X218688Y11526D01*
X218714Y11572D01*
X218753Y11618D01*
X218799Y11677D01*
X218852Y11743D01*
X218911Y11822D01*
X218983Y11900D01*
X219062Y11992D01*
X219153Y12090D01*
X219252Y12189D01*
X219363Y12300D01*
X219481Y12419D01*
X219613Y12543D01*
X219619Y12550D01*
X219639Y12569D01*
X219665Y12596D01*
X219705Y12635D01*
X219757Y12674D01*
X219809Y12727D01*
X219928Y12845D01*
X220046Y12969D01*
X220164Y13094D01*
X220216Y13147D01*
X220269Y13206D01*
X220308Y13252D01*
X220334Y13291D01*
X220341Y13304D01*
X220360Y13337D01*
X220393Y13389D01*
X220426Y13462D01*
X220459Y13540D01*
X220492Y13632D01*
X220511Y13724D01*
X220518Y13822D01*
Y13829D01*
Y13835D01*
Y13868D01*
X220511Y13927D01*
X220498Y13993D01*
X220479Y14065D01*
X220452Y14137D01*
X220413Y14209D01*
X220360Y14275D01*
X220354Y14281D01*
X220334Y14301D01*
X220295Y14327D01*
X220249Y14354D01*
X220183Y14380D01*
X220111Y14406D01*
X220026Y14426D01*
X219928Y14432D01*
X219882D01*
X219829Y14426D01*
X219770Y14413D01*
X219698Y14393D01*
X219626Y14360D01*
X219554Y14321D01*
X219488Y14268D01*
X219481Y14262D01*
X219462Y14236D01*
X219436Y14196D01*
X219409Y14137D01*
X219376Y14065D01*
X219350Y13967D01*
X219324Y13855D01*
X219311Y13724D01*
X218445Y13809D01*
Y13816D01*
X218451Y13842D01*
Y13875D01*
X218465Y13927D01*
X218471Y13986D01*
X218491Y14052D01*
X218511Y14124D01*
X218530Y14209D01*
X218596Y14373D01*
X218675Y14544D01*
X218727Y14629D01*
X218786Y14708D01*
X218852Y14773D01*
X218924Y14839D01*
X218930Y14846D01*
X218944Y14852D01*
X218963Y14865D01*
X218996Y14892D01*
X219035Y14911D01*
X219088Y14938D01*
X219140Y14970D01*
X219206Y14997D01*
X219278Y15029D01*
X219357Y15056D01*
X219527Y15108D01*
X219731Y15141D01*
X219836Y15147D01*
X219947Y15154D01*
X220013D01*
X220059Y15147D01*
D02*
G37*
G36*
X213000D02*
X213059Y15141D01*
X213125Y15134D01*
X213197Y15121D01*
X213276Y15108D01*
X213446Y15062D01*
X213617Y14997D01*
X213709Y14957D01*
X213787Y14911D01*
X213873Y14852D01*
X213945Y14787D01*
X213951Y14780D01*
X213965Y14773D01*
X213978Y14747D01*
X214004Y14721D01*
X214037Y14688D01*
X214069Y14642D01*
X214102Y14596D01*
X214142Y14537D01*
X214207Y14406D01*
X214273Y14255D01*
X214299Y14170D01*
X214312Y14078D01*
X214325Y13980D01*
X214332Y13881D01*
Y13868D01*
Y13829D01*
X214325Y13770D01*
X214319Y13698D01*
X214306Y13606D01*
X214286Y13507D01*
X214260Y13402D01*
X214220Y13297D01*
X214214Y13284D01*
X214201Y13252D01*
X214174Y13193D01*
X214135Y13120D01*
X214089Y13035D01*
X214030Y12937D01*
X213958Y12832D01*
X213873Y12720D01*
X213866Y12714D01*
X213840Y12681D01*
X213801Y12635D01*
X213741Y12569D01*
X213663Y12491D01*
X213564Y12386D01*
X213446Y12274D01*
X213302Y12136D01*
X213295Y12130D01*
X213282Y12123D01*
X213263Y12104D01*
X213236Y12077D01*
X213164Y12012D01*
X213079Y11933D01*
X212994Y11848D01*
X212908Y11762D01*
X212830Y11690D01*
X212803Y11658D01*
X212777Y11631D01*
X212771Y11625D01*
X212757Y11612D01*
X212738Y11585D01*
X212712Y11553D01*
X212652Y11480D01*
X212600Y11395D01*
X214332D01*
Y10588D01*
X211281D01*
Y10595D01*
Y10608D01*
X211288Y10634D01*
X211295Y10667D01*
X211301Y10706D01*
X211308Y10752D01*
X211334Y10870D01*
X211373Y11001D01*
X211426Y11146D01*
X211491Y11303D01*
X211577Y11454D01*
Y11461D01*
X211590Y11474D01*
X211603Y11500D01*
X211629Y11526D01*
X211655Y11572D01*
X211695Y11618D01*
X211741Y11677D01*
X211793Y11743D01*
X211852Y11822D01*
X211924Y11900D01*
X212003Y11992D01*
X212095Y12090D01*
X212193Y12189D01*
X212305Y12300D01*
X212423Y12419D01*
X212554Y12543D01*
X212561Y12550D01*
X212580Y12569D01*
X212607Y12596D01*
X212646Y12635D01*
X212698Y12674D01*
X212751Y12727D01*
X212869Y12845D01*
X212987Y12969D01*
X213105Y13094D01*
X213158Y13147D01*
X213210Y13206D01*
X213249Y13252D01*
X213276Y13291D01*
X213282Y13304D01*
X213302Y13337D01*
X213335Y13389D01*
X213368Y13462D01*
X213400Y13540D01*
X213433Y13632D01*
X213453Y13724D01*
X213459Y13822D01*
Y13829D01*
Y13835D01*
Y13868D01*
X213453Y13927D01*
X213440Y13993D01*
X213420Y14065D01*
X213394Y14137D01*
X213354Y14209D01*
X213302Y14275D01*
X213295Y14281D01*
X213276Y14301D01*
X213236Y14327D01*
X213190Y14354D01*
X213125Y14380D01*
X213053Y14406D01*
X212967Y14426D01*
X212869Y14432D01*
X212823D01*
X212771Y14426D01*
X212712Y14413D01*
X212639Y14393D01*
X212567Y14360D01*
X212495Y14321D01*
X212429Y14268D01*
X212423Y14262D01*
X212403Y14236D01*
X212377Y14196D01*
X212351Y14137D01*
X212318Y14065D01*
X212292Y13967D01*
X212265Y13855D01*
X212252Y13724D01*
X211386Y13809D01*
Y13816D01*
X211393Y13842D01*
Y13875D01*
X211406Y13927D01*
X211413Y13986D01*
X211432Y14052D01*
X211452Y14124D01*
X211472Y14209D01*
X211537Y14373D01*
X211616Y14544D01*
X211668Y14629D01*
X211727Y14708D01*
X211793Y14773D01*
X211865Y14839D01*
X211872Y14846D01*
X211885Y14852D01*
X211905Y14865D01*
X211937Y14892D01*
X211977Y14911D01*
X212029Y14938D01*
X212082Y14970D01*
X212147Y14997D01*
X212220Y15029D01*
X212298Y15056D01*
X212469Y15108D01*
X212672Y15141D01*
X212777Y15147D01*
X212889Y15154D01*
X212954D01*
X213000Y15147D01*
D02*
G37*
G36*
X205601Y13947D02*
X205653D01*
X205784Y13934D01*
X205922Y13921D01*
X206066Y13894D01*
X206204Y13855D01*
X206263Y13835D01*
X206322Y13809D01*
X206329D01*
X206335Y13803D01*
X206368Y13783D01*
X206420Y13757D01*
X206480Y13717D01*
X206552Y13665D01*
X206617Y13606D01*
X206676Y13534D01*
X206729Y13462D01*
X206735Y13448D01*
X206749Y13422D01*
X206768Y13363D01*
X206775Y13330D01*
X206788Y13284D01*
X206801Y13239D01*
X206807Y13179D01*
X206821Y13114D01*
X206827Y13042D01*
X206834Y12963D01*
X206840Y12878D01*
X206847Y12786D01*
Y12681D01*
X206834Y11664D01*
Y11658D01*
Y11644D01*
Y11625D01*
Y11592D01*
Y11513D01*
X206840Y11421D01*
Y11316D01*
X206853Y11211D01*
X206860Y11107D01*
X206873Y11021D01*
Y11015D01*
X206880Y10988D01*
X206893Y10943D01*
X206906Y10890D01*
X206932Y10824D01*
X206958Y10752D01*
X206991Y10673D01*
X207031Y10588D01*
X206171D01*
Y10595D01*
X206165Y10601D01*
X206158Y10628D01*
X206145Y10654D01*
X206132Y10687D01*
X206119Y10733D01*
X206106Y10785D01*
X206086Y10844D01*
Y10851D01*
X206079Y10857D01*
X206073Y10883D01*
X206060Y10916D01*
X206053Y10943D01*
X206040Y10936D01*
X206014Y10910D01*
X205968Y10870D01*
X205909Y10824D01*
X205837Y10772D01*
X205758Y10713D01*
X205666Y10667D01*
X205574Y10621D01*
X205561Y10615D01*
X205528Y10608D01*
X205476Y10588D01*
X205410Y10569D01*
X205331Y10549D01*
X205240Y10536D01*
X205135Y10523D01*
X205030Y10516D01*
X204984D01*
X204944Y10523D01*
X204905D01*
X204853Y10529D01*
X204741Y10549D01*
X204610Y10582D01*
X204479Y10628D01*
X204347Y10693D01*
X204229Y10785D01*
Y10792D01*
X204216Y10798D01*
X204184Y10837D01*
X204138Y10897D01*
X204085Y10975D01*
X204033Y11074D01*
X203987Y11192D01*
X203954Y11329D01*
X203947Y11402D01*
X203941Y11480D01*
Y11494D01*
Y11526D01*
X203947Y11579D01*
X203960Y11644D01*
X203974Y11723D01*
X203993Y11802D01*
X204026Y11887D01*
X204072Y11972D01*
X204079Y11986D01*
X204098Y12012D01*
X204124Y12051D01*
X204170Y12097D01*
X204216Y12150D01*
X204282Y12209D01*
X204354Y12261D01*
X204439Y12307D01*
X204452Y12314D01*
X204485Y12327D01*
X204538Y12346D01*
X204616Y12379D01*
X204715Y12412D01*
X204833Y12445D01*
X204977Y12477D01*
X205135Y12510D01*
X205141D01*
X205161Y12517D01*
X205194Y12523D01*
X205233Y12530D01*
X205286Y12537D01*
X205345Y12550D01*
X205476Y12583D01*
X205614Y12615D01*
X205758Y12648D01*
X205883Y12687D01*
X205942Y12707D01*
X205988Y12727D01*
Y12812D01*
Y12825D01*
Y12851D01*
X205981Y12897D01*
X205974Y12956D01*
X205955Y13015D01*
X205935Y13074D01*
X205902Y13127D01*
X205856Y13173D01*
X205850Y13179D01*
X205830Y13193D01*
X205797Y13206D01*
X205751Y13232D01*
X205686Y13252D01*
X205607Y13265D01*
X205509Y13278D01*
X205391Y13284D01*
X205351D01*
X205312Y13278D01*
X205259Y13271D01*
X205200Y13258D01*
X205135Y13245D01*
X205076Y13219D01*
X205023Y13186D01*
X205017Y13179D01*
X205003Y13166D01*
X204977Y13147D01*
X204951Y13114D01*
X204912Y13068D01*
X204879Y13009D01*
X204846Y12943D01*
X204813Y12865D01*
X204033Y13009D01*
Y13015D01*
X204039Y13029D01*
X204046Y13055D01*
X204059Y13088D01*
X204072Y13127D01*
X204092Y13173D01*
X204138Y13278D01*
X204203Y13389D01*
X204282Y13507D01*
X204374Y13619D01*
X204485Y13717D01*
X204492D01*
X204498Y13731D01*
X204518Y13737D01*
X204544Y13757D01*
X204584Y13770D01*
X204623Y13790D01*
X204676Y13816D01*
X204728Y13835D01*
X204794Y13855D01*
X204866Y13881D01*
X204944Y13901D01*
X205036Y13914D01*
X205128Y13934D01*
X205233Y13940D01*
X205338Y13953D01*
X205555D01*
X205601Y13947D01*
D02*
G37*
G36*
X200307D02*
X200359D01*
X200490Y13934D01*
X200628Y13921D01*
X200772Y13894D01*
X200910Y13855D01*
X200969Y13835D01*
X201028Y13809D01*
X201035D01*
X201041Y13803D01*
X201074Y13783D01*
X201127Y13757D01*
X201186Y13717D01*
X201258Y13665D01*
X201323Y13606D01*
X201382Y13534D01*
X201435Y13462D01*
X201441Y13448D01*
X201455Y13422D01*
X201474Y13363D01*
X201481Y13330D01*
X201494Y13284D01*
X201507Y13239D01*
X201514Y13179D01*
X201527Y13114D01*
X201533Y13042D01*
X201540Y12963D01*
X201546Y12878D01*
X201553Y12786D01*
Y12681D01*
X201540Y11664D01*
Y11658D01*
Y11644D01*
Y11625D01*
Y11592D01*
Y11513D01*
X201546Y11421D01*
Y11316D01*
X201559Y11211D01*
X201566Y11107D01*
X201579Y11021D01*
Y11015D01*
X201586Y10988D01*
X201599Y10943D01*
X201612Y10890D01*
X201638Y10824D01*
X201664Y10752D01*
X201697Y10673D01*
X201737Y10588D01*
X200877D01*
Y10595D01*
X200871Y10601D01*
X200864Y10628D01*
X200851Y10654D01*
X200838Y10687D01*
X200825Y10733D01*
X200812Y10785D01*
X200792Y10844D01*
Y10851D01*
X200785Y10857D01*
X200779Y10883D01*
X200766Y10916D01*
X200759Y10943D01*
X200746Y10936D01*
X200720Y10910D01*
X200674Y10870D01*
X200615Y10824D01*
X200543Y10772D01*
X200464Y10713D01*
X200372Y10667D01*
X200280Y10621D01*
X200267Y10615D01*
X200234Y10608D01*
X200182Y10588D01*
X200116Y10569D01*
X200038Y10549D01*
X199946Y10536D01*
X199841Y10523D01*
X199736Y10516D01*
X199690D01*
X199651Y10523D01*
X199611D01*
X199559Y10529D01*
X199447Y10549D01*
X199316Y10582D01*
X199185Y10628D01*
X199054Y10693D01*
X198935Y10785D01*
Y10792D01*
X198922Y10798D01*
X198890Y10837D01*
X198844Y10897D01*
X198791Y10975D01*
X198739Y11074D01*
X198693Y11192D01*
X198660Y11329D01*
X198653Y11402D01*
X198647Y11480D01*
Y11494D01*
Y11526D01*
X198653Y11579D01*
X198667Y11644D01*
X198680Y11723D01*
X198699Y11802D01*
X198732Y11887D01*
X198778Y11972D01*
X198785Y11986D01*
X198804Y12012D01*
X198831Y12051D01*
X198877Y12097D01*
X198922Y12150D01*
X198988Y12209D01*
X199060Y12261D01*
X199145Y12307D01*
X199159Y12314D01*
X199191Y12327D01*
X199244Y12346D01*
X199323Y12379D01*
X199421Y12412D01*
X199539Y12445D01*
X199683Y12477D01*
X199841Y12510D01*
X199847D01*
X199867Y12517D01*
X199900Y12523D01*
X199939Y12530D01*
X199992Y12537D01*
X200051Y12550D01*
X200182Y12583D01*
X200320Y12615D01*
X200464Y12648D01*
X200589Y12687D01*
X200648Y12707D01*
X200694Y12727D01*
Y12812D01*
Y12825D01*
Y12851D01*
X200687Y12897D01*
X200680Y12956D01*
X200661Y13015D01*
X200641Y13074D01*
X200608Y13127D01*
X200562Y13173D01*
X200556Y13179D01*
X200536Y13193D01*
X200503Y13206D01*
X200457Y13232D01*
X200392Y13252D01*
X200313Y13265D01*
X200215Y13278D01*
X200097Y13284D01*
X200057D01*
X200018Y13278D01*
X199965Y13271D01*
X199906Y13258D01*
X199841Y13245D01*
X199782Y13219D01*
X199729Y13186D01*
X199723Y13179D01*
X199710Y13166D01*
X199683Y13147D01*
X199657Y13114D01*
X199618Y13068D01*
X199585Y13009D01*
X199552Y12943D01*
X199519Y12865D01*
X198739Y13009D01*
Y13015D01*
X198745Y13029D01*
X198752Y13055D01*
X198765Y13088D01*
X198778Y13127D01*
X198798Y13173D01*
X198844Y13278D01*
X198909Y13389D01*
X198988Y13507D01*
X199080Y13619D01*
X199191Y13717D01*
X199198D01*
X199205Y13731D01*
X199224Y13737D01*
X199250Y13757D01*
X199290Y13770D01*
X199329Y13790D01*
X199382Y13816D01*
X199434Y13835D01*
X199500Y13855D01*
X199572Y13881D01*
X199651Y13901D01*
X199742Y13914D01*
X199834Y13934D01*
X199939Y13940D01*
X200044Y13953D01*
X200261D01*
X200307Y13947D01*
D02*
G37*
G36*
X195518Y10588D02*
X194645D01*
Y13881D01*
X195518D01*
Y10588D01*
D02*
G37*
G36*
X191634Y13448D02*
X191641Y13455D01*
X191654Y13468D01*
X191680Y13494D01*
X191706Y13527D01*
X191752Y13566D01*
X191798Y13606D01*
X191857Y13652D01*
X191916Y13704D01*
X191989Y13750D01*
X192067Y13796D01*
X192238Y13875D01*
X192330Y13908D01*
X192428Y13934D01*
X192533Y13947D01*
X192638Y13953D01*
X192690D01*
X192749Y13947D01*
X192822Y13940D01*
X192907Y13927D01*
X192992Y13901D01*
X193091Y13875D01*
X193182Y13835D01*
X193195Y13829D01*
X193222Y13816D01*
X193268Y13790D01*
X193320Y13757D01*
X193379Y13717D01*
X193438Y13671D01*
X193497Y13612D01*
X193550Y13553D01*
X193556Y13547D01*
X193569Y13521D01*
X193589Y13488D01*
X193615Y13442D01*
X193648Y13383D01*
X193674Y13317D01*
X193701Y13245D01*
X193720Y13166D01*
Y13160D01*
X193727Y13127D01*
X193733Y13074D01*
X193747Y13009D01*
X193753Y12917D01*
X193760Y12806D01*
X193766Y12674D01*
Y12517D01*
Y10588D01*
X192894D01*
Y12320D01*
Y12327D01*
Y12340D01*
Y12366D01*
Y12405D01*
Y12445D01*
Y12491D01*
X192887Y12596D01*
X192881Y12707D01*
X192874Y12819D01*
X192861Y12911D01*
X192848Y12943D01*
X192841Y12976D01*
Y12983D01*
X192828Y13002D01*
X192815Y13022D01*
X192802Y13055D01*
X192743Y13127D01*
X192710Y13166D01*
X192664Y13199D01*
X192658Y13206D01*
X192645Y13212D01*
X192612Y13225D01*
X192579Y13245D01*
X192533Y13258D01*
X192481Y13271D01*
X192415Y13278D01*
X192349Y13284D01*
X192310D01*
X192271Y13278D01*
X192218Y13271D01*
X192159Y13258D01*
X192093Y13239D01*
X192028Y13212D01*
X191962Y13173D01*
X191956Y13166D01*
X191936Y13153D01*
X191903Y13127D01*
X191870Y13094D01*
X191824Y13048D01*
X191785Y12996D01*
X191746Y12930D01*
X191713Y12858D01*
Y12851D01*
X191700Y12819D01*
X191687Y12773D01*
X191674Y12701D01*
X191660Y12615D01*
X191647Y12504D01*
X191641Y12379D01*
X191634Y12235D01*
Y10588D01*
X190762D01*
Y15128D01*
X191634D01*
Y13448D01*
D02*
G37*
G36*
X186557Y13947D02*
X186609D01*
X186741Y13934D01*
X186878Y13921D01*
X187023Y13894D01*
X187160Y13855D01*
X187219Y13835D01*
X187278Y13809D01*
X187285D01*
X187292Y13803D01*
X187324Y13783D01*
X187377Y13757D01*
X187436Y13717D01*
X187508Y13665D01*
X187574Y13606D01*
X187633Y13534D01*
X187685Y13462D01*
X187692Y13448D01*
X187705Y13422D01*
X187724Y13363D01*
X187731Y13330D01*
X187744Y13284D01*
X187757Y13239D01*
X187764Y13179D01*
X187777Y13114D01*
X187784Y13042D01*
X187790Y12963D01*
X187797Y12878D01*
X187803Y12786D01*
Y12681D01*
X187790Y11664D01*
Y11658D01*
Y11644D01*
Y11625D01*
Y11592D01*
Y11513D01*
X187797Y11421D01*
Y11316D01*
X187810Y11211D01*
X187816Y11107D01*
X187829Y11021D01*
Y11015D01*
X187836Y10988D01*
X187849Y10943D01*
X187862Y10890D01*
X187889Y10824D01*
X187915Y10752D01*
X187947Y10673D01*
X187987Y10588D01*
X187127D01*
Y10595D01*
X187121Y10601D01*
X187114Y10628D01*
X187101Y10654D01*
X187088Y10687D01*
X187075Y10733D01*
X187062Y10785D01*
X187042Y10844D01*
Y10851D01*
X187036Y10857D01*
X187029Y10883D01*
X187016Y10916D01*
X187009Y10943D01*
X186996Y10936D01*
X186970Y10910D01*
X186924Y10870D01*
X186865Y10824D01*
X186793Y10772D01*
X186714Y10713D01*
X186622Y10667D01*
X186531Y10621D01*
X186517Y10615D01*
X186485Y10608D01*
X186432Y10588D01*
X186367Y10569D01*
X186288Y10549D01*
X186196Y10536D01*
X186091Y10523D01*
X185986Y10516D01*
X185940D01*
X185901Y10523D01*
X185861D01*
X185809Y10529D01*
X185697Y10549D01*
X185566Y10582D01*
X185435Y10628D01*
X185304Y10693D01*
X185186Y10785D01*
Y10792D01*
X185173Y10798D01*
X185140Y10837D01*
X185094Y10897D01*
X185041Y10975D01*
X184989Y11074D01*
X184943Y11192D01*
X184910Y11329D01*
X184904Y11402D01*
X184897Y11480D01*
Y11494D01*
Y11526D01*
X184904Y11579D01*
X184917Y11644D01*
X184930Y11723D01*
X184950Y11802D01*
X184982Y11887D01*
X185028Y11972D01*
X185035Y11986D01*
X185055Y12012D01*
X185081Y12051D01*
X185127Y12097D01*
X185173Y12150D01*
X185238Y12209D01*
X185310Y12261D01*
X185396Y12307D01*
X185409Y12314D01*
X185442Y12327D01*
X185494Y12346D01*
X185573Y12379D01*
X185671Y12412D01*
X185789Y12445D01*
X185934Y12477D01*
X186091Y12510D01*
X186098D01*
X186117Y12517D01*
X186150Y12523D01*
X186189Y12530D01*
X186242Y12537D01*
X186301Y12550D01*
X186432Y12583D01*
X186570Y12615D01*
X186714Y12648D01*
X186839Y12687D01*
X186898Y12707D01*
X186944Y12727D01*
Y12812D01*
Y12825D01*
Y12851D01*
X186937Y12897D01*
X186931Y12956D01*
X186911Y13015D01*
X186891Y13074D01*
X186859Y13127D01*
X186813Y13173D01*
X186806Y13179D01*
X186786Y13193D01*
X186754Y13206D01*
X186708Y13232D01*
X186642Y13252D01*
X186563Y13265D01*
X186465Y13278D01*
X186347Y13284D01*
X186308D01*
X186268Y13278D01*
X186216Y13271D01*
X186157Y13258D01*
X186091Y13245D01*
X186032Y13219D01*
X185979Y13186D01*
X185973Y13179D01*
X185960Y13166D01*
X185934Y13147D01*
X185907Y13114D01*
X185868Y13068D01*
X185835Y13009D01*
X185802Y12943D01*
X185770Y12865D01*
X184989Y13009D01*
Y13015D01*
X184995Y13029D01*
X185002Y13055D01*
X185015Y13088D01*
X185028Y13127D01*
X185048Y13173D01*
X185094Y13278D01*
X185160Y13389D01*
X185238Y13507D01*
X185330Y13619D01*
X185442Y13717D01*
X185448D01*
X185455Y13731D01*
X185474Y13737D01*
X185501Y13757D01*
X185540Y13770D01*
X185579Y13790D01*
X185632Y13816D01*
X185684Y13835D01*
X185750Y13855D01*
X185822Y13881D01*
X185901Y13901D01*
X185993Y13914D01*
X186084Y13934D01*
X186189Y13940D01*
X186294Y13953D01*
X186511D01*
X186557Y13947D01*
D02*
G37*
G36*
X182654Y15121D02*
X182824D01*
X183008Y15108D01*
X183192Y15095D01*
X183270Y15088D01*
X183349Y15082D01*
X183415Y15069D01*
X183467Y15056D01*
X183474D01*
X183487Y15049D01*
X183506Y15043D01*
X183533Y15036D01*
X183605Y15003D01*
X183697Y14964D01*
X183795Y14905D01*
X183907Y14826D01*
X184011Y14728D01*
X184116Y14609D01*
Y14603D01*
X184130Y14596D01*
X184143Y14577D01*
X184156Y14550D01*
X184182Y14511D01*
X184202Y14472D01*
X184228Y14426D01*
X184254Y14373D01*
X184300Y14242D01*
X184346Y14098D01*
X184372Y13921D01*
X184385Y13731D01*
Y13724D01*
Y13711D01*
Y13691D01*
Y13658D01*
X184379Y13625D01*
Y13580D01*
X184366Y13488D01*
X184346Y13376D01*
X184320Y13252D01*
X184281Y13134D01*
X184228Y13022D01*
X184221Y13009D01*
X184202Y12976D01*
X184169Y12924D01*
X184123Y12858D01*
X184071Y12792D01*
X183998Y12714D01*
X183926Y12641D01*
X183841Y12576D01*
X183828Y12569D01*
X183802Y12550D01*
X183756Y12523D01*
X183697Y12491D01*
X183624Y12451D01*
X183546Y12419D01*
X183460Y12386D01*
X183369Y12359D01*
X183355D01*
X183336Y12353D01*
X183310D01*
X183277Y12346D01*
X183231Y12340D01*
X183185Y12333D01*
X183126D01*
X183067Y12327D01*
X182995Y12320D01*
X182916Y12314D01*
X182831Y12307D01*
X182739D01*
X182641Y12300D01*
X181827D01*
Y10588D01*
X180909D01*
Y15128D01*
X182581D01*
X182654Y15121D01*
D02*
G37*
G36*
X180003Y10588D02*
X179131D01*
Y11461D01*
X180003D01*
Y10588D01*
D02*
G37*
G36*
X178652D02*
X177661D01*
X177268Y11618D01*
X175444D01*
X175070Y10588D01*
X174099D01*
X175857Y15128D01*
X176828D01*
X178652Y10588D01*
D02*
G37*
G36*
X173660D02*
X172787D01*
Y11461D01*
X173660D01*
Y10588D01*
D02*
G37*
G36*
X189574Y13881D02*
X190171D01*
Y13186D01*
X189574D01*
Y11854D01*
Y11848D01*
Y11835D01*
Y11815D01*
Y11789D01*
Y11723D01*
Y11644D01*
X189581Y11566D01*
Y11487D01*
Y11428D01*
X189587Y11402D01*
Y11389D01*
X189594Y11375D01*
X189607Y11349D01*
X189627Y11316D01*
X189666Y11277D01*
X189679Y11270D01*
X189706Y11257D01*
X189752Y11244D01*
X189811Y11238D01*
X189837D01*
X189863Y11244D01*
X189902Y11251D01*
X189955Y11257D01*
X190014Y11270D01*
X190086Y11290D01*
X190165Y11316D01*
X190243Y10641D01*
X190237D01*
X190230Y10634D01*
X190191Y10621D01*
X190125Y10601D01*
X190040Y10582D01*
X189942Y10555D01*
X189824Y10536D01*
X189692Y10523D01*
X189555Y10516D01*
X189515D01*
X189469Y10523D01*
X189410Y10529D01*
X189345Y10536D01*
X189273Y10549D01*
X189200Y10569D01*
X189128Y10595D01*
X189122Y10601D01*
X189095Y10608D01*
X189063Y10628D01*
X189023Y10647D01*
X188932Y10713D01*
X188886Y10752D01*
X188846Y10798D01*
X188840Y10805D01*
X188833Y10824D01*
X188820Y10851D01*
X188800Y10890D01*
X188781Y10936D01*
X188761Y10995D01*
X188741Y11061D01*
X188728Y11133D01*
Y11139D01*
X188722Y11165D01*
Y11205D01*
X188715Y11270D01*
X188708Y11356D01*
Y11461D01*
X188702Y11520D01*
Y11592D01*
Y11664D01*
Y11749D01*
Y13186D01*
X188302D01*
Y13881D01*
X188702D01*
Y14537D01*
X189574Y15049D01*
Y13881D01*
D02*
G37*
G36*
X216503Y15147D02*
X216556Y15141D01*
X216621Y15128D01*
X216687Y15115D01*
X216766Y15095D01*
X216851Y15069D01*
X216930Y15036D01*
X217015Y15003D01*
X217100Y14957D01*
X217185Y14898D01*
X217271Y14839D01*
X217349Y14767D01*
X217422Y14682D01*
X217428Y14675D01*
X217441Y14655D01*
X217461Y14623D01*
X217494Y14577D01*
X217527Y14511D01*
X217566Y14432D01*
X217605Y14347D01*
X217645Y14236D01*
X217684Y14118D01*
X217730Y13980D01*
X217763Y13829D01*
X217795Y13658D01*
X217828Y13475D01*
X217848Y13278D01*
X217861Y13061D01*
X217868Y12825D01*
Y12819D01*
Y12812D01*
Y12792D01*
Y12766D01*
Y12701D01*
X217861Y12615D01*
X217855Y12510D01*
X217841Y12386D01*
X217828Y12254D01*
X217815Y12110D01*
X217789Y11959D01*
X217756Y11802D01*
X217723Y11651D01*
X217677Y11500D01*
X217632Y11349D01*
X217566Y11211D01*
X217500Y11080D01*
X217422Y10969D01*
X217415Y10962D01*
X217402Y10949D01*
X217382Y10923D01*
X217356Y10897D01*
X217317Y10864D01*
X217271Y10824D01*
X217212Y10779D01*
X217153Y10739D01*
X217080Y10693D01*
X217008Y10647D01*
X216923Y10608D01*
X216831Y10575D01*
X216733Y10549D01*
X216621Y10523D01*
X216510Y10509D01*
X216392Y10503D01*
X216365D01*
X216326Y10509D01*
X216280D01*
X216228Y10516D01*
X216162Y10529D01*
X216090Y10542D01*
X216011Y10569D01*
X215926Y10595D01*
X215841Y10628D01*
X215749Y10667D01*
X215664Y10719D01*
X215572Y10772D01*
X215486Y10844D01*
X215401Y10916D01*
X215322Y11008D01*
X215316Y11015D01*
X215303Y11034D01*
X215283Y11067D01*
X215263Y11107D01*
X215231Y11165D01*
X215198Y11238D01*
X215158Y11329D01*
X215126Y11428D01*
X215086Y11546D01*
X215047Y11677D01*
X215014Y11828D01*
X214988Y11992D01*
X214962Y12176D01*
X214942Y12379D01*
X214929Y12596D01*
X214922Y12832D01*
Y12838D01*
Y12845D01*
Y12865D01*
Y12891D01*
Y12956D01*
X214929Y13042D01*
X214935Y13147D01*
X214949Y13271D01*
X214962Y13402D01*
X214975Y13547D01*
X215001Y13698D01*
X215027Y13849D01*
X215067Y14006D01*
X215106Y14157D01*
X215158Y14301D01*
X215217Y14439D01*
X215283Y14570D01*
X215362Y14682D01*
X215368Y14688D01*
X215381Y14701D01*
X215401Y14728D01*
X215434Y14754D01*
X215467Y14793D01*
X215513Y14833D01*
X215572Y14872D01*
X215631Y14918D01*
X215703Y14964D01*
X215775Y15003D01*
X215860Y15043D01*
X215952Y15082D01*
X216051Y15108D01*
X216162Y15134D01*
X216274Y15147D01*
X216392Y15154D01*
X216457D01*
X216503Y15147D01*
D02*
G37*
G36*
X203265Y10687D02*
Y10680D01*
Y10660D01*
Y10628D01*
Y10588D01*
Y10536D01*
X203259Y10477D01*
X203252Y10345D01*
X203245Y10201D01*
X203232Y10050D01*
X203206Y9919D01*
X203193Y9860D01*
X203180Y9808D01*
X203173Y9794D01*
X203160Y9762D01*
X203140Y9716D01*
X203108Y9657D01*
X203062Y9591D01*
X203009Y9526D01*
X202937Y9460D01*
X202858Y9401D01*
X202845Y9394D01*
X202819Y9375D01*
X202767Y9355D01*
X202701Y9329D01*
X202616Y9296D01*
X202511Y9276D01*
X202399Y9257D01*
X202268Y9250D01*
X202216D01*
X202183Y9257D01*
X202143D01*
X202091Y9263D01*
X201986Y9276D01*
X201979D01*
X201960Y9283D01*
X201933Y9289D01*
X201894Y9296D01*
X201842Y9302D01*
X201789Y9316D01*
X201664Y9348D01*
X201822Y10090D01*
X201835D01*
X201861Y10083D01*
X201894Y10077D01*
X201933Y10070D01*
X201940D01*
X201966Y10063D01*
X201999Y10057D01*
X202051D01*
X202078Y10063D01*
X202111D01*
X202176Y10083D01*
X202248Y10116D01*
X202255D01*
X202261Y10129D01*
X202294Y10155D01*
X202334Y10201D01*
X202360Y10260D01*
Y10267D01*
X202366Y10280D01*
X202373Y10306D01*
X202379Y10352D01*
Y10411D01*
X202386Y10490D01*
X202393Y10542D01*
Y10601D01*
Y10660D01*
Y10733D01*
Y13881D01*
X203265D01*
Y10687D01*
D02*
G37*
G36*
X241917Y15200D02*
X241930Y15174D01*
X241956Y15141D01*
X241989Y15088D01*
X242028Y15029D01*
X242074Y14957D01*
X242120Y14872D01*
X242173Y14780D01*
X242231Y14675D01*
X242291Y14564D01*
X242350Y14452D01*
X242409Y14327D01*
X242527Y14065D01*
X242632Y13790D01*
Y13783D01*
X242645Y13757D01*
X242658Y13717D01*
X242671Y13658D01*
X242691Y13593D01*
X242717Y13514D01*
X242737Y13422D01*
X242763Y13317D01*
X242789Y13212D01*
X242809Y13094D01*
X242835Y12963D01*
X242855Y12832D01*
X242881Y12563D01*
X242894Y12274D01*
Y12268D01*
Y12248D01*
Y12209D01*
Y12163D01*
X242887Y12104D01*
X242881Y12031D01*
X242874Y11946D01*
X242868Y11854D01*
X242861Y11756D01*
X242842Y11651D01*
X242828Y11533D01*
X242809Y11415D01*
X242756Y11159D01*
X242691Y10883D01*
Y10877D01*
X242678Y10844D01*
X242665Y10805D01*
X242645Y10746D01*
X242619Y10667D01*
X242586Y10582D01*
X242553Y10483D01*
X242507Y10372D01*
X242455Y10254D01*
X242402Y10123D01*
X242337Y9991D01*
X242271Y9847D01*
X242192Y9703D01*
X242113Y9552D01*
X242028Y9401D01*
X241930Y9250D01*
X241326D01*
Y9257D01*
X241339Y9276D01*
X241353Y9302D01*
X241366Y9342D01*
X241392Y9388D01*
X241411Y9440D01*
X241471Y9565D01*
X241530Y9703D01*
X241589Y9847D01*
X241641Y9985D01*
X241687Y10103D01*
Y10109D01*
X241694Y10116D01*
X241707Y10155D01*
X241726Y10214D01*
X241753Y10293D01*
X241779Y10391D01*
X241812Y10509D01*
X241845Y10634D01*
X241877Y10772D01*
Y10779D01*
X241884Y10792D01*
Y10811D01*
X241890Y10837D01*
X241910Y10910D01*
X241930Y11008D01*
X241949Y11120D01*
X241976Y11244D01*
X242015Y11500D01*
Y11507D01*
Y11513D01*
X242022Y11533D01*
Y11559D01*
X242028Y11631D01*
X242041Y11717D01*
X242048Y11828D01*
X242054Y11946D01*
X242061Y12077D01*
Y12209D01*
Y12215D01*
Y12241D01*
Y12281D01*
Y12333D01*
X242054Y12399D01*
Y12477D01*
X242048Y12563D01*
X242041Y12661D01*
X242035Y12766D01*
X242022Y12878D01*
X241989Y13114D01*
X241949Y13357D01*
X241897Y13606D01*
Y13612D01*
X241890Y13639D01*
X241877Y13671D01*
X241864Y13724D01*
X241851Y13790D01*
X241825Y13862D01*
X241799Y13953D01*
X241766Y14052D01*
X241726Y14163D01*
X241687Y14288D01*
X241641Y14419D01*
X241589Y14557D01*
X241530Y14708D01*
X241464Y14865D01*
X241398Y15036D01*
X241320Y15206D01*
X241910D01*
X241917Y15200D01*
D02*
G37*
G36*
X210914Y15193D02*
X210901Y15167D01*
X210881Y15115D01*
X210855Y15049D01*
X210816Y14970D01*
X210776Y14872D01*
X210737Y14767D01*
X210691Y14655D01*
X210639Y14531D01*
X210593Y14400D01*
X210494Y14131D01*
X210409Y13862D01*
X210370Y13731D01*
X210337Y13606D01*
Y13599D01*
X210330Y13580D01*
X210324Y13540D01*
X210311Y13494D01*
X210297Y13429D01*
X210284Y13357D01*
X210271Y13278D01*
X210258Y13186D01*
X210245Y13088D01*
X210232Y12976D01*
X210219Y12865D01*
X210206Y12740D01*
X210186Y12484D01*
X210179Y12209D01*
Y12202D01*
Y12189D01*
Y12156D01*
Y12123D01*
Y12077D01*
X210186Y12018D01*
Y11959D01*
X210192Y11887D01*
X210199Y11730D01*
X210219Y11553D01*
X210238Y11362D01*
X210271Y11165D01*
Y11159D01*
X210278Y11139D01*
Y11113D01*
X210291Y11074D01*
X210297Y11028D01*
X210311Y10975D01*
X210324Y10910D01*
X210337Y10844D01*
X210376Y10687D01*
X210416Y10516D01*
X210468Y10339D01*
X210527Y10162D01*
Y10155D01*
X210534Y10149D01*
X210540Y10129D01*
X210547Y10103D01*
X210560Y10070D01*
X210579Y10031D01*
X210593Y9985D01*
X210619Y9932D01*
X210645Y9867D01*
X210671Y9801D01*
X210704Y9729D01*
X210737Y9644D01*
X210776Y9558D01*
X210816Y9460D01*
X210862Y9362D01*
X210914Y9250D01*
X210317D01*
X210311Y9257D01*
X210297Y9283D01*
X210271Y9322D01*
X210238Y9375D01*
X210199Y9440D01*
X210153Y9519D01*
X210101Y9611D01*
X210048Y9709D01*
X209989Y9814D01*
X209930Y9932D01*
X209871Y10057D01*
X209805Y10182D01*
X209694Y10457D01*
X209589Y10739D01*
Y10746D01*
X209576Y10772D01*
X209569Y10818D01*
X209550Y10870D01*
X209530Y10943D01*
X209510Y11021D01*
X209491Y11113D01*
X209471Y11211D01*
X209445Y11323D01*
X209425Y11441D01*
X209386Y11690D01*
X209359Y11959D01*
X209346Y12228D01*
Y12241D01*
Y12268D01*
Y12314D01*
X209353Y12379D01*
Y12458D01*
X209359Y12556D01*
X209372Y12661D01*
X209386Y12779D01*
X209399Y12904D01*
X209418Y13035D01*
X209471Y13324D01*
X209550Y13619D01*
X209595Y13770D01*
X209648Y13921D01*
Y13927D01*
X209661Y13953D01*
X209674Y13986D01*
X209694Y14039D01*
X209720Y14098D01*
X209753Y14170D01*
X209792Y14255D01*
X209832Y14341D01*
X209878Y14439D01*
X209930Y14537D01*
X210042Y14754D01*
X210179Y14983D01*
X210324Y15206D01*
X210921D01*
X210914Y15193D01*
D02*
G37*
%LPC*%
G36*
X208634Y22187D02*
X208625D01*
X208599Y22183D01*
X208560Y22179D01*
X208516Y22166D01*
X208459Y22148D01*
X208402Y22118D01*
X208345Y22078D01*
X208289Y22021D01*
X208284Y22013D01*
X208267Y21991D01*
X208245Y21952D01*
X208223Y21899D01*
X208197Y21829D01*
X208175Y21746D01*
X208157Y21646D01*
X208153Y21532D01*
Y21528D01*
Y21519D01*
Y21497D01*
Y21475D01*
X208157Y21445D01*
Y21414D01*
X208166Y21340D01*
X208175Y21257D01*
X208192Y21169D01*
X208219Y21091D01*
X208232Y21056D01*
X208249Y21025D01*
Y21021D01*
X208258Y21016D01*
X208276Y20990D01*
X208306Y20955D01*
X208350Y20916D01*
X208407Y20872D01*
X208472Y20837D01*
X208551Y20811D01*
X208594Y20807D01*
X208638Y20802D01*
X208647D01*
X208673Y20807D01*
X208708Y20811D01*
X208756Y20824D01*
X208809Y20842D01*
X208865Y20872D01*
X208922Y20911D01*
X208979Y20968D01*
X208983Y20977D01*
X209001Y20999D01*
X209023Y21038D01*
X209049Y21095D01*
X209075Y21165D01*
X209097Y21252D01*
X209115Y21357D01*
X209119Y21475D01*
Y21480D01*
Y21493D01*
Y21510D01*
Y21536D01*
X209115Y21567D01*
X209110Y21606D01*
X209102Y21685D01*
X209084Y21777D01*
X209062Y21864D01*
X209027Y21952D01*
X209005Y21986D01*
X208979Y22021D01*
X208975Y22030D01*
X208953Y22048D01*
X208927Y22074D01*
X208887Y22105D01*
X208835Y22135D01*
X208778Y22161D01*
X208708Y22179D01*
X208634Y22187D01*
D02*
G37*
G36*
X192260Y22904D02*
X191862D01*
Y20903D01*
X192399D01*
X192456Y20907D01*
X192517D01*
X192578Y20916D01*
X192635Y20920D01*
X192683Y20929D01*
X192692D01*
X192710Y20938D01*
X192736Y20946D01*
X192771Y20960D01*
X192810Y20977D01*
X192849Y20999D01*
X192889Y21025D01*
X192928Y21056D01*
X192932Y21060D01*
X192946Y21073D01*
X192963Y21095D01*
X192985Y21126D01*
X193007Y21165D01*
X193037Y21213D01*
X193059Y21274D01*
X193085Y21344D01*
Y21349D01*
X193090Y21353D01*
Y21366D01*
X193094Y21384D01*
X193103Y21401D01*
X193107Y21427D01*
X193120Y21493D01*
X193129Y21571D01*
X193142Y21663D01*
X193147Y21777D01*
X193151Y21899D01*
Y21903D01*
Y21917D01*
Y21934D01*
Y21956D01*
Y21986D01*
X193147Y22021D01*
X193142Y22096D01*
X193133Y22183D01*
X193125Y22275D01*
X193107Y22358D01*
X193085Y22437D01*
Y22441D01*
X193081Y22445D01*
X193072Y22467D01*
X193059Y22502D01*
X193042Y22546D01*
X193016Y22590D01*
X192985Y22638D01*
X192950Y22686D01*
X192911Y22729D01*
X192906Y22734D01*
X192893Y22747D01*
X192867Y22764D01*
X192836Y22786D01*
X192793Y22813D01*
X192745Y22834D01*
X192692Y22856D01*
X192631Y22874D01*
X192627D01*
X192605Y22878D01*
X192570Y22882D01*
X192522Y22891D01*
X192491D01*
X192452Y22896D01*
X192412D01*
X192369Y22900D01*
X192316D01*
X192260Y22904D01*
D02*
G37*
G36*
X212484Y22187D02*
X212475D01*
X212449Y22183D01*
X212409Y22179D01*
X212362Y22166D01*
X212305Y22148D01*
X212244Y22118D01*
X212187Y22078D01*
X212130Y22026D01*
X212125Y22017D01*
X212108Y21995D01*
X212086Y21956D01*
X212064Y21903D01*
X212038Y21834D01*
X212016Y21751D01*
X211999Y21650D01*
X211994Y21532D01*
Y21528D01*
Y21519D01*
Y21501D01*
Y21475D01*
X211999Y21449D01*
Y21414D01*
X212007Y21340D01*
X212021Y21261D01*
X212038Y21178D01*
X212064Y21099D01*
X212099Y21030D01*
Y21025D01*
X212108Y21021D01*
X212125Y20994D01*
X212160Y20960D01*
X212209Y20916D01*
X212265Y20872D01*
X212335Y20837D01*
X212414Y20811D01*
X212458Y20807D01*
X212506Y20802D01*
X212514D01*
X212536Y20807D01*
X212576Y20811D01*
X212619Y20824D01*
X212672Y20842D01*
X212724Y20872D01*
X212781Y20911D01*
X212833Y20964D01*
X212838Y20973D01*
X212855Y20994D01*
X212877Y21034D01*
X212903Y21091D01*
X212930Y21161D01*
X212951Y21248D01*
X212960Y21300D01*
X212969Y21357D01*
X212973Y21414D01*
Y21480D01*
Y21484D01*
Y21497D01*
Y21515D01*
Y21541D01*
X212969Y21571D01*
X212965Y21606D01*
X212956Y21689D01*
X212938Y21777D01*
X212916Y21869D01*
X212881Y21952D01*
X212860Y21986D01*
X212833Y22021D01*
X212829Y22030D01*
X212807Y22048D01*
X212781Y22074D01*
X212737Y22105D01*
X212689Y22135D01*
X212628Y22161D01*
X212562Y22179D01*
X212484Y22187D01*
D02*
G37*
G36*
X206204D02*
X206173D01*
X206139Y22179D01*
X206095Y22170D01*
X206047Y22153D01*
X205994Y22131D01*
X205942Y22096D01*
X205894Y22048D01*
X205890Y22043D01*
X205876Y22021D01*
X205855Y21991D01*
X205833Y21947D01*
X205806Y21895D01*
X205789Y21829D01*
X205776Y21755D01*
X205771Y21672D01*
X206637D01*
Y21676D01*
Y21685D01*
Y21694D01*
X206632Y21711D01*
X206628Y21759D01*
X206619Y21812D01*
X206602Y21873D01*
X206580Y21938D01*
X206545Y22000D01*
X206506Y22052D01*
X206501Y22057D01*
X206484Y22074D01*
X206458Y22096D01*
X206423Y22122D01*
X206379Y22144D01*
X206327Y22166D01*
X206270Y22183D01*
X206204Y22187D01*
D02*
G37*
G36*
X195161D02*
X195131D01*
X195096Y22179D01*
X195052Y22170D01*
X195004Y22153D01*
X194951Y22131D01*
X194899Y22096D01*
X194851Y22048D01*
X194846Y22043D01*
X194833Y22021D01*
X194812Y21991D01*
X194790Y21947D01*
X194764Y21895D01*
X194746Y21829D01*
X194733Y21755D01*
X194729Y21672D01*
X195594D01*
Y21676D01*
Y21685D01*
Y21694D01*
X195589Y21711D01*
X195585Y21759D01*
X195576Y21812D01*
X195559Y21873D01*
X195537Y21938D01*
X195502Y22000D01*
X195463Y22052D01*
X195458Y22057D01*
X195441Y22074D01*
X195415Y22096D01*
X195380Y22122D01*
X195336Y22144D01*
X195283Y22166D01*
X195227Y22183D01*
X195161Y22187D01*
D02*
G37*
G36*
X201113D02*
X201104D01*
X201078Y22183D01*
X201039Y22179D01*
X200991Y22166D01*
X200938Y22148D01*
X200877Y22118D01*
X200820Y22078D01*
X200768Y22021D01*
X200764Y22013D01*
X200746Y21991D01*
X200729Y21952D01*
X200702Y21899D01*
X200680Y21829D01*
X200659Y21746D01*
X200641Y21646D01*
X200637Y21528D01*
Y21523D01*
Y21515D01*
Y21493D01*
X200641Y21471D01*
Y21445D01*
X200645Y21410D01*
X200654Y21335D01*
X200667Y21252D01*
X200694Y21169D01*
X200724Y21091D01*
X200768Y21021D01*
X200772Y21012D01*
X200794Y20994D01*
X200820Y20968D01*
X200860Y20942D01*
X200908Y20911D01*
X200964Y20885D01*
X201030Y20868D01*
X201100Y20859D01*
X201109D01*
X201135Y20863D01*
X201174Y20868D01*
X201227Y20881D01*
X201284Y20898D01*
X201340Y20929D01*
X201401Y20968D01*
X201458Y21025D01*
X201463Y21034D01*
X201480Y21056D01*
X201506Y21095D01*
X201533Y21147D01*
X201559Y21217D01*
X201585Y21300D01*
X201603Y21401D01*
X201607Y21515D01*
Y21519D01*
Y21528D01*
Y21545D01*
Y21571D01*
X201603Y21598D01*
X201598Y21633D01*
X201589Y21707D01*
X201572Y21790D01*
X201550Y21873D01*
X201515Y21952D01*
X201467Y22021D01*
X201463Y22030D01*
X201441Y22048D01*
X201410Y22074D01*
X201371Y22105D01*
X201319Y22135D01*
X201257Y22161D01*
X201192Y22179D01*
X201113Y22187D01*
D02*
G37*
G36*
X237544Y32107D02*
X236086D01*
Y30503D01*
X237325D01*
X237507Y30512D01*
X237699Y30522D01*
X237890Y30531D01*
X237972Y30540D01*
X238045Y30549D01*
X238118Y30567D01*
X238163Y30576D01*
X238172D01*
X238199Y30594D01*
X238245Y30613D01*
X238291Y30640D01*
X238409Y30722D01*
X238464Y30777D01*
X238518Y30840D01*
X238527Y30849D01*
X238537Y30877D01*
X238564Y30913D01*
X238591Y30968D01*
X238610Y31041D01*
X238637Y31123D01*
X238646Y31214D01*
X238655Y31314D01*
Y31332D01*
Y31369D01*
X238646Y31423D01*
X238637Y31496D01*
X238610Y31578D01*
X238582Y31660D01*
X238537Y31751D01*
X238482Y31824D01*
X238473Y31833D01*
X238455Y31861D01*
X238409Y31888D01*
X238354Y31934D01*
X238291Y31979D01*
X238209Y32016D01*
X238108Y32052D01*
X237999Y32079D01*
X237990D01*
X237963Y32089D01*
X237908D01*
X237826Y32098D01*
X237626D01*
X237544Y32107D01*
D02*
G37*
G36*
X196649Y31706D02*
X195792Y29365D01*
X197532D01*
X196649Y31706D01*
D02*
G37*
G36*
X184906D02*
X184050Y29365D01*
X185790D01*
X184906Y31706D01*
D02*
G37*
G36*
X178192Y32107D02*
X177363D01*
Y27934D01*
X178483D01*
X178602Y27943D01*
X178729D01*
X178857Y27962D01*
X178975Y27971D01*
X179076Y27989D01*
X179094D01*
X179130Y28007D01*
X179185Y28025D01*
X179258Y28053D01*
X179340Y28089D01*
X179422Y28135D01*
X179504Y28189D01*
X179586Y28253D01*
X179595Y28262D01*
X179622Y28290D01*
X179659Y28335D01*
X179704Y28399D01*
X179750Y28481D01*
X179814Y28581D01*
X179859Y28709D01*
X179914Y28854D01*
Y28863D01*
X179923Y28873D01*
Y28900D01*
X179932Y28936D01*
X179950Y28973D01*
X179959Y29028D01*
X179987Y29164D01*
X180005Y29328D01*
X180032Y29519D01*
X180041Y29756D01*
X180050Y30011D01*
Y30020D01*
Y30048D01*
Y30084D01*
Y30130D01*
Y30194D01*
X180041Y30266D01*
X180032Y30421D01*
X180014Y30604D01*
X179996Y30795D01*
X179959Y30968D01*
X179914Y31132D01*
Y31141D01*
X179905Y31150D01*
X179886Y31196D01*
X179859Y31269D01*
X179823Y31360D01*
X179768Y31451D01*
X179704Y31551D01*
X179631Y31651D01*
X179549Y31742D01*
X179540Y31751D01*
X179513Y31779D01*
X179458Y31815D01*
X179394Y31861D01*
X179303Y31915D01*
X179203Y31961D01*
X179094Y32006D01*
X178966Y32043D01*
X178957D01*
X178912Y32052D01*
X178839Y32061D01*
X178739Y32079D01*
X178675D01*
X178593Y32089D01*
X178511D01*
X178420Y32098D01*
X178310D01*
X178192Y32107D01*
D02*
G37*
G36*
X169984D02*
X169036D01*
Y30312D01*
X169911D01*
X169975Y30321D01*
X170139D01*
X170303Y30330D01*
X170467Y30349D01*
X170612Y30376D01*
X170676Y30385D01*
X170731Y30403D01*
X170740Y30412D01*
X170776Y30421D01*
X170822Y30449D01*
X170877Y30476D01*
X170940Y30522D01*
X171004Y30576D01*
X171077Y30640D01*
X171132Y30713D01*
X171141Y30722D01*
X171159Y30749D01*
X171177Y30795D01*
X171205Y30859D01*
X171232Y30931D01*
X171259Y31014D01*
X171268Y31105D01*
X171277Y31205D01*
Y31223D01*
Y31259D01*
X171268Y31323D01*
X171250Y31405D01*
X171223Y31496D01*
X171186Y31596D01*
X171141Y31688D01*
X171068Y31779D01*
X171059Y31788D01*
X171031Y31815D01*
X170986Y31852D01*
X170931Y31897D01*
X170858Y31952D01*
X170767Y31997D01*
X170667Y32034D01*
X170558Y32061D01*
X170549D01*
X170512Y32070D01*
X170449Y32079D01*
X170357Y32089D01*
X170239D01*
X170157Y32098D01*
X170075D01*
X169984Y32107D01*
D02*
G37*
G36*
X211179Y32207D02*
X211106D01*
X211052Y32198D01*
X210979Y32189D01*
X210906Y32180D01*
X210724Y32143D01*
X210523Y32070D01*
X210414Y32034D01*
X210305Y31979D01*
X210205Y31915D01*
X210095Y31842D01*
X209995Y31760D01*
X209904Y31660D01*
X209895Y31651D01*
X209886Y31633D01*
X209858Y31606D01*
X209831Y31560D01*
X209794Y31496D01*
X209758Y31433D01*
X209713Y31350D01*
X209667Y31250D01*
X209622Y31141D01*
X209576Y31023D01*
X209540Y30886D01*
X209503Y30740D01*
X209476Y30576D01*
X209448Y30403D01*
X209439Y30221D01*
X209430Y30020D01*
Y30011D01*
Y29975D01*
Y29920D01*
X209439Y29847D01*
X209448Y29756D01*
X209457Y29647D01*
X209476Y29538D01*
X209494Y29410D01*
X209549Y29146D01*
X209640Y28882D01*
X209694Y28745D01*
X209758Y28618D01*
X209840Y28499D01*
X209922Y28390D01*
X209931Y28381D01*
X209949Y28363D01*
X209977Y28335D01*
X210013Y28308D01*
X210059Y28262D01*
X210122Y28217D01*
X210186Y28162D01*
X210268Y28117D01*
X210441Y28007D01*
X210660Y27925D01*
X210778Y27889D01*
X210906Y27861D01*
X211043Y27843D01*
X211179Y27834D01*
X211252D01*
X211307Y27843D01*
X211371Y27852D01*
X211443Y27861D01*
X211617Y27907D01*
X211817Y27971D01*
X211917Y28016D01*
X212027Y28062D01*
X212127Y28126D01*
X212236Y28199D01*
X212336Y28280D01*
X212427Y28381D01*
X212437Y28390D01*
X212446Y28408D01*
X212473Y28435D01*
X212500Y28481D01*
X212546Y28545D01*
X212582Y28618D01*
X212628Y28699D01*
X212673Y28800D01*
X212719Y28909D01*
X212764Y29028D01*
X212810Y29164D01*
X212846Y29319D01*
X212874Y29474D01*
X212901Y29647D01*
X212910Y29838D01*
X212919Y30039D01*
Y30048D01*
Y30084D01*
Y30139D01*
X212910Y30221D01*
X212901Y30312D01*
X212892Y30412D01*
X212883Y30531D01*
X212856Y30649D01*
X212801Y30913D01*
X212719Y31187D01*
X212664Y31323D01*
X212600Y31442D01*
X212518Y31560D01*
X212437Y31669D01*
X212427Y31679D01*
X212418Y31697D01*
X212391Y31715D01*
X212354Y31751D01*
X212300Y31797D01*
X212245Y31842D01*
X212181Y31888D01*
X212099Y31943D01*
X212017Y31988D01*
X211917Y32034D01*
X211708Y32125D01*
X211589Y32161D01*
X211462Y32180D01*
X211325Y32198D01*
X211179Y32207D01*
D02*
G37*
G36*
X227478Y14072D02*
X226861Y12386D01*
X228114D01*
X227478Y14072D01*
D02*
G37*
G36*
X223693Y13822D02*
X222637Y12261D01*
X223693D01*
Y13822D01*
D02*
G37*
G36*
X205988Y12163D02*
X205981D01*
X205955Y12150D01*
X205915Y12143D01*
X205856Y12123D01*
X205784Y12104D01*
X205686Y12077D01*
X205581Y12051D01*
X205450Y12025D01*
X205436D01*
X205417Y12018D01*
X205391Y12012D01*
X205331Y11999D01*
X205253Y11979D01*
X205174Y11959D01*
X205095Y11933D01*
X205030Y11900D01*
X204977Y11874D01*
X204971Y11867D01*
X204951Y11854D01*
X204925Y11828D01*
X204899Y11795D01*
X204866Y11749D01*
X204839Y11697D01*
X204820Y11638D01*
X204813Y11572D01*
Y11566D01*
Y11539D01*
X204820Y11507D01*
X204833Y11467D01*
X204846Y11415D01*
X204866Y11362D01*
X204899Y11310D01*
X204944Y11257D01*
X204951Y11251D01*
X204971Y11238D01*
X204997Y11218D01*
X205043Y11192D01*
X205089Y11165D01*
X205148Y11146D01*
X205220Y11133D01*
X205292Y11126D01*
X205331D01*
X205377Y11133D01*
X205436Y11146D01*
X205509Y11165D01*
X205581Y11192D01*
X205666Y11225D01*
X205745Y11277D01*
X205751Y11284D01*
X205771Y11297D01*
X205797Y11323D01*
X205830Y11356D01*
X205863Y11402D01*
X205896Y11448D01*
X205928Y11507D01*
X205948Y11566D01*
Y11572D01*
X205955Y11585D01*
X205961Y11618D01*
X205968Y11658D01*
X205974Y11717D01*
X205981Y11789D01*
X205988Y11881D01*
Y11986D01*
Y12163D01*
D02*
G37*
G36*
X200694D02*
X200687D01*
X200661Y12150D01*
X200621Y12143D01*
X200562Y12123D01*
X200490Y12104D01*
X200392Y12077D01*
X200287Y12051D01*
X200156Y12025D01*
X200143D01*
X200123Y12018D01*
X200097Y12012D01*
X200038Y11999D01*
X199959Y11979D01*
X199880Y11959D01*
X199801Y11933D01*
X199736Y11900D01*
X199683Y11874D01*
X199677Y11867D01*
X199657Y11854D01*
X199631Y11828D01*
X199605Y11795D01*
X199572Y11749D01*
X199546Y11697D01*
X199526Y11638D01*
X199519Y11572D01*
Y11566D01*
Y11539D01*
X199526Y11507D01*
X199539Y11467D01*
X199552Y11415D01*
X199572Y11362D01*
X199605Y11310D01*
X199651Y11257D01*
X199657Y11251D01*
X199677Y11238D01*
X199703Y11218D01*
X199749Y11192D01*
X199795Y11165D01*
X199854Y11146D01*
X199926Y11133D01*
X199998Y11126D01*
X200038D01*
X200083Y11133D01*
X200143Y11146D01*
X200215Y11165D01*
X200287Y11192D01*
X200372Y11225D01*
X200451Y11277D01*
X200457Y11284D01*
X200477Y11297D01*
X200503Y11323D01*
X200536Y11356D01*
X200569Y11402D01*
X200602Y11448D01*
X200635Y11507D01*
X200654Y11566D01*
Y11572D01*
X200661Y11585D01*
X200667Y11618D01*
X200674Y11658D01*
X200680Y11717D01*
X200687Y11789D01*
X200694Y11881D01*
Y11986D01*
Y12163D01*
D02*
G37*
G36*
X186944D02*
X186937D01*
X186911Y12150D01*
X186872Y12143D01*
X186813Y12123D01*
X186741Y12104D01*
X186642Y12077D01*
X186537Y12051D01*
X186406Y12025D01*
X186393D01*
X186373Y12018D01*
X186347Y12012D01*
X186288Y11999D01*
X186209Y11979D01*
X186130Y11959D01*
X186052Y11933D01*
X185986Y11900D01*
X185934Y11874D01*
X185927Y11867D01*
X185907Y11854D01*
X185881Y11828D01*
X185855Y11795D01*
X185822Y11749D01*
X185796Y11697D01*
X185776Y11638D01*
X185770Y11572D01*
Y11566D01*
Y11539D01*
X185776Y11507D01*
X185789Y11467D01*
X185802Y11415D01*
X185822Y11362D01*
X185855Y11310D01*
X185901Y11257D01*
X185907Y11251D01*
X185927Y11238D01*
X185953Y11218D01*
X185999Y11192D01*
X186045Y11165D01*
X186104Y11146D01*
X186176Y11133D01*
X186249Y11126D01*
X186288D01*
X186334Y11133D01*
X186393Y11146D01*
X186465Y11165D01*
X186537Y11192D01*
X186622Y11225D01*
X186701Y11277D01*
X186708Y11284D01*
X186727Y11297D01*
X186754Y11323D01*
X186786Y11356D01*
X186819Y11402D01*
X186852Y11448D01*
X186885Y11507D01*
X186905Y11566D01*
Y11572D01*
X186911Y11585D01*
X186918Y11618D01*
X186924Y11658D01*
X186931Y11717D01*
X186937Y11789D01*
X186944Y11881D01*
Y11986D01*
Y12163D01*
D02*
G37*
G36*
X182509Y14360D02*
X181827D01*
Y13068D01*
X182457D01*
X182503Y13074D01*
X182621D01*
X182739Y13081D01*
X182857Y13094D01*
X182962Y13114D01*
X183008Y13120D01*
X183047Y13134D01*
X183054Y13140D01*
X183080Y13147D01*
X183113Y13166D01*
X183152Y13186D01*
X183198Y13219D01*
X183244Y13258D01*
X183297Y13304D01*
X183336Y13357D01*
X183342Y13363D01*
X183355Y13383D01*
X183369Y13416D01*
X183388Y13462D01*
X183408Y13514D01*
X183428Y13573D01*
X183434Y13639D01*
X183441Y13711D01*
Y13724D01*
Y13750D01*
X183434Y13796D01*
X183421Y13855D01*
X183401Y13921D01*
X183375Y13993D01*
X183342Y14059D01*
X183290Y14124D01*
X183283Y14131D01*
X183264Y14150D01*
X183231Y14177D01*
X183192Y14209D01*
X183139Y14249D01*
X183073Y14281D01*
X183001Y14308D01*
X182923Y14327D01*
X182916D01*
X182890Y14334D01*
X182844Y14341D01*
X182778Y14347D01*
X182693D01*
X182634Y14354D01*
X182575D01*
X182509Y14360D01*
D02*
G37*
G36*
X176336Y14072D02*
X175720Y12386D01*
X176973D01*
X176336Y14072D01*
D02*
G37*
G36*
X216392Y14432D02*
X216365D01*
X216333Y14426D01*
X216300Y14419D01*
X216254Y14406D01*
X216208Y14387D01*
X216156Y14360D01*
X216110Y14327D01*
X216103Y14321D01*
X216090Y14308D01*
X216070Y14281D01*
X216044Y14249D01*
X216011Y14196D01*
X215985Y14137D01*
X215952Y14059D01*
X215926Y13967D01*
Y13960D01*
X215919Y13953D01*
Y13927D01*
X215913Y13901D01*
X215906Y13862D01*
X215900Y13816D01*
X215893Y13763D01*
X215887Y13698D01*
X215873Y13619D01*
X215867Y13540D01*
X215860Y13442D01*
X215854Y13343D01*
X215847Y13225D01*
Y13107D01*
X215841Y12969D01*
Y12825D01*
Y12819D01*
Y12792D01*
Y12746D01*
Y12694D01*
Y12628D01*
X215847Y12556D01*
Y12471D01*
X215854Y12386D01*
X215860Y12202D01*
X215873Y12018D01*
X215880Y11933D01*
X215893Y11854D01*
X215906Y11782D01*
X215919Y11717D01*
X215926Y11703D01*
X215932Y11671D01*
X215952Y11618D01*
X215972Y11559D01*
X216005Y11494D01*
X216037Y11428D01*
X216077Y11369D01*
X216116Y11323D01*
X216123Y11316D01*
X216136Y11310D01*
X216162Y11290D01*
X216195Y11277D01*
X216234Y11257D01*
X216280Y11238D01*
X216333Y11231D01*
X216392Y11225D01*
X216418D01*
X216451Y11231D01*
X216483Y11238D01*
X216529Y11251D01*
X216575Y11264D01*
X216621Y11290D01*
X216667Y11323D01*
X216674Y11329D01*
X216687Y11343D01*
X216713Y11369D01*
X216739Y11408D01*
X216766Y11454D01*
X216798Y11520D01*
X216831Y11592D01*
X216857Y11684D01*
Y11690D01*
X216864Y11697D01*
Y11723D01*
X216871Y11749D01*
X216877Y11789D01*
X216884Y11835D01*
X216897Y11887D01*
X216903Y11953D01*
X216910Y12025D01*
X216923Y12110D01*
X216930Y12202D01*
X216936Y12307D01*
X216943Y12419D01*
Y12543D01*
X216949Y12681D01*
Y12825D01*
Y12832D01*
Y12858D01*
Y12904D01*
Y12956D01*
Y13022D01*
X216943Y13094D01*
Y13179D01*
X216936Y13265D01*
X216930Y13448D01*
X216916Y13625D01*
X216903Y13711D01*
X216890Y13796D01*
X216877Y13868D01*
X216864Y13927D01*
Y13934D01*
X216857Y13940D01*
X216851Y13973D01*
X216831Y14026D01*
X216811Y14091D01*
X216779Y14157D01*
X216746Y14222D01*
X216707Y14281D01*
X216667Y14327D01*
X216661Y14334D01*
X216648Y14347D01*
X216621Y14360D01*
X216588Y14380D01*
X216549Y14400D01*
X216503Y14419D01*
X216451Y14426D01*
X216392Y14432D01*
D02*
G37*
%LPD*%
D10*
X80144Y12000D02*
G03*
X80144Y12000I-394J0D01*
G01*
X34106Y65092D02*
G03*
X34106Y65092I-394J0D01*
G01*
X113394Y172677D02*
G03*
X113394Y172677I-394J0D01*
G01*
X72644D02*
G03*
X72644Y172677I-394J0D01*
G01*
X261531Y163228D02*
G03*
X261531Y163228I-394J0D01*
G01*
X344327Y44691D02*
G03*
X344327Y44691I-394J0D01*
G01*
X59689Y178500D02*
G03*
X59689Y178500I-394J0D01*
G01*
X109370Y148455D02*
Y149045D01*
X120630D01*
Y148455D02*
Y149045D01*
X109370Y148455D02*
X120630D01*
X108996Y142156D02*
Y147077D01*
X47344Y65073D02*
Y70585D01*
X47541Y71963D02*
X58959D01*
Y73537D01*
X47541D02*
X58959D01*
X47541Y71963D02*
Y73537D01*
X188665Y234016D02*
X240634D01*
Y168661D02*
Y234016D01*
X188665Y168661D02*
X240634D01*
X188665D02*
Y234016D01*
X74041Y60500D02*
X85459D01*
X151799Y186247D02*
Y194515D01*
X31549Y160309D02*
Y165033D01*
X19494Y158931D02*
X31006D01*
X19494Y156569D02*
Y158931D01*
Y156569D02*
X31006D01*
Y158931D01*
X135313Y68615D02*
Y70781D01*
X143187D01*
Y68615D02*
Y70781D01*
X135313Y68615D02*
X143187D01*
X134427Y63497D02*
Y67238D01*
X104813Y68417D02*
Y70583D01*
X112687D01*
Y68417D02*
Y70583D01*
X104813Y68417D02*
X112687D01*
X103927Y63299D02*
Y67039D01*
X155455Y162250D02*
Y177545D01*
X166045D01*
Y156955D02*
Y177545D01*
X160750Y156955D02*
X166045D01*
X257500Y120152D02*
X294000D01*
X252500Y110348D02*
X294000D01*
X252500D02*
Y115250D01*
X294000Y110348D02*
Y120152D01*
X276854Y88055D02*
Y94945D01*
X271146Y88055D02*
Y94945D01*
X277825Y80380D02*
X280188D01*
Y68766D02*
Y80380D01*
X277825Y68766D02*
X280188D01*
X277825D02*
Y80380D01*
X271723Y80479D02*
X276448D01*
X188937Y78075D02*
Y78331D01*
X182244D02*
X188937D01*
X182244Y78075D02*
Y78331D01*
X188937Y73213D02*
Y73469D01*
X182244Y73213D02*
X188937D01*
X182244D02*
Y73469D01*
X195579Y140657D02*
X202075D01*
X203453Y120106D02*
Y140894D01*
Y120106D02*
X222547D01*
Y140894D01*
X203453D02*
X222547D01*
X163500Y186173D02*
Y193063D01*
X157792Y186173D02*
Y193063D01*
X327862Y58255D02*
X327468Y58649D01*
X326681D01*
X326287Y58255D01*
Y57862D01*
X326681Y57468D01*
X327468D01*
X327862Y57074D01*
Y56681D01*
X327468Y56287D01*
X326681D01*
X326287Y56681D01*
X328649Y58649D02*
Y56287D01*
X329830D01*
X330223Y56681D01*
Y58255D01*
X329830Y58649D01*
X328649D01*
X331010Y56287D02*
Y57862D01*
X331797Y58649D01*
X332585Y57862D01*
Y56287D01*
Y57468D01*
X331010D01*
X327862Y67755D02*
X327468Y68149D01*
X326681D01*
X326287Y67755D01*
Y67362D01*
X326681Y66968D01*
X327468D01*
X327862Y66575D01*
Y66181D01*
X327468Y65787D01*
X326681D01*
X326287Y66181D01*
X330223Y67755D02*
X329830Y68149D01*
X329042D01*
X328649Y67755D01*
Y66181D01*
X329042Y65787D01*
X329830D01*
X330223Y66181D01*
X331010Y68149D02*
Y65787D01*
X332585D01*
X328112Y77755D02*
X327718Y78149D01*
X326931D01*
X326537Y77755D01*
Y76181D01*
X326931Y75787D01*
X327718D01*
X328112Y76181D01*
Y76968D01*
X327325D01*
X328899Y75787D02*
Y78149D01*
X330473Y75787D01*
Y78149D01*
X331260D02*
Y75787D01*
X332441D01*
X332835Y76181D01*
Y77755D01*
X332441Y78149D01*
X331260D01*
X326537Y88005D02*
X326931Y88399D01*
X327718D01*
X328112Y88005D01*
Y87612D01*
X327718Y87218D01*
X327325D01*
X327718D01*
X328112Y86825D01*
Y86431D01*
X327718Y86037D01*
X326931D01*
X326537Y86431D01*
X328899Y88399D02*
Y86825D01*
X329686Y86037D01*
X330473Y86825D01*
Y88399D01*
X331260Y88005D02*
X331654Y88399D01*
X332441D01*
X332835Y88005D01*
Y87612D01*
X332441Y87218D01*
X332047D01*
X332441D01*
X332835Y86825D01*
Y86431D01*
X332441Y86037D01*
X331654D01*
X331260Y86431D01*
X146851Y54681D02*
X148426D01*
X147639D01*
Y52319D01*
X149213D02*
Y54681D01*
X150394D01*
X150787Y54287D01*
Y53500D01*
X150394Y53106D01*
X149213D01*
X152755Y52319D02*
Y54681D01*
X151574Y53500D01*
X153149D01*
X90101Y59181D02*
X91676D01*
X90889D01*
Y56819D01*
X92463D02*
Y59181D01*
X93644D01*
X94037Y58787D01*
Y58000D01*
X93644Y57606D01*
X92463D01*
X96399Y56819D02*
X94824D01*
X96399Y58394D01*
Y58787D01*
X96005Y59181D01*
X95218D01*
X94824Y58787D01*
X87995Y47181D02*
X89569D01*
X88782D01*
Y44819D01*
X90356D02*
Y47181D01*
X91537D01*
X91931Y46787D01*
Y46000D01*
X91537Y45606D01*
X90356D01*
X92718Y44819D02*
X93505D01*
X93111D01*
Y47181D01*
X92718Y46787D01*
X38351Y65069D02*
Y67431D01*
X39532D01*
X39926Y67037D01*
Y66250D01*
X39532Y65856D01*
X38351D01*
X39139D02*
X39926Y65069D01*
X40713Y67037D02*
X41106Y67431D01*
X41894D01*
X42287Y67037D01*
Y66644D01*
X41894Y66250D01*
X41500D01*
X41894D01*
X42287Y65856D01*
Y65463D01*
X41894Y65069D01*
X41106D01*
X40713Y65463D01*
X43074Y67037D02*
X43468Y67431D01*
X44255D01*
X44649Y67037D01*
Y66644D01*
X44255Y66250D01*
X43861D01*
X44255D01*
X44649Y65856D01*
Y65463D01*
X44255Y65069D01*
X43468D01*
X43074Y65463D01*
X153700Y190250D02*
X155799D01*
X156324Y190775D01*
Y191824D01*
X155799Y192349D01*
X153700D01*
X153176Y191824D01*
Y190775D01*
X154225Y191299D02*
X153176Y190250D01*
Y190775D02*
X153700Y190250D01*
X153176Y189200D02*
Y188151D01*
Y188676D01*
X156324D01*
X155799Y189200D01*
D11*
X237500Y59500D02*
G03*
X237500Y59500I-500J0D01*
G01*
X251250Y73250D02*
G03*
X251250Y73250I-500J0D01*
G01*
X24750Y82000D02*
G03*
X24750Y82000I-500J0D01*
G01*
X48000Y42750D02*
G03*
X48000Y42750I-500J0D01*
G01*
X239250Y58000D02*
X245750D01*
Y45000D02*
Y49090D01*
X239250Y45000D02*
X245750D01*
X239250Y50170D02*
Y52830D01*
X245750Y53910D02*
Y58000D01*
X130400Y229300D02*
X135390D01*
X140610Y204700D02*
X145600D01*
X130400D02*
X135390D01*
X130400D02*
Y229300D01*
X140610D02*
X145600D01*
Y204700D02*
Y229300D01*
X159110Y204550D02*
X164100D01*
X148900Y229150D02*
X153890D01*
X159110D02*
X164100D01*
Y204550D02*
Y229150D01*
X148900Y204550D02*
X153890D01*
X148900D02*
Y229150D01*
X188650Y212839D02*
X240650D01*
X172791Y53172D02*
X197391D01*
Y58162D01*
X172791Y68372D02*
X197391D01*
X172791Y63382D02*
Y68372D01*
Y53172D02*
Y58162D01*
X197391Y63382D02*
Y68372D01*
X245160Y64500D02*
X249250D01*
X241420Y71000D02*
X244080D01*
X236250Y64500D02*
Y71000D01*
Y64500D02*
X240340D01*
X249250D02*
Y71000D01*
X15500Y83500D02*
Y87590D01*
X22000Y88670D02*
Y91330D01*
X15500Y96500D02*
X22000D01*
X15500Y92410D02*
Y96500D01*
Y83500D02*
X22000D01*
X38750Y44250D02*
Y48340D01*
X45250Y49420D02*
Y52080D01*
X38750Y57250D02*
X45250D01*
X38750Y53160D02*
Y57250D01*
Y44250D02*
X45250D01*
D12*
X341999Y119512D02*
G03*
X341954Y171680I-13000J26073D01*
G01*
X316001Y171658D02*
G03*
X316046Y119489I13000J-26073D01*
G01*
X334866Y112880D02*
X355898D01*
X302102D02*
X322886D01*
X341976Y119502D02*
X355898D01*
Y112880D02*
Y119502D01*
X302102D02*
X316126D01*
X302102Y112880D02*
Y119502D01*
X32711Y88766D02*
Y90734D01*
Y88766D02*
Y90734D01*
X27789Y88766D02*
Y90734D01*
Y88766D02*
Y90734D01*
X50539Y47766D02*
Y49734D01*
Y47766D02*
Y49734D01*
X55461Y47766D02*
Y49734D01*
Y47766D02*
Y49734D01*
D13*
X187450Y206339D02*
G03*
X186850Y206339I-300J0D01*
G01*
D02*
G03*
X187450Y206339I300J0D01*
G01*
X134272Y147409D02*
Y148591D01*
X130728Y147409D02*
Y148591D01*
X127772Y147409D02*
Y148591D01*
X124228Y147409D02*
Y148591D01*
X95577Y147409D02*
Y148591D01*
X99120Y147409D02*
Y148591D01*
X102077Y147409D02*
Y148591D01*
X105620Y147409D02*
Y148591D01*
X61876Y32539D02*
X77624D01*
X61876Y12461D02*
X77624D01*
X72750Y12500D02*
Y14000D01*
X66750D02*
X72750D01*
X66750Y12500D02*
Y14000D01*
X8614Y45604D02*
X31252D01*
X8614D02*
Y74738D01*
X31252D01*
Y45604D02*
Y74738D01*
X174409Y231272D02*
X175591D01*
X174409Y227728D02*
X175591D01*
X178228Y178659D02*
Y179841D01*
X181772Y178659D02*
Y179841D01*
X55910Y59772D02*
X57091D01*
X55910Y56228D02*
X57091D01*
X114575Y10713D02*
Y12287D01*
X111425Y10713D02*
Y12287D01*
X126386Y175827D02*
Y224646D01*
X103748Y175827D02*
X126386D01*
X103748D02*
Y224646D01*
X126386D01*
X51157Y121311D02*
Y121992D01*
X51500Y132000D02*
X53000D01*
Y126000D02*
Y132000D01*
X51500Y126000D02*
X53000D01*
X70842Y121992D02*
Y136008D01*
X51157Y121992D02*
Y136008D01*
X70842Y121311D02*
Y121992D01*
X51157Y121311D02*
X70842D01*
X51157Y136008D02*
Y136693D01*
X70842D01*
Y136008D02*
Y136693D01*
X44728Y135909D02*
Y137091D01*
X48272Y135909D02*
Y137091D01*
X61159Y108228D02*
X62340D01*
X61159Y111772D02*
X62340D01*
X85636Y175827D02*
Y224646D01*
X62998Y175827D02*
X85636D01*
X62998D02*
Y224646D01*
X85636D01*
X139409Y57427D02*
X140591D01*
X139409Y60970D02*
X140591D01*
X112549Y93919D02*
Y102581D01*
X99951Y93919D02*
Y102581D01*
X123006Y104043D02*
X127494D01*
X123006Y96957D02*
X127494D01*
X123006Y93793D02*
X127494D01*
X123006Y86707D02*
X127494D01*
X108909Y56228D02*
X110091D01*
X108909Y59772D02*
X110091D01*
X265314Y74473D02*
Y75654D01*
X268857Y74473D02*
Y75654D01*
X258564Y74473D02*
Y75654D01*
X262107Y74473D02*
Y75654D01*
X184250Y90500D02*
X185431D01*
X184250Y94043D02*
X185431D01*
X184250Y83500D02*
X185431D01*
X184250Y87043D02*
X185431D01*
X135159Y196272D02*
X136341D01*
X135159Y192728D02*
X136341D01*
X172021Y192741D02*
Y193922D01*
X175564Y192741D02*
Y193922D01*
X133175Y10713D02*
Y12287D01*
X136325Y10713D02*
Y12287D01*
X75660Y35228D02*
X76841D01*
X75660Y38772D02*
X76841D01*
X53522Y25909D02*
Y27091D01*
X49978Y25909D02*
Y27091D01*
X270409Y59522D02*
X271590D01*
X270409Y55978D02*
X271590D01*
X278660Y154772D02*
X279840D01*
X278660Y151228D02*
X279840D01*
X278660Y167772D02*
X279840D01*
X278660Y164228D02*
X279840D01*
X278660Y161272D02*
X279840D01*
X278660Y157728D02*
X279840D01*
X210000Y139000D02*
Y140750D01*
Y137500D02*
X216500D01*
Y141000D01*
X210000Y137500D02*
Y139000D01*
Y140750D02*
Y141000D01*
X238159Y140272D02*
X239340D01*
X238159Y136728D02*
X239340D01*
X334681Y96659D02*
X357319D01*
X334681Y47841D02*
Y96659D01*
Y47841D02*
X357319D01*
Y96659D01*
X17910Y98978D02*
X19091D01*
X17910Y102522D02*
X19091D01*
X154400Y119650D02*
Y122850D01*
X156600D01*
X165600Y119650D02*
Y122850D01*
X163400D02*
X165600D01*
X39478Y159159D02*
Y160341D01*
X43022Y159159D02*
Y160341D01*
X45461Y157750D02*
Y162006D01*
X49063D01*
X53937D02*
X57539D01*
Y157750D02*
Y162006D01*
X7327Y169248D02*
Y191886D01*
Y169248D02*
X56146D01*
Y191886D01*
X7327D02*
X56146D01*
X77272Y130409D02*
Y131591D01*
X73728Y130409D02*
Y131591D01*
X181814Y192741D02*
Y193922D01*
X178271Y192741D02*
Y193922D01*
X169314Y192741D02*
Y193922D01*
X165771Y192741D02*
Y193922D01*
D14*
X115075Y18193D02*
G03*
X115075Y18193I-500J0D01*
G01*
X113049Y110848D02*
G03*
X113049Y110848I-500J0D01*
G01*
X136825Y18193D02*
G03*
X136825Y18193I-500J0D01*
G01*
D15*
X150551Y197414D02*
G03*
X150551Y197414I-492J0D01*
G01*
X179676Y78756D02*
G03*
X179676Y78756I-492J0D01*
G01*
D16*
X50816Y115805D02*
Y120305D01*
D17*
X8667Y143565D02*
X27368D01*
X8667Y110888D02*
Y143565D01*
Y110888D02*
X27368D01*
Y143565D01*
X29632Y133919D02*
X32388Y132344D01*
X29632Y130770D02*
X32388Y132344D01*
X29632Y130770D02*
Y133919D01*
D18*
X45500Y153750D02*
Y156250D01*
X139376Y10099D02*
X138851Y9574D01*
Y8525D01*
X139376Y8000D01*
X141475D01*
X142000Y8525D01*
Y9574D01*
X141475Y10099D01*
X138851Y11149D02*
X142000D01*
X140426D01*
Y13248D01*
X138851D01*
X142000D01*
X139376Y16396D02*
X138851Y15871D01*
Y14822D01*
X139376Y14297D01*
X141475D01*
X142000Y14822D01*
Y15871D01*
X141475Y16396D01*
X140426D01*
Y15347D01*
X118376Y9599D02*
X117851Y9074D01*
Y8025D01*
X118376Y7500D01*
X118901D01*
X119426Y8025D01*
Y9074D01*
X119950Y9599D01*
X120475D01*
X121000Y9074D01*
Y8025D01*
X120475Y7500D01*
X117851Y10649D02*
Y12748D01*
Y11698D01*
X121000D01*
X117851Y13797D02*
X121000D01*
Y15371D01*
X120475Y15896D01*
X118376D01*
X117851Y15371D01*
Y13797D01*
X52349Y217649D02*
X51824Y218173D01*
X50775D01*
X50250Y217649D01*
Y217124D01*
X50775Y216599D01*
X51824D01*
X52349Y216074D01*
Y215549D01*
X51824Y215025D01*
X50775D01*
X50250Y215549D01*
X53399Y218173D02*
Y215025D01*
X54448Y216074D01*
X55498Y215025D01*
Y218173D01*
X56547Y214500D02*
X58646D01*
X59696Y218173D02*
X60745D01*
X60220D01*
Y215025D01*
X59696D01*
X60745D01*
X90250Y186649D02*
X91299D01*
X90775D01*
Y183500D01*
X90250D01*
X91299D01*
X92874D02*
Y186649D01*
X94973Y183500D01*
Y186649D01*
X96022D02*
Y183500D01*
X97597D01*
X98122Y184025D01*
Y186124D01*
X97597Y186649D01*
X96022D01*
X95750Y221000D02*
Y224149D01*
X97324D01*
X97849Y223624D01*
Y222574D01*
X97324Y222049D01*
X95750D01*
X98899Y224149D02*
Y221000D01*
X100473D01*
X100998Y221525D01*
Y222049D01*
X100473Y222574D01*
X98899D01*
X100473D01*
X100998Y223099D01*
Y223624D01*
X100473Y224149D01*
X98899D01*
X92099Y196374D02*
X91574Y196899D01*
X90525D01*
X90000Y196374D01*
Y194275D01*
X90525Y193750D01*
X91574D01*
X92099Y194275D01*
Y195324D01*
X91049D01*
X93149Y193750D02*
Y196899D01*
X95248Y193750D01*
Y196899D01*
X96297D02*
Y193750D01*
X97872D01*
X98396Y194275D01*
Y196374D01*
X97872Y196899D01*
X96297D01*
X51599Y207149D02*
X51074Y207673D01*
X50025D01*
X49500Y207149D01*
Y206624D01*
X50025Y206099D01*
X51074D01*
X51599Y205574D01*
Y205049D01*
X51074Y204525D01*
X50025D01*
X49500Y205049D01*
X52649Y207673D02*
Y204525D01*
X53698Y205574D01*
X54748Y204525D01*
Y207673D01*
X55797Y204000D02*
X57896D01*
X60520Y207673D02*
X59470D01*
X58946Y207149D01*
Y205049D01*
X59470Y204525D01*
X60520D01*
X61045Y205049D01*
Y207149D01*
X60520Y207673D01*
X45212Y197052D02*
Y194953D01*
X46262Y193903D01*
X47311Y194953D01*
Y197052D01*
X48361D02*
Y194428D01*
X48886Y193903D01*
X49935D01*
X50460Y194428D01*
Y197052D01*
X53608Y196527D02*
X53084Y197052D01*
X52034D01*
X51509Y196527D01*
Y196002D01*
X52034Y195477D01*
X53084D01*
X53608Y194953D01*
Y194428D01*
X53084Y193903D01*
X52034D01*
X51509Y194428D01*
X54658Y197052D02*
Y193903D01*
X56232D01*
X56757Y194428D01*
Y194953D01*
X56232Y195477D01*
X54658D01*
X56232D01*
X56757Y196002D01*
Y196527D01*
X56232Y197052D01*
X54658D01*
X35212D02*
Y193903D01*
X36786D01*
X37311Y194428D01*
Y196527D01*
X36786Y197052D01*
X35212D01*
X38361Y193903D02*
Y197052D01*
X40460Y193903D01*
Y197052D01*
X25000Y196899D02*
Y193750D01*
X26574D01*
X27099Y194275D01*
Y196374D01*
X26574Y196899D01*
X25000D01*
X28149Y193750D02*
Y196899D01*
X29723D01*
X30248Y196374D01*
Y195324D01*
X29723Y194799D01*
X28149D01*
X32851Y67000D02*
X36000D01*
Y68574D01*
X35475Y69099D01*
X34951D01*
X34426Y68574D01*
Y67000D01*
Y68574D01*
X33901Y69099D01*
X33376D01*
X32851Y68574D01*
Y67000D01*
X34426Y70149D02*
Y72248D01*
X33376Y71198D02*
X35475D01*
X32851Y53250D02*
X36000D01*
Y54824D01*
X35475Y55349D01*
X34951D01*
X34426Y54824D01*
Y53250D01*
Y54824D01*
X33901Y55349D01*
X33376D01*
X32851Y54824D01*
Y53250D01*
X34426Y56399D02*
Y58498D01*
X286725Y125145D02*
X286200Y124620D01*
Y123571D01*
X286725Y123046D01*
X287249D01*
X287774Y123571D01*
Y124620D01*
X288299Y125145D01*
X288824D01*
X289348Y124620D01*
Y123571D01*
X288824Y123046D01*
X286725Y128294D02*
X286200Y127769D01*
Y126719D01*
X286725Y126195D01*
X288824D01*
X289348Y126719D01*
Y127769D01*
X288824Y128294D01*
X286200Y129343D02*
X289348D01*
Y131442D01*
X276225Y125395D02*
X275700Y124870D01*
Y123821D01*
X276225Y123296D01*
X276749D01*
X277274Y123821D01*
Y124870D01*
X277799Y125395D01*
X278324D01*
X278848Y124870D01*
Y123821D01*
X278324Y123296D01*
X275700Y126445D02*
X278848D01*
Y128019D01*
X278324Y128544D01*
X276225D01*
X275700Y128019D01*
Y126445D01*
X278848Y129593D02*
X276749D01*
X275700Y130643D01*
X276749Y131692D01*
X278848D01*
X277274D01*
Y129593D01*
X265975Y123296D02*
X265450Y123821D01*
Y124870D01*
X265975Y125395D01*
X266499D01*
X267024Y124870D01*
Y124346D01*
Y124870D01*
X267549Y125395D01*
X268074D01*
X268598Y124870D01*
Y123821D01*
X268074Y123296D01*
X265450Y126445D02*
X267549D01*
X268598Y127494D01*
X267549Y128544D01*
X265450D01*
X265975Y129593D02*
X265450Y130118D01*
Y131167D01*
X265975Y131692D01*
X266499D01*
X267024Y131167D01*
Y130643D01*
Y131167D01*
X267549Y131692D01*
X268074D01*
X268598Y131167D01*
Y130118D01*
X268074Y129593D01*
X256876Y125599D02*
X256351Y125074D01*
Y124025D01*
X256876Y123500D01*
X258975D01*
X259500Y124025D01*
Y125074D01*
X258975Y125599D01*
X257926D01*
Y124549D01*
X259500Y126649D02*
X256351D01*
X259500Y128748D01*
X256351D01*
Y129797D02*
X259500D01*
Y131371D01*
X258975Y131896D01*
X256876D01*
X256351Y131371D01*
Y129797D01*
X145302Y178324D02*
X147401D01*
X146351D01*
Y175176D01*
X148451D02*
Y178324D01*
X150025D01*
X150549Y177799D01*
Y176750D01*
X150025Y176225D01*
X148451D01*
X153698Y178324D02*
X151599D01*
Y176750D01*
X152649Y177275D01*
X153173D01*
X153698Y176750D01*
Y175700D01*
X153173Y175176D01*
X152124D01*
X151599Y175700D01*
X42176Y71376D02*
X45324D01*
Y72951D01*
X44800Y73475D01*
X44275D01*
X43750Y72951D01*
Y71376D01*
Y72951D01*
X43225Y73475D01*
X42700D01*
X42176Y72951D01*
Y71376D01*
Y76624D02*
Y74525D01*
X43750D01*
X43225Y75574D01*
Y76099D01*
X43750Y76624D01*
X44800D01*
X45324Y76099D01*
Y75050D01*
X44800Y74525D01*
X8761Y149051D02*
X7711D01*
X8236D01*
Y146427D01*
X7711Y145902D01*
X7186D01*
X6662Y146427D01*
X9810D02*
X10335Y145902D01*
X11384D01*
X11909Y146427D01*
Y148526D01*
X11384Y149051D01*
X10335D01*
X9810Y148526D01*
Y148001D01*
X10335Y147476D01*
X11909D01*
X159844Y154718D02*
X158532D01*
X159188D01*
Y151438D01*
X158532Y150782D01*
X157876D01*
X157220Y151438D01*
X161156Y154062D02*
X161812Y154718D01*
X163124D01*
X163780Y154062D01*
Y153406D01*
X163124Y152750D01*
X163780Y152094D01*
Y151438D01*
X163124Y150782D01*
X161812D01*
X161156Y151438D01*
Y152094D01*
X161812Y152750D01*
X161156Y153406D01*
Y154062D01*
X161812Y152750D02*
X163124D01*
X256475Y107074D02*
X255426D01*
X255950D01*
Y104451D01*
X255426Y103926D01*
X254901D01*
X254376Y104451D01*
X257525Y107074D02*
X259624D01*
Y106550D01*
X257525Y104451D01*
Y103926D01*
X39126Y42324D02*
Y39700D01*
X39651Y39176D01*
X40701D01*
X41225Y39700D01*
Y42324D01*
X42275D02*
X44374D01*
Y41800D01*
X42275Y39700D01*
Y39176D01*
X6676Y87876D02*
X9300D01*
X9824Y88401D01*
Y89451D01*
X9300Y89975D01*
X6676D01*
Y93124D02*
X7201Y92074D01*
X8250Y91025D01*
X9300D01*
X9824Y91549D01*
Y92599D01*
X9300Y93124D01*
X8775D01*
X8250Y92599D01*
Y91025D01*
X72130Y7426D02*
Y10050D01*
X71605Y10574D01*
X70555D01*
X70031Y10050D01*
Y7426D01*
X66882D02*
X68981D01*
Y9000D01*
X67932Y8475D01*
X67407D01*
X66882Y9000D01*
Y10050D01*
X67407Y10574D01*
X68456D01*
X68981Y10050D01*
X264376Y149074D02*
Y146450D01*
X264901Y145926D01*
X265950D01*
X266475Y146450D01*
Y149074D01*
X269099Y145926D02*
Y149074D01*
X267525Y147500D01*
X269624D01*
X233574Y70624D02*
X230950D01*
X230426Y70099D01*
Y69050D01*
X230950Y68525D01*
X233574D01*
X233050Y67475D02*
X233574Y66951D01*
Y65901D01*
X233050Y65376D01*
X232525D01*
X232000Y65901D01*
Y66426D01*
Y65901D01*
X231475Y65376D01*
X230950D01*
X230426Y65901D01*
Y66951D01*
X230950Y67475D01*
X242874Y39926D02*
Y42549D01*
X242349Y43074D01*
X241300D01*
X240775Y42549D01*
Y39926D01*
X237626Y43074D02*
X239725D01*
X237626Y40975D01*
Y40451D01*
X238151Y39926D01*
X239200D01*
X239725Y40451D01*
X45676Y121151D02*
X48300D01*
X48824Y121676D01*
Y122725D01*
X48300Y123250D01*
X45676D01*
X48824Y124300D02*
Y125349D01*
Y124824D01*
X45676D01*
X46200Y124300D01*
X123302Y110574D02*
X125401D01*
X124351D01*
Y107426D01*
X126451D02*
Y110574D01*
X128025D01*
X128550Y110049D01*
Y109000D01*
X128025Y108475D01*
X126451D01*
X129599Y110049D02*
X130124Y110574D01*
X131173D01*
X131698Y110049D01*
Y109525D01*
X131173Y109000D01*
X130649D01*
X131173D01*
X131698Y108475D01*
Y107950D01*
X131173Y107426D01*
X130124D01*
X129599Y107950D01*
X206901Y61800D02*
X206376Y62324D01*
X205327D01*
X204802Y61800D01*
Y61275D01*
X205327Y60750D01*
X206376D01*
X206901Y60225D01*
Y59701D01*
X206376Y59176D01*
X205327D01*
X204802Y59701D01*
X207950Y62324D02*
Y59176D01*
X209000Y60225D01*
X210050Y59176D01*
Y62324D01*
X211099Y61800D02*
X211624Y62324D01*
X212673D01*
X213198Y61800D01*
Y61275D01*
X212673Y60750D01*
X212149D01*
X212673D01*
X213198Y60225D01*
Y59701D01*
X212673Y59176D01*
X211624D01*
X211099Y59701D01*
X131302Y171176D02*
Y174324D01*
X132876D01*
X133401Y173800D01*
Y172750D01*
X132876Y172225D01*
X131302D01*
X132351D02*
X133401Y171176D01*
X134450Y173800D02*
X134975Y174324D01*
X136025D01*
X136549Y173800D01*
Y173275D01*
X136025Y172750D01*
X135500D01*
X136025D01*
X136549Y172225D01*
Y171701D01*
X136025Y171176D01*
X134975D01*
X134450Y171701D01*
X137599Y174324D02*
X139698D01*
Y173800D01*
X137599Y171701D01*
Y171176D01*
X116802Y68926D02*
Y72074D01*
X118376D01*
X118901Y71549D01*
Y70500D01*
X118376Y69975D01*
X116802D01*
X117851D02*
X118901Y68926D01*
X119950Y71549D02*
X120475Y72074D01*
X121525D01*
X122049Y71549D01*
Y71025D01*
X121525Y70500D01*
X121000D01*
X121525D01*
X122049Y69975D01*
Y69450D01*
X121525Y68926D01*
X120475D01*
X119950Y69450D01*
X125198Y72074D02*
X124149Y71549D01*
X123099Y70500D01*
Y69450D01*
X123624Y68926D01*
X124673D01*
X125198Y69450D01*
Y69975D01*
X124673Y70500D01*
X123099D01*
X94052Y78426D02*
Y81574D01*
X95626D01*
X96151Y81050D01*
Y80000D01*
X95626Y79475D01*
X94052D01*
X95101D02*
X96151Y78426D01*
X97201Y81050D02*
X97725Y81574D01*
X98775D01*
X99300Y81050D01*
Y80525D01*
X98775Y80000D01*
X98250D01*
X98775D01*
X99300Y79475D01*
Y78951D01*
X98775Y78426D01*
X97725D01*
X97201Y78951D01*
X102448Y81574D02*
X100349D01*
Y80000D01*
X101399Y80525D01*
X101923D01*
X102448Y80000D01*
Y78951D01*
X101923Y78426D01*
X100874D01*
X100349Y78951D01*
X117052Y49676D02*
Y52824D01*
X118626D01*
X119151Y52299D01*
Y51250D01*
X118626Y50725D01*
X117052D01*
X118101D02*
X119151Y49676D01*
X120201Y52299D02*
X120725Y52824D01*
X121775D01*
X122300Y52299D01*
Y51775D01*
X121775Y51250D01*
X121250D01*
X121775D01*
X122300Y50725D01*
Y50200D01*
X121775Y49676D01*
X120725D01*
X120201Y50200D01*
X124923Y49676D02*
Y52824D01*
X123349Y51250D01*
X125448D01*
X32802Y77676D02*
Y80824D01*
X34376D01*
X34901Y80300D01*
Y79250D01*
X34376Y78725D01*
X32802D01*
X33851D02*
X34901Y77676D01*
X35950Y80300D02*
X36475Y80824D01*
X37525D01*
X38050Y80300D01*
Y79775D01*
X37525Y79250D01*
X37000D01*
X37525D01*
X38050Y78725D01*
Y78201D01*
X37525Y77676D01*
X36475D01*
X35950Y78201D01*
X41198Y77676D02*
X39099D01*
X41198Y79775D01*
Y80300D01*
X40673Y80824D01*
X39624D01*
X39099Y80300D01*
X65574Y78781D02*
X62426D01*
Y80356D01*
X62950Y80880D01*
X64000D01*
X64525Y80356D01*
Y78781D01*
Y79831D02*
X65574Y80880D01*
X62950Y81930D02*
X62426Y82455D01*
Y83504D01*
X62950Y84029D01*
X63475D01*
X64000Y83504D01*
Y82980D01*
Y83504D01*
X64525Y84029D01*
X65049D01*
X65574Y83504D01*
Y82455D01*
X65049Y81930D01*
X65574Y85079D02*
Y86128D01*
Y85603D01*
X62426D01*
X62950Y85079D01*
X141824Y23302D02*
X138676D01*
Y24876D01*
X139200Y25401D01*
X140250D01*
X140775Y24876D01*
Y23302D01*
Y24351D02*
X141824Y25401D01*
X139200Y26450D02*
X138676Y26975D01*
Y28025D01*
X139200Y28550D01*
X139725D01*
X140250Y28025D01*
Y27500D01*
Y28025D01*
X140775Y28550D01*
X141299D01*
X141824Y28025D01*
Y26975D01*
X141299Y26450D01*
X139200Y29599D02*
X138676Y30124D01*
Y31173D01*
X139200Y31698D01*
X141299D01*
X141824Y31173D01*
Y30124D01*
X141299Y29599D01*
X139200D01*
X120074Y23552D02*
X116926D01*
Y25126D01*
X117450Y25651D01*
X118500D01*
X119025Y25126D01*
Y23552D01*
Y24601D02*
X120074Y25651D01*
Y28800D02*
Y26700D01*
X117975Y28800D01*
X117450D01*
X116926Y28275D01*
Y27225D01*
X117450Y26700D01*
X119550Y29849D02*
X120074Y30374D01*
Y31423D01*
X119550Y31948D01*
X117450D01*
X116926Y31423D01*
Y30374D01*
X117450Y29849D01*
X117975D01*
X118500Y30374D01*
Y31948D01*
X86302Y15176D02*
Y18324D01*
X87876D01*
X88401Y17799D01*
Y16750D01*
X87876Y16225D01*
X86302D01*
X87351D02*
X88401Y15176D01*
X91549D02*
X89451D01*
X91549Y17275D01*
Y17799D01*
X91025Y18324D01*
X89975D01*
X89451Y17799D01*
X92599D02*
X93124Y18324D01*
X94173D01*
X94698Y17799D01*
Y17275D01*
X94173Y16750D01*
X94698Y16225D01*
Y15700D01*
X94173Y15176D01*
X93124D01*
X92599Y15700D01*
Y16225D01*
X93124Y16750D01*
X92599Y17275D01*
Y17799D01*
X93124Y16750D02*
X94173D01*
X70824Y58802D02*
X67676D01*
Y60376D01*
X68200Y60901D01*
X69250D01*
X69775Y60376D01*
Y58802D01*
Y59851D02*
X70824Y60901D01*
Y64050D02*
Y61950D01*
X68725Y64050D01*
X68200D01*
X67676Y63525D01*
Y62475D01*
X68200Y61950D01*
X67676Y65099D02*
Y67198D01*
X68200D01*
X70300Y65099D01*
X70824D01*
X79824Y161052D02*
X76676D01*
Y162626D01*
X77201Y163151D01*
X78250D01*
X78775Y162626D01*
Y161052D01*
Y162101D02*
X79824Y163151D01*
Y166299D02*
Y164200D01*
X77725Y166299D01*
X77201D01*
X76676Y165775D01*
Y164725D01*
X77201Y164200D01*
X76676Y169448D02*
X77201Y168399D01*
X78250Y167349D01*
X79299D01*
X79824Y167874D01*
Y168923D01*
X79299Y169448D01*
X78775D01*
X78250Y168923D01*
Y167349D01*
X142731Y123249D02*
X145879D01*
Y121675D01*
X145355Y121150D01*
X144305D01*
X143780Y121675D01*
Y123249D01*
Y122200D02*
X142731Y121150D01*
Y118002D02*
Y120101D01*
X144830Y118002D01*
X145355D01*
X145879Y118526D01*
Y119576D01*
X145355Y120101D01*
X145879Y114853D02*
Y116952D01*
X144305D01*
X144830Y115903D01*
Y115378D01*
X144305Y114853D01*
X143256D01*
X142731Y115378D01*
Y116427D01*
X143256Y116952D01*
X174176Y112698D02*
X177324D01*
Y111124D01*
X176799Y110599D01*
X175750D01*
X175225Y111124D01*
Y112698D01*
Y111649D02*
X174176Y110599D01*
Y107450D02*
Y109549D01*
X176275Y107450D01*
X176799D01*
X177324Y107975D01*
Y109025D01*
X176799Y109549D01*
X174176Y104827D02*
X177324D01*
X175750Y106401D01*
Y104302D01*
X168176Y112948D02*
X171324D01*
Y111374D01*
X170800Y110849D01*
X169750D01*
X169225Y111374D01*
Y112948D01*
Y111899D02*
X168176Y110849D01*
Y107701D02*
Y109800D01*
X170275Y107701D01*
X170800D01*
X171324Y108225D01*
Y109275D01*
X170800Y109800D01*
Y106651D02*
X171324Y106126D01*
Y105077D01*
X170800Y104552D01*
X170275D01*
X169750Y105077D01*
Y105601D01*
Y105077D01*
X169225Y104552D01*
X168701D01*
X168176Y105077D01*
Y106126D01*
X168701Y106651D01*
X297574Y135302D02*
X294426D01*
Y136876D01*
X294951Y137401D01*
X296000D01*
X296525Y136876D01*
Y135302D01*
Y136351D02*
X297574Y137401D01*
Y140550D02*
Y138451D01*
X295475Y140550D01*
X294951D01*
X294426Y140025D01*
Y138975D01*
X294951Y138451D01*
X297574Y143698D02*
Y141599D01*
X295475Y143698D01*
X294951D01*
X294426Y143173D01*
Y142124D01*
X294951Y141599D01*
X250827Y152426D02*
Y155574D01*
X252401D01*
X252926Y155050D01*
Y154000D01*
X252401Y153475D01*
X250827D01*
X251876D02*
X252926Y152426D01*
X256074D02*
X253975D01*
X256074Y154525D01*
Y155050D01*
X255550Y155574D01*
X254500D01*
X253975Y155050D01*
X257124Y152426D02*
X258173D01*
X257649D01*
Y155574D01*
X257124Y155050D01*
X263176Y174698D02*
X266324D01*
Y173124D01*
X265799Y172599D01*
X264750D01*
X264225Y173124D01*
Y174698D01*
Y173649D02*
X263176Y172599D01*
Y169450D02*
Y171549D01*
X265275Y169450D01*
X265799D01*
X266324Y169975D01*
Y171025D01*
X265799Y171549D01*
Y168401D02*
X266324Y167876D01*
Y166827D01*
X265799Y166302D01*
X263701D01*
X263176Y166827D01*
Y167876D01*
X263701Y168401D01*
X265799D01*
X245314Y125176D02*
Y128324D01*
X246889D01*
X247413Y127799D01*
Y126750D01*
X246889Y126225D01*
X245314D01*
X246364D02*
X247413Y125176D01*
X248463D02*
X249512D01*
X248988D01*
Y128324D01*
X248463Y127799D01*
X251087Y125700D02*
X251611Y125176D01*
X252661D01*
X253186Y125700D01*
Y127799D01*
X252661Y128324D01*
X251611D01*
X251087Y127799D01*
Y127275D01*
X251611Y126750D01*
X253186D01*
X223074Y108064D02*
X219926D01*
Y109639D01*
X220450Y110163D01*
X221500D01*
X222025Y109639D01*
Y108064D01*
Y109114D02*
X223074Y110163D01*
Y111213D02*
Y112262D01*
Y111738D01*
X219926D01*
X220450Y111213D01*
Y113837D02*
X219926Y114361D01*
Y115411D01*
X220450Y115936D01*
X220975D01*
X221500Y115411D01*
X222025Y115936D01*
X222550D01*
X223074Y115411D01*
Y114361D01*
X222550Y113837D01*
X222025D01*
X221500Y114361D01*
X220975Y113837D01*
X220450D01*
X221500Y114361D02*
Y115411D01*
X187574Y123064D02*
X184426D01*
Y124639D01*
X184950Y125163D01*
X186000D01*
X186525Y124639D01*
Y123064D01*
Y124114D02*
X187574Y125163D01*
Y126213D02*
Y127262D01*
Y126738D01*
X184426D01*
X184950Y126213D01*
X184426Y128837D02*
Y130936D01*
X184950D01*
X187049Y128837D01*
X187574D01*
X245064Y130926D02*
Y134074D01*
X246639D01*
X247163Y133549D01*
Y132500D01*
X246639Y131975D01*
X245064D01*
X246114D02*
X247163Y130926D01*
X248213D02*
X249262D01*
X248738D01*
Y134074D01*
X248213Y133549D01*
X252936Y134074D02*
X251886Y133549D01*
X250837Y132500D01*
Y131450D01*
X251361Y130926D01*
X252411D01*
X252936Y131450D01*
Y131975D01*
X252411Y132500D01*
X250837D01*
X173314Y136176D02*
Y139324D01*
X174889D01*
X175413Y138800D01*
Y137750D01*
X174889Y137225D01*
X173314D01*
X174364D02*
X175413Y136176D01*
X176463D02*
X177512D01*
X176988D01*
Y139324D01*
X176463Y138800D01*
X181186Y139324D02*
X179087D01*
Y137750D01*
X180136Y138275D01*
X180661D01*
X181186Y137750D01*
Y136700D01*
X180661Y136176D01*
X179611D01*
X179087Y136700D01*
X266610Y43926D02*
Y47074D01*
X268184D01*
X268709Y46549D01*
Y45500D01*
X268184Y44975D01*
X266610D01*
X267659D02*
X268709Y43926D01*
X269758D02*
X270808D01*
X270283D01*
Y47074D01*
X269758Y46549D01*
X273956Y43926D02*
Y47074D01*
X272382Y45500D01*
X274481D01*
X278523Y62407D02*
Y65556D01*
X280098D01*
X280623Y65031D01*
Y63981D01*
X280098Y63457D01*
X278523D01*
X279573D02*
X280623Y62407D01*
X281672D02*
X282722D01*
X282197D01*
Y65556D01*
X281672Y65031D01*
X284296D02*
X284821Y65556D01*
X285870D01*
X286395Y65031D01*
Y64506D01*
X285870Y63981D01*
X285345D01*
X285870D01*
X286395Y63457D01*
Y62932D01*
X285870Y62407D01*
X284821D01*
X284296Y62932D01*
X231676Y86686D02*
X234824D01*
Y85111D01*
X234299Y84587D01*
X233250D01*
X232725Y85111D01*
Y86686D01*
Y85636D02*
X231676Y84587D01*
Y83537D02*
Y82488D01*
Y83012D01*
X234824D01*
X234299Y83537D01*
X231676Y78814D02*
Y80913D01*
X233775Y78814D01*
X234299D01*
X234824Y79339D01*
Y80388D01*
X234299Y80913D01*
X250426Y86161D02*
X253574D01*
Y84587D01*
X253049Y84062D01*
X252000D01*
X251475Y84587D01*
Y86161D01*
Y85111D02*
X250426Y84062D01*
Y83012D02*
Y81963D01*
Y82488D01*
X253574D01*
X253049Y83012D01*
X250426Y80388D02*
Y79339D01*
Y79864D01*
X253574D01*
X253049Y80388D01*
X253564Y43926D02*
Y47074D01*
X255139D01*
X255663Y46549D01*
Y45500D01*
X255139Y44975D01*
X253564D01*
X254614D02*
X255663Y43926D01*
X256713D02*
X257762D01*
X257238D01*
Y47074D01*
X256713Y46549D01*
X259337D02*
X259861Y47074D01*
X260911D01*
X261436Y46549D01*
Y44451D01*
X260911Y43926D01*
X259861D01*
X259337Y44451D01*
Y46549D01*
X226824Y48876D02*
X223676D01*
Y50450D01*
X224201Y50975D01*
X225250D01*
X225775Y50450D01*
Y48876D01*
Y49926D02*
X226824Y50975D01*
X226300Y52025D02*
X226824Y52549D01*
Y53599D01*
X226300Y54124D01*
X224201D01*
X223676Y53599D01*
Y52549D01*
X224201Y52025D01*
X224725D01*
X225250Y52549D01*
Y54124D01*
X192717Y97426D02*
Y100574D01*
X194291D01*
X194816Y100049D01*
Y99000D01*
X194291Y98475D01*
X192717D01*
X193766D02*
X194816Y97426D01*
X195865Y100049D02*
X196390Y100574D01*
X197440D01*
X197964Y100049D01*
Y99525D01*
X197440Y99000D01*
X197964Y98475D01*
Y97951D01*
X197440Y97426D01*
X196390D01*
X195865Y97951D01*
Y98475D01*
X196390Y99000D01*
X195865Y99525D01*
Y100049D01*
X196390Y99000D02*
X197440D01*
X170074Y85876D02*
X166926D01*
Y87450D01*
X167450Y87975D01*
X168500D01*
X169025Y87450D01*
Y85876D01*
Y86926D02*
X170074Y87975D01*
X166926Y89025D02*
Y91124D01*
X167450D01*
X169550Y89025D01*
X170074D01*
X238671Y152426D02*
Y155574D01*
X240246D01*
X240771Y155050D01*
Y154000D01*
X240246Y153475D01*
X238671D01*
X239721D02*
X240771Y152426D01*
X243919Y155574D02*
X242870Y155050D01*
X241820Y154000D01*
Y152951D01*
X242345Y152426D01*
X243394D01*
X243919Y152951D01*
Y153475D01*
X243394Y154000D01*
X241820D01*
X171876Y215676D02*
Y218824D01*
X173451D01*
X173975Y218300D01*
Y217250D01*
X173451Y216725D01*
X171876D01*
X172926D02*
X173975Y215676D01*
X177124Y218824D02*
X175025D01*
Y217250D01*
X176074Y217775D01*
X176599D01*
X177124Y217250D01*
Y216200D01*
X176599Y215676D01*
X175549D01*
X175025Y216200D01*
X175070Y167626D02*
X171921D01*
Y169201D01*
X172446Y169725D01*
X173495D01*
X174020Y169201D01*
Y167626D01*
Y168676D02*
X175070Y169725D01*
Y172349D02*
X171921D01*
X173495Y170775D01*
Y172874D01*
X264626Y101426D02*
Y104574D01*
X266200D01*
X266725Y104050D01*
Y103000D01*
X266200Y102475D01*
X264626D01*
X265676D02*
X266725Y101426D01*
X269874D02*
X267775D01*
X269874Y103525D01*
Y104050D01*
X269349Y104574D01*
X268300D01*
X267775Y104050D01*
X297401Y101426D02*
Y104574D01*
X298975D01*
X299500Y104050D01*
Y103000D01*
X298975Y102475D01*
X297401D01*
X298450D02*
X299500Y101426D01*
X300550D02*
X301599D01*
X301074D01*
Y104574D01*
X300550Y104050D01*
X158975Y108701D02*
Y110800D01*
X158450Y111324D01*
X157401D01*
X156876Y110800D01*
Y108701D01*
X157401Y108176D01*
X158450D01*
X157926Y109225D02*
X158975Y108176D01*
X158450D02*
X158975Y108701D01*
X162124Y108176D02*
X160025D01*
X162124Y110275D01*
Y110800D01*
X161599Y111324D01*
X160549D01*
X160025Y110800D01*
X8176Y79225D02*
Y78176D01*
Y78701D01*
X10800D01*
X11324Y78176D01*
Y77651D01*
X10800Y77126D01*
X8176Y82374D02*
X8700Y81324D01*
X9750Y80275D01*
X10800D01*
X11324Y80800D01*
Y81849D01*
X10800Y82374D01*
X10275D01*
X9750Y81849D01*
Y80275D01*
X8698Y167074D02*
X7648D01*
X8173D01*
Y164451D01*
X7648Y163926D01*
X7123D01*
X6599Y164451D01*
X11846Y167074D02*
X9747D01*
Y165500D01*
X10797Y166025D01*
X11321D01*
X11846Y165500D01*
Y164451D01*
X11321Y163926D01*
X10272D01*
X9747Y164451D01*
X304225Y188574D02*
X303176D01*
X303700D01*
Y185951D01*
X303176Y185426D01*
X302651D01*
X302126Y185951D01*
X306849Y185426D02*
Y188574D01*
X305275Y187000D01*
X307374D01*
X345225Y102824D02*
X344176D01*
X344701D01*
Y100200D01*
X344176Y99676D01*
X343651D01*
X343126Y100200D01*
X346275Y102299D02*
X346799Y102824D01*
X347849D01*
X348374Y102299D01*
Y101775D01*
X347849Y101250D01*
X347324D01*
X347849D01*
X348374Y100725D01*
Y100200D01*
X347849Y99676D01*
X346799D01*
X346275Y100200D01*
X105225Y173324D02*
X104176D01*
X104701D01*
Y170701D01*
X104176Y170176D01*
X103651D01*
X103126Y170701D01*
X108374Y170176D02*
X106275D01*
X108374Y172275D01*
Y172800D01*
X107849Y173324D01*
X106799D01*
X106275Y172800D01*
X83250Y173324D02*
X82200D01*
X82725D01*
Y170701D01*
X82200Y170176D01*
X81676D01*
X81151Y170701D01*
X84299Y170176D02*
X85349D01*
X84824D01*
Y173324D01*
X84299Y172800D01*
X278426Y90151D02*
Y88052D01*
X280000D01*
Y89101D01*
Y88052D01*
X281574D01*
X278426Y91201D02*
X281574D01*
Y92775D01*
X281049Y93300D01*
X280525D01*
X280000Y92775D01*
Y91201D01*
Y92775D01*
X279475Y93300D01*
X278951D01*
X278426Y92775D01*
Y91201D01*
X281574Y96448D02*
Y94349D01*
X279475Y96448D01*
X278951D01*
X278426Y95923D01*
Y94874D01*
X278951Y94349D01*
X162324Y200574D02*
Y202673D01*
X160750D01*
Y201624D01*
Y202673D01*
X159176D01*
X162324Y199525D02*
X159176D01*
Y197950D01*
X159701Y197426D01*
X160225D01*
X160750Y197950D01*
Y199525D01*
Y197950D01*
X161275Y197426D01*
X161800D01*
X162324Y197950D01*
Y199525D01*
X159176Y196376D02*
Y195327D01*
Y195851D01*
X162324D01*
X161800Y196376D01*
X92926Y96750D02*
Y94651D01*
X94500D01*
Y95701D01*
Y94651D01*
X96074D01*
Y97799D02*
Y98849D01*
Y98324D01*
X92926D01*
X93450Y97799D01*
X129176Y67376D02*
X132324D01*
Y68950D01*
X131799Y69475D01*
X129701D01*
X129176Y68950D01*
Y67376D01*
X131799Y70525D02*
X132324Y71049D01*
Y72099D01*
X131799Y72624D01*
X129701D01*
X129176Y72099D01*
Y71049D01*
X129701Y70525D01*
X130225D01*
X130750Y71049D01*
Y72624D01*
X98676Y67428D02*
X101824D01*
Y69002D01*
X101300Y69527D01*
X99200D01*
X98676Y69002D01*
Y67428D01*
X99200Y70577D02*
X98676Y71101D01*
Y72151D01*
X99200Y72676D01*
X99725D01*
X100250Y72151D01*
X100775Y72676D01*
X101300D01*
X101824Y72151D01*
Y71101D01*
X101300Y70577D01*
X100775D01*
X100250Y71101D01*
X99725Y70577D01*
X99200D01*
X100250Y71101D02*
Y72151D01*
X54824Y42124D02*
X51676D01*
Y40549D01*
X52201Y40025D01*
X54299D01*
X54824Y40549D01*
Y42124D01*
Y38975D02*
Y36876D01*
X54299D01*
X52201Y38975D01*
X51676D01*
X34426Y87126D02*
X37574D01*
Y88700D01*
X37049Y89225D01*
X34951D01*
X34426Y88700D01*
Y87126D01*
Y92374D02*
X34951Y91324D01*
X36000Y90275D01*
X37049D01*
X37574Y90799D01*
Y91849D01*
X37049Y92374D01*
X36525D01*
X36000Y91849D01*
Y90275D01*
X105676Y9376D02*
X108824D01*
Y10950D01*
X108300Y11475D01*
X106201D01*
X105676Y10950D01*
Y9376D01*
Y14624D02*
Y12525D01*
X107250D01*
X106725Y13574D01*
Y14099D01*
X107250Y14624D01*
X108300D01*
X108824Y14099D01*
Y13049D01*
X108300Y12525D01*
X127676Y9876D02*
X130824D01*
Y11451D01*
X130299Y11975D01*
X128200D01*
X127676Y11451D01*
Y9876D01*
X130824Y14599D02*
X127676D01*
X129250Y13025D01*
Y15124D01*
X36324Y160374D02*
X33176D01*
Y158800D01*
X33700Y158275D01*
X35800D01*
X36324Y158800D01*
Y160374D01*
X33176Y155126D02*
Y157225D01*
X35275Y155126D01*
X35800D01*
X36324Y155651D01*
Y156701D01*
X35800Y157225D01*
X196241Y77346D02*
Y74197D01*
X197816D01*
X198341Y74722D01*
Y76821D01*
X197816Y77346D01*
X196241D01*
X199390Y74197D02*
X200440D01*
X199915D01*
Y77346D01*
X199390Y76821D01*
X95951Y157676D02*
X95426Y157151D01*
Y156101D01*
X95951Y155577D01*
X98049D01*
X98574Y156101D01*
Y157151D01*
X98049Y157676D01*
X95951Y158725D02*
X95426Y159250D01*
Y160300D01*
X95951Y160824D01*
X96475D01*
X97000Y160300D01*
Y159775D01*
Y160300D01*
X97525Y160824D01*
X98049D01*
X98574Y160300D01*
Y159250D01*
X98049Y158725D01*
X98574Y161874D02*
Y162923D01*
Y162399D01*
X95426D01*
X95951Y161874D01*
X125451Y133401D02*
X124926Y132876D01*
Y131827D01*
X125451Y131302D01*
X127550D01*
X128074Y131827D01*
Y132876D01*
X127550Y133401D01*
X125451Y134450D02*
X124926Y134975D01*
Y136025D01*
X125451Y136549D01*
X125975D01*
X126500Y136025D01*
Y135500D01*
Y136025D01*
X127025Y136549D01*
X127550D01*
X128074Y136025D01*
Y134975D01*
X127550Y134450D01*
X125451Y137599D02*
X124926Y138124D01*
Y139173D01*
X125451Y139698D01*
X127550D01*
X128074Y139173D01*
Y138124D01*
X127550Y137599D01*
X125451D01*
X131450Y133651D02*
X130926Y133126D01*
Y132077D01*
X131450Y131552D01*
X133549D01*
X134074Y132077D01*
Y133126D01*
X133549Y133651D01*
X134074Y136800D02*
Y134701D01*
X131975Y136800D01*
X131450D01*
X130926Y136275D01*
Y135225D01*
X131450Y134701D01*
X133549Y137849D02*
X134074Y138374D01*
Y139423D01*
X133549Y139948D01*
X131450D01*
X130926Y139423D01*
Y138374D01*
X131450Y137849D01*
X131975D01*
X132500Y138374D01*
Y139948D01*
X102200Y158151D02*
X101676Y157626D01*
Y156577D01*
X102200Y156052D01*
X104299D01*
X104824Y156577D01*
Y157626D01*
X104299Y158151D01*
X104824Y161300D02*
Y159201D01*
X102725Y161300D01*
X102200D01*
X101676Y160775D01*
Y159725D01*
X102200Y159201D01*
Y162349D02*
X101676Y162874D01*
Y163923D01*
X102200Y164448D01*
X102725D01*
X103250Y163923D01*
X103775Y164448D01*
X104299D01*
X104824Y163923D01*
Y162874D01*
X104299Y162349D01*
X103775D01*
X103250Y162874D01*
X102725Y162349D01*
X102200D01*
X103250Y162874D02*
Y163923D01*
X150151Y60248D02*
X149626Y60772D01*
X148577D01*
X148052Y60248D01*
Y58149D01*
X148577Y57624D01*
X149626D01*
X150151Y58149D01*
X153299Y57624D02*
X151200D01*
X153299Y59723D01*
Y60248D01*
X152775Y60772D01*
X151725D01*
X151200Y60248D01*
X154349Y60772D02*
X156448D01*
Y60248D01*
X154349Y58149D01*
Y57624D01*
X119151Y59049D02*
X118626Y59574D01*
X117577D01*
X117052Y59049D01*
Y56950D01*
X117577Y56426D01*
X118626D01*
X119151Y56950D01*
X122300Y56426D02*
X120201D01*
X122300Y58525D01*
Y59049D01*
X121775Y59574D01*
X120725D01*
X120201Y59049D01*
X125448Y59574D02*
X124399Y59049D01*
X123349Y58000D01*
Y56950D01*
X123874Y56426D01*
X124923D01*
X125448Y56950D01*
Y57475D01*
X124923Y58000D01*
X123349D01*
X138103Y102398D02*
X138628Y102922D01*
Y103972D01*
X138103Y104497D01*
X136004D01*
X135479Y103972D01*
Y102922D01*
X136004Y102398D01*
X135479Y99249D02*
Y101348D01*
X137578Y99249D01*
X138103D01*
X138628Y99774D01*
Y100823D01*
X138103Y101348D01*
X138628Y96100D02*
Y98199D01*
X137053D01*
X137578Y97150D01*
Y96625D01*
X137053Y96100D01*
X136004D01*
X135479Y96625D01*
Y97675D01*
X136004Y98199D01*
X138103Y91898D02*
X138628Y92422D01*
Y93472D01*
X138103Y93997D01*
X136004D01*
X135479Y93472D01*
Y92422D01*
X136004Y91898D01*
X135479Y88749D02*
Y90848D01*
X137578Y88749D01*
X138103D01*
X138628Y89274D01*
Y90323D01*
X138103Y90848D01*
X135479Y86125D02*
X138628D01*
X137053Y87700D01*
Y85600D01*
X58901Y53299D02*
X58376Y53824D01*
X57327D01*
X56802Y53299D01*
Y51200D01*
X57327Y50676D01*
X58376D01*
X58901Y51200D01*
X62050Y50676D02*
X59951D01*
X62050Y52775D01*
Y53299D01*
X61525Y53824D01*
X60475D01*
X59951Y53299D01*
X63099D02*
X63624Y53824D01*
X64673D01*
X65198Y53299D01*
Y52775D01*
X64673Y52250D01*
X64149D01*
X64673D01*
X65198Y51725D01*
Y51200D01*
X64673Y50676D01*
X63624D01*
X63099Y51200D01*
X16401Y107299D02*
X15876Y107824D01*
X14827D01*
X14302Y107299D01*
Y105201D01*
X14827Y104676D01*
X15876D01*
X16401Y105201D01*
X19549Y104676D02*
X17450D01*
X19549Y106775D01*
Y107299D01*
X19025Y107824D01*
X17975D01*
X17450Y107299D01*
X22698Y104676D02*
X20599D01*
X22698Y106775D01*
Y107299D01*
X22173Y107824D01*
X21124D01*
X20599Y107299D01*
X50200Y13176D02*
X49676Y12651D01*
Y11601D01*
X50200Y11077D01*
X52299D01*
X52824Y11601D01*
Y12651D01*
X52299Y13176D01*
X52824Y16324D02*
Y14225D01*
X50725Y16324D01*
X50200D01*
X49676Y15800D01*
Y14750D01*
X50200Y14225D01*
X52824Y17374D02*
Y18423D01*
Y17899D01*
X49676D01*
X50200Y17374D01*
X86651Y38300D02*
X86126Y38824D01*
X85077D01*
X84552Y38300D01*
Y36200D01*
X85077Y35676D01*
X86126D01*
X86651Y36200D01*
X89799Y35676D02*
X87700D01*
X89799Y37775D01*
Y38300D01*
X89275Y38824D01*
X88225D01*
X87700Y38300D01*
X90849D02*
X91374Y38824D01*
X92423D01*
X92948Y38300D01*
Y36200D01*
X92423Y35676D01*
X91374D01*
X90849Y36200D01*
Y38300D01*
X40200Y146663D02*
X39676Y146139D01*
Y145089D01*
X40200Y144564D01*
X42300D01*
X42824Y145089D01*
Y146139D01*
X42300Y146663D01*
X42824Y147713D02*
Y148762D01*
Y148238D01*
X39676D01*
X40200Y147713D01*
X42300Y150337D02*
X42824Y150862D01*
Y151911D01*
X42300Y152436D01*
X40200D01*
X39676Y151911D01*
Y150862D01*
X40200Y150337D01*
X40725D01*
X41250Y150862D01*
Y152436D01*
X289163Y154299D02*
X288639Y154824D01*
X287589D01*
X287064Y154299D01*
Y152200D01*
X287589Y151676D01*
X288639D01*
X289163Y152200D01*
X290213Y151676D02*
X291262D01*
X290738D01*
Y154824D01*
X290213Y154299D01*
X292837D02*
X293361Y154824D01*
X294411D01*
X294936Y154299D01*
Y153775D01*
X294411Y153250D01*
X294936Y152725D01*
Y152200D01*
X294411Y151676D01*
X293361D01*
X292837Y152200D01*
Y152725D01*
X293361Y153250D01*
X292837Y153775D01*
Y154299D01*
X293361Y153250D02*
X294411D01*
X288913Y160549D02*
X288389Y161074D01*
X287339D01*
X286814Y160549D01*
Y158450D01*
X287339Y157926D01*
X288389D01*
X288913Y158450D01*
X289963Y157926D02*
X291012D01*
X290488D01*
Y161074D01*
X289963Y160549D01*
X292587Y161074D02*
X294686D01*
Y160549D01*
X292587Y158450D01*
Y157926D01*
X288913Y166799D02*
X288389Y167324D01*
X287339D01*
X286814Y166799D01*
Y164700D01*
X287339Y164176D01*
X288389D01*
X288913Y164700D01*
X289963Y164176D02*
X291012D01*
X290488D01*
Y167324D01*
X289963Y166799D01*
X294686Y167324D02*
X293636Y166799D01*
X292587Y165750D01*
Y164700D01*
X293111Y164176D01*
X294161D01*
X294686Y164700D01*
Y165225D01*
X294161Y165750D01*
X292587D01*
X248163Y139799D02*
X247639Y140324D01*
X246589D01*
X246064Y139799D01*
Y137700D01*
X246589Y137176D01*
X247639D01*
X248163Y137700D01*
X249213Y137176D02*
X250262D01*
X249738D01*
Y140324D01*
X249213Y139799D01*
X253936Y140324D02*
X251837D01*
Y138750D01*
X252886Y139275D01*
X253411D01*
X253936Y138750D01*
Y137700D01*
X253411Y137176D01*
X252361D01*
X251837Y137700D01*
X281163Y59049D02*
X280639Y59574D01*
X279589D01*
X279064Y59049D01*
Y56950D01*
X279589Y56426D01*
X280639D01*
X281163Y56950D01*
X282213Y56426D02*
X283262D01*
X282738D01*
Y59574D01*
X282213Y59049D01*
X286411Y56426D02*
Y59574D01*
X284837Y58000D01*
X286936D01*
X259286Y84727D02*
X258761Y84202D01*
Y83152D01*
X259286Y82628D01*
X261385D01*
X261910Y83152D01*
Y84202D01*
X261385Y84727D01*
X261910Y85776D02*
Y86826D01*
Y86301D01*
X258761D01*
X259286Y85776D01*
Y88400D02*
X258761Y88925D01*
Y89974D01*
X259286Y90499D01*
X259810D01*
X260335Y89974D01*
Y89450D01*
Y89974D01*
X260860Y90499D01*
X261385D01*
X261910Y89974D01*
Y88925D01*
X261385Y88400D01*
X266286Y84977D02*
X265761Y84452D01*
Y83402D01*
X266286Y82878D01*
X268385D01*
X268910Y83402D01*
Y84452D01*
X268385Y84977D01*
X268910Y86026D02*
Y87076D01*
Y86551D01*
X265761D01*
X266286Y86026D01*
X268910Y90749D02*
Y88650D01*
X266810Y90749D01*
X266286D01*
X265761Y90224D01*
Y89175D01*
X266286Y88650D01*
X39950Y135688D02*
X39426Y135163D01*
Y134114D01*
X39950Y133589D01*
X42050D01*
X42574Y134114D01*
Y135163D01*
X42050Y135688D01*
X42574Y136738D02*
Y137787D01*
Y137262D01*
X39426D01*
X39950Y136738D01*
X42574Y139361D02*
Y140411D01*
Y139886D01*
X39426D01*
X39950Y139361D01*
X71413Y110800D02*
X70889Y111324D01*
X69839D01*
X69314Y110800D01*
Y108701D01*
X69839Y108176D01*
X70889D01*
X71413Y108701D01*
X72463Y108176D02*
X73512D01*
X72988D01*
Y111324D01*
X72463Y110800D01*
X75087D02*
X75612Y111324D01*
X76661D01*
X77186Y110800D01*
Y108701D01*
X76661Y108176D01*
X75612D01*
X75087Y108701D01*
Y110800D01*
X80200Y130725D02*
X79676Y130201D01*
Y129151D01*
X80200Y128626D01*
X82300D01*
X82824Y129151D01*
Y130201D01*
X82300Y130725D01*
Y131775D02*
X82824Y132299D01*
Y133349D01*
X82300Y133874D01*
X80200D01*
X79676Y133349D01*
Y132299D01*
X80200Y131775D01*
X80725D01*
X81250Y132299D01*
Y133874D01*
X194816Y86071D02*
X194291Y86596D01*
X193242D01*
X192717Y86071D01*
Y83972D01*
X193242Y83447D01*
X194291D01*
X194816Y83972D01*
X195865Y86071D02*
X196390Y86596D01*
X197440D01*
X197964Y86071D01*
Y85546D01*
X197440Y85022D01*
X197964Y84497D01*
Y83972D01*
X197440Y83447D01*
X196390D01*
X195865Y83972D01*
Y84497D01*
X196390Y85022D01*
X195865Y85546D01*
Y86071D01*
X196390Y85022D02*
X197440D01*
X194816Y93071D02*
X194291Y93596D01*
X193242D01*
X192717Y93071D01*
Y90972D01*
X193242Y90447D01*
X194291D01*
X194816Y90972D01*
X195865Y93596D02*
X197964D01*
Y93071D01*
X195865Y90972D01*
Y90447D01*
X184225Y230550D02*
X183701Y231074D01*
X182651D01*
X182126Y230550D01*
Y228450D01*
X182651Y227926D01*
X183701D01*
X184225Y228450D01*
X187374Y231074D02*
X186324Y230550D01*
X185275Y229500D01*
Y228450D01*
X185800Y227926D01*
X186849D01*
X187374Y228450D01*
Y228975D01*
X186849Y229500D01*
X185275D01*
X179200Y167975D02*
X178676Y167450D01*
Y166401D01*
X179200Y165876D01*
X181299D01*
X181824Y166401D01*
Y167450D01*
X181299Y167975D01*
X178676Y171124D02*
Y169025D01*
X180250D01*
X179725Y170074D01*
Y170599D01*
X180250Y171124D01*
X181299D01*
X181824Y170599D01*
Y169550D01*
X181299Y169025D01*
X135475Y189049D02*
X134950Y189574D01*
X133901D01*
X133376Y189049D01*
Y186951D01*
X133901Y186426D01*
X134950D01*
X135475Y186951D01*
X138099Y186426D02*
Y189574D01*
X136525Y188000D01*
X138624D01*
X179097Y203343D02*
X178572Y202818D01*
Y201769D01*
X179097Y201244D01*
X181196D01*
X181720Y201769D01*
Y202818D01*
X181196Y203343D01*
X179097Y204393D02*
X178572Y204917D01*
Y205967D01*
X179097Y206492D01*
X179621D01*
X180146Y205967D01*
Y205442D01*
Y205967D01*
X180671Y206492D01*
X181196D01*
X181720Y205967D01*
Y204917D01*
X181196Y204393D01*
X172847Y203343D02*
X172322Y202818D01*
Y201769D01*
X172847Y201244D01*
X174946D01*
X175470Y201769D01*
Y202818D01*
X174946Y203343D01*
X175470Y206492D02*
Y204393D01*
X173371Y206492D01*
X172847D01*
X172322Y205967D01*
Y204917D01*
X172847Y204393D01*
X166847Y203118D02*
X166322Y202593D01*
Y201543D01*
X166847Y201019D01*
X168946D01*
X169471Y201543D01*
Y202593D01*
X168946Y203118D01*
X169471Y204167D02*
Y205217D01*
Y204692D01*
X166322D01*
X166847Y204167D01*
X113126Y160324D02*
Y157176D01*
X114700D01*
X115225Y157701D01*
Y158225D01*
X114700Y158750D01*
X113126D01*
X114700D01*
X115225Y159275D01*
Y159800D01*
X114700Y160324D01*
X113126D01*
X116275D02*
X118374D01*
Y159800D01*
X116275Y157701D01*
Y157176D01*
X59126Y161324D02*
Y158176D01*
X60701D01*
X61225Y158701D01*
Y159225D01*
X60701Y159750D01*
X59126D01*
X60701D01*
X61225Y160275D01*
Y160800D01*
X60701Y161324D01*
X59126D01*
X63849Y158176D02*
Y161324D01*
X62275Y159750D01*
X64374D01*
X210376Y146574D02*
Y143426D01*
X211950D01*
X212475Y143950D01*
Y144475D01*
X211950Y145000D01*
X210376D01*
X211950D01*
X212475Y145525D01*
Y146049D01*
X211950Y146574D01*
X210376D01*
X213525Y146049D02*
X214050Y146574D01*
X215099D01*
X215624Y146049D01*
Y145525D01*
X215099Y145000D01*
X214574D01*
X215099D01*
X215624Y144475D01*
Y143950D01*
X215099Y143426D01*
X214050D01*
X213525Y143950D01*
X272626Y85574D02*
Y82426D01*
X274201D01*
X274725Y82951D01*
Y83475D01*
X274201Y84000D01*
X272626D01*
X274201D01*
X274725Y84525D01*
Y85049D01*
X274201Y85574D01*
X272626D01*
X277874Y82426D02*
X275775D01*
X277874Y84525D01*
Y85049D01*
X277349Y85574D01*
X276300D01*
X275775Y85049D01*
X246176Y219401D02*
X249324D01*
Y220975D01*
X248799Y221500D01*
X248275D01*
X247750Y220975D01*
Y219401D01*
Y220975D01*
X247225Y221500D01*
X246701D01*
X246176Y220975D01*
Y219401D01*
X249324Y222550D02*
Y223599D01*
Y223074D01*
X246176D01*
X246701Y222550D01*
D19*
X178681Y50117D02*
X181305D01*
X179993D01*
Y46181D01*
X185241Y50117D02*
X182617D01*
Y46181D01*
X185241D01*
X182617Y48149D02*
X183929D01*
X189176Y49461D02*
X188521Y50117D01*
X187208D01*
X186553Y49461D01*
Y48805D01*
X187208Y48149D01*
X188521D01*
X189176Y47493D01*
Y46837D01*
X188521Y46181D01*
X187208D01*
X186553Y46837D01*
X190488Y50117D02*
X193112D01*
X191800D01*
Y46181D01*
X319039Y64305D02*
X318383Y63649D01*
Y62337D01*
X319039Y61681D01*
X319695D01*
X320351Y62337D01*
Y63649D01*
X321007Y64305D01*
X321663D01*
X322319Y63649D01*
Y62337D01*
X321663Y61681D01*
X318383Y68241D02*
Y65617D01*
X322319D01*
Y68241D01*
X320351Y65617D02*
Y66929D01*
X322319Y69553D02*
X318383D01*
X322319Y72176D01*
X318383D01*
X319039Y76112D02*
X318383Y75456D01*
Y74144D01*
X319039Y73488D01*
X319695D01*
X320351Y74144D01*
Y75456D01*
X321007Y76112D01*
X321663D01*
X322319Y75456D01*
Y74144D01*
X321663Y73488D01*
X318383Y79392D02*
Y78080D01*
X319039Y77424D01*
X321663D01*
X322319Y78080D01*
Y79392D01*
X321663Y80048D01*
X319039D01*
X318383Y79392D01*
X322319Y81360D02*
X318383D01*
Y83328D01*
X319039Y83984D01*
X320351D01*
X321007Y83328D01*
Y81360D01*
Y82672D02*
X322319Y83984D01*
X125224Y229161D02*
Y226931D01*
X128569D01*
Y229161D01*
X126896Y226931D02*
Y228046D01*
X128569Y230276D02*
X125224D01*
X128569Y232507D01*
X125224D01*
X166224Y209181D02*
X169569D01*
Y210854D01*
X169011Y211411D01*
X168454D01*
X167896Y210854D01*
Y209181D01*
Y210854D01*
X167339Y211411D01*
X166781D01*
X166224Y210854D01*
Y209181D01*
Y214199D02*
Y213084D01*
X166781Y212526D01*
X169011D01*
X169569Y213084D01*
Y214199D01*
X169011Y214757D01*
X166781D01*
X166224Y214199D01*
Y217545D02*
Y216429D01*
X166781Y215872D01*
X169011D01*
X169569Y216429D01*
Y217545D01*
X169011Y218102D01*
X166781D01*
X166224Y217545D01*
Y219217D02*
Y221447D01*
Y220332D01*
X169569D01*
X325743Y98431D02*
X324431Y99743D01*
Y101055D01*
X325743Y102367D01*
X327711Y100399D02*
X330335D01*
X329023Y101711D02*
Y99087D01*
X331647Y98431D02*
X332959Y99743D01*
Y101055D01*
X331647Y102367D01*
X325993Y188931D02*
X324681Y190243D01*
Y191555D01*
X325993Y192867D01*
X327961Y190899D02*
X330585D01*
X331897Y188931D02*
X333208Y190243D01*
Y191555D01*
X331897Y192867D01*
X109431Y231367D02*
Y227431D01*
X111399D01*
X112055Y228087D01*
Y228743D01*
X111399Y229399D01*
X109431D01*
X111399D01*
X112055Y230055D01*
Y230711D01*
X111399Y231367D01*
X109431D01*
X113367D02*
X115991D01*
X114679D01*
Y227431D01*
X117303D02*
Y231367D01*
X119926Y227431D01*
Y231367D01*
X12030Y196555D02*
X11505Y197080D01*
X10456D01*
X9931Y196555D01*
Y194456D01*
X10456Y193931D01*
X11505D01*
X12030Y194456D01*
Y195505D01*
X10981D01*
X13080Y193931D02*
Y197080D01*
X15179Y193931D01*
Y197080D01*
X16228D02*
Y193931D01*
X17803D01*
X18327Y194456D01*
Y196555D01*
X17803Y197080D01*
X16228D01*
X65181Y227681D02*
Y231617D01*
X67149D01*
X67805Y230961D01*
Y229649D01*
X67149Y228993D01*
X65181D01*
X71085Y231617D02*
X69773D01*
X69117Y230961D01*
Y228337D01*
X69773Y227681D01*
X71085D01*
X71741Y228337D01*
Y230961D01*
X71085Y231617D01*
X73053D02*
Y227681D01*
X74365Y228993D01*
X75676Y227681D01*
Y231617D01*
X79612D02*
X76988D01*
Y227681D01*
X79612D01*
X76988Y229649D02*
X78300D01*
X80924Y227681D02*
Y231617D01*
X82892D01*
X83548Y230961D01*
Y229649D01*
X82892Y228993D01*
X80924D01*
X82236D02*
X83548Y227681D01*
M02*
