G04*
G04 #@! TF.GenerationSoftware,Altium Limited,Altium Designer,23.10.1 (27)*
G04*
G04 Layer_Physical_Order=2*
G04 Layer_Color=16711680*
%FSLAX25Y25*%
%MOIN*%
G70*
G04*
G04 #@! TF.SameCoordinates,DA4A125E-CBA8-4458-A183-B31C0A0B716D*
G04*
G04*
G04 #@! TF.FilePolarity,Positive*
G04*
G01*
G75*
%ADD10C,0.00787*%
%ADD13C,0.00500*%
%ADD18C,0.01000*%
%ADD106C,0.01201*%
%ADD108C,0.00501*%
%ADD110C,0.01968*%
%ADD111C,0.01575*%
G04:AMPARAMS|DCode=112|XSize=80mil|YSize=80mil|CornerRadius=3.2mil|HoleSize=0mil|Usage=FLASHONLY|Rotation=0.000|XOffset=0mil|YOffset=0mil|HoleType=Round|Shape=RoundedRectangle|*
%AMROUNDEDRECTD112*
21,1,0.08000,0.07360,0,0,0.0*
21,1,0.07360,0.08000,0,0,0.0*
1,1,0.00640,0.03680,-0.03680*
1,1,0.00640,-0.03680,-0.03680*
1,1,0.00640,-0.03680,0.03680*
1,1,0.00640,0.03680,0.03680*
%
%ADD112ROUNDEDRECTD112*%
%ADD113C,0.08000*%
%ADD114O,0.09000X0.07000*%
%ADD115R,0.09000X0.07000*%
%ADD116C,0.04134*%
%ADD117C,0.05118*%
%ADD118C,0.05937*%
%ADD119R,0.05937X0.05937*%
%ADD120O,0.04331X0.08661*%
%ADD121O,0.04331X0.07087*%
%ADD122C,0.07677*%
%ADD123R,0.07677X0.07677*%
%ADD124C,0.06791*%
%ADD125R,0.06791X0.06791*%
%ADD126R,0.05937X0.05937*%
%ADD127C,0.01968*%
%ADD128C,0.02362*%
G36*
X183000Y212500D02*
X245500D01*
Y232500D01*
X314250D01*
Y208250D01*
X314285Y207187D01*
X314562Y205080D01*
X315112Y203027D01*
X315926Y201063D01*
X316989Y199222D01*
X318283Y197536D01*
X319786Y196033D01*
X321472Y194739D01*
X323313Y193676D01*
X325277Y192862D01*
X327330Y192312D01*
X329437Y192035D01*
X330500Y192000D01*
X357250D01*
Y48284D01*
X330000Y47750D01*
X329003Y47717D01*
X327025Y47457D01*
X325098Y46941D01*
X323255Y46177D01*
X321528Y45180D01*
X319945Y43966D01*
X318534Y42555D01*
X317320Y40973D01*
X316323Y39245D01*
X315559Y37402D01*
X315043Y35475D01*
X314783Y33497D01*
X314750Y32500D01*
Y10000D01*
Y9950D01*
X314712Y9858D01*
X314642Y9788D01*
X314550Y9750D01*
X111703D01*
X130719Y28766D01*
X131395D01*
X132124Y29068D01*
X132682Y29626D01*
X132984Y30355D01*
Y31145D01*
X132682Y31874D01*
X132124Y32432D01*
X131395Y32734D01*
X130605D01*
X129876Y32432D01*
X129318Y31874D01*
X129016Y31145D01*
Y30469D01*
X108297Y9750D01*
X56703D01*
X55280Y11173D01*
Y18577D01*
X55499Y18796D01*
X56648D01*
X57126Y18318D01*
X57855Y18016D01*
X58645D01*
X59374Y18318D01*
X59932Y18876D01*
X60234Y19605D01*
Y20395D01*
X59932Y21124D01*
X59374Y21682D01*
X58645Y21984D01*
X57855D01*
X57126Y21682D01*
X56648Y21204D01*
X55000D01*
X54539Y21113D01*
X54149Y20852D01*
X53225Y19928D01*
X52964Y19537D01*
X52872Y19076D01*
X52872Y19076D01*
Y10674D01*
X52872Y10674D01*
X52964Y10213D01*
X53225Y9822D01*
X53297Y9750D01*
X53000D01*
X52950Y9750D01*
X52858Y9788D01*
X52788Y9858D01*
X52750Y9950D01*
X52750Y10000D01*
Y10000D01*
X52750Y32000D01*
X52724Y32787D01*
X52519Y34346D01*
X52112Y35866D01*
X51510Y37319D01*
X50723Y38682D01*
X49765Y39930D01*
X48653Y41042D01*
X47405Y42000D01*
X46042Y42786D01*
X44589Y43389D01*
X43069Y43796D01*
X41510Y44001D01*
X40723Y44027D01*
X40723Y44027D01*
X6750Y44253D01*
Y45500D01*
Y193250D01*
X36000Y193250D01*
X36899Y193279D01*
X38682Y193514D01*
X40420Y193980D01*
X42081Y194668D01*
X43639Y195567D01*
X45066Y196662D01*
X46338Y197934D01*
X47433Y199361D01*
X48332Y200919D01*
X49020Y202580D01*
X49486Y204317D01*
X49720Y206101D01*
X49750Y207000D01*
X49750D01*
X49750Y232500D01*
X168750Y233250D01*
X182750D01*
X183000Y212500D01*
D02*
G37*
%LPC*%
G36*
X113523Y218969D02*
X112478D01*
X111468Y218698D01*
X110563Y218176D01*
X109824Y217437D01*
X109302Y216532D01*
X109031Y215523D01*
Y214477D01*
X109302Y213468D01*
X109824Y212563D01*
X110563Y211824D01*
X111468Y211302D01*
X112478Y211032D01*
X113523D01*
X114532Y211302D01*
X115437Y211824D01*
X116176Y212563D01*
X116698Y213468D01*
X116969Y214477D01*
Y215523D01*
X116698Y216532D01*
X116176Y217437D01*
X115437Y218176D01*
X114532Y218698D01*
X113523Y218969D01*
D02*
G37*
G36*
X72773D02*
X71728D01*
X70718Y218698D01*
X69813Y218176D01*
X69074Y217437D01*
X68552Y216532D01*
X68282Y215523D01*
Y214477D01*
X68552Y213468D01*
X69074Y212563D01*
X69813Y211824D01*
X70718Y211302D01*
X71728Y211032D01*
X72773D01*
X73782Y211302D01*
X74687Y211824D01*
X75426Y212563D01*
X75948Y213468D01*
X76218Y214477D01*
Y215523D01*
X75948Y216532D01*
X75426Y217437D01*
X74687Y218176D01*
X73782Y218698D01*
X72773Y218969D01*
D02*
G37*
G36*
X272235Y219524D02*
X271072D01*
X270973Y219504D01*
X270873D01*
X269732Y219277D01*
X269639Y219239D01*
X269541Y219219D01*
X268466Y218774D01*
X268383Y218718D01*
X268290Y218680D01*
X267322Y218033D01*
X267251Y217962D01*
X267168Y217906D01*
X266346Y217084D01*
X266290Y217000D01*
X266219Y216929D01*
X265572Y215962D01*
X265534Y215869D01*
X265478Y215786D01*
X265033Y214711D01*
X265013Y214613D01*
X264975Y214520D01*
X264748Y213379D01*
Y213279D01*
X264728Y213180D01*
Y212598D01*
Y212017D01*
X264748Y211918D01*
Y211818D01*
X264975Y210677D01*
X265013Y210584D01*
X265033Y210486D01*
X265478Y209411D01*
X265534Y209327D01*
X265572Y209235D01*
X266219Y208267D01*
X266290Y208196D01*
X266346Y208113D01*
X267168Y207290D01*
X267251Y207235D01*
X267322Y207164D01*
X268290Y206517D01*
X268383Y206479D01*
X268466Y206423D01*
X269541Y205978D01*
X269639Y205958D01*
X269732Y205920D01*
X270873Y205693D01*
X270973D01*
X271072Y205673D01*
X272235D01*
X272334Y205693D01*
X272434D01*
X273575Y205920D01*
X273668Y205958D01*
X273766Y205978D01*
X274841Y206423D01*
X274924Y206479D01*
X275017Y206517D01*
X275985Y207164D01*
X276056Y207235D01*
X276139Y207290D01*
X276962Y208113D01*
X277017Y208196D01*
X277088Y208267D01*
X277735Y209235D01*
X277773Y209327D01*
X277829Y209411D01*
X278274Y210486D01*
X278294Y210584D01*
X278332Y210677D01*
X278559Y211818D01*
Y211918D01*
X278579Y212017D01*
Y212598D01*
Y213180D01*
X278559Y213279D01*
Y213379D01*
X278332Y214520D01*
X278294Y214613D01*
X278274Y214711D01*
X277829Y215786D01*
X277773Y215869D01*
X277735Y215962D01*
X277088Y216929D01*
X277017Y217000D01*
X276962Y217084D01*
X276139Y217906D01*
X276056Y217962D01*
X275985Y218033D01*
X275017Y218680D01*
X274924Y218718D01*
X274841Y218774D01*
X273766Y219219D01*
X273668Y219239D01*
X273575Y219277D01*
X272434Y219504D01*
X272334D01*
X272235Y219524D01*
D02*
G37*
G36*
X95070D02*
X93906D01*
X93808Y219504D01*
X93708D01*
X92567Y219277D01*
X92474Y219239D01*
X92375Y219219D01*
X91301Y218774D01*
X91217Y218718D01*
X91124Y218680D01*
X90157Y218033D01*
X90086Y217962D01*
X90003Y217906D01*
X89180Y217084D01*
X89124Y217000D01*
X89053Y216929D01*
X88407Y215962D01*
X88369Y215869D01*
X88313Y215786D01*
X87868Y214711D01*
X87848Y214613D01*
X87810Y214520D01*
X87583Y213379D01*
Y213279D01*
X87563Y213180D01*
Y212598D01*
Y212017D01*
X87583Y211918D01*
Y211818D01*
X87810Y210677D01*
X87848Y210584D01*
X87868Y210486D01*
X88313Y209411D01*
X88369Y209327D01*
X88407Y209235D01*
X89053Y208267D01*
X89124Y208196D01*
X89180Y208113D01*
X90003Y207290D01*
X90086Y207235D01*
X90157Y207164D01*
X91124Y206517D01*
X91217Y206479D01*
X91301Y206423D01*
X92375Y205978D01*
X92474Y205958D01*
X92567Y205920D01*
X93708Y205693D01*
X93808D01*
X93906Y205673D01*
X95070D01*
X95168Y205693D01*
X95269D01*
X96410Y205920D01*
X96502Y205958D01*
X96601Y205978D01*
X97676Y206423D01*
X97759Y206479D01*
X97852Y206517D01*
X98819Y207164D01*
X98890Y207235D01*
X98974Y207290D01*
X99796Y208113D01*
X99852Y208196D01*
X99923Y208267D01*
X100569Y209235D01*
X100608Y209327D01*
X100664Y209411D01*
X101109Y210486D01*
X101128Y210584D01*
X101167Y210677D01*
X101394Y211818D01*
Y211918D01*
X101413Y212017D01*
Y212598D01*
Y213180D01*
X101394Y213279D01*
Y213379D01*
X101167Y214520D01*
X101128Y214613D01*
X101109Y214711D01*
X100664Y215786D01*
X100608Y215869D01*
X100569Y215962D01*
X99923Y216929D01*
X99852Y217000D01*
X99796Y217084D01*
X98974Y217906D01*
X98890Y217962D01*
X98819Y218033D01*
X97852Y218680D01*
X97759Y218718D01*
X97676Y218774D01*
X96601Y219219D01*
X96502Y219239D01*
X96410Y219277D01*
X95269Y219504D01*
X95168D01*
X95070Y219524D01*
D02*
G37*
G36*
X72773Y209126D02*
X71728D01*
X70718Y208856D01*
X69813Y208333D01*
X69074Y207594D01*
X68552Y206689D01*
X68282Y205680D01*
Y204635D01*
X68552Y203626D01*
X69074Y202721D01*
X69813Y201982D01*
X70718Y201459D01*
X71728Y201189D01*
X72773D01*
X73782Y201459D01*
X74687Y201982D01*
X75426Y202721D01*
X75948Y203626D01*
X76218Y204635D01*
Y205680D01*
X75948Y206689D01*
X75426Y207594D01*
X74687Y208333D01*
X73782Y208856D01*
X72773Y209126D01*
D02*
G37*
G36*
X185000Y208058D02*
X126500D01*
X126095Y207977D01*
X125752Y207748D01*
X120213Y202209D01*
X107652D01*
X107247Y202129D01*
X106904Y201900D01*
X58020Y153015D01*
Y158000D01*
X57942Y158390D01*
X57721Y158721D01*
X57390Y158942D01*
X57000Y159020D01*
X52500D01*
X52110Y158942D01*
X51779Y158721D01*
X51558Y158390D01*
X51480Y158000D01*
Y135915D01*
X32165D01*
Y141250D01*
X32057Y141791D01*
X31751Y142251D01*
X26665Y147336D01*
Y147859D01*
X26932Y148126D01*
X27234Y148855D01*
Y149645D01*
X26932Y150374D01*
X26374Y150932D01*
X25645Y151234D01*
X24855D01*
X24126Y150932D01*
X23568Y150374D01*
X23266Y149645D01*
Y148855D01*
X23568Y148126D01*
X23835Y147859D01*
Y146750D01*
X23943Y146209D01*
X24250Y145749D01*
X29335Y140664D01*
Y135891D01*
X29068Y135624D01*
X28766Y134895D01*
Y134105D01*
X29068Y133376D01*
X29626Y132818D01*
X30355Y132516D01*
X31145D01*
X31874Y132818D01*
X32141Y133085D01*
X51480D01*
Y113500D01*
X51558Y113110D01*
X51779Y112779D01*
X76230Y88328D01*
Y87020D01*
X73500D01*
X73110Y86942D01*
X72779Y86721D01*
X72529Y86471D01*
X72308Y86140D01*
X72230Y85750D01*
Y65250D01*
X72308Y64860D01*
X72529Y64529D01*
X72779Y64279D01*
X73110Y64058D01*
X73500Y63980D01*
X86750D01*
X87140Y64058D01*
X87471Y64279D01*
X87692Y64610D01*
X87770Y65000D01*
Y81585D01*
X143250D01*
X143791Y81693D01*
X144251Y81999D01*
X151500Y89249D01*
X151807Y89709D01*
X151915Y90250D01*
Y124859D01*
X152182Y125126D01*
X152484Y125855D01*
Y126645D01*
X152182Y127374D01*
X151624Y127932D01*
X150895Y128234D01*
X150105D01*
X149376Y127932D01*
X148818Y127374D01*
X148516Y126645D01*
Y125855D01*
X148818Y125126D01*
X149085Y124859D01*
Y90836D01*
X142664Y84415D01*
X87770D01*
Y85750D01*
X87692Y86140D01*
X87471Y86471D01*
X87221Y86721D01*
X86890Y86942D01*
X86500Y87020D01*
X82270D01*
Y90250D01*
X82192Y90640D01*
X81971Y90971D01*
X57020Y115922D01*
Y138500D01*
Y145297D01*
X57310Y145007D01*
X58039Y144704D01*
X58829D01*
X59558Y145007D01*
X60027Y145475D01*
X60068Y145376D01*
X60626Y144818D01*
X61355Y144516D01*
X62145D01*
X62874Y144818D01*
X63432Y145376D01*
X63734Y146105D01*
Y146895D01*
X63432Y147624D01*
X62874Y148182D01*
X62808Y148210D01*
Y150562D01*
X103604Y191358D01*
X103516Y191145D01*
Y190355D01*
X103543Y190289D01*
X68002Y154748D01*
X67773Y154405D01*
X67692Y154000D01*
Y148460D01*
X67626Y148432D01*
X67068Y147874D01*
X66766Y147145D01*
Y146355D01*
X67068Y145626D01*
X67626Y145068D01*
X68355Y144766D01*
X69145D01*
X69874Y145068D01*
X70432Y145626D01*
X70734Y146355D01*
Y147145D01*
X70432Y147874D01*
X69874Y148432D01*
X69808Y148460D01*
Y153562D01*
X104531Y188285D01*
X104266Y187645D01*
Y186855D01*
X104293Y186789D01*
X71752Y154248D01*
X71523Y153905D01*
X71442Y153500D01*
Y120484D01*
X70855D01*
X70126Y120182D01*
X69568Y119624D01*
X69266Y118895D01*
Y118105D01*
X69568Y117376D01*
X70126Y116818D01*
X70855Y116516D01*
X71645D01*
X72374Y116818D01*
X72932Y117376D01*
X73234Y118105D01*
Y118895D01*
X73207Y118961D01*
X73248Y119002D01*
X73477Y119345D01*
X73558Y119750D01*
Y133618D01*
X73721Y133222D01*
X74279Y132664D01*
X75009Y132362D01*
X75798D01*
X76528Y132664D01*
X76795Y132931D01*
X83317D01*
X87249Y128999D01*
X87708Y128693D01*
X88250Y128585D01*
X121000D01*
X121542Y128693D01*
X122001Y128999D01*
X124001Y131000D01*
X124307Y131458D01*
X124415Y132000D01*
Y142609D01*
X124682Y142876D01*
X124984Y143605D01*
Y144395D01*
X124682Y145124D01*
X124124Y145682D01*
X123395Y145984D01*
X122605D01*
X121876Y145682D01*
X121318Y145124D01*
X121016Y144395D01*
Y143605D01*
X121318Y142876D01*
X121585Y142609D01*
Y132586D01*
X120414Y131415D01*
X88836D01*
X84904Y135347D01*
X84445Y135654D01*
X83903Y135761D01*
X76795D01*
X76528Y136029D01*
X75798Y136331D01*
X75009D01*
X74279Y136029D01*
X73721Y135470D01*
X73558Y135075D01*
Y153062D01*
X105789Y185293D01*
X105855Y185266D01*
X106645D01*
X107374Y185568D01*
X107932Y186126D01*
X108234Y186855D01*
Y187645D01*
X107932Y188374D01*
X107374Y188932D01*
X106748Y189192D01*
X107182Y189626D01*
X107484Y190355D01*
Y191145D01*
X107182Y191874D01*
X106624Y192432D01*
X105895Y192734D01*
X105105D01*
X104892Y192646D01*
X110688Y198442D01*
X122000D01*
X122405Y198523D01*
X122748Y198752D01*
X127438Y203442D01*
X151243D01*
X151016Y202895D01*
Y202105D01*
X151318Y201376D01*
X151876Y200818D01*
X152605Y200516D01*
X153395D01*
X154124Y200818D01*
X154682Y201376D01*
X154788Y201633D01*
X175288D01*
X175235Y201580D01*
X174933Y200851D01*
Y200061D01*
X175235Y199332D01*
X175692Y198876D01*
Y177058D01*
X175459D01*
X175432Y177124D01*
X174874Y177682D01*
X174145Y177984D01*
X173355D01*
X172626Y177682D01*
X172068Y177124D01*
X171766Y176395D01*
Y175605D01*
X172068Y174876D01*
X172626Y174318D01*
X173355Y174016D01*
X174145D01*
X174874Y174318D01*
X175432Y174876D01*
X175459Y174942D01*
X194041D01*
X194068Y174876D01*
X194626Y174318D01*
X195355Y174016D01*
X196145D01*
X196874Y174318D01*
X197432Y174876D01*
X197734Y175605D01*
Y176395D01*
X197432Y177124D01*
X196874Y177682D01*
X196145Y177984D01*
X195355D01*
X194626Y177682D01*
X194068Y177124D01*
X194041Y177058D01*
X177808D01*
Y198678D01*
X178041Y198774D01*
X178600Y199332D01*
X178902Y200061D01*
Y200851D01*
X178600Y201580D01*
X178547Y201633D01*
X181871D01*
X187002Y196502D01*
X187345Y196273D01*
X187750Y196192D01*
X218562D01*
X229192Y185562D01*
Y177460D01*
X229126Y177432D01*
X228568Y176874D01*
X228266Y176145D01*
Y175355D01*
X228568Y174626D01*
X229126Y174068D01*
X229855Y173766D01*
X230645D01*
X231374Y174068D01*
X231932Y174626D01*
X232234Y175355D01*
Y176145D01*
X231932Y176874D01*
X231374Y177432D01*
X231308Y177460D01*
Y186000D01*
X231227Y186405D01*
X230998Y186748D01*
X219748Y197998D01*
X219405Y198227D01*
X219000Y198308D01*
X188188D01*
X183057Y203438D01*
X183052Y203442D01*
X183562D01*
X188252Y198752D01*
X188595Y198523D01*
X189000Y198442D01*
X220812D01*
X229151Y190103D01*
X229454Y189901D01*
X229568Y189626D01*
X230126Y189068D01*
X230855Y188766D01*
X231645D01*
X232374Y189068D01*
X232932Y189626D01*
X233234Y190355D01*
Y191145D01*
X232932Y191874D01*
X232556Y192250D01*
X232932Y192626D01*
X233234Y193355D01*
Y194145D01*
X232932Y194874D01*
X232374Y195432D01*
X231645Y195734D01*
X230855D01*
X230126Y195432D01*
X229845Y195151D01*
X223096Y201900D01*
X222753Y202129D01*
X222348Y202209D01*
X191287D01*
X185748Y207748D01*
X185405Y207977D01*
X185000Y208058D01*
D02*
G37*
G36*
X147895Y198234D02*
X147105D01*
X146376Y197932D01*
X145818Y197374D01*
X145516Y196645D01*
Y195855D01*
X145818Y195126D01*
X146376Y194568D01*
X146442Y194540D01*
Y191438D01*
X144252Y189248D01*
X144023Y188905D01*
X143942Y188500D01*
Y185960D01*
X143876Y185932D01*
X143318Y185374D01*
X143016Y184645D01*
Y183855D01*
X143318Y183126D01*
X143876Y182568D01*
X144605Y182266D01*
X145395D01*
X146124Y182568D01*
X146682Y183126D01*
X146984Y183855D01*
Y184645D01*
X146682Y185374D01*
X146124Y185932D01*
X146058Y185960D01*
Y188062D01*
X148248Y190252D01*
X148477Y190595D01*
X148558Y191000D01*
Y194540D01*
X148624Y194568D01*
X149182Y195126D01*
X149484Y195855D01*
Y196645D01*
X149182Y197374D01*
X148624Y197932D01*
X147895Y198234D01*
D02*
G37*
G36*
X116969Y189441D02*
X109031D01*
Y181504D01*
X116969D01*
Y189441D01*
D02*
G37*
G36*
X76218D02*
X68282D01*
Y181504D01*
X76218D01*
Y189441D01*
D02*
G37*
G36*
X139491Y196484D02*
X138702D01*
X137972Y196182D01*
X137414Y195624D01*
X137112Y194895D01*
Y194105D01*
X137414Y193376D01*
X137892Y192898D01*
Y185404D01*
X137892Y185404D01*
X137984Y184943D01*
X138245Y184552D01*
X143398Y179399D01*
X143398Y179399D01*
X143789Y179137D01*
X144250Y179046D01*
X144250Y179046D01*
X167398D01*
X167876Y178568D01*
X168605Y178266D01*
X169395D01*
X170124Y178568D01*
X170682Y179126D01*
X170984Y179855D01*
Y180645D01*
X170682Y181374D01*
X170124Y181932D01*
X169395Y182234D01*
X168605D01*
X167876Y181932D01*
X167398Y181454D01*
X167260D01*
X167432Y181626D01*
X167734Y182355D01*
Y183145D01*
X167432Y183874D01*
X166874Y184432D01*
X166145Y184734D01*
X165355D01*
X164626Y184432D01*
X164148Y183954D01*
X158102D01*
X157624Y184432D01*
X156895Y184734D01*
X156105D01*
X155376Y184432D01*
X154818Y183874D01*
X154516Y183145D01*
Y182355D01*
X154818Y181626D01*
X154990Y181454D01*
X144749D01*
X140301Y185902D01*
Y192898D01*
X140779Y193376D01*
X141081Y194105D01*
Y194895D01*
X140779Y195624D01*
X140220Y196182D01*
X139491Y196484D01*
D02*
G37*
G36*
X50468Y182468D02*
X42531D01*
Y174531D01*
X50468D01*
Y182468D01*
D02*
G37*
G36*
X37180D02*
X36135D01*
X35126Y182198D01*
X34221Y181676D01*
X33482Y180937D01*
X32959Y180032D01*
X32689Y179023D01*
Y177978D01*
X32959Y176968D01*
X33482Y176063D01*
X34221Y175324D01*
X35126Y174802D01*
X36135Y174531D01*
X37180D01*
X38189Y174802D01*
X39094Y175324D01*
X39833Y176063D01*
X40356Y176968D01*
X40626Y177978D01*
Y179023D01*
X40356Y180032D01*
X39833Y180937D01*
X39094Y181676D01*
X38189Y182198D01*
X37180Y182468D01*
D02*
G37*
G36*
X27337D02*
X26292D01*
X25283Y182198D01*
X24378Y181676D01*
X23639Y180937D01*
X23117Y180032D01*
X22847Y179023D01*
Y177978D01*
X23117Y176968D01*
X23639Y176063D01*
X24378Y175324D01*
X25283Y174802D01*
X26292Y174531D01*
X27337D01*
X28347Y174802D01*
X29252Y175324D01*
X29991Y176063D01*
X30513Y176968D01*
X30784Y177978D01*
Y179023D01*
X30513Y180032D01*
X29991Y180937D01*
X29252Y181676D01*
X28347Y182198D01*
X27337Y182468D01*
D02*
G37*
G36*
X257408Y193250D02*
X256092D01*
X254820Y192909D01*
X253680Y192251D01*
X252749Y191320D01*
X252091Y190180D01*
X251750Y188908D01*
Y187592D01*
X252091Y186320D01*
X252749Y185180D01*
X253680Y184249D01*
X254820Y183591D01*
X256092Y183250D01*
X254820Y182909D01*
X253680Y182251D01*
X252749Y181320D01*
X252091Y180180D01*
X251750Y178908D01*
Y177592D01*
X252091Y176320D01*
X252749Y175180D01*
X253680Y174249D01*
X254820Y173591D01*
X256092Y173250D01*
X257408D01*
X258680Y173591D01*
X259820Y174249D01*
X260751Y175180D01*
X261409Y176320D01*
X261750Y177592D01*
Y178908D01*
X261409Y180180D01*
X260751Y181320D01*
X259820Y182251D01*
X258680Y182909D01*
X257408Y183250D01*
X258680Y183591D01*
X259820Y184249D01*
X260751Y185180D01*
X261409Y186320D01*
X261750Y187592D01*
Y188908D01*
X261409Y190180D01*
X260751Y191320D01*
X259820Y192251D01*
X258680Y192909D01*
X257408Y193250D01*
D02*
G37*
G36*
X218377Y168929D02*
X217587D01*
X216858Y168627D01*
X216300Y168069D01*
X216135Y167671D01*
X215624Y168182D01*
X214895Y168484D01*
X214105D01*
X213376Y168182D01*
X212818Y167624D01*
X212516Y166895D01*
Y166105D01*
X212818Y165376D01*
X213376Y164818D01*
X213979Y164568D01*
X224806Y153741D01*
X224766Y153645D01*
Y152855D01*
X225068Y152126D01*
X225626Y151568D01*
X226355Y151266D01*
X227145D01*
X227874Y151568D01*
X228432Y152126D01*
X228734Y152855D01*
Y153645D01*
X228432Y154374D01*
X227874Y154932D01*
X227145Y155234D01*
X226719D01*
X225892Y156061D01*
X226605Y155766D01*
X227395D01*
X228124Y156068D01*
X228682Y156626D01*
X228984Y157355D01*
Y158145D01*
X228682Y158874D01*
X228124Y159432D01*
X227395Y159734D01*
X226807D01*
X219966Y166575D01*
Y167340D01*
X219664Y168069D01*
X219106Y168627D01*
X218377Y168929D01*
D02*
G37*
G36*
X161387Y177089D02*
X160113D01*
X158882Y176759D01*
X157779Y176122D01*
X156878Y175221D01*
X156241Y174118D01*
X155911Y172887D01*
Y171613D01*
X156241Y170382D01*
X156878Y169279D01*
X157779Y168378D01*
X158882Y167741D01*
X160113Y167411D01*
X161387D01*
X162618Y167741D01*
X163721Y168378D01*
X164622Y169279D01*
X165259Y170382D01*
X165589Y171613D01*
Y172887D01*
X165259Y174118D01*
X164622Y175221D01*
X163721Y176122D01*
X162618Y176759D01*
X161387Y177089D01*
D02*
G37*
G36*
X234145Y179984D02*
X233355D01*
X232626Y179682D01*
X232068Y179124D01*
X231766Y178395D01*
Y177605D01*
X232068Y176876D01*
X232626Y176318D01*
X233355Y176016D01*
X234145D01*
X234874Y176318D01*
X235432Y176876D01*
X235460Y176942D01*
X246062D01*
X252442Y170562D01*
Y169960D01*
X252376Y169932D01*
X251818Y169374D01*
X251516Y168645D01*
Y167855D01*
X251818Y167126D01*
X252376Y166568D01*
X253105Y166266D01*
X253895D01*
X254624Y166568D01*
X255182Y167126D01*
X255484Y167855D01*
Y168645D01*
X255182Y169374D01*
X254624Y169932D01*
X254558Y169960D01*
Y171000D01*
X254477Y171405D01*
X254248Y171748D01*
X247248Y178748D01*
X246905Y178977D01*
X246500Y179058D01*
X235460D01*
X235432Y179124D01*
X234874Y179682D01*
X234145Y179984D01*
D02*
G37*
G36*
X276145Y161234D02*
X275355D01*
X274626Y160932D01*
X274550Y160856D01*
X252951D01*
X252874Y160932D01*
X252145Y161234D01*
X251355D01*
X250626Y160932D01*
X250068Y160374D01*
X249766Y159645D01*
Y158855D01*
X250068Y158126D01*
X250626Y157568D01*
X251355Y157266D01*
X252145D01*
X252874Y157568D01*
X252951Y157644D01*
X263614D01*
X263072Y157102D01*
X262770Y156373D01*
Y155584D01*
X263072Y154854D01*
X263630Y154296D01*
X264359Y153994D01*
X265149D01*
X265788Y154259D01*
X266296Y153751D01*
Y150852D01*
X265818Y150374D01*
X265516Y149645D01*
Y148855D01*
X265818Y148126D01*
X266376Y147568D01*
X267105Y147266D01*
X267895D01*
X268624Y147568D01*
X269182Y148126D01*
X269484Y148855D01*
Y149645D01*
X269182Y150374D01*
X268704Y150852D01*
Y154250D01*
X268704Y154250D01*
X268613Y154711D01*
X268352Y155102D01*
X268352Y155102D01*
X266849Y156604D01*
X266564Y156795D01*
X266436Y157102D01*
X265894Y157644D01*
X274144D01*
Y144665D01*
X266365Y136885D01*
X266017Y136364D01*
X265996Y136263D01*
X265894Y135750D01*
X265894Y135750D01*
Y119370D01*
X265803Y119346D01*
X264801Y118767D01*
X263983Y117949D01*
X263404Y116947D01*
X263104Y115829D01*
Y114671D01*
X263404Y113553D01*
X263983Y112551D01*
X264801Y111733D01*
X265694Y111217D01*
Y106056D01*
X206964D01*
X186606Y126415D01*
Y137095D01*
X186682Y137171D01*
X186984Y137901D01*
Y138690D01*
X186682Y139419D01*
X186124Y139977D01*
X185395Y140279D01*
X184605D01*
X183876Y139977D01*
X183800Y139901D01*
X169405D01*
X169374Y139932D01*
X168645Y140234D01*
X167855D01*
X167126Y139932D01*
X166568Y139374D01*
X166266Y138645D01*
Y137855D01*
X166568Y137126D01*
X167126Y136568D01*
X167855Y136266D01*
X168645D01*
X169374Y136568D01*
X169496Y136690D01*
X183394D01*
Y125750D01*
X183394Y125750D01*
X183496Y125238D01*
X183517Y125136D01*
X183865Y124615D01*
X188745Y119734D01*
X188105D01*
X187376Y119432D01*
X186818Y118874D01*
X186516Y118145D01*
Y117355D01*
X186818Y116626D01*
X187296Y116148D01*
Y111000D01*
X187296Y111000D01*
X187387Y110539D01*
X187648Y110149D01*
X212898Y84899D01*
X212898Y84899D01*
X213289Y84637D01*
X213750Y84546D01*
X223648D01*
X224126Y84068D01*
X224855Y83766D01*
X225645D01*
X226374Y84068D01*
X226932Y84626D01*
X227234Y85355D01*
Y86145D01*
X226932Y86874D01*
X226374Y87432D01*
X225645Y87734D01*
X224855D01*
X224126Y87432D01*
X223648Y86954D01*
X214249D01*
X189704Y111499D01*
Y116148D01*
X190182Y116626D01*
X190484Y117355D01*
Y117995D01*
X204809Y103670D01*
X204831Y103559D01*
X205223Y102973D01*
X205809Y102581D01*
X206500Y102444D01*
X267502D01*
X284209Y85737D01*
X284795Y85345D01*
X285486Y85207D01*
X340394D01*
X340757Y84577D01*
X341496Y83838D01*
X342401Y83316D01*
X343411Y83045D01*
X344456D01*
X345465Y83316D01*
X346370Y83838D01*
X347109Y84577D01*
X347631Y85482D01*
X347902Y86491D01*
Y87536D01*
X347631Y88546D01*
X347109Y89451D01*
X346370Y90189D01*
X345465Y90712D01*
X344456Y90982D01*
X343411D01*
X342401Y90712D01*
X341496Y90189D01*
X340757Y89451D01*
X340394Y88820D01*
X286234D01*
X269527Y105527D01*
X269306Y105748D01*
Y111217D01*
X270199Y111733D01*
X271017Y112551D01*
X271596Y113553D01*
X271896Y114671D01*
Y115829D01*
X271596Y116947D01*
X271017Y117949D01*
X270199Y118767D01*
X269197Y119346D01*
X269106Y119370D01*
Y135085D01*
X276885Y142865D01*
X276885Y142865D01*
X277233Y143386D01*
X277356Y144000D01*
Y158049D01*
X277432Y158126D01*
X277734Y158855D01*
Y159645D01*
X277432Y160374D01*
X276874Y160932D01*
X276145Y161234D01*
D02*
G37*
G36*
X165589Y167089D02*
X155911D01*
Y157411D01*
X165589D01*
Y167089D01*
D02*
G37*
G36*
X329404Y163317D02*
X328596D01*
X327816Y163108D01*
X327117Y162704D01*
X326546Y162133D01*
X326142Y161434D01*
X325933Y160654D01*
Y159846D01*
X326142Y159066D01*
X326546Y158367D01*
X327117Y157796D01*
X327816Y157392D01*
X328596Y157183D01*
X329404D01*
X330184Y157392D01*
X330883Y157796D01*
X331454Y158367D01*
X331858Y159066D01*
X332067Y159846D01*
Y160654D01*
X331858Y161434D01*
X331454Y162133D01*
X330883Y162704D01*
X330184Y163108D01*
X329404Y163317D01*
D02*
G37*
G36*
X201145Y186484D02*
X200355D01*
X199626Y186182D01*
X199068Y185624D01*
X198766Y184895D01*
Y184105D01*
X199068Y183376D01*
X199546Y182898D01*
Y155179D01*
X188790Y144424D01*
X188645Y144484D01*
X187855D01*
X187126Y144182D01*
X186568Y143624D01*
X186266Y142895D01*
Y142105D01*
X186568Y141376D01*
X187126Y140818D01*
X187855Y140516D01*
X188645D01*
X189374Y140818D01*
X189932Y141376D01*
X190234Y142105D01*
Y142462D01*
X201602Y153829D01*
X201602Y153829D01*
X201863Y154220D01*
X201954Y154680D01*
X201954Y154680D01*
Y182898D01*
X202432Y183376D01*
X202734Y184105D01*
Y184895D01*
X202432Y185624D01*
X201874Y186182D01*
X201145Y186484D01*
D02*
G37*
G36*
X213395Y145484D02*
X212605D01*
X211876Y145182D01*
X211318Y144624D01*
X211016Y143895D01*
Y143219D01*
X207251Y139454D01*
X201102D01*
X200624Y139932D01*
X199895Y140234D01*
X199105D01*
X198376Y139932D01*
X197818Y139374D01*
X197516Y138645D01*
Y137855D01*
X197818Y137126D01*
X198376Y136568D01*
X199105Y136266D01*
X199895D01*
X200624Y136568D01*
X201102Y137046D01*
X207750D01*
X207750Y137046D01*
X208211Y137137D01*
X208601Y137399D01*
X212719Y141516D01*
X213395D01*
X214124Y141818D01*
X214682Y142376D01*
X214984Y143105D01*
Y143895D01*
X214682Y144624D01*
X214124Y145182D01*
X213395Y145484D01*
D02*
G37*
G36*
X226645Y134984D02*
X225855D01*
X225126Y134682D01*
X224648Y134204D01*
X215602D01*
X215124Y134682D01*
X214395Y134984D01*
X213605D01*
X212876Y134682D01*
X212318Y134124D01*
X212016Y133395D01*
Y132605D01*
X212318Y131876D01*
X212876Y131318D01*
X213605Y131016D01*
X214395D01*
X215124Y131318D01*
X215602Y131796D01*
X224648D01*
X225126Y131318D01*
X225855Y131016D01*
X226645D01*
X227374Y131318D01*
X227932Y131876D01*
X228234Y132605D01*
Y133395D01*
X227932Y134124D01*
X227374Y134682D01*
X226645Y134984D01*
D02*
G37*
G36*
X329469Y134478D02*
X328531D01*
X327626Y134236D01*
X326815Y133767D01*
X326152Y133105D01*
X325683Y132293D01*
X325441Y131388D01*
Y130451D01*
X325683Y129546D01*
X326152Y128734D01*
X326815Y128071D01*
X327626Y127603D01*
X328531Y127360D01*
X329469D01*
X330374Y127603D01*
X331185Y128071D01*
X331848Y128734D01*
X332316Y129546D01*
X332559Y130451D01*
Y131388D01*
X332316Y132293D01*
X331848Y133105D01*
X331185Y133767D01*
X330374Y134236D01*
X329469Y134478D01*
D02*
G37*
G36*
X233895Y169234D02*
X233105D01*
X232376Y168932D01*
X231818Y168374D01*
X231516Y167645D01*
Y166855D01*
X231818Y166126D01*
X232296Y165648D01*
Y129763D01*
X227486Y124953D01*
X226810D01*
X226081Y124651D01*
X225523Y124092D01*
X225220Y123363D01*
Y122574D01*
X225523Y121844D01*
X226081Y121286D01*
X226810Y120984D01*
X227599D01*
X228329Y121286D01*
X228887Y121844D01*
X229189Y122574D01*
Y123250D01*
X234351Y128412D01*
X234613Y128803D01*
X234704Y129264D01*
X234704Y129264D01*
Y165648D01*
X235182Y166126D01*
X235484Y166855D01*
Y167645D01*
X235182Y168374D01*
X234624Y168932D01*
X233895Y169234D01*
D02*
G37*
G36*
X128895Y202234D02*
X128105D01*
X127376Y201932D01*
X126818Y201374D01*
X126516Y200645D01*
Y199855D01*
X126818Y199126D01*
X127187Y198757D01*
Y183750D01*
X127287Y183248D01*
X127572Y182822D01*
X149937Y160456D01*
Y145513D01*
X150037Y145011D01*
X150322Y144585D01*
X169423Y125484D01*
X169355D01*
X168626Y125182D01*
X168068Y124624D01*
X167766Y123895D01*
Y123105D01*
X168068Y122376D01*
X168144Y122300D01*
Y121250D01*
X168144Y121250D01*
X168246Y120738D01*
X168267Y120635D01*
X168615Y120115D01*
X170493Y118236D01*
X169895Y118484D01*
X169105D01*
X168376Y118182D01*
X168007Y117813D01*
X164794D01*
X161143Y121463D01*
Y123087D01*
X161513Y123457D01*
X161815Y124186D01*
Y124975D01*
X161513Y125705D01*
X160955Y126263D01*
X160225Y126565D01*
X159436D01*
X158707Y126263D01*
X158149Y125705D01*
X157846Y124975D01*
Y124186D01*
X158149Y123457D01*
X158518Y123087D01*
Y120919D01*
X158618Y120417D01*
X158903Y119991D01*
X163322Y115572D01*
X163748Y115287D01*
X164250Y115187D01*
X168007D01*
X168376Y114818D01*
X169105Y114516D01*
X169895D01*
X170624Y114818D01*
X171182Y115376D01*
X171484Y116105D01*
Y116895D01*
X171237Y117493D01*
X172644Y116085D01*
Y99450D01*
X172568Y99374D01*
X172266Y98645D01*
Y97855D01*
X172568Y97126D01*
X173126Y96568D01*
X173855Y96266D01*
X174645D01*
X175374Y96568D01*
X175932Y97126D01*
X176234Y97855D01*
Y98645D01*
X175932Y99374D01*
X175856Y99450D01*
Y116750D01*
X175733Y117365D01*
X175385Y117885D01*
X171356Y121915D01*
Y122300D01*
X171432Y122376D01*
X171734Y123105D01*
Y123173D01*
X179437Y115470D01*
Y106244D01*
X179068Y105874D01*
X178766Y105145D01*
Y104355D01*
X179068Y103626D01*
X179626Y103068D01*
X180355Y102766D01*
X181145D01*
X181874Y103068D01*
X182432Y103626D01*
X182734Y104355D01*
Y105145D01*
X182432Y105874D01*
X182063Y106244D01*
Y116013D01*
X181963Y116516D01*
X181678Y116941D01*
X158604Y140016D01*
X158895D01*
X159624Y140318D01*
X160182Y140876D01*
X160484Y141605D01*
Y142281D01*
X165219Y147016D01*
X165895D01*
X166624Y147318D01*
X167182Y147876D01*
X167484Y148605D01*
Y149395D01*
X167182Y150124D01*
X166624Y150682D01*
X165895Y150984D01*
X165105D01*
X164376Y150682D01*
X163818Y150124D01*
X163516Y149395D01*
Y148719D01*
X158781Y143984D01*
X158105D01*
X157376Y143682D01*
X156818Y143124D01*
X156516Y142395D01*
Y142104D01*
X152563Y146057D01*
Y161000D01*
X152463Y161502D01*
X152178Y161928D01*
X129813Y184294D01*
Y198757D01*
X130182Y199126D01*
X130484Y199855D01*
Y200645D01*
X130182Y201374D01*
X129624Y201932D01*
X128895Y202234D01*
D02*
G37*
G36*
X288079Y119646D02*
X286921D01*
X285803Y119346D01*
X284801Y118767D01*
X283983Y117949D01*
X283404Y116947D01*
X283104Y115829D01*
Y114671D01*
X283404Y113553D01*
X283983Y112551D01*
X284801Y111733D01*
X285803Y111154D01*
X286921Y110854D01*
X288079D01*
X289197Y111154D01*
X290199Y111733D01*
X291017Y112551D01*
X291596Y113553D01*
X291896Y114671D01*
Y115829D01*
X291596Y116947D01*
X291017Y117949D01*
X290199Y118767D01*
X289197Y119346D01*
X288079Y119646D01*
D02*
G37*
G36*
X278079D02*
X276921D01*
X275803Y119346D01*
X274801Y118767D01*
X273983Y117949D01*
X273404Y116947D01*
X273104Y115829D01*
Y114671D01*
X273404Y113553D01*
X273983Y112551D01*
X274801Y111733D01*
X275803Y111154D01*
X276921Y110854D01*
X278079D01*
X279197Y111154D01*
X280199Y111733D01*
X281017Y112551D01*
X281596Y113553D01*
X281896Y114671D01*
Y115829D01*
X281596Y116947D01*
X281017Y117949D01*
X280199Y118767D01*
X279197Y119346D01*
X278079Y119646D01*
D02*
G37*
G36*
X344456Y71297D02*
X343411D01*
X342401Y71027D01*
X341496Y70504D01*
X340757Y69765D01*
X340235Y68861D01*
X339965Y67851D01*
Y66806D01*
X340235Y65797D01*
X340757Y64892D01*
X341496Y64153D01*
X342401Y63631D01*
X343411Y63360D01*
X344456D01*
X345465Y63631D01*
X346370Y64153D01*
X347109Y64892D01*
X347631Y65797D01*
X347902Y66806D01*
Y67851D01*
X347631Y68861D01*
X347109Y69765D01*
X346370Y70504D01*
X345465Y71027D01*
X344456Y71297D01*
D02*
G37*
G36*
X27500Y69592D02*
X16500D01*
Y60593D01*
X27500D01*
Y69592D01*
D02*
G37*
G36*
X29645Y75484D02*
X28855D01*
X28126Y75182D01*
X27568Y74624D01*
X27266Y73895D01*
Y73105D01*
X27568Y72376D01*
X27835Y72109D01*
Y57086D01*
X27414Y56665D01*
X27285D01*
X26931Y57519D01*
X26209Y58459D01*
X25269Y59181D01*
X24175Y59634D01*
X23000Y59789D01*
X21000D01*
X19825Y59634D01*
X18731Y59181D01*
X17791Y58459D01*
X17069Y57519D01*
X16616Y56425D01*
X16461Y55250D01*
X16616Y54075D01*
X17069Y52981D01*
X17791Y52041D01*
X18731Y51319D01*
X19825Y50866D01*
X21000Y50711D01*
X23000D01*
X24175Y50866D01*
X25269Y51319D01*
X26209Y52041D01*
X26931Y52981D01*
X27285Y53835D01*
X28000D01*
X28541Y53943D01*
X29000Y54250D01*
X30250Y55500D01*
X30557Y55958D01*
X30665Y56500D01*
Y72109D01*
X30932Y72376D01*
X31234Y73105D01*
Y73895D01*
X30932Y74624D01*
X30374Y75182D01*
X29645Y75484D01*
D02*
G37*
G36*
X347902Y61455D02*
X339965D01*
Y53518D01*
X347902D01*
Y61455D01*
D02*
G37*
G36*
X142515Y67109D02*
X141725D01*
X140996Y66807D01*
X140438Y66248D01*
X140136Y65519D01*
Y64730D01*
X140438Y64000D01*
X140558Y63880D01*
Y63809D01*
X129664Y52915D01*
X117641D01*
X117374Y53182D01*
X116645Y53484D01*
X115855D01*
X115126Y53182D01*
X114568Y52624D01*
X114266Y51895D01*
Y51105D01*
X114568Y50376D01*
X115126Y49818D01*
X115855Y49516D01*
X116645D01*
X117374Y49818D01*
X117641Y50085D01*
X130250D01*
X130791Y50193D01*
X131251Y50499D01*
X142974Y62223D01*
X143280Y62682D01*
X143388Y63223D01*
Y63586D01*
X143802Y64000D01*
X144104Y64730D01*
Y65519D01*
X143802Y66248D01*
X143244Y66807D01*
X142515Y67109D01*
D02*
G37*
G36*
X45895Y62984D02*
X45105D01*
X44376Y62682D01*
X43818Y62124D01*
X43516Y61395D01*
Y60605D01*
X43818Y59876D01*
X44095Y59599D01*
Y48401D01*
X43828Y48134D01*
X43526Y47405D01*
Y46615D01*
X43828Y45886D01*
X44386Y45328D01*
X45115Y45026D01*
X45904D01*
X46634Y45328D01*
X47192Y45886D01*
X47494Y46615D01*
Y47405D01*
X47192Y48134D01*
X46925Y48401D01*
Y59619D01*
X47182Y59876D01*
X47484Y60605D01*
Y61395D01*
X47182Y62124D01*
X46624Y62682D01*
X45895Y62984D01*
D02*
G37*
G36*
X138500Y51520D02*
X135000D01*
X134610Y51442D01*
X134279Y51221D01*
X134058Y50890D01*
X133980Y50500D01*
Y47672D01*
X127828Y41520D01*
X56750D01*
D01*
X56750D01*
X56672Y41504D01*
X56360Y41442D01*
X56029Y41221D01*
Y41221D01*
X56029D01*
X55529Y40721D01*
X55456Y40611D01*
X55308Y40390D01*
X55230Y40000D01*
Y28750D01*
X55308Y28360D01*
X55529Y28029D01*
X55860Y27808D01*
X56250Y27730D01*
X63027D01*
X61551Y26255D01*
X61124Y26682D01*
X60395Y26984D01*
X59605D01*
X58876Y26682D01*
X58318Y26124D01*
X58016Y25395D01*
Y24605D01*
X58318Y23876D01*
X58876Y23318D01*
X59605Y23016D01*
X60395D01*
X61124Y23318D01*
X61602Y23796D01*
X62000D01*
X62000Y23796D01*
X62461Y23887D01*
X62852Y24148D01*
X71499Y32796D01*
X86000D01*
X86000Y32796D01*
X86461Y32887D01*
X86852Y33149D01*
X87749Y34046D01*
X92052D01*
X91301Y33734D01*
X91217Y33679D01*
X91124Y33640D01*
X90157Y32994D01*
X90086Y32923D01*
X90003Y32867D01*
X89180Y32045D01*
X89124Y31961D01*
X89053Y31890D01*
X88407Y30923D01*
X88369Y30830D01*
X88313Y30746D01*
X87868Y29672D01*
X87848Y29573D01*
X87810Y29480D01*
X87583Y28340D01*
Y28239D01*
X87563Y28141D01*
Y27559D01*
Y26977D01*
X87583Y26879D01*
Y26779D01*
X87810Y25638D01*
X87848Y25545D01*
X87868Y25446D01*
X88313Y24372D01*
X88369Y24288D01*
X88407Y24195D01*
X89053Y23228D01*
X89124Y23157D01*
X89180Y23074D01*
X90003Y22251D01*
X90086Y22195D01*
X90157Y22124D01*
X91124Y21478D01*
X91217Y21440D01*
X91301Y21384D01*
X92375Y20938D01*
X92474Y20919D01*
X92567Y20880D01*
X93708Y20654D01*
X93808D01*
X93906Y20634D01*
X95070D01*
X95168Y20654D01*
X95269D01*
X96410Y20880D01*
X96502Y20919D01*
X96601Y20938D01*
X97676Y21384D01*
X97759Y21440D01*
X97852Y21478D01*
X98819Y22124D01*
X98890Y22195D01*
X98974Y22251D01*
X99796Y23074D01*
X99852Y23157D01*
X99923Y23228D01*
X100569Y24195D01*
X100608Y24288D01*
X100664Y24372D01*
X101109Y25446D01*
X101128Y25545D01*
X101167Y25638D01*
X101394Y26779D01*
Y26879D01*
X101413Y26977D01*
Y27559D01*
Y28141D01*
X101394Y28239D01*
Y28340D01*
X101167Y29480D01*
X101128Y29573D01*
X101109Y29672D01*
X100664Y30746D01*
X100608Y30830D01*
X100569Y30923D01*
X99923Y31890D01*
X99852Y31961D01*
X99796Y32045D01*
X98974Y32867D01*
X98890Y32923D01*
X98819Y32994D01*
X97852Y33640D01*
X97759Y33679D01*
X97676Y33734D01*
X96924Y34046D01*
X103751D01*
X107016Y30781D01*
Y30105D01*
X107318Y29376D01*
X107876Y28818D01*
X108605Y28516D01*
X109395D01*
X110124Y28818D01*
X110682Y29376D01*
X110984Y30105D01*
Y30895D01*
X110682Y31624D01*
X110124Y32182D01*
X109395Y32484D01*
X108719D01*
X105102Y36101D01*
X104909Y36230D01*
X130000D01*
X130390Y36308D01*
X130721Y36529D01*
X139221Y45029D01*
X139442Y45360D01*
X139520Y45750D01*
Y50500D01*
X139442Y50890D01*
X139221Y51221D01*
X138890Y51442D01*
X138500Y51520D01*
D02*
G37*
G36*
X272235Y34484D02*
X271072D01*
X270973Y34465D01*
X270873D01*
X269732Y34238D01*
X269639Y34199D01*
X269541Y34180D01*
X268466Y33734D01*
X268383Y33679D01*
X268290Y33640D01*
X267322Y32994D01*
X267251Y32923D01*
X267168Y32867D01*
X266346Y32045D01*
X266290Y31961D01*
X266219Y31890D01*
X265572Y30923D01*
X265534Y30830D01*
X265478Y30746D01*
X265033Y29672D01*
X265013Y29573D01*
X264975Y29480D01*
X264748Y28340D01*
Y28239D01*
X264728Y28141D01*
Y27559D01*
Y26977D01*
X264748Y26879D01*
Y26779D01*
X264975Y25638D01*
X265013Y25545D01*
X265033Y25446D01*
X265478Y24372D01*
X265534Y24288D01*
X265572Y24195D01*
X266219Y23228D01*
X266290Y23157D01*
X266346Y23074D01*
X267168Y22251D01*
X267251Y22195D01*
X267322Y22124D01*
X268290Y21478D01*
X268383Y21440D01*
X268466Y21384D01*
X269541Y20938D01*
X269639Y20919D01*
X269732Y20880D01*
X270873Y20654D01*
X270973D01*
X271072Y20634D01*
X272235D01*
X272334Y20654D01*
X272434D01*
X273575Y20880D01*
X273668Y20919D01*
X273766Y20938D01*
X274841Y21384D01*
X274924Y21440D01*
X275017Y21478D01*
X275985Y22124D01*
X276056Y22195D01*
X276139Y22251D01*
X276962Y23074D01*
X277017Y23157D01*
X277088Y23228D01*
X277735Y24195D01*
X277773Y24288D01*
X277829Y24372D01*
X278274Y25446D01*
X278294Y25545D01*
X278332Y25638D01*
X278559Y26779D01*
Y26879D01*
X278579Y26977D01*
Y27559D01*
Y28141D01*
X278559Y28239D01*
Y28340D01*
X278332Y29480D01*
X278294Y29573D01*
X278274Y29672D01*
X277829Y30746D01*
X277773Y30830D01*
X277735Y30923D01*
X277088Y31890D01*
X277017Y31961D01*
X276962Y32045D01*
X276139Y32867D01*
X276056Y32923D01*
X275985Y32994D01*
X275017Y33640D01*
X274924Y33679D01*
X274841Y33734D01*
X273766Y34180D01*
X273668Y34199D01*
X273575Y34238D01*
X272434Y34465D01*
X272334D01*
X272235Y34484D01*
D02*
G37*
G36*
X79895Y32234D02*
X79105D01*
X78376Y31932D01*
X77818Y31374D01*
X77516Y30645D01*
Y29855D01*
X77818Y29126D01*
X78085Y28859D01*
Y19586D01*
X74914Y16415D01*
X61391D01*
X61124Y16682D01*
X60395Y16984D01*
X59605D01*
X58876Y16682D01*
X58318Y16124D01*
X58016Y15395D01*
Y14605D01*
X58318Y13876D01*
X58876Y13318D01*
X59605Y13016D01*
X60395D01*
X61124Y13318D01*
X61391Y13585D01*
X75500D01*
X76042Y13693D01*
X76500Y13999D01*
X80501Y18000D01*
X80807Y18459D01*
X80915Y19000D01*
Y28859D01*
X81182Y29126D01*
X81484Y29855D01*
Y30645D01*
X81182Y31374D01*
X80624Y31932D01*
X79895Y32234D01*
D02*
G37*
%LPD*%
G36*
X61002Y151748D02*
X60773Y151405D01*
X60692Y151000D01*
Y148210D01*
X60626Y148182D01*
X60157Y147713D01*
X60116Y147813D01*
X59558Y148371D01*
X59491Y148398D01*
Y151496D01*
X108090Y200094D01*
X109348D01*
X61002Y151748D01*
D02*
G37*
G36*
X57000Y150250D02*
X56000Y149250D01*
Y138500D01*
Y115500D01*
X81250Y90250D01*
Y86000D01*
X86500D01*
X86750Y85750D01*
Y65000D01*
X73500D01*
X73250Y65250D01*
Y85750D01*
X73500Y86000D01*
X77250D01*
Y88750D01*
X52500Y113500D01*
Y158000D01*
X57000D01*
Y150250D01*
D02*
G37*
G36*
X86399Y36101D02*
X86399Y36101D01*
X85501Y35204D01*
X71000D01*
X70539Y35113D01*
X70148Y34852D01*
X70148Y34852D01*
X64770Y29473D01*
Y36230D01*
X86591D01*
X86399Y36101D01*
D02*
G37*
G36*
X138500Y45750D02*
X130000Y37250D01*
X63750D01*
Y28750D01*
X56250D01*
Y40000D01*
X56750Y40500D01*
X128250D01*
X135000Y47250D01*
Y50500D01*
X138500D01*
Y45750D01*
D02*
G37*
D10*
X207750Y138250D02*
X213000Y143500D01*
X199500Y138250D02*
X207750D01*
X188570Y142500D02*
X200750Y154680D01*
Y184500D01*
X188250Y142500D02*
X188570D01*
X188500Y111000D02*
Y117750D01*
Y111000D02*
X213750Y85750D01*
X156500Y182750D02*
X165750D01*
X144250Y180250D02*
X169000D01*
X139096Y185404D02*
X144250Y180250D01*
X139096Y185404D02*
Y194500D01*
X158500Y142000D02*
X165500Y149000D01*
X213750Y85750D02*
X225250D01*
X214000Y133000D02*
X226250D01*
X233500Y129264D02*
Y167250D01*
X227205Y122968D02*
X233500Y129264D01*
X217982Y166856D02*
Y166945D01*
X227000Y157750D02*
Y157839D01*
X217982Y166856D02*
X227000Y157839D01*
X226750Y153250D02*
Y153500D01*
X214726Y165524D02*
X226750Y153500D01*
X214726Y165524D02*
Y166274D01*
X214500Y166500D02*
X214726Y166274D01*
X265998Y155752D02*
X267500Y154250D01*
Y149250D02*
Y154250D01*
X264980Y155752D02*
X265998D01*
X264754Y155978D02*
X264980Y155752D01*
X87250Y35250D02*
X104250D01*
X109000Y30500D01*
X55000Y20000D02*
X58250D01*
X60000Y25000D02*
X62000D01*
X71000Y34000D02*
X86000D01*
X62000Y25000D02*
X71000Y34000D01*
X86000D02*
X87250Y35250D01*
X56750Y8000D02*
X108250D01*
X54076Y10674D02*
Y19076D01*
Y10674D02*
X56750Y8000D01*
X108250D02*
X131000Y30750D01*
X54076Y19076D02*
X55000Y20000D01*
D13*
X185000Y207000D02*
X190848Y201152D01*
X120652D02*
X126500Y207000D01*
X185000D01*
X153000Y202500D02*
X153190Y202690D01*
X153926Y204734D02*
X154160Y204500D01*
X152075Y204734D02*
X153926D01*
X154160Y204500D02*
X184000D01*
X153190Y202690D02*
X182310D01*
X184000Y204500D02*
X189000Y199500D01*
X122000D02*
X127000Y204500D01*
X182310Y202690D02*
X187750Y197250D01*
X151840Y204500D02*
X152075Y204734D01*
X127000Y204500D02*
X151840D01*
X187750Y197250D02*
X219000D01*
X189000Y199500D02*
X221250D01*
X110250D02*
X122000D01*
X190848Y201152D02*
X222348D01*
X107652D02*
X120652D01*
X147500Y191000D02*
Y196250D01*
X145000Y188500D02*
X147500Y191000D01*
X61750Y151000D02*
X110250Y199500D01*
X219000Y197250D02*
X230250Y186000D01*
Y175750D02*
Y186000D01*
X58434Y151934D02*
X107652Y201152D01*
X222348D02*
X229750Y193750D01*
X221250Y199500D02*
X229899Y190851D01*
X145000Y184250D02*
Y188500D01*
X253500Y168250D02*
Y171000D01*
X246500Y178000D02*
X253500Y171000D01*
X233750Y178000D02*
X246500D01*
X231149Y190851D02*
X231250Y190750D01*
X229899Y190851D02*
X231149D01*
X72500Y119750D02*
Y153500D01*
X61750Y146500D02*
Y151000D01*
X58434Y146689D02*
Y151934D01*
X71250Y118500D02*
X72500Y119750D01*
Y153500D02*
X106250Y187250D01*
X68750Y154000D02*
X105500Y190750D01*
X68750Y146750D02*
Y154000D01*
X229750Y193750D02*
X231250D01*
D18*
X151250Y145513D02*
Y161000D01*
X128500Y183750D02*
Y200250D01*
Y183750D02*
X151250Y161000D01*
Y145513D02*
X180750Y116013D01*
Y104750D02*
Y116013D01*
X164250Y116500D02*
X169500D01*
X159831Y120919D02*
Y124581D01*
Y120919D02*
X164250Y116500D01*
D106*
X29250Y56500D02*
Y73500D01*
X28000Y55250D02*
X29250Y56500D01*
X30750Y134500D02*
Y141250D01*
X25250Y146750D02*
Y149250D01*
Y146750D02*
X30750Y141250D01*
X53500Y135203D02*
Y153750D01*
X52797Y134500D02*
X53500Y135203D01*
X30750Y134500D02*
X52797D01*
X55070Y154665D02*
X56000Y155595D01*
X150500Y90250D02*
Y126250D01*
X143250Y83000D02*
X150500Y90250D01*
X84250Y83000D02*
X143250D01*
X88250Y130000D02*
X121000D01*
X83903Y134346D02*
X88250Y130000D01*
X75403Y134346D02*
X83903D01*
X123000Y132000D02*
Y144000D01*
X121000Y130000D02*
X123000Y132000D01*
X55000Y113000D02*
Y150462D01*
X53647Y151815D02*
X55000Y150462D01*
Y113000D02*
X65000Y103000D01*
X130250Y51500D02*
X141973Y63223D01*
X116250Y51500D02*
X130250D01*
X141973Y63223D02*
Y64977D01*
X142120Y65124D01*
X79500Y19000D02*
Y30250D01*
X75500Y15000D02*
X79500Y19000D01*
X60000Y15000D02*
X75500D01*
X22000Y55250D02*
X28000D01*
X45500Y61000D02*
X45510Y60990D01*
Y47010D02*
Y60990D01*
X53500Y153750D02*
X53708D01*
X54623Y154665D02*
X55070D01*
X56000Y155595D02*
Y156750D01*
X53708Y153750D02*
X54623Y154665D01*
X53500Y156750D02*
X56000D01*
X65000Y103000D02*
X80250Y87750D01*
Y83000D02*
Y87750D01*
D108*
X176750Y176000D02*
X176750Y176000D01*
X176750Y176000D02*
X195750D01*
X176750Y176000D02*
Y200289D01*
X173750Y176000D02*
X176750D01*
X176750Y200289D02*
X176917Y200456D01*
D110*
X206500Y104250D02*
X268250D01*
X267500Y105000D02*
X268250Y104250D01*
X285486Y87014D01*
X343933D01*
X267500Y105000D02*
Y115250D01*
D111*
X185000Y125750D02*
Y138295D01*
Y125750D02*
X206500Y104250D01*
X168250Y138250D02*
X168295Y138295D01*
X185000D01*
X174250Y98250D02*
Y116750D01*
X169750Y121250D02*
X174250Y116750D01*
X169750Y121250D02*
Y123500D01*
X251750Y159250D02*
X275750D01*
X267500Y135750D02*
X275750Y144000D01*
Y159250D01*
X267500Y115250D02*
Y135750D01*
D112*
X256750Y198250D02*
D03*
D113*
Y188250D02*
D03*
Y178250D02*
D03*
D114*
X22000Y55250D02*
D03*
D115*
Y65092D02*
D03*
D116*
X329000Y160250D02*
D03*
D117*
Y130919D02*
D03*
D118*
X113000Y205157D02*
D03*
Y215000D02*
D03*
Y195315D02*
D03*
X72250Y205157D02*
D03*
Y215000D02*
D03*
Y195315D02*
D03*
X343933Y67329D02*
D03*
Y87014D02*
D03*
Y77171D02*
D03*
X36658Y178500D02*
D03*
X16972D02*
D03*
X26815D02*
D03*
D119*
X113000Y185472D02*
D03*
X72250D02*
D03*
X343933Y57486D02*
D03*
D120*
X13785Y127226D02*
D03*
D121*
X22250Y116203D02*
D03*
Y138250D02*
D03*
D122*
X160750Y172250D02*
D03*
D123*
Y162250D02*
D03*
D124*
X287500Y115250D02*
D03*
X277500D02*
D03*
X267500D02*
D03*
D125*
X257500D02*
D03*
D126*
X46500Y178500D02*
D03*
D127*
X348819Y183465D02*
D03*
X354724Y171653D02*
D03*
X348819Y159842D02*
D03*
X354724Y148031D02*
D03*
X348819Y136220D02*
D03*
X354724Y124409D02*
D03*
X348819Y112598D02*
D03*
X354724Y100787D02*
D03*
X348819Y88976D02*
D03*
X354724Y77165D02*
D03*
X348819Y65354D02*
D03*
X354724Y53543D02*
D03*
X337008Y183465D02*
D03*
X342913Y171653D02*
D03*
X337008Y159842D02*
D03*
X342913Y148031D02*
D03*
X337008Y136220D02*
D03*
X342913Y124409D02*
D03*
X337008Y112598D02*
D03*
X342913Y100787D02*
D03*
X331102Y148031D02*
D03*
X325197Y136220D02*
D03*
X331102Y124409D02*
D03*
Y100787D02*
D03*
Y77165D02*
D03*
Y53543D02*
D03*
X313386Y183465D02*
D03*
X319291Y171653D02*
D03*
X313386Y159842D02*
D03*
X319291Y148031D02*
D03*
X313386Y136220D02*
D03*
Y112598D02*
D03*
X319291Y100787D02*
D03*
X313386Y65354D02*
D03*
X319291Y53543D02*
D03*
X313386Y41732D02*
D03*
Y18110D02*
D03*
X307480Y218898D02*
D03*
X301575Y207086D02*
D03*
X307480Y195275D02*
D03*
X301575Y183465D02*
D03*
X307480Y171653D02*
D03*
X301575Y159842D02*
D03*
X307480Y148031D02*
D03*
Y124409D02*
D03*
X301575Y112598D02*
D03*
X307480Y100787D02*
D03*
X301575Y65354D02*
D03*
X307480Y53543D02*
D03*
X301575Y41732D02*
D03*
X307480Y29921D02*
D03*
X301575Y18110D02*
D03*
X295669Y218898D02*
D03*
X289764Y207086D02*
D03*
X295669Y195275D02*
D03*
X289764Y183465D02*
D03*
X295669Y171653D02*
D03*
X289764Y159842D02*
D03*
X295669Y148031D02*
D03*
Y124409D02*
D03*
X289764Y65354D02*
D03*
X295669Y53543D02*
D03*
X289764Y41732D02*
D03*
X295669Y29921D02*
D03*
X289764Y18110D02*
D03*
X283858Y218898D02*
D03*
X277953Y207086D02*
D03*
X283858Y195275D02*
D03*
X277953Y183465D02*
D03*
X283858Y171653D02*
D03*
Y124409D02*
D03*
X277953Y65354D02*
D03*
X283858Y53543D02*
D03*
X277953Y41732D02*
D03*
X283858Y29921D02*
D03*
X277953Y18110D02*
D03*
X272047Y195275D02*
D03*
X266142Y183465D02*
D03*
X272047Y124409D02*
D03*
X266142Y88976D02*
D03*
Y41732D02*
D03*
Y18110D02*
D03*
X260236Y218898D02*
D03*
X254331Y207086D02*
D03*
X260236Y171653D02*
D03*
Y148031D02*
D03*
X254331Y136220D02*
D03*
X260236Y124409D02*
D03*
Y100787D02*
D03*
X254331Y88976D02*
D03*
Y65354D02*
D03*
Y41732D02*
D03*
X260236Y29921D02*
D03*
X254331Y18110D02*
D03*
X248425Y218898D02*
D03*
X242520Y183465D02*
D03*
X248425Y171653D02*
D03*
Y148031D02*
D03*
Y124409D02*
D03*
X242520Y112598D02*
D03*
X248425Y100787D02*
D03*
X242520Y41732D02*
D03*
X248425Y29921D02*
D03*
X242520Y18110D02*
D03*
X236614Y148031D02*
D03*
Y100787D02*
D03*
X230709Y88976D02*
D03*
Y65354D02*
D03*
Y41732D02*
D03*
X236614Y29921D02*
D03*
X230709Y18110D02*
D03*
X218898Y112598D02*
D03*
X224803Y100787D02*
D03*
X218898Y88976D02*
D03*
X224803Y77165D02*
D03*
X218898Y65354D02*
D03*
X224803Y53543D02*
D03*
X218898Y41732D02*
D03*
X224803Y29921D02*
D03*
X218898Y18110D02*
D03*
X212992Y148031D02*
D03*
Y124409D02*
D03*
X207086Y112598D02*
D03*
X212992Y100787D02*
D03*
X207086Y88976D02*
D03*
X212992Y77165D02*
D03*
X207086Y65354D02*
D03*
X212992Y53543D02*
D03*
X207086Y41732D02*
D03*
X212992Y29921D02*
D03*
X207086Y18110D02*
D03*
X201181Y148031D02*
D03*
X195275Y88976D02*
D03*
X201181Y77165D02*
D03*
X195275Y65354D02*
D03*
X201181Y53543D02*
D03*
X195275Y41732D02*
D03*
X201181Y29921D02*
D03*
X195275Y18110D02*
D03*
X183465Y159842D02*
D03*
Y112598D02*
D03*
Y65354D02*
D03*
X189370Y53543D02*
D03*
X183465Y41732D02*
D03*
X189370Y29921D02*
D03*
X183465Y18110D02*
D03*
X171653Y159842D02*
D03*
X177559Y148031D02*
D03*
X171653Y65354D02*
D03*
X177559Y53543D02*
D03*
X171653Y41732D02*
D03*
X177559Y29921D02*
D03*
X171653Y18110D02*
D03*
X165748Y218898D02*
D03*
Y100787D02*
D03*
X159842Y88976D02*
D03*
X165748Y77165D02*
D03*
X159842Y65354D02*
D03*
X165748Y53543D02*
D03*
X159842Y41732D02*
D03*
X165748Y29921D02*
D03*
X159842Y18110D02*
D03*
X153937Y171653D02*
D03*
X148031Y159842D02*
D03*
Y136220D02*
D03*
X153937Y100787D02*
D03*
Y77165D02*
D03*
X148031Y65354D02*
D03*
X153937Y53543D02*
D03*
X148031Y41732D02*
D03*
X153937Y29921D02*
D03*
X148031Y18110D02*
D03*
X142126Y218898D02*
D03*
X136220Y183465D02*
D03*
X142126Y148031D02*
D03*
X136220Y136220D02*
D03*
Y112598D02*
D03*
X142126Y100787D02*
D03*
X136220Y88976D02*
D03*
X142126Y29921D02*
D03*
X130315Y218898D02*
D03*
Y171653D02*
D03*
Y124409D02*
D03*
X124409Y112598D02*
D03*
X130315Y77165D02*
D03*
X124409Y18110D02*
D03*
X118504Y218898D02*
D03*
Y195275D02*
D03*
Y171653D02*
D03*
X112598Y159842D02*
D03*
X118504Y124409D02*
D03*
X112598Y112598D02*
D03*
X118504Y29921D02*
D03*
X106693Y218898D02*
D03*
X100787Y207086D02*
D03*
X106693Y171653D02*
D03*
X100787Y159842D02*
D03*
X106693Y124409D02*
D03*
Y100787D02*
D03*
X94882Y195275D02*
D03*
Y171653D02*
D03*
X88976Y136220D02*
D03*
X94882Y124409D02*
D03*
X88976Y112598D02*
D03*
X94882Y100787D02*
D03*
X88976Y88976D02*
D03*
X94882Y77165D02*
D03*
X83071Y218898D02*
D03*
X77165Y112598D02*
D03*
X83071Y100787D02*
D03*
X65354Y207086D02*
D03*
Y183465D02*
D03*
X59449Y218898D02*
D03*
X53543Y207086D02*
D03*
X59449Y195275D02*
D03*
Y171653D02*
D03*
Y100787D02*
D03*
X53543Y88976D02*
D03*
X59449Y53543D02*
D03*
X47638Y195275D02*
D03*
X41732Y183465D02*
D03*
X47638Y148031D02*
D03*
Y124409D02*
D03*
X41732Y112598D02*
D03*
Y88976D02*
D03*
Y65354D02*
D03*
X29921Y183465D02*
D03*
X35827Y148031D02*
D03*
X29921Y112598D02*
D03*
Y88976D02*
D03*
X35827Y77165D02*
D03*
X18110Y159842D02*
D03*
Y112598D02*
D03*
X213000Y143500D02*
D03*
X188250Y142500D02*
D03*
X188500Y117750D02*
D03*
X165750Y182750D02*
D03*
X156500D02*
D03*
X169000Y180250D02*
D03*
X29250Y73500D02*
D03*
X178473Y229248D02*
D03*
X153000Y202500D02*
D03*
X218500Y186750D02*
D03*
X210750Y187000D02*
D03*
X222403Y190687D02*
D03*
X222500Y187000D02*
D03*
X214750Y186750D02*
D03*
X214650Y190709D02*
D03*
X206874D02*
D03*
X206750Y187000D02*
D03*
X222425Y182933D02*
D03*
X214650D02*
D03*
X206874D02*
D03*
X25250Y149250D02*
D03*
X30750Y134500D02*
D03*
X136625Y46250D02*
D03*
X158500Y142000D02*
D03*
X165500Y149000D02*
D03*
X168250Y138250D02*
D03*
X150500Y126250D02*
D03*
X251750Y159250D02*
D03*
X275750D02*
D03*
X185000Y138295D02*
D03*
X169750Y123500D02*
D03*
X174250Y98250D02*
D03*
X180042Y189986D02*
D03*
X173792D02*
D03*
X167542D02*
D03*
X180750Y104750D02*
D03*
X133750Y159250D02*
D03*
X133772Y156454D02*
D03*
X130826Y159236D02*
D03*
X130848Y156440D02*
D03*
X128000Y159250D02*
D03*
X128022Y156454D02*
D03*
X128500Y200250D02*
D03*
X107250Y208000D02*
D03*
X195750Y176000D02*
D03*
X225250Y85750D02*
D03*
X200750Y184500D02*
D03*
X176917Y200456D02*
D03*
X173750Y176000D02*
D03*
X139096Y194500D02*
D03*
X147500Y196250D02*
D03*
X145000Y184250D02*
D03*
X198000Y203484D02*
D03*
X195000D02*
D03*
X230250Y175750D02*
D03*
X253500Y168250D02*
D03*
X233750Y178000D02*
D03*
X198000Y206250D02*
D03*
X242000Y171250D02*
D03*
X241750Y210000D02*
D03*
X224000Y206500D02*
D03*
X214750D02*
D03*
X205250D02*
D03*
X195000Y206250D02*
D03*
X107250Y205250D02*
D03*
X123000Y144000D02*
D03*
X96022Y136704D02*
D03*
X98772D02*
D03*
X101598Y136690D02*
D03*
X104522Y136704D02*
D03*
X109772Y136204D02*
D03*
X115348Y136190D02*
D03*
X112522Y136204D02*
D03*
X118272D02*
D03*
X75403Y134346D02*
D03*
X71250Y118500D02*
D03*
X106250Y187250D02*
D03*
X105500Y190750D02*
D03*
X68750Y146750D02*
D03*
X109750Y139000D02*
D03*
X112500D02*
D03*
X115326Y138986D02*
D03*
X118250Y139000D02*
D03*
X61750Y146500D02*
D03*
X58434Y146689D02*
D03*
X231250Y193750D02*
D03*
Y190750D02*
D03*
X56000Y153750D02*
D03*
X199500Y138250D02*
D03*
X226250Y133000D02*
D03*
X214000D02*
D03*
X233500Y167250D02*
D03*
X227000Y157750D02*
D03*
X226750Y153250D02*
D03*
X217982Y166945D02*
D03*
X214500Y166500D02*
D03*
X267500Y149250D02*
D03*
X264754Y155978D02*
D03*
X227205Y122968D02*
D03*
X125272Y156454D02*
D03*
X125250Y159250D02*
D03*
X109000Y30500D02*
D03*
X142120Y65124D02*
D03*
X143500Y59250D02*
D03*
X116250Y51500D02*
D03*
X96000Y139500D02*
D03*
X98750D02*
D03*
X101576Y139486D02*
D03*
X104500Y139500D02*
D03*
X131250Y95500D02*
D03*
Y89529D02*
D03*
Y92466D02*
D03*
Y98500D02*
D03*
X146750Y59250D02*
D03*
X108750Y62000D02*
D03*
X113046Y57961D02*
D03*
X139250Y76965D02*
D03*
X131250Y102000D02*
D03*
X139250Y68500D02*
D03*
X113000Y61250D02*
D03*
X82000Y15000D02*
D03*
X94000Y11500D02*
D03*
X67500Y19500D02*
D03*
Y22250D02*
D03*
Y25250D02*
D03*
X71500D02*
D03*
Y22250D02*
D03*
X62500Y32500D02*
D03*
X58250Y20000D02*
D03*
X60000Y25000D02*
D03*
X79500Y30250D02*
D03*
X71500Y19500D02*
D03*
X131000Y30750D02*
D03*
X48978Y86046D02*
D03*
X51902Y86060D02*
D03*
X54728Y86046D02*
D03*
X57478D02*
D03*
X57500Y83250D02*
D03*
X54750D02*
D03*
X51924Y83264D02*
D03*
X49000Y83250D02*
D03*
X45500Y61000D02*
D03*
X45510Y47010D02*
D03*
X136750Y49085D02*
D03*
X57500Y32500D02*
D03*
X60000Y15000D02*
D03*
X62500Y35250D02*
D03*
X60000Y32500D02*
D03*
X57500Y35250D02*
D03*
X53500Y153750D02*
D03*
X56000Y156750D02*
D03*
X53500D02*
D03*
X80250Y76250D02*
D03*
Y79750D02*
D03*
X76000Y76500D02*
D03*
Y79750D02*
D03*
Y83000D02*
D03*
X84250D02*
D03*
Y76500D02*
D03*
X80250Y83000D02*
D03*
X84250Y79750D02*
D03*
X169500Y116500D02*
D03*
X159831Y124581D02*
D03*
D128*
X65000Y103000D02*
D03*
M02*
