G04*
G04 #@! TF.GenerationSoftware,Altium Limited,Altium Designer,23.10.1 (27)*
G04*
G04 Layer_Color=0*
%FSLAX25Y25*%
%MOIN*%
G70*
G04*
G04 #@! TF.SameCoordinates,0AE130B3-391A-4A1A-B228-0B81C7984BB1*
G04*
G04*
G04 #@! TF.FilePolarity,Positive*
G04*
G01*
G75*
%ADD133C,0.00100*%
G36*
X265748Y27559D02*
Y26977D01*
X265975Y25837D01*
X266420Y24762D01*
X267066Y23795D01*
X267889Y22972D01*
X268856Y22326D01*
X269931Y21881D01*
X271072Y21654D01*
X271654D01*
X272235D01*
X273376Y21881D01*
X274451Y22326D01*
X275418Y22972D01*
X276241Y23795D01*
X276887Y24762D01*
X277332Y25837D01*
X277559Y26977D01*
Y27559D01*
Y28141D01*
X277332Y29282D01*
X276887Y30356D01*
X276241Y31324D01*
X275418Y32146D01*
X274451Y32792D01*
X273376Y33238D01*
X272235Y33465D01*
X271654D01*
X271072D01*
X269931Y33238D01*
X268856Y32792D01*
X267889Y32146D01*
X267066Y31324D01*
X266420Y30356D01*
X265975Y29282D01*
X265748Y28141D01*
Y27559D01*
D01*
D02*
G37*
G36*
Y212598D02*
Y212017D01*
X265975Y210876D01*
X266420Y209801D01*
X267066Y208834D01*
X267889Y208011D01*
X268856Y207365D01*
X269931Y206920D01*
X271072Y206693D01*
X271654D01*
X272235D01*
X273376Y206920D01*
X274451Y207365D01*
X275418Y208011D01*
X276241Y208834D01*
X276887Y209801D01*
X277332Y210876D01*
X277559Y212017D01*
Y212598D01*
Y213180D01*
X277332Y214321D01*
X276887Y215396D01*
X276241Y216363D01*
X275418Y217185D01*
X274451Y217832D01*
X273376Y218277D01*
X272235Y218504D01*
X271654D01*
X271072D01*
X269931Y218277D01*
X268856Y217832D01*
X267889Y217185D01*
X267066Y216363D01*
X266420Y215396D01*
X265975Y214321D01*
X265748Y213180D01*
Y212598D01*
D01*
D02*
G37*
G36*
X94488Y206693D02*
X93906D01*
X92766Y206920D01*
X91691Y207365D01*
X90724Y208011D01*
X89901Y208834D01*
X89255Y209801D01*
X88810Y210876D01*
X88583Y212017D01*
Y212598D01*
Y213180D01*
X88810Y214321D01*
X89255Y215396D01*
X89901Y216363D01*
X90724Y217185D01*
X91691Y217832D01*
X92766Y218277D01*
X93906Y218504D01*
X94488D01*
X95070D01*
X96211Y218277D01*
X97285Y217832D01*
X98253Y217185D01*
X99075Y216363D01*
X99722Y215396D01*
X100167Y214321D01*
X100394Y213180D01*
Y212598D01*
Y212017D01*
X100167Y210876D01*
X99722Y209801D01*
X99075Y208834D01*
X98253Y208011D01*
X97285Y207365D01*
X96211Y206920D01*
X95070Y206693D01*
X94488D01*
D01*
D02*
G37*
G36*
X88583Y27559D02*
Y26977D01*
X88810Y25837D01*
X89255Y24762D01*
X89901Y23795D01*
X90724Y22972D01*
X91691Y22326D01*
X92766Y21881D01*
X93906Y21654D01*
X94488D01*
X95070D01*
X96211Y21881D01*
X97285Y22326D01*
X98253Y22972D01*
X99075Y23795D01*
X99722Y24762D01*
X100167Y25837D01*
X100394Y26977D01*
Y27559D01*
Y28141D01*
X100167Y29282D01*
X99722Y30356D01*
X99075Y31324D01*
X98253Y32146D01*
X97285Y32792D01*
X96211Y33238D01*
X95070Y33465D01*
X94488D01*
X93906D01*
X92766Y33238D01*
X91691Y32792D01*
X90724Y32146D01*
X89901Y31324D01*
X89255Y30356D01*
X88810Y29282D01*
X88583Y28141D01*
Y27559D01*
D01*
D02*
G37*
D133*
X45024Y3937D02*
Y20541D01*
X45005Y20636D01*
D02*
G03*
X45024Y21154I-19487J974D01*
G01*
Y22000D01*
X45025Y22022D01*
D02*
G03*
X26559Y41094I-19507J-412D01*
G01*
X26502Y41087D01*
X3937D01*
X3686Y41339D01*
Y198819D01*
X3955Y199070D01*
X27330D01*
D02*
G03*
X45069Y217376I-1740J19434D01*
G01*
X45024Y217519D01*
Y236221D01*
X45276Y236472D01*
X188500D01*
X188751Y236221D01*
Y213251D01*
X240498D01*
Y236250D01*
X240750Y236502D01*
X320866D01*
X321118Y236221D01*
Y217000D01*
X321107Y216926D01*
D02*
G03*
X338169Y199070I19453J1508D01*
G01*
X362205D01*
X362456Y198819D01*
Y41339D01*
X362205Y41087D01*
X338745D01*
D02*
G03*
X321104Y22728I1841J-19424D01*
G01*
X321118Y22647D01*
Y3937D01*
X320866Y3686D01*
X45024Y3937D01*
M02*
