G04*
G04 #@! TF.GenerationSoftware,Altium Limited,Altium Designer,23.10.1 (27)*
G04*
G04 Layer_Color=8388736*
%FSLAX25Y25*%
%MOIN*%
G70*
G04*
G04 #@! TF.SameCoordinates,0AE130B3-391A-4A1A-B228-0B81C7984BB1*
G04*
G04*
G04 #@! TF.FilePolarity,Negative*
G04*
G01*
G75*
%ADD28R,0.05200X0.02200*%
%ADD29R,0.02600X0.05600*%
G04:AMPARAMS|DCode=38|XSize=35.78mil|YSize=13.22mil|CornerRadius=6.61mil|HoleSize=0mil|Usage=FLASHONLY|Rotation=270.000|XOffset=0mil|YOffset=0mil|HoleType=Round|Shape=RoundedRectangle|*
%AMROUNDEDRECTD38*
21,1,0.03578,0.00000,0,0,270.0*
21,1,0.02256,0.01322,0,0,270.0*
1,1,0.01322,0.00000,-0.01128*
1,1,0.01322,0.00000,0.01128*
1,1,0.01322,0.00000,0.01128*
1,1,0.01322,0.00000,-0.01128*
%
%ADD38ROUNDEDRECTD38*%
%ADD39R,0.01322X0.03578*%
%ADD45R,0.02756X0.02559*%
G04:AMPARAMS|DCode=48|XSize=65.16mil|YSize=20.31mil|CornerRadius=10.15mil|HoleSize=0mil|Usage=FLASHONLY|Rotation=0.000|XOffset=0mil|YOffset=0mil|HoleType=Round|Shape=RoundedRectangle|*
%AMROUNDEDRECTD48*
21,1,0.06516,0.00000,0,0,0.0*
21,1,0.04485,0.02031,0,0,0.0*
1,1,0.02031,0.02243,0.00000*
1,1,0.02031,-0.02243,0.00000*
1,1,0.02031,-0.02243,0.00000*
1,1,0.02031,0.02243,0.00000*
%
%ADD48ROUNDEDRECTD48*%
%ADD49R,0.06516X0.02031*%
%ADD50R,0.05600X0.02600*%
%ADD51R,0.02200X0.05200*%
%ADD57R,0.04304X0.04461*%
%ADD58R,0.04737X0.05131*%
%ADD59R,0.03359X0.05721*%
%ADD60R,0.10300X0.13800*%
G04:AMPARAMS|DCode=61|XSize=85.56mil|YSize=31.62mil|CornerRadius=6.95mil|HoleSize=0mil|Usage=FLASHONLY|Rotation=180.000|XOffset=0mil|YOffset=0mil|HoleType=Round|Shape=RoundedRectangle|*
%AMROUNDEDRECTD61*
21,1,0.08556,0.01772,0,0,180.0*
21,1,0.07165,0.03162,0,0,180.0*
1,1,0.01391,-0.03583,0.00886*
1,1,0.01391,0.03583,0.00886*
1,1,0.01391,0.03583,-0.00886*
1,1,0.01391,-0.03583,-0.00886*
%
%ADD61ROUNDEDRECTD61*%
%ADD62R,0.03556X0.03162*%
%ADD63R,0.03162X0.06312*%
%ADD64R,0.05131X0.04737*%
%ADD65R,0.03162X0.03556*%
%ADD66C,0.05524*%
%ADD67R,0.09855X0.18517*%
%ADD68R,0.03950X0.02375*%
%ADD69R,0.02375X0.03950*%
%ADD70R,0.06509X0.06509*%
%ADD71R,0.03556X0.03556*%
%ADD72R,0.13792X0.10446*%
%ADD73R,0.03950X0.03950*%
%ADD74R,0.13792X0.09068*%
%ADD75R,0.03162X0.05958*%
%ADD76R,0.03162X0.05524*%
%ADD77R,0.06406X0.02264*%
%ADD78R,0.02572X0.04540*%
%ADD79R,0.13398X0.06706*%
%ADD80R,0.05367X0.07965*%
%ADD81R,0.05524X0.03162*%
%ADD82R,0.04461X0.04304*%
%ADD83R,0.03950X0.02769*%
%ADD84R,0.07296X0.03359*%
%ADD85R,0.03162X0.03162*%
%ADD86R,0.04737X0.06312*%
G04:AMPARAMS|DCode=87|XSize=54.46mil|YSize=32.02mil|CornerRadius=5.8mil|HoleSize=0mil|Usage=FLASHONLY|Rotation=90.000|XOffset=0mil|YOffset=0mil|HoleType=Round|Shape=RoundedRectangle|*
%AMROUNDEDRECTD87*
21,1,0.05446,0.02041,0,0,90.0*
21,1,0.04285,0.03202,0,0,90.0*
1,1,0.01160,0.01021,0.02143*
1,1,0.01160,0.01021,-0.02143*
1,1,0.01160,-0.01021,-0.02143*
1,1,0.01160,-0.01021,0.02143*
%
%ADD87ROUNDEDRECTD87*%
%ADD88O,0.09800X0.07800*%
%ADD89R,0.09800X0.07800*%
%ADD90C,0.04934*%
%ADD91C,0.05918*%
%ADD92C,0.06737*%
%ADD93R,0.06737X0.06737*%
%ADD94O,0.04831X0.09161*%
%ADD95O,0.04831X0.07587*%
%ADD96C,0.08477*%
%ADD97R,0.08477X0.08477*%
%ADD98C,0.07591*%
%ADD99R,0.07591X0.07591*%
%ADD100R,0.06737X0.06737*%
D28*
X246500Y51500D02*
D03*
X238500Y47760D02*
D03*
Y55240D02*
D03*
X22750Y86260D02*
D03*
Y93740D02*
D03*
X14750Y90000D02*
D03*
X46000Y47010D02*
D03*
Y54490D02*
D03*
X38000Y50750D02*
D03*
D29*
X138000Y231350D02*
D03*
Y202650D02*
D03*
X156500Y202500D02*
D03*
Y231200D02*
D03*
D38*
X150059Y187344D02*
D03*
X147500D02*
D03*
X144941D02*
D03*
Y193656D02*
D03*
X147500D02*
D03*
D39*
X150059D02*
D03*
D45*
X274000Y94157D02*
D03*
Y88842D02*
D03*
X160646Y192275D02*
D03*
Y186960D02*
D03*
D48*
X189825Y75772D02*
D03*
D49*
X181356D02*
D03*
D50*
X170741Y60772D02*
D03*
X199441D02*
D03*
D51*
X246490Y71750D02*
D03*
X239010D02*
D03*
X242750Y63750D02*
D03*
D57*
X39455Y128500D02*
D03*
X33045D02*
D03*
X39455Y122750D02*
D03*
X33045D02*
D03*
X105740Y51500D02*
D03*
X112150D02*
D03*
X293955Y103000D02*
D03*
X287545D02*
D03*
X273545D02*
D03*
X279955D02*
D03*
X106253Y80191D02*
D03*
X112662D02*
D03*
X117295Y65000D02*
D03*
X123705D02*
D03*
X171795Y223250D02*
D03*
X178205D02*
D03*
X138205Y178250D02*
D03*
X131795D02*
D03*
X87295Y11500D02*
D03*
X93705D02*
D03*
X267755Y63981D02*
D03*
X274164D02*
D03*
X254545Y51500D02*
D03*
X260955D02*
D03*
X267591D02*
D03*
X274000D02*
D03*
X251545Y159500D02*
D03*
X257955D02*
D03*
X235045Y126750D02*
D03*
X241455D02*
D03*
Y132500D02*
D03*
X235045D02*
D03*
X185045Y138250D02*
D03*
X191455D02*
D03*
X22795Y79000D02*
D03*
X29205D02*
D03*
X38795Y61000D02*
D03*
X45205D02*
D03*
X187490Y99000D02*
D03*
X181081D02*
D03*
X244250Y159500D02*
D03*
X237841D02*
D03*
D58*
X132500Y151347D02*
D03*
Y144653D02*
D03*
X126000Y151347D02*
D03*
Y144653D02*
D03*
X97349D02*
D03*
Y151347D02*
D03*
X103849Y144653D02*
D03*
Y151347D02*
D03*
X180000Y175903D02*
D03*
Y182597D02*
D03*
X46500Y133153D02*
D03*
Y139847D02*
D03*
X267085Y71717D02*
D03*
Y78410D02*
D03*
X260335Y71717D02*
D03*
Y78410D02*
D03*
X173792Y189986D02*
D03*
Y196678D02*
D03*
X51750Y29847D02*
D03*
Y23154D02*
D03*
X41250Y156404D02*
D03*
Y163096D02*
D03*
X75500Y134346D02*
D03*
Y127654D02*
D03*
X180042Y196678D02*
D03*
Y189986D02*
D03*
X167542Y196678D02*
D03*
Y189986D02*
D03*
D59*
X111260Y144616D02*
D03*
X118740D02*
D03*
X115000Y152884D02*
D03*
D60*
X69750Y22500D02*
D03*
D61*
X60006Y15000D02*
D03*
Y20000D02*
D03*
Y25000D02*
D03*
Y30000D02*
D03*
X79494D02*
D03*
Y25000D02*
D03*
Y20000D02*
D03*
Y15000D02*
D03*
D62*
X118085Y80250D02*
D03*
X122415D02*
D03*
X253585Y165250D02*
D03*
X257915D02*
D03*
X90585Y70000D02*
D03*
X94915D02*
D03*
D63*
X49510Y77671D02*
D03*
X56990D02*
D03*
Y67829D02*
D03*
X53250D02*
D03*
X49510D02*
D03*
D64*
X171653Y229500D02*
D03*
X178347D02*
D03*
X53154Y58000D02*
D03*
X59847D02*
D03*
X65096Y110000D02*
D03*
X58403D02*
D03*
X143347Y59198D02*
D03*
X136653D02*
D03*
X112847Y58000D02*
D03*
X106154D02*
D03*
X188187Y92272D02*
D03*
X181494D02*
D03*
X188187Y85272D02*
D03*
X181494D02*
D03*
X132404Y194500D02*
D03*
X139096D02*
D03*
X79597Y37000D02*
D03*
X72904D02*
D03*
X267653Y57750D02*
D03*
X274346D02*
D03*
X275904Y153000D02*
D03*
X282596D02*
D03*
X275904Y166000D02*
D03*
X282596D02*
D03*
X275904Y159500D02*
D03*
X282596D02*
D03*
X235403Y138500D02*
D03*
X242096D02*
D03*
X21847Y100750D02*
D03*
X15154D02*
D03*
D65*
X269500Y167585D02*
D03*
Y171915D02*
D03*
X136750Y49085D02*
D03*
Y53415D02*
D03*
D66*
X100000Y58000D02*
D03*
X150000Y182250D02*
D03*
X143500Y53500D02*
D03*
X119250Y109250D02*
D03*
X90250Y51000D02*
D03*
D67*
X329000Y177868D02*
D03*
Y113301D02*
D03*
D68*
X191421Y206457D02*
D03*
Y203307D02*
D03*
Y200157D02*
D03*
Y197008D02*
D03*
Y193858D02*
D03*
Y190709D02*
D03*
Y187559D02*
D03*
Y184409D02*
D03*
Y181260D02*
D03*
Y178110D02*
D03*
Y174961D02*
D03*
X237878D02*
D03*
Y178110D02*
D03*
Y181260D02*
D03*
Y184409D02*
D03*
Y187559D02*
D03*
Y190709D02*
D03*
Y193858D02*
D03*
Y197008D02*
D03*
Y200157D02*
D03*
Y203307D02*
D03*
Y206457D02*
D03*
D69*
X195752Y171417D02*
D03*
X198902D02*
D03*
X202051D02*
D03*
X205201D02*
D03*
X208350D02*
D03*
X211500D02*
D03*
X214650D02*
D03*
X217799D02*
D03*
X220949D02*
D03*
X224098D02*
D03*
X227248D02*
D03*
X230398D02*
D03*
X233547D02*
D03*
Y210000D02*
D03*
X230398D02*
D03*
X227248D02*
D03*
X224098D02*
D03*
X220949D02*
D03*
X217799D02*
D03*
X214650D02*
D03*
X211500D02*
D03*
X208350D02*
D03*
X205201D02*
D03*
X202051D02*
D03*
X198902D02*
D03*
X195752D02*
D03*
D70*
X214650Y190709D02*
D03*
X206874D02*
D03*
Y182933D02*
D03*
X214650D02*
D03*
X222425D02*
D03*
Y190709D02*
D03*
Y198484D02*
D03*
X214650D02*
D03*
X206874D02*
D03*
D71*
X238075Y210197D02*
D03*
Y171221D02*
D03*
X191224D02*
D03*
Y210197D02*
D03*
D72*
X79750Y69949D02*
D03*
Y51051D02*
D03*
D73*
X113000Y14453D02*
D03*
Y8547D02*
D03*
X134750D02*
D03*
Y14453D02*
D03*
D74*
X61000Y129000D02*
D03*
D75*
X53126Y139827D02*
D03*
X57063D02*
D03*
X61000D02*
D03*
X64937D02*
D03*
X68874D02*
D03*
Y118173D02*
D03*
X64937D02*
D03*
X61000D02*
D03*
X57063D02*
D03*
X53126D02*
D03*
D76*
X28990Y152829D02*
D03*
X25250D02*
D03*
X21510D02*
D03*
Y162671D02*
D03*
X25250D02*
D03*
X28990D02*
D03*
D77*
X21266Y122108D02*
D03*
Y132344D02*
D03*
Y124667D02*
D03*
Y129785D02*
D03*
Y127226D02*
D03*
D78*
X136691Y65367D02*
D03*
X139250D02*
D03*
X141809D02*
D03*
Y74029D02*
D03*
X139250D02*
D03*
X136691D02*
D03*
X106191Y65169D02*
D03*
X108750D02*
D03*
X111309D02*
D03*
Y73831D02*
D03*
X108750D02*
D03*
X106191D02*
D03*
D79*
X106250Y106518D02*
D03*
Y89982D02*
D03*
D80*
X119443Y100500D02*
D03*
X131057D02*
D03*
X119443Y90250D02*
D03*
X131057D02*
D03*
D81*
X274085Y78313D02*
D03*
Y74573D02*
D03*
Y70833D02*
D03*
X283928D02*
D03*
Y78313D02*
D03*
D82*
X174341Y85362D02*
D03*
Y91772D02*
D03*
X72500Y161795D02*
D03*
Y168205D02*
D03*
X150500Y122455D02*
D03*
Y116045D02*
D03*
X134750Y24295D02*
D03*
Y30705D02*
D03*
X113000Y24045D02*
D03*
Y30455D02*
D03*
X246500Y85705D02*
D03*
Y79295D02*
D03*
X239250D02*
D03*
Y85705D02*
D03*
X230500Y48045D02*
D03*
Y54455D02*
D03*
X291250Y142455D02*
D03*
Y136045D02*
D03*
X227250Y115455D02*
D03*
Y109045D02*
D03*
X191750Y129455D02*
D03*
Y123045D02*
D03*
X169500Y116545D02*
D03*
Y122955D02*
D03*
X63500Y74205D02*
D03*
Y67795D02*
D03*
X175555Y116596D02*
D03*
Y123006D02*
D03*
X173750Y176295D02*
D03*
Y182705D02*
D03*
D83*
X269500Y163043D02*
D03*
Y159500D02*
D03*
Y155957D02*
D03*
Y152413D02*
D03*
X264776D02*
D03*
Y155957D02*
D03*
Y159500D02*
D03*
Y163043D02*
D03*
D84*
X227173Y138000D02*
D03*
Y133000D02*
D03*
Y128000D02*
D03*
Y123000D02*
D03*
X198827D02*
D03*
Y128000D02*
D03*
Y133000D02*
D03*
Y138000D02*
D03*
D85*
X30250Y94081D02*
D03*
Y85419D02*
D03*
X53000Y44419D02*
D03*
Y53081D02*
D03*
D86*
X160000Y124581D02*
D03*
X163740Y115919D02*
D03*
X156260D02*
D03*
D87*
X47898Y155215D02*
D03*
X55102D02*
D03*
X51500Y163285D02*
D03*
D88*
X22000Y55250D02*
D03*
D89*
Y65092D02*
D03*
D90*
X329000Y160250D02*
D03*
D91*
Y130919D02*
D03*
D92*
X113000Y205157D02*
D03*
Y215000D02*
D03*
Y195315D02*
D03*
X72250Y205157D02*
D03*
Y215000D02*
D03*
Y195315D02*
D03*
X343933Y67329D02*
D03*
Y87014D02*
D03*
Y77171D02*
D03*
X36658Y178500D02*
D03*
X16972D02*
D03*
X26815D02*
D03*
D93*
X113000Y185472D02*
D03*
X72250D02*
D03*
X343933Y57486D02*
D03*
D94*
X13785Y127226D02*
D03*
D95*
X22250Y116203D02*
D03*
Y138250D02*
D03*
D96*
X160750Y172250D02*
D03*
D97*
Y162250D02*
D03*
D98*
X287500Y115250D02*
D03*
X277500D02*
D03*
X267500D02*
D03*
D99*
X257500D02*
D03*
D100*
X46500Y178500D02*
D03*
M02*
