G04*
G04 #@! TF.GenerationSoftware,Altium Limited,Altium Designer,23.10.1 (27)*
G04*
G04 Layer_Color=16711935*
%FSLAX25Y25*%
%MOIN*%
G70*
G04*
G04 #@! TF.SameCoordinates,FFBA53F6-91E3-44B8-98AB-023B85DF69A1*
G04*
G04*
G04 #@! TF.FilePolarity,Positive*
G04*
G01*
G75*
%ADD11C,0.00500*%
%ADD38C,0.00400*%
%ADD39C,0.00512*%
%ADD40C,0.00100*%
G36*
X32169Y28149D02*
X30198D01*
Y31890D01*
X32169D01*
Y28149D01*
D02*
G37*
G36*
X36769Y28146D02*
X34803D01*
Y31890D01*
X36769D01*
Y28146D01*
D02*
G37*
D11*
X44957Y28228D02*
Y31772D01*
X52043Y28228D02*
Y31772D01*
X44957D02*
X52043D01*
X44957Y28228D02*
X52043D01*
X21957Y81228D02*
Y84772D01*
X29043Y81228D02*
Y84772D01*
X21957D02*
X29043D01*
X21957Y81228D02*
X29043D01*
D38*
X32098Y28350D02*
X34902D01*
X32098Y31701D02*
X34902D01*
X40122Y84575D02*
X42878D01*
X40024Y81425D02*
X42878D01*
D39*
X22502Y35799D02*
Y65327D01*
X1242Y34815D02*
X2816D01*
X1242D02*
Y66311D01*
X2816D01*
Y65327D02*
Y66311D01*
Y35799D02*
X22502D01*
X2816Y34815D02*
Y35799D01*
Y65327D02*
X5572D01*
X27029Y54106D02*
Y57256D01*
Y54106D02*
X29785Y55681D01*
X27029Y57256D02*
X29785Y55681D01*
X5572Y65327D02*
X22502D01*
X5572Y35563D02*
Y65327D01*
D40*
X41100Y7450D02*
Y12550D01*
X30900D02*
X41100D01*
X30900Y7450D02*
Y12550D01*
Y7450D02*
X41100D01*
X47800Y2900D02*
Y17100D01*
X24200Y2900D02*
X47800D01*
X24200D02*
Y17100D01*
X47800D01*
X44250D02*
X47800Y13550D01*
X44250Y2900D02*
X47800Y6450D01*
X20250Y8800D02*
X24200D01*
X20250D02*
Y11200D01*
X24200D01*
Y8800D02*
Y11200D01*
X47800D02*
X51750D01*
Y8800D02*
Y11200D01*
X47800Y8800D02*
X51750D01*
X47800D02*
Y11200D01*
M02*
