G04*
G04 #@! TF.GenerationSoftware,Altium Limited,Altium Designer,23.10.1 (27)*
G04*
G04 Layer_Physical_Order=2*
G04 Layer_Color=16711680*
%FSLAX25Y25*%
%MOIN*%
G70*
G04*
G04 #@! TF.SameCoordinates,FFBA53F6-91E3-44B8-98AB-023B85DF69A1*
G04*
G04*
G04 #@! TF.FilePolarity,Positive*
G04*
G01*
G75*
%ADD32C,0.05709*%
%ADD33O,0.07480X0.04724*%
%ADD34C,0.06496*%
%ADD35R,0.06496X0.06496*%
%ADD36C,0.01968*%
G36*
X63000Y80500D02*
X63500Y80000D01*
X77500D01*
Y16500D01*
X62500D01*
Y4500D01*
X7500D01*
Y94000D01*
X63000D01*
Y80500D01*
D02*
G37*
%LPC*%
G36*
X73748Y70933D02*
X65252D01*
Y62437D01*
X73748D01*
Y70933D01*
D02*
G37*
G36*
X70059Y61090D02*
X68941D01*
X67860Y60801D01*
X66892Y60242D01*
X66101Y59451D01*
X65541Y58482D01*
X65252Y57402D01*
Y56283D01*
X65541Y55203D01*
X66101Y54234D01*
X66892Y53443D01*
X67860Y52884D01*
X68941Y52595D01*
X70059D01*
X71140Y52884D01*
X72108Y53443D01*
X72899Y54234D01*
X73458Y55203D01*
X73748Y56283D01*
Y57402D01*
X73458Y58482D01*
X72899Y59451D01*
X72108Y60242D01*
X71140Y60801D01*
X70059Y61090D01*
D02*
G37*
G36*
Y51248D02*
X68941D01*
X67860Y50959D01*
X66892Y50399D01*
X66101Y49608D01*
X65541Y48640D01*
X65252Y47559D01*
Y46441D01*
X65541Y45360D01*
X66101Y44392D01*
X66892Y43601D01*
X67860Y43042D01*
X68941Y42752D01*
X70059D01*
X71140Y43042D01*
X72108Y43601D01*
X72899Y44392D01*
X73458Y45360D01*
X73748Y46441D01*
Y47559D01*
X73458Y48640D01*
X72899Y49608D01*
X72108Y50399D01*
X71140Y50959D01*
X70059Y51248D01*
D02*
G37*
G36*
Y31563D02*
X68941D01*
X67860Y31273D01*
X66892Y30714D01*
X66101Y29923D01*
X65541Y28955D01*
X65252Y27874D01*
Y26756D01*
X65541Y25675D01*
X66101Y24707D01*
X66892Y23916D01*
X67860Y23356D01*
X68941Y23067D01*
X70059D01*
X71140Y23356D01*
X72108Y23916D01*
X72899Y24707D01*
X73458Y25675D01*
X73748Y26756D01*
Y27874D01*
X73458Y28955D01*
X72899Y29923D01*
X72108Y30714D01*
X71140Y31273D01*
X70059Y31563D01*
D02*
G37*
%LPD*%
D32*
X21911Y60405D02*
D03*
Y40720D02*
D03*
D33*
X11281Y64342D02*
D03*
Y36783D02*
D03*
D34*
X69500Y27315D02*
D03*
Y37157D02*
D03*
Y47000D02*
D03*
Y56842D02*
D03*
D35*
Y66685D02*
D03*
D36*
X59055Y82677D02*
D03*
Y59055D02*
D03*
Y35433D02*
D03*
X64961Y23622D02*
D03*
X59055Y11811D02*
D03*
X53150Y70866D02*
D03*
X47244Y59055D02*
D03*
X53150Y47244D02*
D03*
X47244Y35433D02*
D03*
X53150Y23622D02*
D03*
X41339Y70866D02*
D03*
X35433Y59055D02*
D03*
X41339Y47244D02*
D03*
X35433Y35433D02*
D03*
X41339Y23622D02*
D03*
X35433Y11811D02*
D03*
X29528Y70866D02*
D03*
Y47244D02*
D03*
X23622Y35433D02*
D03*
X29528Y23622D02*
D03*
X11811Y82677D02*
D03*
X17717Y70866D02*
D03*
Y23622D02*
D03*
X11811Y11811D02*
D03*
M02*
