G04*
G04 #@! TF.GenerationSoftware,Altium Limited,Altium Designer,23.10.1 (27)*
G04*
G04 Layer_Color=32896*
%FSLAX25Y25*%
%MOIN*%
G70*
G04*
G04 #@! TF.SameCoordinates,FFBA53F6-91E3-44B8-98AB-023B85DF69A1*
G04*
G04*
G04 #@! TF.FilePolarity,Positive*
G04*
G01*
G75*
G36*
X40440Y68494D02*
X40546D01*
X40640Y68489D01*
X40729Y68483D01*
X40807Y68478D01*
X40879Y68472D01*
X40946Y68461D01*
X41001Y68456D01*
X41051Y68450D01*
X41095Y68445D01*
X41129Y68439D01*
X41156Y68433D01*
X41173D01*
X41184Y68428D01*
X41190D01*
X41273Y68400D01*
X41351Y68372D01*
X41423Y68334D01*
X41484Y68300D01*
X41539Y68267D01*
X41584Y68239D01*
X41606Y68217D01*
X41617Y68211D01*
X41689Y68145D01*
X41756Y68073D01*
X41811Y67995D01*
X41861Y67923D01*
X41900Y67862D01*
X41928Y67806D01*
X41945Y67773D01*
X41950Y67767D01*
Y67762D01*
X41972Y67706D01*
X41989Y67645D01*
X42022Y67507D01*
X42044Y67368D01*
X42055Y67235D01*
X42061Y67174D01*
X42067Y67112D01*
Y67063D01*
X42072Y67013D01*
Y66924D01*
X42067Y66763D01*
X42055Y66619D01*
X42033Y66491D01*
X42011Y66386D01*
X42006Y66341D01*
X41995Y66297D01*
X41983Y66263D01*
X41972Y66236D01*
X41967Y66213D01*
X41961Y66197D01*
X41956Y66191D01*
Y66186D01*
X41911Y66086D01*
X41856Y65997D01*
X41806Y65919D01*
X41756Y65853D01*
X41711Y65803D01*
X41678Y65764D01*
X41656Y65742D01*
X41645Y65736D01*
X41567Y65675D01*
X41484Y65625D01*
X41406Y65586D01*
X41328Y65553D01*
X41262Y65531D01*
X41206Y65514D01*
X41190Y65509D01*
X41173D01*
X41168Y65503D01*
X41162D01*
X41101Y65492D01*
X41034Y65481D01*
X40962Y65470D01*
X40890Y65464D01*
X40723Y65453D01*
X40563Y65442D01*
X40490D01*
X40418D01*
X40352Y65436D01*
X40296D01*
X40252D01*
X40213D01*
X40191D01*
X40185D01*
X38159D01*
Y66213D01*
X40291D01*
X40374D01*
X40452D01*
X40524Y66219D01*
X40590D01*
X40646Y66224D01*
X40701D01*
X40751Y66230D01*
X40796D01*
X40862Y66241D01*
X40912Y66247D01*
X40940Y66252D01*
X40951D01*
X41023Y66269D01*
X41084Y66297D01*
X41140Y66330D01*
X41190Y66363D01*
X41229Y66397D01*
X41256Y66424D01*
X41273Y66447D01*
X41278Y66452D01*
X41323Y66519D01*
X41356Y66602D01*
X41378Y66680D01*
X41395Y66763D01*
X41406Y66835D01*
X41412Y66891D01*
Y66946D01*
X41406Y67063D01*
X41390Y67163D01*
X41367Y67251D01*
X41340Y67329D01*
X41317Y67384D01*
X41295Y67429D01*
X41278Y67451D01*
X41273Y67462D01*
X41217Y67523D01*
X41151Y67573D01*
X41090Y67618D01*
X41029Y67645D01*
X40973Y67668D01*
X40929Y67684D01*
X40901Y67695D01*
X40890D01*
X40857Y67701D01*
X40823Y67706D01*
X40779D01*
X40729Y67712D01*
X40624Y67717D01*
X40513D01*
X40413Y67723D01*
X40368D01*
X40324D01*
X40291D01*
X40268D01*
X40252D01*
X40246D01*
X38159D01*
Y68500D01*
X40213D01*
X40330D01*
X40440Y68494D01*
D02*
G37*
G36*
X40868Y64804D02*
X40979Y64781D01*
X41084Y64748D01*
X41179Y64720D01*
X41267Y64682D01*
X41351Y64643D01*
X41423Y64604D01*
X41489Y64565D01*
X41545Y64526D01*
X41595Y64487D01*
X41639Y64454D01*
X41678Y64421D01*
X41706Y64399D01*
X41723Y64376D01*
X41734Y64365D01*
X41739Y64360D01*
X41800Y64282D01*
X41850Y64199D01*
X41895Y64110D01*
X41933Y64016D01*
X41961Y63927D01*
X41989Y63832D01*
X42028Y63649D01*
X42044Y63566D01*
X42055Y63488D01*
X42061Y63422D01*
X42067Y63361D01*
X42072Y63311D01*
Y63239D01*
X42067Y63061D01*
X42050Y62900D01*
X42028Y62756D01*
X42017Y62695D01*
X42000Y62634D01*
X41989Y62584D01*
X41978Y62539D01*
X41967Y62501D01*
X41956Y62467D01*
X41945Y62439D01*
X41939Y62423D01*
X41933Y62412D01*
Y62406D01*
X41872Y62284D01*
X41806Y62184D01*
X41739Y62090D01*
X41667Y62018D01*
X41606Y61962D01*
X41550Y61918D01*
X41517Y61896D01*
X41512Y61884D01*
X41506D01*
X41395Y61823D01*
X41290Y61773D01*
X41184Y61740D01*
X41084Y61718D01*
X41007Y61707D01*
X40968Y61701D01*
X40940Y61696D01*
X40918D01*
X40901D01*
X40890D01*
X40885D01*
X40751Y61701D01*
X40635Y61718D01*
X40529Y61746D01*
X40440Y61773D01*
X40368Y61801D01*
X40318Y61829D01*
X40285Y61846D01*
X40274Y61851D01*
X40185Y61912D01*
X40108Y61984D01*
X40041Y62056D01*
X39985Y62123D01*
X39941Y62184D01*
X39908Y62234D01*
X39886Y62267D01*
X39880Y62273D01*
Y62278D01*
X39852Y62334D01*
X39824Y62389D01*
X39775Y62523D01*
X39730Y62661D01*
X39686Y62795D01*
X39669Y62856D01*
X39652Y62917D01*
X39636Y62972D01*
X39625Y63017D01*
X39614Y63055D01*
X39608Y63083D01*
X39602Y63105D01*
Y63111D01*
X39575Y63211D01*
X39553Y63300D01*
X39530Y63383D01*
X39508Y63461D01*
X39486Y63522D01*
X39464Y63583D01*
X39441Y63633D01*
X39425Y63677D01*
X39408Y63716D01*
X39391Y63744D01*
X39380Y63771D01*
X39369Y63788D01*
X39353Y63816D01*
X39347Y63821D01*
X39308Y63860D01*
X39269Y63888D01*
X39231Y63905D01*
X39192Y63916D01*
X39164Y63927D01*
X39136Y63932D01*
X39120D01*
X39114D01*
X39059Y63927D01*
X39014Y63916D01*
X38970Y63894D01*
X38936Y63871D01*
X38909Y63849D01*
X38892Y63827D01*
X38881Y63816D01*
X38875Y63810D01*
X38825Y63733D01*
X38792Y63649D01*
X38764Y63560D01*
X38748Y63477D01*
X38737Y63405D01*
X38731Y63344D01*
Y63289D01*
X38737Y63172D01*
X38753Y63072D01*
X38776Y62989D01*
X38798Y62922D01*
X38820Y62867D01*
X38842Y62828D01*
X38859Y62806D01*
X38864Y62800D01*
X38920Y62745D01*
X38986Y62695D01*
X39053Y62656D01*
X39125Y62628D01*
X39186Y62606D01*
X39236Y62595D01*
X39275Y62584D01*
X39281D01*
X39286D01*
X39258Y61807D01*
X39158Y61812D01*
X39070Y61829D01*
X38981Y61851D01*
X38903Y61879D01*
X38825Y61907D01*
X38753Y61940D01*
X38692Y61973D01*
X38631Y62006D01*
X38581Y62045D01*
X38537Y62079D01*
X38498Y62112D01*
X38465Y62140D01*
X38443Y62162D01*
X38426Y62179D01*
X38415Y62190D01*
X38409Y62195D01*
X38354Y62267D01*
X38304Y62345D01*
X38259Y62428D01*
X38221Y62517D01*
X38193Y62606D01*
X38165Y62695D01*
X38126Y62872D01*
X38115Y62956D01*
X38104Y63028D01*
X38098Y63100D01*
X38093Y63161D01*
X38087Y63211D01*
Y63278D01*
X38093Y63438D01*
X38109Y63583D01*
X38132Y63710D01*
X38154Y63821D01*
X38170Y63871D01*
X38182Y63916D01*
X38193Y63949D01*
X38204Y63982D01*
X38215Y64004D01*
X38221Y64021D01*
X38226Y64032D01*
Y64038D01*
X38282Y64149D01*
X38343Y64243D01*
X38409Y64326D01*
X38470Y64393D01*
X38526Y64448D01*
X38570Y64482D01*
X38603Y64510D01*
X38609Y64515D01*
X38614D01*
X38709Y64571D01*
X38809Y64609D01*
X38903Y64637D01*
X38986Y64654D01*
X39059Y64665D01*
X39114Y64676D01*
X39136D01*
X39153D01*
X39158D01*
X39164D01*
X39247Y64670D01*
X39331Y64659D01*
X39403Y64643D01*
X39475Y64621D01*
X39608Y64565D01*
X39724Y64499D01*
X39775Y64471D01*
X39813Y64437D01*
X39852Y64410D01*
X39886Y64382D01*
X39908Y64360D01*
X39924Y64343D01*
X39935Y64332D01*
X39941Y64326D01*
X39980Y64276D01*
X40019Y64215D01*
X40058Y64154D01*
X40091Y64082D01*
X40157Y63943D01*
X40213Y63799D01*
X40235Y63727D01*
X40257Y63666D01*
X40274Y63605D01*
X40291Y63555D01*
X40302Y63516D01*
X40313Y63483D01*
X40318Y63461D01*
Y63455D01*
X40341Y63366D01*
X40363Y63289D01*
X40379Y63216D01*
X40396Y63150D01*
X40413Y63094D01*
X40424Y63044D01*
X40440Y63000D01*
X40452Y62961D01*
X40457Y62928D01*
X40468Y62900D01*
X40479Y62861D01*
X40490Y62839D01*
Y62833D01*
X40518Y62761D01*
X40546Y62706D01*
X40574Y62656D01*
X40601Y62617D01*
X40624Y62589D01*
X40640Y62573D01*
X40651Y62562D01*
X40657Y62556D01*
X40696Y62528D01*
X40735Y62506D01*
X40773Y62495D01*
X40807Y62484D01*
X40840Y62478D01*
X40868Y62473D01*
X40885D01*
X40890D01*
X40968Y62478D01*
X41034Y62501D01*
X41101Y62534D01*
X41156Y62567D01*
X41201Y62606D01*
X41234Y62634D01*
X41256Y62656D01*
X41262Y62667D01*
X41312Y62745D01*
X41351Y62833D01*
X41378Y62928D01*
X41395Y63017D01*
X41406Y63100D01*
X41417Y63166D01*
Y63227D01*
X41412Y63355D01*
X41390Y63466D01*
X41362Y63560D01*
X41328Y63644D01*
X41295Y63710D01*
X41267Y63755D01*
X41245Y63783D01*
X41240Y63794D01*
X41162Y63866D01*
X41079Y63921D01*
X40984Y63971D01*
X40890Y64004D01*
X40807Y64032D01*
X40740Y64055D01*
X40718Y64060D01*
X40696D01*
X40685Y64066D01*
X40679D01*
X40751Y64820D01*
X40868Y64804D01*
D02*
G37*
G36*
X42000Y59370D02*
X41995Y59276D01*
Y59109D01*
X41989Y59043D01*
Y58937D01*
X41983Y58899D01*
Y58843D01*
X41978Y58821D01*
Y58799D01*
X41961Y58688D01*
X41933Y58588D01*
X41906Y58499D01*
X41872Y58421D01*
X41845Y58360D01*
X41817Y58316D01*
X41800Y58288D01*
X41795Y58277D01*
X41734Y58199D01*
X41667Y58138D01*
X41606Y58077D01*
X41539Y58033D01*
X41484Y57994D01*
X41440Y57966D01*
X41412Y57950D01*
X41401Y57944D01*
X41306Y57905D01*
X41217Y57872D01*
X41129Y57850D01*
X41051Y57838D01*
X40984Y57827D01*
X40934Y57822D01*
X40901D01*
X40896D01*
X40890D01*
X40768Y57827D01*
X40657Y57850D01*
X40563Y57883D01*
X40474Y57916D01*
X40407Y57950D01*
X40357Y57983D01*
X40324Y58005D01*
X40313Y58011D01*
X40224Y58088D01*
X40152Y58171D01*
X40091Y58266D01*
X40046Y58349D01*
X40008Y58427D01*
X39980Y58493D01*
X39974Y58516D01*
X39969Y58532D01*
X39963Y58543D01*
Y58549D01*
X39913Y58460D01*
X39863Y58382D01*
X39802Y58316D01*
X39752Y58260D01*
X39702Y58221D01*
X39663Y58188D01*
X39636Y58166D01*
X39625Y58160D01*
X39536Y58110D01*
X39453Y58072D01*
X39369Y58049D01*
X39292Y58027D01*
X39225Y58016D01*
X39175Y58011D01*
X39142D01*
X39136D01*
X39131D01*
X39042Y58016D01*
X38953Y58027D01*
X38881Y58049D01*
X38814Y58072D01*
X38759Y58094D01*
X38714Y58116D01*
X38692Y58127D01*
X38681Y58133D01*
X38609Y58177D01*
X38548Y58227D01*
X38492Y58277D01*
X38443Y58321D01*
X38409Y58366D01*
X38381Y58399D01*
X38365Y58421D01*
X38359Y58427D01*
X38315Y58493D01*
X38282Y58565D01*
X38254Y58632D01*
X38232Y58693D01*
X38215Y58749D01*
X38204Y58788D01*
X38198Y58815D01*
Y58826D01*
X38187Y58921D01*
X38176Y59026D01*
X38170Y59137D01*
X38165Y59248D01*
X38159Y59348D01*
Y61035D01*
X42000D01*
Y59370D01*
D02*
G37*
G36*
X43060Y54542D02*
X42583D01*
Y57605D01*
X43060D01*
Y54542D01*
D02*
G37*
G36*
X42000Y53748D02*
X41129Y53432D01*
Y51889D01*
X42000Y51556D01*
Y50718D01*
X38159Y52261D01*
Y53082D01*
X42000Y54570D01*
Y53748D01*
D02*
G37*
G36*
Y48847D02*
X41995Y48698D01*
X41989Y48559D01*
X41978Y48442D01*
X41961Y48348D01*
X41945Y48270D01*
X41933Y48209D01*
X41928Y48193D01*
Y48176D01*
X41922Y48170D01*
Y48165D01*
X41878Y48043D01*
X41828Y47932D01*
X41778Y47843D01*
X41728Y47765D01*
X41684Y47704D01*
X41650Y47660D01*
X41628Y47632D01*
X41617Y47621D01*
X41512Y47527D01*
X41401Y47443D01*
X41284Y47371D01*
X41179Y47316D01*
X41079Y47271D01*
X41040Y47249D01*
X41007Y47238D01*
X40973Y47227D01*
X40951Y47216D01*
X40940Y47210D01*
X40934D01*
X40801Y47171D01*
X40663Y47138D01*
X40529Y47116D01*
X40402Y47105D01*
X40341Y47099D01*
X40285Y47094D01*
X40241D01*
X40196Y47088D01*
X40163D01*
X40141D01*
X40124D01*
X40119D01*
X39924Y47094D01*
X39752Y47110D01*
X39669Y47116D01*
X39597Y47127D01*
X39525Y47138D01*
X39464Y47149D01*
X39408Y47166D01*
X39358Y47177D01*
X39314Y47188D01*
X39281Y47194D01*
X39253Y47205D01*
X39231Y47210D01*
X39219Y47216D01*
X39214D01*
X39081Y47266D01*
X38959Y47327D01*
X38853Y47388D01*
X38764Y47449D01*
X38692Y47499D01*
X38637Y47543D01*
X38603Y47571D01*
X38592Y47576D01*
Y47582D01*
X38504Y47676D01*
X38431Y47771D01*
X38370Y47871D01*
X38320Y47960D01*
X38282Y48037D01*
X38254Y48104D01*
X38248Y48126D01*
X38243Y48143D01*
X38237Y48154D01*
Y48159D01*
X38209Y48265D01*
X38193Y48381D01*
X38176Y48503D01*
X38170Y48620D01*
X38165Y48725D01*
X38159Y48770D01*
Y50302D01*
X42000D01*
Y48847D01*
D02*
G37*
G36*
Y46000D02*
X41129Y45684D01*
Y44141D01*
X42000Y43808D01*
Y42970D01*
X38159Y44513D01*
Y45334D01*
X42000Y46822D01*
Y46000D01*
D02*
G37*
G36*
Y41777D02*
X40551D01*
Y41089D01*
X40546Y41005D01*
Y40928D01*
X40540Y40856D01*
X40535Y40789D01*
X40529Y40728D01*
X40524Y40678D01*
Y40628D01*
X40518Y40589D01*
X40513Y40550D01*
X40507Y40523D01*
Y40500D01*
X40501Y40484D01*
Y40472D01*
X40479Y40395D01*
X40452Y40323D01*
X40424Y40256D01*
X40391Y40195D01*
X40363Y40145D01*
X40341Y40106D01*
X40324Y40084D01*
X40318Y40073D01*
X40263Y40001D01*
X40202Y39940D01*
X40135Y39879D01*
X40080Y39834D01*
X40024Y39795D01*
X39980Y39768D01*
X39952Y39751D01*
X39941Y39746D01*
X39847Y39701D01*
X39747Y39668D01*
X39641Y39646D01*
X39547Y39629D01*
X39469Y39618D01*
X39430D01*
X39403Y39612D01*
X39375D01*
X39358D01*
X39347D01*
X39342D01*
X39181Y39623D01*
X39031Y39646D01*
X38909Y39684D01*
X38798Y39723D01*
X38753Y39746D01*
X38714Y39768D01*
X38681Y39784D01*
X38648Y39807D01*
X38626Y39818D01*
X38609Y39829D01*
X38603Y39840D01*
X38598D01*
X38498Y39929D01*
X38415Y40017D01*
X38348Y40112D01*
X38298Y40195D01*
X38265Y40273D01*
X38237Y40334D01*
X38232Y40356D01*
X38226Y40373D01*
X38221Y40384D01*
Y40389D01*
X38209Y40434D01*
X38198Y40489D01*
X38193Y40556D01*
X38187Y40622D01*
X38176Y40778D01*
X38165Y40933D01*
Y41078D01*
X38159Y41138D01*
Y42554D01*
X42000D01*
Y41777D01*
D02*
G37*
G36*
X38809Y38108D02*
X42000D01*
Y37331D01*
X38809D01*
Y36199D01*
X38159D01*
Y39246D01*
X38809D01*
Y38108D01*
D02*
G37*
G36*
X42000Y32775D02*
X41351D01*
Y34917D01*
X40307D01*
Y32991D01*
X39658D01*
Y34917D01*
X38809D01*
Y32847D01*
X38159D01*
Y35694D01*
X42000D01*
Y32775D01*
D02*
G37*
G36*
Y31337D02*
X40396D01*
Y31087D01*
X40402Y31010D01*
X40407Y30943D01*
X40418Y30888D01*
X40424Y30843D01*
X40435Y30816D01*
X40440Y30799D01*
Y30793D01*
X40463Y30749D01*
X40485Y30705D01*
X40513Y30666D01*
X40535Y30627D01*
X40563Y30599D01*
X40585Y30577D01*
X40596Y30566D01*
X40601Y30560D01*
X40629Y30538D01*
X40657Y30510D01*
X40740Y30449D01*
X40829Y30383D01*
X40929Y30310D01*
X41018Y30249D01*
X41062Y30222D01*
X41095Y30200D01*
X41123Y30177D01*
X41145Y30161D01*
X41162Y30155D01*
X41168Y30149D01*
X42000Y29594D01*
Y28662D01*
X41251Y29134D01*
X41173Y29184D01*
X41095Y29234D01*
X41029Y29278D01*
X40968Y29323D01*
X40912Y29361D01*
X40857Y29395D01*
X40773Y29461D01*
X40707Y29511D01*
X40663Y29545D01*
X40635Y29572D01*
X40629Y29578D01*
X40563Y29639D01*
X40501Y29711D01*
X40452Y29778D01*
X40402Y29844D01*
X40363Y29900D01*
X40335Y29944D01*
X40313Y29978D01*
X40307Y29983D01*
Y29989D01*
X40291Y29894D01*
X40268Y29811D01*
X40246Y29733D01*
X40218Y29656D01*
X40191Y29589D01*
X40163Y29528D01*
X40135Y29467D01*
X40102Y29417D01*
X40074Y29373D01*
X40046Y29334D01*
X40019Y29300D01*
X39996Y29278D01*
X39980Y29256D01*
X39963Y29239D01*
X39958Y29234D01*
X39952Y29228D01*
X39897Y29184D01*
X39841Y29145D01*
X39719Y29078D01*
X39602Y29034D01*
X39486Y29006D01*
X39386Y28984D01*
X39347Y28978D01*
X39308D01*
X39281Y28973D01*
X39253D01*
X39242D01*
X39236D01*
X39114Y28978D01*
X38998Y29001D01*
X38898Y29028D01*
X38809Y29056D01*
X38737Y29089D01*
X38681Y29117D01*
X38664Y29128D01*
X38648Y29139D01*
X38642Y29145D01*
X38637D01*
X38542Y29212D01*
X38465Y29284D01*
X38404Y29356D01*
X38348Y29428D01*
X38315Y29495D01*
X38287Y29545D01*
X38270Y29578D01*
X38265Y29583D01*
Y29589D01*
X38248Y29645D01*
X38232Y29706D01*
X38204Y29844D01*
X38187Y29994D01*
X38170Y30138D01*
Y30211D01*
X38165Y30272D01*
Y30333D01*
X38159Y30383D01*
Y32114D01*
X42000D01*
Y31337D01*
D02*
G37*
G36*
X31440Y70995D02*
X31546D01*
X31640Y70989D01*
X31729Y70983D01*
X31807Y70978D01*
X31879Y70972D01*
X31945Y70961D01*
X32001Y70956D01*
X32051Y70950D01*
X32095Y70944D01*
X32129Y70939D01*
X32156Y70933D01*
X32173D01*
X32184Y70928D01*
X32190D01*
X32273Y70900D01*
X32351Y70872D01*
X32423Y70833D01*
X32484Y70800D01*
X32539Y70767D01*
X32584Y70739D01*
X32606Y70717D01*
X32617Y70711D01*
X32689Y70645D01*
X32756Y70573D01*
X32811Y70495D01*
X32861Y70423D01*
X32900Y70362D01*
X32928Y70306D01*
X32945Y70273D01*
X32950Y70267D01*
Y70262D01*
X32972Y70206D01*
X32989Y70145D01*
X33022Y70007D01*
X33044Y69868D01*
X33055Y69735D01*
X33061Y69674D01*
X33067Y69612D01*
Y69563D01*
X33072Y69513D01*
Y69424D01*
X33067Y69263D01*
X33055Y69119D01*
X33033Y68991D01*
X33011Y68885D01*
X33006Y68841D01*
X32994Y68797D01*
X32983Y68763D01*
X32972Y68736D01*
X32967Y68713D01*
X32961Y68697D01*
X32956Y68691D01*
Y68686D01*
X32911Y68586D01*
X32856Y68497D01*
X32806Y68419D01*
X32756Y68353D01*
X32711Y68303D01*
X32678Y68264D01*
X32656Y68242D01*
X32645Y68236D01*
X32567Y68175D01*
X32484Y68125D01*
X32406Y68086D01*
X32329Y68053D01*
X32262Y68031D01*
X32206Y68014D01*
X32190Y68009D01*
X32173D01*
X32168Y68003D01*
X32162D01*
X32101Y67992D01*
X32034Y67981D01*
X31962Y67970D01*
X31890Y67964D01*
X31723Y67953D01*
X31563Y67942D01*
X31490D01*
X31418D01*
X31352Y67936D01*
X31296D01*
X31252D01*
X31213D01*
X31191D01*
X31185D01*
X29159D01*
Y68713D01*
X31291D01*
X31374D01*
X31452D01*
X31524Y68719D01*
X31590D01*
X31646Y68725D01*
X31701D01*
X31751Y68730D01*
X31796D01*
X31862Y68741D01*
X31912Y68747D01*
X31940Y68752D01*
X31951D01*
X32023Y68769D01*
X32084Y68797D01*
X32140Y68830D01*
X32190Y68863D01*
X32229Y68897D01*
X32256Y68924D01*
X32273Y68946D01*
X32278Y68952D01*
X32323Y69019D01*
X32356Y69102D01*
X32378Y69180D01*
X32395Y69263D01*
X32406Y69335D01*
X32412Y69390D01*
Y69446D01*
X32406Y69563D01*
X32390Y69662D01*
X32367Y69751D01*
X32340Y69829D01*
X32317Y69885D01*
X32295Y69929D01*
X32278Y69951D01*
X32273Y69962D01*
X32217Y70023D01*
X32151Y70073D01*
X32090Y70118D01*
X32029Y70145D01*
X31973Y70167D01*
X31929Y70184D01*
X31901Y70195D01*
X31890D01*
X31857Y70201D01*
X31823Y70206D01*
X31779D01*
X31729Y70212D01*
X31624Y70218D01*
X31513D01*
X31413Y70223D01*
X31368D01*
X31324D01*
X31291D01*
X31268D01*
X31252D01*
X31246D01*
X29159D01*
Y71000D01*
X31213D01*
X31330D01*
X31440Y70995D01*
D02*
G37*
G36*
X33000Y64390D02*
X32351D01*
Y66321D01*
X29187D01*
Y67098D01*
X33000D01*
Y64390D01*
D02*
G37*
G36*
Y63058D02*
X31552D01*
Y62370D01*
X31546Y62287D01*
Y62209D01*
X31540Y62137D01*
X31535Y62070D01*
X31529Y62009D01*
X31524Y61959D01*
Y61909D01*
X31518Y61870D01*
X31513Y61831D01*
X31507Y61804D01*
Y61782D01*
X31501Y61765D01*
Y61754D01*
X31479Y61676D01*
X31452Y61604D01*
X31424Y61537D01*
X31391Y61476D01*
X31363Y61426D01*
X31341Y61387D01*
X31324Y61365D01*
X31318Y61354D01*
X31263Y61282D01*
X31202Y61221D01*
X31135Y61160D01*
X31080Y61115D01*
X31024Y61077D01*
X30980Y61049D01*
X30952Y61032D01*
X30941Y61027D01*
X30847Y60982D01*
X30747Y60949D01*
X30641Y60927D01*
X30547Y60910D01*
X30469Y60899D01*
X30430D01*
X30403Y60893D01*
X30375D01*
X30358D01*
X30347D01*
X30342D01*
X30181Y60905D01*
X30031Y60927D01*
X29909Y60966D01*
X29798Y61005D01*
X29753Y61027D01*
X29714Y61049D01*
X29681Y61066D01*
X29648Y61088D01*
X29626Y61099D01*
X29609Y61110D01*
X29603Y61121D01*
X29598D01*
X29498Y61210D01*
X29415Y61299D01*
X29348Y61393D01*
X29298Y61476D01*
X29265Y61554D01*
X29237Y61615D01*
X29232Y61637D01*
X29226Y61654D01*
X29221Y61665D01*
Y61671D01*
X29209Y61715D01*
X29198Y61770D01*
X29193Y61837D01*
X29187Y61904D01*
X29176Y62059D01*
X29165Y62214D01*
Y62359D01*
X29159Y62420D01*
Y63835D01*
X33000D01*
Y63058D01*
D02*
G37*
G36*
X34060Y57636D02*
X33583D01*
Y60699D01*
X34060D01*
Y57636D01*
D02*
G37*
G36*
X33000Y54544D02*
X32351D01*
Y56476D01*
X29187D01*
Y57253D01*
X33000D01*
Y54544D01*
D02*
G37*
G36*
X31274Y54145D02*
X31435Y54128D01*
X31585Y54106D01*
X31723Y54072D01*
X31851Y54034D01*
X31968Y53989D01*
X32079Y53945D01*
X32173Y53895D01*
X32262Y53851D01*
X32334Y53806D01*
X32401Y53762D01*
X32456Y53723D01*
X32495Y53690D01*
X32528Y53667D01*
X32545Y53651D01*
X32550Y53645D01*
X32645Y53545D01*
X32722Y53440D01*
X32795Y53334D01*
X32850Y53218D01*
X32900Y53107D01*
X32945Y52990D01*
X32978Y52885D01*
X33006Y52774D01*
X33028Y52674D01*
X33044Y52580D01*
X33055Y52496D01*
X33061Y52424D01*
X33067Y52369D01*
X33072Y52324D01*
Y52285D01*
X33067Y52130D01*
X33050Y51986D01*
X33022Y51847D01*
X32989Y51719D01*
X32950Y51597D01*
X32906Y51486D01*
X32861Y51386D01*
X32811Y51292D01*
X32761Y51214D01*
X32717Y51142D01*
X32673Y51081D01*
X32634Y51031D01*
X32600Y50987D01*
X32573Y50959D01*
X32556Y50942D01*
X32550Y50937D01*
X32445Y50848D01*
X32334Y50770D01*
X32217Y50698D01*
X32101Y50643D01*
X31979Y50593D01*
X31857Y50548D01*
X31735Y50515D01*
X31618Y50487D01*
X31513Y50471D01*
X31407Y50454D01*
X31318Y50443D01*
X31241Y50432D01*
X31174D01*
X31124Y50426D01*
X31096D01*
X31085D01*
X30913Y50432D01*
X30752Y50448D01*
X30602Y50471D01*
X30458Y50504D01*
X30331Y50543D01*
X30208Y50587D01*
X30097Y50631D01*
X30003Y50682D01*
X29914Y50731D01*
X29836Y50776D01*
X29770Y50820D01*
X29714Y50859D01*
X29676Y50887D01*
X29642Y50915D01*
X29626Y50931D01*
X29620Y50937D01*
X29526Y51037D01*
X29443Y51142D01*
X29370Y51253D01*
X29309Y51364D01*
X29259Y51481D01*
X29215Y51592D01*
X29182Y51703D01*
X29154Y51808D01*
X29132Y51908D01*
X29115Y52002D01*
X29104Y52086D01*
X29093Y52158D01*
Y52213D01*
X29087Y52258D01*
Y52297D01*
X29093Y52463D01*
X29109Y52624D01*
X29137Y52763D01*
X29165Y52885D01*
X29182Y52935D01*
X29193Y52985D01*
X29204Y53024D01*
X29221Y53057D01*
X29226Y53085D01*
X29237Y53107D01*
X29243Y53118D01*
Y53123D01*
X29287Y53223D01*
X29343Y53318D01*
X29404Y53401D01*
X29459Y53473D01*
X29509Y53534D01*
X29553Y53584D01*
X29581Y53612D01*
X29587Y53617D01*
X29592Y53623D01*
X29681Y53701D01*
X29776Y53773D01*
X29859Y53834D01*
X29942Y53884D01*
X30014Y53923D01*
X30070Y53956D01*
X30092Y53961D01*
X30108Y53973D01*
X30114Y53978D01*
X30120D01*
X30275Y54034D01*
X30441Y54078D01*
X30608Y54106D01*
X30763Y54128D01*
X30836Y54134D01*
X30902Y54139D01*
X30958Y54145D01*
X31008D01*
X31052Y54150D01*
X31080D01*
X31102D01*
X31108D01*
X31274Y54145D01*
D02*
G37*
G36*
Y49943D02*
X31463Y49921D01*
X31635Y49882D01*
X31718Y49866D01*
X31790Y49843D01*
X31857Y49821D01*
X31918Y49805D01*
X31968Y49782D01*
X32012Y49766D01*
X32045Y49755D01*
X32073Y49744D01*
X32090Y49732D01*
X32095D01*
X32262Y49638D01*
X32406Y49533D01*
X32534Y49422D01*
X32634Y49311D01*
X32678Y49261D01*
X32717Y49211D01*
X32750Y49172D01*
X32772Y49133D01*
X32795Y49105D01*
X32811Y49077D01*
X32817Y49066D01*
X32822Y49061D01*
X32867Y48972D01*
X32906Y48889D01*
X32967Y48706D01*
X33011Y48528D01*
X33039Y48367D01*
X33050Y48289D01*
X33061Y48223D01*
X33067Y48162D01*
Y48106D01*
X33072Y48067D01*
Y48006D01*
X33067Y47829D01*
X33044Y47662D01*
X33017Y47501D01*
X32983Y47363D01*
X32967Y47302D01*
X32950Y47246D01*
X32933Y47196D01*
X32922Y47152D01*
X32911Y47118D01*
X32900Y47096D01*
X32895Y47080D01*
Y47074D01*
X32828Y46907D01*
X32756Y46769D01*
X32684Y46647D01*
X32623Y46541D01*
X32567Y46464D01*
X32545Y46436D01*
X32523Y46408D01*
X32506Y46391D01*
X32495Y46375D01*
X32484Y46364D01*
X30941D01*
Y48034D01*
X31590D01*
Y47146D01*
X32084D01*
X32134Y47213D01*
X32179Y47285D01*
X32217Y47357D01*
X32251Y47424D01*
X32278Y47479D01*
X32301Y47529D01*
X32312Y47557D01*
X32317Y47562D01*
Y47568D01*
X32351Y47657D01*
X32373Y47745D01*
X32390Y47829D01*
X32401Y47901D01*
X32406Y47967D01*
X32412Y48012D01*
Y48056D01*
X32406Y48145D01*
X32395Y48234D01*
X32378Y48312D01*
X32356Y48389D01*
X32301Y48528D01*
X32273Y48584D01*
X32240Y48639D01*
X32206Y48689D01*
X32179Y48733D01*
X32145Y48767D01*
X32123Y48800D01*
X32101Y48822D01*
X32084Y48839D01*
X32073Y48850D01*
X32068Y48856D01*
X32001Y48906D01*
X31923Y48955D01*
X31846Y48994D01*
X31762Y49028D01*
X31590Y49083D01*
X31424Y49116D01*
X31346Y49128D01*
X31268Y49139D01*
X31207Y49144D01*
X31146Y49150D01*
X31102Y49155D01*
X31063D01*
X31041D01*
X31035D01*
X30919Y49150D01*
X30813Y49144D01*
X30708Y49128D01*
X30613Y49111D01*
X30530Y49089D01*
X30453Y49061D01*
X30380Y49033D01*
X30314Y49005D01*
X30258Y48983D01*
X30208Y48955D01*
X30169Y48928D01*
X30136Y48906D01*
X30108Y48889D01*
X30092Y48872D01*
X30081Y48867D01*
X30075Y48861D01*
X30020Y48800D01*
X29964Y48739D01*
X29925Y48672D01*
X29886Y48606D01*
X29853Y48539D01*
X29825Y48473D01*
X29787Y48345D01*
X29776Y48284D01*
X29764Y48228D01*
X29759Y48178D01*
X29753Y48134D01*
X29748Y48101D01*
Y48051D01*
X29753Y47929D01*
X29776Y47823D01*
X29798Y47729D01*
X29831Y47646D01*
X29859Y47585D01*
X29886Y47535D01*
X29909Y47507D01*
X29914Y47496D01*
X29981Y47418D01*
X30053Y47352D01*
X30125Y47296D01*
X30197Y47257D01*
X30264Y47224D01*
X30314Y47202D01*
X30347Y47190D01*
X30353Y47185D01*
X30358D01*
X30214Y46413D01*
X30120Y46436D01*
X30025Y46469D01*
X29942Y46502D01*
X29864Y46547D01*
X29787Y46586D01*
X29720Y46630D01*
X29659Y46674D01*
X29603Y46719D01*
X29553Y46763D01*
X29509Y46802D01*
X29470Y46835D01*
X29443Y46869D01*
X29420Y46896D01*
X29398Y46919D01*
X29392Y46930D01*
X29387Y46935D01*
X29331Y47013D01*
X29287Y47096D01*
X29248Y47185D01*
X29215Y47279D01*
X29159Y47462D01*
X29126Y47640D01*
X29109Y47723D01*
X29104Y47801D01*
X29098Y47873D01*
X29093Y47934D01*
X29087Y47984D01*
Y48051D01*
X29093Y48251D01*
X29115Y48428D01*
X29132Y48506D01*
X29148Y48584D01*
X29165Y48656D01*
X29182Y48717D01*
X29204Y48772D01*
X29221Y48828D01*
X29237Y48867D01*
X29248Y48906D01*
X29265Y48933D01*
X29270Y48955D01*
X29281Y48967D01*
Y48972D01*
X29381Y49144D01*
X29443Y49216D01*
X29498Y49288D01*
X29559Y49355D01*
X29620Y49416D01*
X29681Y49472D01*
X29737Y49521D01*
X29792Y49560D01*
X29842Y49599D01*
X29886Y49632D01*
X29925Y49660D01*
X29959Y49677D01*
X29981Y49694D01*
X29998Y49699D01*
X30003Y49705D01*
X30092Y49749D01*
X30181Y49788D01*
X30364Y49849D01*
X30547Y49893D01*
X30708Y49921D01*
X30786Y49932D01*
X30852Y49943D01*
X30913Y49949D01*
X30969D01*
X31008Y49954D01*
X31041D01*
X31063D01*
X31069D01*
X31274Y49943D01*
D02*
G37*
G36*
Y45770D02*
X31463Y45748D01*
X31635Y45709D01*
X31718Y45692D01*
X31790Y45670D01*
X31857Y45648D01*
X31918Y45631D01*
X31968Y45609D01*
X32012Y45592D01*
X32045Y45581D01*
X32073Y45570D01*
X32090Y45559D01*
X32095D01*
X32262Y45465D01*
X32406Y45359D01*
X32534Y45248D01*
X32634Y45137D01*
X32678Y45087D01*
X32717Y45037D01*
X32750Y44998D01*
X32772Y44959D01*
X32795Y44932D01*
X32811Y44904D01*
X32817Y44893D01*
X32822Y44887D01*
X32867Y44798D01*
X32906Y44715D01*
X32967Y44532D01*
X33011Y44355D01*
X33039Y44194D01*
X33050Y44116D01*
X33061Y44049D01*
X33067Y43988D01*
Y43933D01*
X33072Y43894D01*
Y43833D01*
X33067Y43655D01*
X33044Y43489D01*
X33017Y43328D01*
X32983Y43189D01*
X32967Y43128D01*
X32950Y43072D01*
X32933Y43023D01*
X32922Y42978D01*
X32911Y42945D01*
X32900Y42923D01*
X32895Y42906D01*
Y42900D01*
X32828Y42734D01*
X32756Y42595D01*
X32684Y42473D01*
X32623Y42368D01*
X32567Y42290D01*
X32545Y42262D01*
X32523Y42234D01*
X32506Y42218D01*
X32495Y42201D01*
X32484Y42190D01*
X30941D01*
Y43861D01*
X31590D01*
Y42972D01*
X32084D01*
X32134Y43039D01*
X32179Y43111D01*
X32217Y43183D01*
X32251Y43250D01*
X32278Y43306D01*
X32301Y43356D01*
X32312Y43383D01*
X32317Y43389D01*
Y43394D01*
X32351Y43483D01*
X32373Y43572D01*
X32390Y43655D01*
X32401Y43727D01*
X32406Y43794D01*
X32412Y43838D01*
Y43883D01*
X32406Y43971D01*
X32395Y44060D01*
X32378Y44138D01*
X32356Y44216D01*
X32301Y44355D01*
X32273Y44410D01*
X32240Y44466D01*
X32206Y44515D01*
X32179Y44560D01*
X32145Y44593D01*
X32123Y44626D01*
X32101Y44649D01*
X32084Y44665D01*
X32073Y44676D01*
X32068Y44682D01*
X32001Y44732D01*
X31923Y44782D01*
X31846Y44821D01*
X31762Y44854D01*
X31590Y44910D01*
X31424Y44943D01*
X31346Y44954D01*
X31268Y44965D01*
X31207Y44971D01*
X31146Y44976D01*
X31102Y44982D01*
X31063D01*
X31041D01*
X31035D01*
X30919Y44976D01*
X30813Y44971D01*
X30708Y44954D01*
X30613Y44937D01*
X30530Y44915D01*
X30453Y44887D01*
X30380Y44859D01*
X30314Y44832D01*
X30258Y44810D01*
X30208Y44782D01*
X30169Y44754D01*
X30136Y44732D01*
X30108Y44715D01*
X30092Y44699D01*
X30081Y44693D01*
X30075Y44688D01*
X30020Y44626D01*
X29964Y44565D01*
X29925Y44499D01*
X29886Y44432D01*
X29853Y44366D01*
X29825Y44299D01*
X29787Y44171D01*
X29776Y44110D01*
X29764Y44055D01*
X29759Y44005D01*
X29753Y43960D01*
X29748Y43927D01*
Y43877D01*
X29753Y43755D01*
X29776Y43650D01*
X29798Y43555D01*
X29831Y43472D01*
X29859Y43411D01*
X29886Y43361D01*
X29909Y43333D01*
X29914Y43322D01*
X29981Y43244D01*
X30053Y43178D01*
X30125Y43122D01*
X30197Y43084D01*
X30264Y43050D01*
X30314Y43028D01*
X30347Y43017D01*
X30353Y43011D01*
X30358D01*
X30214Y42240D01*
X30120Y42262D01*
X30025Y42295D01*
X29942Y42329D01*
X29864Y42373D01*
X29787Y42412D01*
X29720Y42456D01*
X29659Y42501D01*
X29603Y42545D01*
X29553Y42590D01*
X29509Y42628D01*
X29470Y42662D01*
X29443Y42695D01*
X29420Y42723D01*
X29398Y42745D01*
X29392Y42756D01*
X29387Y42762D01*
X29331Y42839D01*
X29287Y42923D01*
X29248Y43011D01*
X29215Y43106D01*
X29159Y43289D01*
X29126Y43466D01*
X29109Y43550D01*
X29104Y43627D01*
X29098Y43700D01*
X29093Y43761D01*
X29087Y43811D01*
Y43877D01*
X29093Y44077D01*
X29115Y44255D01*
X29132Y44332D01*
X29148Y44410D01*
X29165Y44482D01*
X29182Y44543D01*
X29204Y44599D01*
X29221Y44654D01*
X29237Y44693D01*
X29248Y44732D01*
X29265Y44760D01*
X29270Y44782D01*
X29281Y44793D01*
Y44798D01*
X29381Y44971D01*
X29443Y45043D01*
X29498Y45115D01*
X29559Y45181D01*
X29620Y45243D01*
X29681Y45298D01*
X29737Y45348D01*
X29792Y45387D01*
X29842Y45426D01*
X29886Y45459D01*
X29925Y45487D01*
X29959Y45503D01*
X29981Y45520D01*
X29998Y45526D01*
X30003Y45531D01*
X30092Y45575D01*
X30181Y45614D01*
X30364Y45675D01*
X30547Y45720D01*
X30708Y45748D01*
X30786Y45759D01*
X30852Y45770D01*
X30913Y45775D01*
X30969D01*
X31008Y45781D01*
X31041D01*
X31063D01*
X31069D01*
X31274Y45770D01*
D02*
G37*
G36*
X33000Y38549D02*
X32351D01*
Y40692D01*
X31307D01*
Y38766D01*
X30658D01*
Y40692D01*
X29809D01*
Y38621D01*
X29159D01*
Y41469D01*
X33000D01*
Y38549D01*
D02*
G37*
G36*
Y37112D02*
X31396D01*
Y36862D01*
X31402Y36784D01*
X31407Y36718D01*
X31418Y36662D01*
X31424Y36618D01*
X31435Y36590D01*
X31440Y36573D01*
Y36568D01*
X31463Y36523D01*
X31485Y36479D01*
X31513Y36440D01*
X31535Y36401D01*
X31563Y36374D01*
X31585Y36351D01*
X31596Y36340D01*
X31601Y36335D01*
X31629Y36312D01*
X31657Y36285D01*
X31740Y36224D01*
X31829Y36157D01*
X31929Y36085D01*
X32018Y36024D01*
X32062Y35996D01*
X32095Y35974D01*
X32123Y35952D01*
X32145Y35935D01*
X32162Y35930D01*
X32168Y35924D01*
X33000Y35369D01*
Y34437D01*
X32251Y34908D01*
X32173Y34958D01*
X32095Y35008D01*
X32029Y35053D01*
X31968Y35097D01*
X31912Y35136D01*
X31857Y35169D01*
X31773Y35236D01*
X31707Y35286D01*
X31662Y35319D01*
X31635Y35347D01*
X31629Y35352D01*
X31563Y35413D01*
X31501Y35486D01*
X31452Y35552D01*
X31402Y35619D01*
X31363Y35674D01*
X31335Y35719D01*
X31313Y35752D01*
X31307Y35757D01*
Y35763D01*
X31291Y35669D01*
X31268Y35585D01*
X31246Y35508D01*
X31218Y35430D01*
X31191Y35364D01*
X31163Y35302D01*
X31135Y35241D01*
X31102Y35191D01*
X31074Y35147D01*
X31046Y35108D01*
X31019Y35075D01*
X30997Y35053D01*
X30980Y35030D01*
X30963Y35014D01*
X30958Y35008D01*
X30952Y35003D01*
X30897Y34958D01*
X30841Y34920D01*
X30719Y34853D01*
X30602Y34808D01*
X30486Y34781D01*
X30386Y34758D01*
X30347Y34753D01*
X30308D01*
X30281Y34747D01*
X30253D01*
X30242D01*
X30236D01*
X30114Y34753D01*
X29998Y34775D01*
X29898Y34803D01*
X29809Y34831D01*
X29737Y34864D01*
X29681Y34892D01*
X29664Y34903D01*
X29648Y34914D01*
X29642Y34920D01*
X29637D01*
X29542Y34986D01*
X29465Y35058D01*
X29404Y35130D01*
X29348Y35203D01*
X29315Y35269D01*
X29287Y35319D01*
X29270Y35352D01*
X29265Y35358D01*
Y35364D01*
X29248Y35419D01*
X29232Y35480D01*
X29204Y35619D01*
X29187Y35769D01*
X29171Y35913D01*
Y35985D01*
X29165Y36046D01*
Y36107D01*
X29159Y36157D01*
Y37889D01*
X33000D01*
Y37112D01*
D02*
G37*
G36*
X34060Y31395D02*
X33583D01*
Y34459D01*
X34060D01*
Y31395D01*
D02*
G37*
G36*
X33000Y30047D02*
Y29208D01*
X29159Y27843D01*
Y28670D01*
X32001Y29608D01*
X29159Y30585D01*
Y31423D01*
X33000Y30047D01*
D02*
G37*
G36*
X30697Y27222D02*
X30613Y27044D01*
X30569Y26961D01*
X30519Y26883D01*
X30475Y26811D01*
X30430Y26744D01*
X30386Y26683D01*
X30347Y26628D01*
X30314Y26583D01*
X30281Y26544D01*
X30253Y26511D01*
X30236Y26489D01*
X30225Y26478D01*
X30220Y26472D01*
X33000D01*
Y25734D01*
X29137D01*
Y26334D01*
X29265Y26389D01*
X29381Y26461D01*
X29492Y26539D01*
X29581Y26617D01*
X29653Y26683D01*
X29709Y26744D01*
X29731Y26766D01*
X29748Y26783D01*
X29753Y26794D01*
X29759Y26800D01*
X29848Y26922D01*
X29925Y27038D01*
X29986Y27144D01*
X30031Y27238D01*
X30064Y27316D01*
X30092Y27371D01*
X30097Y27394D01*
X30103Y27410D01*
X30108Y27416D01*
Y27421D01*
X30775D01*
X30697Y27222D01*
D02*
G37*
%LPC*%
G36*
X39686Y60258D02*
X38798D01*
Y59487D01*
X38803Y59426D01*
Y59281D01*
X38809Y59248D01*
Y59187D01*
X38814Y59165D01*
Y59159D01*
X38825Y59093D01*
X38842Y59032D01*
X38864Y58982D01*
X38886Y58937D01*
X38909Y58910D01*
X38931Y58882D01*
X38942Y58871D01*
X38947Y58865D01*
X38992Y58832D01*
X39042Y58810D01*
X39086Y58788D01*
X39131Y58776D01*
X39175Y58771D01*
X39208Y58765D01*
X39231D01*
X39236D01*
X39303Y58771D01*
X39364Y58782D01*
X39414Y58804D01*
X39458Y58821D01*
X39497Y58843D01*
X39519Y58865D01*
X39536Y58876D01*
X39541Y58882D01*
X39580Y58926D01*
X39608Y58976D01*
X39630Y59026D01*
X39647Y59076D01*
X39663Y59126D01*
X39669Y59159D01*
X39675Y59182D01*
Y59215D01*
X39680Y59248D01*
Y59420D01*
X39686Y59515D01*
Y60258D01*
D02*
G37*
G36*
X41351D02*
X40324D01*
Y59453D01*
X40330Y59376D01*
X40335Y59309D01*
Y59243D01*
X40341Y59187D01*
X40346Y59137D01*
X40352Y59098D01*
X40357Y59060D01*
X40363Y59032D01*
X40368Y58987D01*
X40379Y58960D01*
Y58954D01*
X40402Y58899D01*
X40429Y58849D01*
X40457Y58804D01*
X40490Y58771D01*
X40513Y58743D01*
X40535Y58727D01*
X40551Y58715D01*
X40557Y58710D01*
X40607Y58682D01*
X40657Y58660D01*
X40701Y58643D01*
X40751Y58632D01*
X40790Y58627D01*
X40823Y58621D01*
X40846D01*
X40851D01*
X40923Y58627D01*
X40990Y58638D01*
X41045Y58654D01*
X41090Y58676D01*
X41129Y58699D01*
X41156Y58715D01*
X41173Y58727D01*
X41179Y58732D01*
X41217Y58776D01*
X41251Y58821D01*
X41278Y58871D01*
X41301Y58915D01*
X41312Y58954D01*
X41323Y58987D01*
X41328Y59009D01*
Y59015D01*
X41334Y59037D01*
Y59071D01*
X41340Y59143D01*
X41345Y59232D01*
Y59320D01*
X41351Y59404D01*
Y60258D01*
D02*
G37*
G36*
X40479Y53199D02*
X39053Y52677D01*
X40479Y52139D01*
Y53199D01*
D02*
G37*
G36*
X41351Y49525D02*
X38809D01*
Y49020D01*
X38814Y48947D01*
Y48881D01*
X38820Y48825D01*
Y48775D01*
X38825Y48725D01*
Y48687D01*
X38837Y48625D01*
X38842Y48581D01*
X38848Y48553D01*
Y48548D01*
X38870Y48470D01*
X38898Y48403D01*
X38925Y48342D01*
X38959Y48287D01*
X38986Y48248D01*
X39009Y48215D01*
X39025Y48198D01*
X39031Y48193D01*
X39086Y48143D01*
X39147Y48098D01*
X39208Y48059D01*
X39264Y48026D01*
X39319Y48004D01*
X39364Y47987D01*
X39391Y47976D01*
X39397Y47971D01*
X39403D01*
X39503Y47943D01*
X39608Y47921D01*
X39724Y47910D01*
X39836Y47898D01*
X39930Y47893D01*
X39974Y47887D01*
X40013D01*
X40041D01*
X40063D01*
X40080D01*
X40085D01*
X40241Y47893D01*
X40385Y47898D01*
X40501Y47915D01*
X40601Y47926D01*
X40685Y47943D01*
X40718Y47948D01*
X40740Y47960D01*
X40762Y47965D01*
X40779D01*
X40785Y47971D01*
X40790D01*
X40879Y48004D01*
X40957Y48032D01*
X41018Y48070D01*
X41068Y48098D01*
X41107Y48126D01*
X41134Y48148D01*
X41151Y48165D01*
X41156Y48170D01*
X41195Y48220D01*
X41229Y48270D01*
X41256Y48320D01*
X41278Y48370D01*
X41295Y48415D01*
X41306Y48448D01*
X41317Y48470D01*
Y48481D01*
X41328Y48542D01*
X41334Y48614D01*
X41345Y48692D01*
Y48770D01*
X41351Y48842D01*
Y49525D01*
D02*
G37*
G36*
X40479Y45451D02*
X39053Y44929D01*
X40479Y44391D01*
Y45451D01*
D02*
G37*
G36*
X39902Y41777D02*
X38809D01*
Y41200D01*
X38814Y41144D01*
Y41094D01*
X38820Y41044D01*
Y40972D01*
X38825Y40916D01*
X38831Y40878D01*
X38837Y40856D01*
Y40850D01*
X38853Y40783D01*
X38875Y40722D01*
X38903Y40667D01*
X38936Y40622D01*
X38964Y40589D01*
X38986Y40561D01*
X39003Y40545D01*
X39009Y40539D01*
X39064Y40495D01*
X39120Y40467D01*
X39181Y40445D01*
X39236Y40428D01*
X39286Y40417D01*
X39325Y40411D01*
X39347D01*
X39358D01*
X39419Y40417D01*
X39475Y40423D01*
X39525Y40439D01*
X39569Y40456D01*
X39608Y40472D01*
X39636Y40484D01*
X39652Y40495D01*
X39658Y40500D01*
X39702Y40534D01*
X39741Y40578D01*
X39775Y40617D01*
X39802Y40656D01*
X39819Y40689D01*
X39836Y40717D01*
X39841Y40739D01*
X39847Y40745D01*
X39858Y40778D01*
X39863Y40817D01*
X39880Y40905D01*
X39891Y41005D01*
X39897Y41105D01*
Y41205D01*
X39902Y41244D01*
Y41777D01*
D02*
G37*
G36*
X39786Y31337D02*
X38809D01*
Y30449D01*
X38814Y30399D01*
Y30277D01*
X38820Y30227D01*
Y30194D01*
X38825Y30177D01*
Y30172D01*
X38842Y30105D01*
X38864Y30044D01*
X38886Y29994D01*
X38914Y29955D01*
X38942Y29922D01*
X38959Y29894D01*
X38975Y29883D01*
X38981Y29878D01*
X39025Y29844D01*
X39081Y29816D01*
X39131Y29800D01*
X39181Y29783D01*
X39225Y29778D01*
X39258Y29772D01*
X39281D01*
X39292D01*
X39353Y29778D01*
X39408Y29783D01*
X39458Y29800D01*
X39503Y29811D01*
X39536Y29828D01*
X39558Y29844D01*
X39575Y29850D01*
X39580Y29855D01*
X39619Y29889D01*
X39652Y29922D01*
X39702Y29994D01*
X39719Y30022D01*
X39730Y30050D01*
X39741Y30066D01*
Y30072D01*
X39747Y30100D01*
X39758Y30144D01*
X39763Y30188D01*
X39769Y30238D01*
X39775Y30355D01*
X39780Y30471D01*
X39786Y30582D01*
Y31337D01*
D02*
G37*
G36*
X30902Y63058D02*
X29809D01*
Y62481D01*
X29814Y62425D01*
Y62375D01*
X29820Y62325D01*
Y62253D01*
X29825Y62198D01*
X29831Y62159D01*
X29836Y62137D01*
Y62131D01*
X29853Y62064D01*
X29875Y62003D01*
X29903Y61948D01*
X29936Y61904D01*
X29964Y61870D01*
X29986Y61843D01*
X30003Y61826D01*
X30009Y61820D01*
X30064Y61776D01*
X30120Y61748D01*
X30181Y61726D01*
X30236Y61709D01*
X30286Y61698D01*
X30325Y61693D01*
X30347D01*
X30358D01*
X30419Y61698D01*
X30475Y61704D01*
X30525Y61720D01*
X30569Y61737D01*
X30608Y61754D01*
X30636Y61765D01*
X30652Y61776D01*
X30658Y61782D01*
X30702Y61815D01*
X30741Y61859D01*
X30775Y61898D01*
X30802Y61937D01*
X30819Y61970D01*
X30836Y61998D01*
X30841Y62020D01*
X30847Y62026D01*
X30858Y62059D01*
X30863Y62098D01*
X30880Y62187D01*
X30891Y62287D01*
X30897Y62386D01*
Y62486D01*
X30902Y62525D01*
Y63058D01*
D02*
G37*
G36*
X31141Y53351D02*
X31108D01*
X31085D01*
X31080D01*
X30958Y53346D01*
X30847Y53340D01*
X30741Y53323D01*
X30641Y53307D01*
X30553Y53284D01*
X30469Y53262D01*
X30397Y53234D01*
X30331Y53207D01*
X30269Y53179D01*
X30220Y53151D01*
X30181Y53129D01*
X30142Y53107D01*
X30114Y53090D01*
X30097Y53074D01*
X30086Y53068D01*
X30081Y53062D01*
X30020Y53007D01*
X29970Y52946D01*
X29925Y52879D01*
X29886Y52818D01*
X29853Y52752D01*
X29831Y52685D01*
X29787Y52563D01*
X29764Y52452D01*
X29759Y52407D01*
X29753Y52363D01*
X29748Y52330D01*
Y52285D01*
X29753Y52197D01*
X29764Y52113D01*
X29776Y52036D01*
X29798Y51964D01*
X29853Y51836D01*
X29881Y51775D01*
X29909Y51725D01*
X29942Y51675D01*
X29970Y51636D01*
X29998Y51603D01*
X30025Y51569D01*
X30047Y51547D01*
X30059Y51531D01*
X30070Y51525D01*
X30075Y51520D01*
X30142Y51470D01*
X30214Y51420D01*
X30286Y51381D01*
X30369Y51348D01*
X30536Y51297D01*
X30697Y51264D01*
X30769Y51248D01*
X30841Y51242D01*
X30902Y51236D01*
X30958Y51231D01*
X31008Y51225D01*
X31041D01*
X31063D01*
X31069D01*
X31191Y51231D01*
X31307Y51236D01*
X31413Y51253D01*
X31507Y51270D01*
X31601Y51292D01*
X31685Y51320D01*
X31757Y51348D01*
X31823Y51375D01*
X31885Y51403D01*
X31934Y51431D01*
X31979Y51453D01*
X32018Y51481D01*
X32045Y51497D01*
X32062Y51514D01*
X32073Y51520D01*
X32079Y51525D01*
X32140Y51581D01*
X32190Y51642D01*
X32234Y51708D01*
X32273Y51769D01*
X32301Y51836D01*
X32329Y51897D01*
X32367Y52019D01*
X32395Y52125D01*
X32401Y52169D01*
X32406Y52208D01*
X32412Y52241D01*
Y52285D01*
X32406Y52369D01*
X32395Y52452D01*
X32378Y52530D01*
X32356Y52602D01*
X32306Y52735D01*
X32240Y52840D01*
X32212Y52890D01*
X32179Y52929D01*
X32151Y52968D01*
X32123Y52996D01*
X32107Y53018D01*
X32090Y53035D01*
X32079Y53046D01*
X32073Y53051D01*
X32007Y53101D01*
X31934Y53151D01*
X31857Y53190D01*
X31773Y53223D01*
X31613Y53279D01*
X31452Y53312D01*
X31374Y53323D01*
X31307Y53334D01*
X31241Y53340D01*
X31185Y53346D01*
X31141Y53351D01*
D02*
G37*
G36*
X30786Y37112D02*
X29809D01*
Y36224D01*
X29814Y36174D01*
Y36052D01*
X29820Y36002D01*
Y35968D01*
X29825Y35952D01*
Y35946D01*
X29842Y35880D01*
X29864Y35819D01*
X29886Y35769D01*
X29914Y35730D01*
X29942Y35697D01*
X29959Y35669D01*
X29975Y35658D01*
X29981Y35652D01*
X30025Y35619D01*
X30081Y35591D01*
X30131Y35574D01*
X30181Y35558D01*
X30225Y35552D01*
X30258Y35547D01*
X30281D01*
X30292D01*
X30353Y35552D01*
X30408Y35558D01*
X30458Y35574D01*
X30503Y35585D01*
X30536Y35602D01*
X30558Y35619D01*
X30575Y35624D01*
X30580Y35630D01*
X30619Y35663D01*
X30652Y35697D01*
X30702Y35769D01*
X30719Y35796D01*
X30730Y35824D01*
X30741Y35841D01*
Y35846D01*
X30747Y35874D01*
X30758Y35919D01*
X30763Y35963D01*
X30769Y36013D01*
X30775Y36129D01*
X30780Y36246D01*
X30786Y36357D01*
Y37112D01*
D02*
G37*
%LPD*%
M02*
