G04*
G04 #@! TF.GenerationSoftware,Altium Limited,Altium Designer,23.10.1 (27)*
G04*
G04 Layer_Color=65535*
%FSLAX25Y25*%
%MOIN*%
G70*
G04*
G04 #@! TF.SameCoordinates,FFBA53F6-91E3-44B8-98AB-023B85DF69A1*
G04*
G04*
G04 #@! TF.FilePolarity,Positive*
G04*
G01*
G75*
%ADD10C,0.00000*%
%ADD11C,0.00500*%
%ADD12C,0.00591*%
%ADD13C,0.00600*%
%ADD14C,0.00787*%
%ADD15C,0.01181*%
D10*
X35307Y84575D02*
G03*
X35307Y84575I-500J0D01*
G01*
D11*
X32909Y28228D02*
X34091D01*
X32909Y31772D02*
X34091D01*
X40713Y81425D02*
X42287D01*
X40713Y84575D02*
X42287D01*
D12*
X27029Y54106D02*
Y57256D01*
Y54106D02*
X29785Y55681D01*
X27029Y57256D02*
X29785Y55681D01*
X16202Y65917D02*
X23092D01*
Y64539D02*
Y65917D01*
X16202Y35209D02*
X23092D01*
Y36587D01*
D13*
X5572Y65917D02*
X6360D01*
X5572Y35209D02*
X6360D01*
X23700Y2400D02*
Y7390D01*
X48300Y12610D02*
Y17600D01*
Y2400D02*
Y7390D01*
X23700Y2400D02*
X48300D01*
X23700Y12610D02*
Y17600D01*
X48300D01*
D14*
X57500Y76331D02*
X80500D01*
X57500Y17669D02*
Y76331D01*
Y17669D02*
X80500D01*
Y76185D01*
D15*
X34149Y36830D02*
X33624Y37355D01*
X32575D01*
X32050Y36830D01*
Y34731D01*
X32575Y34206D01*
X33624D01*
X34149Y34731D01*
X35199Y34206D02*
X36248D01*
X35723D01*
Y37355D01*
X35199Y36830D01*
X13975Y72574D02*
X12926D01*
X13451D01*
Y69950D01*
X12926Y69426D01*
X12401D01*
X11876Y69950D01*
X17124Y69426D02*
X15025D01*
X17124Y71525D01*
Y72049D01*
X16599Y72574D01*
X15550D01*
X15025Y72049D01*
X28681Y24117D02*
Y20181D01*
X30649D01*
X31305Y20837D01*
Y21493D01*
X30649Y22149D01*
X28681D01*
X30649D01*
X31305Y22805D01*
Y23461D01*
X30649Y24117D01*
X28681D01*
X34585D02*
X33273D01*
X32617Y23461D01*
Y20837D01*
X33273Y20181D01*
X34585D01*
X35241Y20837D01*
Y23461D01*
X34585Y24117D01*
X38520D02*
X37209D01*
X36553Y23461D01*
Y20837D01*
X37209Y20181D01*
X38520D01*
X39176Y20837D01*
Y23461D01*
X38520Y24117D01*
X40488D02*
X43112D01*
X41800D01*
Y20181D01*
X32681Y74181D02*
Y78117D01*
X34649D01*
X35305Y77461D01*
Y76149D01*
X34649Y75493D01*
X32681D01*
X38585Y78117D02*
X37273D01*
X36617Y77461D01*
Y74837D01*
X37273Y74181D01*
X38585D01*
X39241Y74837D01*
Y77461D01*
X38585Y78117D01*
X40553D02*
Y74181D01*
X41864Y75493D01*
X43176Y74181D01*
Y78117D01*
X47112D02*
X44488D01*
Y74181D01*
X47112D01*
X44488Y76149D02*
X45800D01*
X48424Y74181D02*
Y78117D01*
X50392D01*
X51048Y77461D01*
Y76149D01*
X50392Y75493D01*
X48424D01*
X49736D02*
X51048Y74181D01*
X69500Y80574D02*
X68450D01*
X68975D01*
Y77951D01*
X68450Y77426D01*
X67926D01*
X67401Y77951D01*
X70549Y77426D02*
X71599D01*
X71074D01*
Y80574D01*
X70549Y80050D01*
X46401Y34426D02*
Y37574D01*
X47975D01*
X48500Y37049D01*
Y36000D01*
X47975Y35475D01*
X46401D01*
X47451D02*
X48500Y34426D01*
X49549D02*
X50599D01*
X50074D01*
Y37574D01*
X49549Y37049D01*
X22876Y86926D02*
Y90074D01*
X24451D01*
X24975Y89549D01*
Y88500D01*
X24451Y87975D01*
X22876D01*
X23926D02*
X24975Y86926D01*
X28124D02*
X26025D01*
X28124Y89025D01*
Y89549D01*
X27599Y90074D01*
X26550D01*
X26025Y89549D01*
X38901Y90574D02*
Y87426D01*
X40475D01*
X41000Y87950D01*
Y90049D01*
X40475Y90574D01*
X38901D01*
X42050Y87426D02*
X43099D01*
X42574D01*
Y90574D01*
X42050Y90049D01*
X13451Y9426D02*
X12926Y8901D01*
Y7851D01*
X13451Y7327D01*
X13975D01*
X14500Y7851D01*
Y8901D01*
X15025Y9426D01*
X15550D01*
X16074Y8901D01*
Y7851D01*
X15550Y7327D01*
X12926Y10475D02*
X16074D01*
X15025Y11525D01*
X16074Y12574D01*
X12926D01*
X16074Y13624D02*
Y14673D01*
Y14149D01*
X12926D01*
X13451Y13624D01*
M02*
