G04*
G04 #@! TF.GenerationSoftware,Altium Limited,Altium Designer,23.10.1 (27)*
G04*
G04 Layer_Color=2752767*
%FSLAX25Y25*%
%MOIN*%
G70*
G04*
G04 #@! TF.SameCoordinates,FFBA53F6-91E3-44B8-98AB-023B85DF69A1*
G04*
G04*
G04 #@! TF.FilePolarity,Positive*
G04*
G01*
G75*
%ADD11C,0.00500*%
%ADD44C,0.00667*%
D11*
X11281Y62343D02*
X9281Y66343D01*
X13281D01*
X11281Y62343D01*
Y34784D02*
X9281Y38783D01*
X13281D01*
X11281Y34784D01*
X67500Y25315D02*
Y29315D01*
X71500D01*
Y25315D01*
X67500D01*
Y35157D02*
Y39158D01*
X71500D01*
Y35157D01*
X67500D01*
Y45000D02*
Y49000D01*
X71500D01*
Y45000D01*
X67500D01*
Y54843D02*
Y58842D01*
X71500D01*
Y54843D01*
X67500D01*
Y64685D02*
Y68685D01*
X71500D01*
Y64685D01*
X67500D01*
X59055Y80677D02*
X60055Y81677D01*
X61055D01*
X60055Y82677D01*
X61055Y83677D01*
X60055D01*
X59055Y84677D01*
X58055Y83677D01*
X57055D01*
X58055Y82677D01*
X57055Y81677D01*
X58055D01*
X59055Y80677D01*
Y57055D02*
X60055Y58055D01*
X61055D01*
X60055Y59055D01*
X61055Y60055D01*
X60055D01*
X59055Y61055D01*
X58055Y60055D01*
X57055D01*
X58055Y59055D01*
X57055Y58055D01*
X58055D01*
X59055Y57055D01*
Y33433D02*
X60055Y34433D01*
X61055D01*
X60055Y35433D01*
X61055Y36433D01*
X60055D01*
X59055Y37433D01*
X58055Y36433D01*
X57055D01*
X58055Y35433D01*
X57055Y34433D01*
X58055D01*
X59055Y33433D01*
X64961Y21622D02*
X65961Y22622D01*
X66961D01*
X65961Y23622D01*
X66961Y24622D01*
X65961D01*
X64961Y25622D01*
X63961Y24622D01*
X62961D01*
X63961Y23622D01*
X62961Y22622D01*
X63961D01*
X64961Y21622D01*
X59055Y9811D02*
X60055Y10811D01*
X61055D01*
X60055Y11811D01*
X61055Y12811D01*
X60055D01*
X59055Y13811D01*
X58055Y12811D01*
X57055D01*
X58055Y11811D01*
X57055Y10811D01*
X58055D01*
X59055Y9811D01*
X53150Y68866D02*
X54150Y69866D01*
X55150D01*
X54150Y70866D01*
X55150Y71866D01*
X54150D01*
X53150Y72866D01*
X52150Y71866D01*
X51150D01*
X52150Y70866D01*
X51150Y69866D01*
X52150D01*
X53150Y68866D01*
X47244Y57055D02*
X48244Y58055D01*
X49244D01*
X48244Y59055D01*
X49244Y60055D01*
X48244D01*
X47244Y61055D01*
X46244Y60055D01*
X45244D01*
X46244Y59055D01*
X45244Y58055D01*
X46244D01*
X47244Y57055D01*
X53150Y45244D02*
X54150Y46244D01*
X55150D01*
X54150Y47244D01*
X55150Y48244D01*
X54150D01*
X53150Y49244D01*
X52150Y48244D01*
X51150D01*
X52150Y47244D01*
X51150Y46244D01*
X52150D01*
X53150Y45244D01*
X47244Y33433D02*
X48244Y34433D01*
X49244D01*
X48244Y35433D01*
X49244Y36433D01*
X48244D01*
X47244Y37433D01*
X46244Y36433D01*
X45244D01*
X46244Y35433D01*
X45244Y34433D01*
X46244D01*
X47244Y33433D01*
X53150Y21622D02*
X54150Y22622D01*
X55150D01*
X54150Y23622D01*
X55150Y24622D01*
X54150D01*
X53150Y25622D01*
X52150Y24622D01*
X51150D01*
X52150Y23622D01*
X51150Y22622D01*
X52150D01*
X53150Y21622D01*
X41339Y68866D02*
X42339Y69866D01*
X43339D01*
X42339Y70866D01*
X43339Y71866D01*
X42339D01*
X41339Y72866D01*
X40339Y71866D01*
X39339D01*
X40339Y70866D01*
X39339Y69866D01*
X40339D01*
X41339Y68866D01*
X35433Y57055D02*
X36433Y58055D01*
X37433D01*
X36433Y59055D01*
X37433Y60055D01*
X36433D01*
X35433Y61055D01*
X34433Y60055D01*
X33433D01*
X34433Y59055D01*
X33433Y58055D01*
X34433D01*
X35433Y57055D01*
X41339Y45244D02*
X42339Y46244D01*
X43339D01*
X42339Y47244D01*
X43339Y48244D01*
X42339D01*
X41339Y49244D01*
X40339Y48244D01*
X39339D01*
X40339Y47244D01*
X39339Y46244D01*
X40339D01*
X41339Y45244D01*
X35433Y33433D02*
X36433Y34433D01*
X37433D01*
X36433Y35433D01*
X37433Y36433D01*
X36433D01*
X35433Y37433D01*
X34433Y36433D01*
X33433D01*
X34433Y35433D01*
X33433Y34433D01*
X34433D01*
X35433Y33433D01*
X41339Y21622D02*
X42339Y22622D01*
X43339D01*
X42339Y23622D01*
X43339Y24622D01*
X42339D01*
X41339Y25622D01*
X40339Y24622D01*
X39339D01*
X40339Y23622D01*
X39339Y22622D01*
X40339D01*
X41339Y21622D01*
X35433Y9811D02*
X36433Y10811D01*
X37433D01*
X36433Y11811D01*
X37433Y12811D01*
X36433D01*
X35433Y13811D01*
X34433Y12811D01*
X33433D01*
X34433Y11811D01*
X33433Y10811D01*
X34433D01*
X35433Y9811D01*
X29528Y68866D02*
X30528Y69866D01*
X31528D01*
X30528Y70866D01*
X31528Y71866D01*
X30528D01*
X29528Y72866D01*
X28528Y71866D01*
X27528D01*
X28528Y70866D01*
X27528Y69866D01*
X28528D01*
X29528Y68866D01*
Y45244D02*
X30528Y46244D01*
X31528D01*
X30528Y47244D01*
X31528Y48244D01*
X30528D01*
X29528Y49244D01*
X28528Y48244D01*
X27528D01*
X28528Y47244D01*
X27528Y46244D01*
X28528D01*
X29528Y45244D01*
X23622Y33433D02*
X24622Y34433D01*
X25622D01*
X24622Y35433D01*
X25622Y36433D01*
X24622D01*
X23622Y37433D01*
X22622Y36433D01*
X21622D01*
X22622Y35433D01*
X21622Y34433D01*
X22622D01*
X23622Y33433D01*
X29528Y21622D02*
X30528Y22622D01*
X31528D01*
X30528Y23622D01*
X31528Y24622D01*
X30528D01*
X29528Y25622D01*
X28528Y24622D01*
X27528D01*
X28528Y23622D01*
X27528Y22622D01*
X28528D01*
X29528Y21622D01*
X11811Y80677D02*
X12811Y81677D01*
X13811D01*
X12811Y82677D01*
X13811Y83677D01*
X12811D01*
X11811Y84677D01*
X10811Y83677D01*
X9811D01*
X10811Y82677D01*
X9811Y81677D01*
X10811D01*
X11811Y80677D01*
X17717Y68866D02*
X18717Y69866D01*
X19716D01*
X18717Y70866D01*
X19716Y71866D01*
X18717D01*
X17717Y72866D01*
X16716Y71866D01*
X15717D01*
X16716Y70866D01*
X15717Y69866D01*
X16716D01*
X17717Y68866D01*
Y21622D02*
X18717Y22622D01*
X19716D01*
X18717Y23622D01*
X19716Y24622D01*
X18717D01*
X17717Y25622D01*
X16716Y24622D01*
X15717D01*
X16716Y23622D01*
X15717Y22622D01*
X16716D01*
X17717Y21622D01*
X11811Y9811D02*
X12811Y10811D01*
X13811D01*
X12811Y11811D01*
X13811Y12811D01*
X12811D01*
X11811Y13811D01*
X10811Y12811D01*
X9811D01*
X10811Y11811D01*
X9811Y10811D01*
X10811D01*
X11811Y9811D01*
D44*
X23911Y60405D02*
G03*
X23911Y60405I-2000J0D01*
G01*
Y40720D02*
G03*
X23911Y40720I-2000J0D01*
G01*
M02*
