M48
;Layer_Color=9474304
;FILE_FORMAT=2:4
INCH,TZ
;TYPE=PLATED
T01F00S00C0.0118
T03F00S00C0.0335
T04F00S00C0.0433
%
T01
X1181Y1181
X1772Y2362
X2953
X4134
X5315
X6496
X5906Y3543
X4724
X3543
X2362
X2953Y4724
X4134
X5315
X5906Y5906
X4724
X3543
X4134Y7087
X5315
X5906Y8268
X2953Y7087
X1772
X1181Y8268
X3543Y1181
X5906
T03
X2191Y4072
Y6041
T04
X6950Y2731
Y3716
Y4700
Y5684
Y6668
M30
