G04*
G04 #@! TF.GenerationSoftware,Altium Limited,Altium Designer,23.10.1 (27)*
G04*
G04 Layer_Color=0*
%FSLAX25Y25*%
%MOIN*%
G70*
G04*
G04 #@! TF.SameCoordinates,FFBA53F6-91E3-44B8-98AB-023B85DF69A1*
G04*
G04*
G04 #@! TF.FilePolarity,Positive*
G04*
G01*
G75*
%ADD45C,0.00100*%
G36*
X65595Y9000D02*
Y8418D01*
X65821Y7277D01*
X66267Y6203D01*
X66913Y5235D01*
X67735Y4413D01*
X68703Y3767D01*
X69777Y3321D01*
X70918Y3094D01*
X71500D01*
X72082D01*
X73223Y3321D01*
X74297Y3767D01*
X75265Y4413D01*
X76087Y5235D01*
X76733Y6203D01*
X77179Y7277D01*
X77406Y8418D01*
Y9000D01*
Y9582D01*
X77179Y10723D01*
X76733Y11797D01*
X76087Y12765D01*
X75265Y13587D01*
X74297Y14233D01*
X73223Y14679D01*
X72082Y14906D01*
X71500D01*
X70918D01*
X69777Y14679D01*
X68703Y14233D01*
X67735Y13587D01*
X66913Y12765D01*
X66267Y11797D01*
X65821Y10723D01*
X65595Y9582D01*
Y9000D01*
D01*
D02*
G37*
G36*
X71500Y83042D02*
X70918D01*
X69777Y83268D01*
X68703Y83714D01*
X67735Y84360D01*
X66913Y85182D01*
X66267Y86150D01*
X65821Y87225D01*
X65595Y88365D01*
Y88947D01*
Y89529D01*
X65821Y90670D01*
X66267Y91744D01*
X66913Y92712D01*
X67735Y93534D01*
X68703Y94181D01*
X69777Y94626D01*
X70918Y94853D01*
X71500D01*
X72082D01*
X73223Y94626D01*
X74297Y94181D01*
X75265Y93534D01*
X76087Y92712D01*
X76733Y91744D01*
X77179Y90670D01*
X77406Y89529D01*
Y88947D01*
Y88365D01*
X77179Y87225D01*
X76733Y86150D01*
X76087Y85182D01*
X75265Y84360D01*
X74297Y83714D01*
X73223Y83268D01*
X72082Y83042D01*
X71500D01*
D01*
D02*
G37*
D45*
X6000Y0D02*
Y98425D01*
X92614D01*
Y0D01*
X6000D01*
M02*
