G04*
G04 #@! TF.GenerationSoftware,Altium Limited,Altium Designer,23.10.1 (27)*
G04*
G04 Layer_Color=8388736*
%FSLAX25Y25*%
%MOIN*%
G70*
G04*
G04 #@! TF.SameCoordinates,FFBA53F6-91E3-44B8-98AB-023B85DF69A1*
G04*
G04*
G04 #@! TF.FilePolarity,Negative*
G04*
G01*
G75*
%ADD21R,0.05600X0.02600*%
%ADD22R,0.05131X0.04737*%
%ADD23R,0.05815X0.02075*%
%ADD24R,0.07980X0.06406*%
%ADD25R,0.04304X0.04461*%
%ADD26R,0.03950X0.03950*%
%ADD27C,0.06209*%
%ADD28C,0.07296*%
%ADD29R,0.07296X0.07296*%
G36*
X15258Y36158D02*
X15246Y36043D01*
X15222Y35929D01*
X15194Y35815D01*
X15163Y35705D01*
X15124Y35594D01*
X15080Y35488D01*
X15029Y35382D01*
X14974Y35280D01*
X14915Y35181D01*
X14848Y35087D01*
X14777Y34992D01*
X14702Y34905D01*
X14620Y34823D01*
X14537Y34740D01*
X14450Y34665D01*
X14356Y34595D01*
X14261Y34528D01*
X14163Y34468D01*
X14061Y34413D01*
X13954Y34362D01*
X13848Y34319D01*
X13738Y34280D01*
X13628Y34248D01*
X13513Y34220D01*
X13399Y34197D01*
X13285Y34185D01*
X13167Y34173D01*
X13053D01*
X9509D01*
X9395D01*
X9277Y34185D01*
X9163Y34197D01*
X9049Y34220D01*
X8935Y34248D01*
X8824Y34280D01*
X8714Y34319D01*
X8608Y34362D01*
X8502Y34413D01*
X8399Y34468D01*
X8301Y34528D01*
X8206Y34595D01*
X8112Y34665D01*
X8025Y34740D01*
X7942Y34823D01*
X7860Y34905D01*
X7785Y34992D01*
X7714Y35087D01*
X7647Y35181D01*
X7588Y35280D01*
X7533Y35382D01*
X7482Y35488D01*
X7439Y35594D01*
X7399Y35705D01*
X7368Y35815D01*
X7340Y35929D01*
X7316Y36043D01*
X7305Y36158D01*
X7293Y36276D01*
X7289Y36390D01*
X7291Y41758D01*
X7289Y41760D01*
X15269D01*
Y36276D01*
X15258Y36158D01*
D02*
G37*
G36*
X7289Y59366D02*
X7291Y59368D01*
X7289Y64736D01*
X7293Y64850D01*
X7305Y64969D01*
X7316Y65083D01*
X7340Y65197D01*
X7368Y65311D01*
X7399Y65421D01*
X7439Y65531D01*
X7482Y65638D01*
X7533Y65744D01*
X7588Y65847D01*
X7647Y65945D01*
X7714Y66039D01*
X7785Y66134D01*
X7860Y66220D01*
X7942Y66303D01*
X8025Y66386D01*
X8112Y66461D01*
X8206Y66531D01*
X8301Y66598D01*
X8399Y66658D01*
X8502Y66713D01*
X8608Y66764D01*
X8714Y66807D01*
X8824Y66847D01*
X8935Y66878D01*
X9049Y66905D01*
X9163Y66929D01*
X9277Y66941D01*
X9395Y66953D01*
X9509D01*
X13053D01*
X13167D01*
X13285Y66941D01*
X13399Y66929D01*
X13513Y66905D01*
X13628Y66878D01*
X13738Y66847D01*
X13848Y66807D01*
X13954Y66764D01*
X14061Y66713D01*
X14163Y66658D01*
X14261Y66598D01*
X14356Y66531D01*
X14450Y66461D01*
X14537Y66386D01*
X14620Y66303D01*
X14702Y66220D01*
X14777Y66134D01*
X14848Y66039D01*
X14915Y65945D01*
X14974Y65847D01*
X15029Y65744D01*
X15080Y65638D01*
X15124Y65531D01*
X15163Y65421D01*
X15194Y65311D01*
X15222Y65197D01*
X15246Y65083D01*
X15258Y64969D01*
X15269Y64850D01*
Y59366D01*
X7289D01*
D02*
G37*
D21*
X21650Y10000D02*
D03*
X50350D02*
D03*
D22*
X36847Y30000D02*
D03*
X30154D02*
D03*
D23*
X21813Y55681D02*
D03*
Y53122D02*
D03*
Y50563D02*
D03*
Y48004D02*
D03*
Y45445D02*
D03*
D24*
X11281Y54500D02*
D03*
Y46626D02*
D03*
D25*
X51705Y30000D02*
D03*
X45295D02*
D03*
X28705Y83000D02*
D03*
X22295D02*
D03*
D26*
X44453D02*
D03*
X38547D02*
D03*
D27*
X21911Y60405D02*
D03*
Y40720D02*
D03*
D28*
X69500Y27315D02*
D03*
Y37157D02*
D03*
Y47000D02*
D03*
Y56842D02*
D03*
D29*
Y66685D02*
D03*
M02*
